<svg width="20" height="20" viewBox="0 0 20 20" fill="none" xmlns="http://www.w3.org/2000/svg">
<path d="M16.1797 6.92966L16 6.75779L17.9453 4.82029C18.045 4.69885 18.0959 4.54469 18.0882 4.38778C18.0805 4.23087 18.0147 4.08244 17.9036 3.97136C17.7925 3.86027 17.6441 3.79448 17.4872 3.78677C17.3303 3.77907 17.1761 3.83 17.0547 3.92966L15.0313 5.96091C13.56 4.92578 11.8043 4.37155 10.0053 4.37435C8.2064 4.37715 6.45244 4.93684 4.98438 5.97654L2.94531 3.92966C2.82388 3.83 2.66972 3.77907 2.51281 3.78677C2.3559 3.79448 2.20747 3.86027 2.09638 3.97136C1.9853 4.08244 1.91951 4.23087 1.9118 4.38778C1.90409 4.54469 1.95503 4.69885 2.05469 4.82029L4.01563 6.77341C3.14118 7.60203 2.44491 8.60029 1.96939 9.70715C1.49387 10.814 1.24909 12.0062 1.25 13.2109V15C1.25 15.3315 1.3817 15.6494 1.61612 15.8839C1.85054 16.1183 2.16848 16.25 2.5 16.25H17.5C17.8315 16.25 18.1495 16.1183 18.3839 15.8839C18.6183 15.6494 18.75 15.3315 18.75 15V13.125C18.7535 11.9735 18.5281 10.8328 18.0869 9.76926C17.6456 8.70569 16.9973 7.74045 16.1797 6.92966ZM7.1875 13.125C7.00208 13.125 6.82083 13.07 6.66666 12.967C6.51248 12.864 6.39232 12.7175 6.32136 12.5462C6.25041 12.3749 6.23184 12.1864 6.26802 12.0046C6.30419 11.8227 6.39348 11.6557 6.52459 11.5246C6.6557 11.3935 6.82275 11.3042 7.0046 11.268C7.18646 11.2318 7.37496 11.2504 7.54627 11.3213C7.71757 11.3923 7.86399 11.5125 7.967 11.6666C8.07002 11.8208 8.125 12.0021 8.125 12.1875C8.125 12.4361 8.02623 12.6746 7.85041 12.8504C7.6746 13.0262 7.43614 13.125 7.1875 13.125ZM12.8125 13.125C12.6271 13.125 12.4458 13.07 12.2917 12.967C12.1375 12.864 12.0173 12.7175 11.9464 12.5462C11.8754 12.3749 11.8568 12.1864 11.893 12.0046C11.9292 11.8227 12.0185 11.6557 12.1496 11.5246C12.2807 11.3935 12.4477 11.3042 12.6296 11.268C12.8115 11.2318 13 11.2504 13.1713 11.3213C13.3426 11.3923 13.489 11.5125 13.592 11.6666C13.695 11.8208 13.75 12.0021 13.75 12.1875C13.75 12.4361 13.6512 12.6746 13.4754 12.8504C13.2996 13.0262 13.0611 13.125 12.8125 13.125Z" fill="currentColor"/>
</svg>
