<svg width="20" height="20" viewBox="0 0 20 20" fill="none" xmlns="http://www.w3.org/2000/svg">
<path d="M17.7421 5.04686L10.2421 1.92186C10.0867 1.8593 9.91315 1.8593 9.75776 1.92186L2.25776 5.04686C2.13155 5.10172 2.02666 5.19623 1.95899 5.31606C1.89132 5.43589 1.86456 5.57452 1.88276 5.71093L3.13276 15.0859C3.14644 15.1865 3.1841 15.2823 3.24257 15.3652C3.30104 15.4481 3.37859 15.5158 3.4687 15.5625L9.7187 18.6875C9.80674 18.7287 9.90275 18.75 9.99995 18.75C10.0971 18.75 10.1931 18.7287 10.2812 18.6875L16.5312 15.5625C16.6213 15.5158 16.6989 15.4481 16.7573 15.3652C16.8158 15.2823 16.8534 15.1865 16.8671 15.0859L18.1171 5.71093C18.1353 5.57452 18.1086 5.43589 18.0409 5.31606C17.9732 5.19623 17.8683 5.10172 17.7421 5.04686ZM13.0937 13.0625C13.005 13.1017 12.9094 13.1229 12.8124 13.125C12.6962 13.1249 12.5821 13.0928 12.4829 13.0321C12.3837 12.9715 12.3031 12.8847 12.2499 12.7812L11.5937 11.4609H8.4062L7.74995 12.7812C7.67535 12.9304 7.54455 13.0439 7.38632 13.0966C7.22809 13.1494 7.05538 13.1371 6.9062 13.0625C6.75701 12.9879 6.64357 12.8571 6.59082 12.6989C6.53808 12.5406 6.55035 12.3679 6.62495 12.2187L9.43745 6.59374C9.49068 6.49045 9.57133 6.40381 9.67056 6.34332C9.76978 6.28283 9.88374 6.25083 9.99995 6.25083C10.1162 6.25083 10.2301 6.28283 10.3293 6.34332C10.4286 6.40381 10.5092 6.49045 10.5624 6.59374L13.3749 12.2187C13.4464 12.3684 13.4571 12.54 13.4046 12.6974C13.3521 12.8547 13.2407 12.9856 13.0937 13.0625ZM9.99995 8.27343L10.9687 10.2109H9.0312L9.99995 8.27343Z" fill="currentColor"/>
</svg>
