<svg width="20" height="20" viewBox="0 0 20 20" fill="none" xmlns="http://www.w3.org/2000/svg">
<path d="M10.0001 11.25C9.56743 11.25 9.1445 11.1217 8.78477 10.8813C8.42503 10.641 8.14466 10.2993 7.97909 9.89962C7.81352 9.49991 7.7702 9.06008 7.85461 8.63574C7.93901 8.21141 8.14735 7.82163 8.45328 7.51571C8.75921 7.20978 9.14898 7.00144 9.57332 6.91704C9.99765 6.83263 10.4375 6.87595 10.8372 7.04152C11.2369 7.20708 11.5785 7.48746 11.8189 7.84719C12.0593 8.20693 12.1876 8.62986 12.1876 9.0625C12.1855 9.64203 11.9544 10.1972 11.5446 10.607C11.1348 11.0168 10.5796 11.2479 10.0001 11.25ZM10.9766 11.25H9.02351C8.79325 11.25 8.56588 11.3012 8.35781 11.3998C8.14974 11.4985 7.96618 11.6421 7.82039 11.8203C7.67113 11.9976 7.56405 12.2064 7.50721 12.431C7.45038 12.6557 7.44526 12.8903 7.49226 13.1172L8.24226 16.8672C8.31408 17.2209 8.50555 17.539 8.78443 17.7681C9.06332 17.9972 9.41261 18.1232 9.77351 18.125H10.2266C10.5875 18.1232 10.9368 17.9972 11.2157 17.7681C11.4946 17.539 11.6861 17.2209 11.7579 16.8672L12.5079 13.1172C12.5549 12.8903 12.5498 12.6557 12.4929 12.431C12.4361 12.2064 12.329 11.9976 12.1798 11.8203C12.034 11.6421 11.8504 11.4985 11.6423 11.3998C11.4343 11.3012 11.2069 11.25 10.9766 11.25ZM14.0782 11.5859C14.0251 11.7387 14.0334 11.9062 14.1012 12.053C14.169 12.1999 14.2912 12.3147 14.4419 12.3734C14.5926 12.4321 14.7603 12.43 14.9095 12.3677C15.0588 12.3053 15.1781 12.1875 15.2423 12.0391C15.4975 11.3897 15.6274 10.6978 15.6251 10C15.6251 8.50816 15.0324 7.07742 13.9776 6.02253C12.9227 4.96764 11.4919 4.375 10.0001 4.375C8.50823 4.375 7.07749 4.96764 6.0226 6.02253C4.96771 7.07742 4.37508 8.50816 4.37508 10C4.37198 10.6978 4.5019 11.3899 4.75789 12.0391C4.80327 12.1557 4.88264 12.2561 4.98571 12.3271C5.08879 12.3982 5.21083 12.4366 5.33601 12.4375C5.41397 12.4377 5.49112 12.4218 5.56258 12.3906C5.71663 12.3312 5.84089 12.2132 5.90823 12.0624C5.97557 11.9116 5.9805 11.7403 5.92195 11.5859C5.66441 10.9229 5.5724 10.2072 5.65388 9.50057C5.73537 8.794 5.98789 8.11794 6.38959 7.53097C6.79128 6.94399 7.33002 6.46381 7.95915 6.13201C8.58828 5.80021 9.28881 5.62679 10.0001 5.62679C10.7113 5.62679 11.4119 5.80021 12.041 6.13201C12.6701 6.46381 13.2089 6.94399 13.6106 7.53097C14.0123 8.11794 14.2648 8.794 14.3463 9.50057C14.4278 10.2072 14.3357 10.9229 14.0782 11.5859ZM10.0001 1.875C8.2413 1.8733 6.52946 2.44233 5.12171 3.49661C3.71396 4.55089 2.68631 6.0335 2.19315 7.72172C1.69998 9.40993 1.76792 11.2126 2.38677 12.8589C3.00562 14.5052 4.14196 15.9062 5.62508 16.8516C5.76494 16.9417 5.93487 16.9726 6.0975 16.9374C6.26013 16.9023 6.40213 16.8039 6.49226 16.6641C6.5824 16.5242 6.61328 16.3543 6.57811 16.1916C6.54295 16.029 6.44462 15.887 6.30476 15.7969C5.05031 14.9973 4.08906 13.8124 3.56529 12.42C3.04153 11.0277 2.98352 9.50297 3.39996 8.07483C3.81641 6.6467 4.68485 5.39217 5.87491 4.49956C7.06498 3.60696 8.51246 3.12444 10.0001 3.12444C11.4877 3.12444 12.9352 3.60696 14.1252 4.49956C15.3153 5.39217 16.1837 6.6467 16.6002 8.07483C17.0166 9.50297 16.9586 11.0277 16.4349 12.42C15.9111 13.8124 14.9498 14.9973 13.6954 15.7969C13.5824 15.8706 13.4964 15.9788 13.45 16.1055C13.4036 16.2321 13.3995 16.3703 13.4382 16.4995C13.4768 16.6287 13.5562 16.742 13.6646 16.8223C13.7729 16.9026 13.9043 16.9458 14.0391 16.9453C14.1573 16.9435 14.273 16.9112 14.3751 16.8516C15.8582 15.9062 16.9945 14.5052 17.6134 12.8589C18.2322 11.2126 18.3002 9.40993 17.807 7.72172C17.3138 6.0335 16.2862 4.55089 14.8784 3.49661C13.4707 2.44233 11.7588 1.8733 10.0001 1.875Z" fill="currentColor"/>
</svg>
