<svg width="20" height="20" viewBox="0 0 20 20" fill="none" xmlns="http://www.w3.org/2000/svg">
<path d="M10.2109 2.3125C10.4399 1.7252 10.8402 1.22037 11.3599 0.863678C11.8796 0.506985 12.4947 0.314933 13.125 0.3125C13.2908 0.3125 13.4497 0.378348 13.5669 0.495558C13.6842 0.612769 13.75 0.77174 13.75 0.9375C13.75 1.10326 13.6842 1.26223 13.5669 1.37944C13.4497 1.49665 13.2908 1.5625 13.125 1.5625C12.7461 1.56368 12.3764 1.67914 12.0642 1.89379C11.752 2.10844 11.5118 2.41229 11.375 2.76562C11.3291 2.88354 11.2486 2.98476 11.144 3.0559C11.0393 3.12704 10.9156 3.16476 10.7891 3.16406C10.7146 3.16246 10.6408 3.14928 10.5703 3.125C10.4931 3.0956 10.4225 3.05119 10.3625 2.99432C10.3026 2.93746 10.2545 2.86928 10.2211 2.79372C10.1877 2.71816 10.1696 2.63673 10.1678 2.55413C10.1661 2.47153 10.1807 2.3894 10.2109 2.3125ZM17.3438 12.1719C16.8443 11.921 16.4212 11.5408 16.1187 11.0708C15.8162 10.6008 15.6452 10.0583 15.6237 9.49978C15.6021 8.94126 15.7308 8.38719 15.9962 7.8953C16.2617 7.40342 16.6542 6.99172 17.1328 6.70312C17.2071 6.65599 17.2709 6.59406 17.3202 6.5212C17.3695 6.44833 17.4033 6.36609 17.4194 6.2796C17.4355 6.19311 17.4337 6.10422 17.4139 6.01848C17.3942 5.93274 17.357 5.85199 17.3047 5.78125C16.4554 4.69926 15.2197 3.98882 13.8573 3.7994C12.4949 3.60998 11.1122 3.95635 10 4.76562C9.20744 4.18912 8.27085 3.8431 7.29385 3.76583C6.31684 3.68856 5.33751 3.88306 4.46418 4.32781C3.59085 4.77256 2.85757 5.45023 2.34546 6.28584C1.83335 7.12145 1.56237 8.08244 1.5625 9.0625C1.5813 11.123 2.20327 13.1328 3.35156 14.8438C4.47656 16.5078 5.90625 17.5 7.1875 17.5H12.8125C14.5703 17.5 16.5547 15.6328 17.6484 12.9688C17.71 12.8222 17.7127 12.6576 17.6559 12.5092C17.5992 12.3608 17.4874 12.2399 17.3438 12.1719Z" fill="currentColor"/>
</svg>
