<svg width="20" height="20" viewBox="0 0 20 20" fill="none" xmlns="http://www.w3.org/2000/svg">
<path d="M5.02344 15.9453L4.28906 17.1953C4.23284 17.288 4.15374 17.3647 4.05934 17.4181C3.96495 17.4714 3.85843 17.4996 3.75 17.5C3.63777 17.4982 3.52772 17.4687 3.42969 17.414C3.28789 17.328 3.18552 17.1898 3.14461 17.0291C3.1037 16.8684 3.12752 16.698 3.21094 16.5547L3.95312 15.3047C3.99219 15.2286 4.04644 15.1614 4.11251 15.1072C4.17859 15.053 4.25508 15.0129 4.33727 14.9894C4.41946 14.9659 4.50559 14.9595 4.59035 14.9706C4.6751 14.9817 4.75667 15.0101 4.83002 15.054C4.90336 15.0979 4.96692 15.1564 5.01677 15.2258C5.06662 15.2953 5.10169 15.3742 5.11982 15.4578C5.13794 15.5413 5.13874 15.6277 5.12217 15.7115C5.10559 15.7954 5.07199 15.8749 5.02344 15.9453ZM18.125 12.5H14.3906L11.9922 8.43747C11.9503 8.36648 11.8948 8.30447 11.8289 8.25501C11.763 8.20555 11.6879 8.16962 11.608 8.14929C11.5281 8.12896 11.445 8.12462 11.3635 8.13654C11.2819 8.14846 11.2035 8.17639 11.1328 8.21872C11.0621 8.25984 11.0002 8.31461 10.9509 8.37985C10.9015 8.44509 10.8656 8.51949 10.8452 8.59873C10.8249 8.67797 10.8205 8.76046 10.8323 8.84142C10.8441 8.92237 10.8719 9.00017 10.9141 9.07028L15.7109 17.1953C15.7672 17.288 15.8463 17.3647 15.9407 17.4181C16.0351 17.4714 16.1416 17.4996 16.25 17.5C16.3622 17.4982 16.4723 17.4687 16.5703 17.414C16.7121 17.328 16.8145 17.1898 16.8554 17.0291C16.8963 16.8684 16.8725 16.698 16.7891 16.5547L15.1328 13.75H18.125C18.2908 13.75 18.4497 13.6841 18.5669 13.5669C18.6842 13.4497 18.75 13.2907 18.75 13.125C18.75 12.9592 18.6842 12.8002 18.5669 12.683C18.4497 12.5658 18.2908 12.5 18.125 12.5ZM11.1328 12.5H7.0625L10.5312 6.62497H10.5391L12.4141 3.4531C12.499 3.31013 12.5237 3.13927 12.4827 2.97811C12.4416 2.81694 12.3383 2.67867 12.1953 2.59372C12.0523 2.50877 11.8815 2.48409 11.7203 2.52512C11.5592 2.56614 11.4209 2.6695 11.3359 2.81247L10 5.07028L8.66406 2.80466C8.622 2.73387 8.5664 2.67206 8.50045 2.62275C8.4345 2.57345 8.35948 2.53762 8.27968 2.5173C8.19988 2.49699 8.11686 2.49259 8.03536 2.50437C7.95386 2.51614 7.87548 2.54385 7.80469 2.58591C7.7339 2.62797 7.67208 2.68357 7.62278 2.74952C7.57347 2.81547 7.53764 2.89049 7.51733 2.97029C7.49702 3.05009 7.49262 3.13311 7.50439 3.21461C7.51616 3.29611 7.54387 3.37449 7.58594 3.44528L9.27344 6.29685L5.60938 12.5H1.875C1.70924 12.5 1.55027 12.5658 1.43306 12.683C1.31585 12.8002 1.25 12.9592 1.25 13.125C1.25 13.2907 1.31585 13.4497 1.43306 13.5669C1.55027 13.6841 1.70924 13.75 1.875 13.75H11.1328C11.2986 13.75 11.4575 13.6841 11.5748 13.5669C11.692 13.4497 11.7578 13.2907 11.7578 13.125C11.7578 12.9592 11.692 12.8002 11.5748 12.683C11.4575 12.5658 11.2986 12.5 11.1328 12.5Z" fill="currentColor"/>
</svg>
