<svg width="14" height="14" viewBox="0 0 14 14" fill="none" xmlns="http://www.w3.org/2000/svg">
  <path
    d="M11.1563 3.5V9.1875C11.1563 9.36155 11.0871 9.52847 10.964 9.65154C10.841 9.77461 10.6741 9.84375 10.5 9.84375C10.326 9.84375 10.159 9.77461 10.036 9.65154C9.9129 9.52847 9.84376 9.36155 9.84376 9.1875V5.08594L3.9643 10.9643C3.84102 11.0876 3.67381 11.1568 3.49946 11.1568C3.32511 11.1568 3.1579 11.0876 3.03462 10.9643C2.91133 10.841 2.84207 10.6738 2.84207 10.4995C2.84207 10.3251 2.91133 10.1579 3.03462 10.0346L8.91407 4.15625H4.81251C4.63846 4.15625 4.47154 4.08711 4.34847 3.96404C4.2254 3.84097 4.15626 3.67405 4.15626 3.5C4.15626 3.32595 4.2254 3.15903 4.34847 3.03596C4.47154 2.91289 4.63846 2.84375 4.81251 2.84375H10.5C10.6741 2.84375 10.841 2.91289 10.964 3.03596C11.0871 3.15903 11.1563 3.32595 11.1563 3.5Z"
    fill="currentColor" />
</svg>
