<svg
  xmlns="http://www.w3.org/2000/svg"
  width="20"
  height="20"
  viewBox="0 0 20 20"
  fill="none"
>
  <path
    d="M10.3125 10.625V15.625C10.3125 15.8736 10.2137 16.1121 10.0379 16.2879C9.86206 16.4637 9.62361 16.5625 9.37497 16.5625C9.12633 16.5625 8.88787 16.4637 8.71205 16.2879C8.53624 16.1121 8.43747 15.8736 8.43747 15.625V12.8906L3.78825 17.5383C3.70104 17.6255 3.59751 17.6947 3.48357 17.7419C3.36963 17.7891 3.24751 17.8133 3.12418 17.8133C3.00086 17.8133 2.87874 17.7891 2.7648 17.7419C2.65086 17.6947 2.54733 17.6255 2.46012 17.5383C2.37292 17.4511 2.30374 17.3475 2.25655 17.2336C2.20935 17.1197 2.18506 16.9975 2.18506 16.8742C2.18506 16.7509 2.20935 16.6288 2.25655 16.5148C2.30374 16.4009 2.37292 16.2974 2.46012 16.2102L7.10934 11.5625H4.37497C4.12633 11.5625 3.88787 11.4637 3.71205 11.2879C3.53624 11.1121 3.43747 10.8736 3.43747 10.625C3.43747 10.3764 3.53624 10.1379 3.71205 9.96209C3.88787 9.78627 4.12633 9.6875 4.37497 9.6875H9.37497C9.62361 9.6875 9.86206 9.78627 10.0379 9.96209C10.2137 10.1379 10.3125 10.3764 10.3125 10.625ZM16.25 2.1875H6.24997C5.83557 2.1875 5.43814 2.35212 5.14511 2.64515C4.85209 2.93817 4.68747 3.3356 4.68747 3.75V7.1875C4.68747 7.43614 4.78624 7.6746 4.96205 7.85041C5.13787 8.02623 5.37633 8.125 5.62497 8.125C5.87361 8.125 6.11206 8.02623 6.28788 7.85041C6.46369 7.6746 6.56247 7.43614 6.56247 7.1875V4.0625H15.9375V13.4375H12.8125C12.5638 13.4375 12.3254 13.5363 12.1496 13.7121C11.9737 13.8879 11.875 14.1264 11.875 14.375C11.875 14.6236 11.9737 14.8621 12.1496 15.0379C12.3254 15.2137 12.5638 15.3125 12.8125 15.3125H16.25C16.6644 15.3125 17.0618 15.1479 17.3548 14.8549C17.6478 14.5618 17.8125 14.1644 17.8125 13.75V3.75C17.8125 3.3356 17.6478 2.93817 17.3548 2.64515C17.0618 2.35212 16.6644 2.1875 16.25 2.1875Z"
    fill="currentColor"
  />
  <path
    opacity="0.2"
    d="M17.0629 3.46985V13.4698C17.0629 13.6356 16.997 13.7946 16.8798 13.9118C16.7626 14.029 16.6036 14.0948 16.4379 14.0948H6.43787C6.27211 14.0948 6.11313 14.029 5.99592 13.9118C5.87871 13.7946 5.81287 13.6356 5.81287 13.4698V3.46985C5.81287 3.30409 5.87871 3.14512 5.99592 3.02791C6.11313 2.9107 6.27211 2.84485 6.43787 2.84485H16.4379C16.6036 2.84485 16.7626 2.9107 16.8798 3.02791C16.997 3.14512 17.0629 3.30409 17.0629 3.46985Z"
    fill="currentColor"
  />
</svg>
