<svg width="20" height="20" viewBox="0 0 20 20" fill="none" xmlns="http://www.w3.org/2000/svg">
<g id="ArrowSquareLeft">
<path id="Vector" opacity="0.2" d="M16.875 3.75V16.25C16.875 16.4158 16.8092 16.5747 16.6919 16.6919C16.5747 16.8092 16.4158 16.875 16.25 16.875H3.75C3.58424 16.875 3.42527 16.8092 3.30806 16.6919C3.19085 16.5747 3.125 16.4158 3.125 16.25V3.75C3.125 3.58424 3.19085 3.42527 3.30806 3.30806C3.42527 3.19085 3.58424 3.125 3.75 3.125H16.25C16.4158 3.125 16.5747 3.19085 16.6919 3.30806C16.8092 3.42527 16.875 3.58424 16.875 3.75Z" fill="currentColor"/>
<path id="Vector_2" d="M16.25 2.5H3.75C3.41848 2.5 3.10054 2.6317 2.86612 2.86612C2.6317 3.10054 2.5 3.41848 2.5 3.75V16.25C2.5 16.5815 2.6317 16.8995 2.86612 17.1339C3.10054 17.3683 3.41848 17.5 3.75 17.5H16.25C16.5815 17.5 16.8995 17.3683 17.1339 17.1339C17.3683 16.8995 17.5 16.5815 17.5 16.25V3.75C17.5 3.41848 17.3683 3.10054 17.1339 2.86612C16.8995 2.6317 16.5815 2.5 16.25 2.5ZM16.25 16.25H3.75V3.75H16.25V16.25ZM6.43281 10.4422C6.3747 10.3841 6.3286 10.3152 6.29715 10.2393C6.2657 10.1635 6.24951 10.0821 6.24951 10C6.24951 9.91787 6.2657 9.83654 6.29715 9.76066C6.3286 9.68479 6.3747 9.61586 6.43281 9.55781L8.93281 7.05781C9.05009 6.94054 9.20915 6.87465 9.375 6.87465C9.54085 6.87465 9.69991 6.94054 9.81719 7.05781C9.93446 7.17509 10.0003 7.33415 10.0003 7.5C10.0003 7.66585 9.93446 7.82491 9.81719 7.94219L8.38359 9.375H13.125C13.2908 9.375 13.4497 9.44085 13.5669 9.55806C13.6842 9.67527 13.75 9.83424 13.75 10C13.75 10.1658 13.6842 10.3247 13.5669 10.4419C13.4497 10.5592 13.2908 10.625 13.125 10.625H8.38359L9.81719 12.0578C9.87526 12.1159 9.92132 12.1848 9.95275 12.2607C9.98417 12.3366 10.0003 12.4179 10.0003 12.5C10.0003 12.5821 9.98417 12.6634 9.95275 12.7393C9.92132 12.8152 9.87526 12.8841 9.81719 12.9422C9.75912 13.0003 9.69018 13.0463 9.61431 13.0777C9.53844 13.1092 9.45712 13.1253 9.375 13.1253C9.29288 13.1253 9.21156 13.1092 9.13569 13.0777C9.05982 13.0463 8.99088 13.0003 8.93281 12.9422L6.43281 10.4422Z" fill="currentColor"/>
</g>
</svg>
