<svg width="43" height="44" viewBox="0 0 43 44" fill="none" xmlns="http://www.w3.org/2000/svg">
<g clip-path="url(#clip0_724_85971)">
<path d="M9.18512 40.9629L8.59253 42.4444C8.70253 42.3144 9.61995 41.43 9.69995 41.2766C9.80661 41.15 9.89995 41.0133 9.97661 40.8633C10.0866 40.7366 10.1799 40.5966 10.2566 40.4466C10.3666 40.3166 10.4599 40.18 10.5366 40.03C10.6433 39.9033 10.7399 39.7633 10.8166 39.6133C10.9233 39.4866 11.0166 39.3466 11.0966 39.1966C11.2066 39.0666 11.2999 38.9266 11.3799 38.7733C11.4866 38.6466 11.5799 38.51 11.6566 38.36C11.7633 38.23 11.8599 38.0933 11.9366 37.9433C12.0433 37.8133 12.1366 37.6766 12.2166 37.5266C12.3233 37.3966 12.4199 37.26 12.4966 37.11C12.6066 36.98 12.6999 36.84 12.7799 36.69C12.8866 36.5633 12.9799 36.4233 13.0566 36.2766C13.1633 36.1466 13.2566 36.01 13.3366 35.86C13.4433 35.73 13.5366 35.5933 13.6166 35.4433C13.7233 35.3133 13.8166 35.1766 13.8966 35.0266C14.0066 34.8966 14.0999 34.7566 14.1799 34.6066C14.2866 34.48 14.3799 34.34 14.4566 34.1933C14.5633 34.0633 14.6566 33.9266 14.7366 33.7766C14.8433 33.6466 14.9366 33.51 15.0166 33.36C15.1233 33.23 15.2166 33.09 15.2966 32.9433C15.3733 32.85 15.4433 32.7566 15.5066 32.6533V40.1533C15.5066 41.9133 16.9499 43.3366 18.7266 43.3366H21.6733C22.9633 43.3366 24.0733 42.5866 24.5866 41.5033C24.6433 41.41 24.6933 41.3133 24.7399 41.2166C24.7933 41.1266 24.8433 41.0333 24.8899 40.9366C24.9433 40.85 24.9899 40.76 25.0366 40.6666C25.0933 40.5733 25.1433 40.48 25.1899 40.38C25.2433 40.29 25.2966 40.1966 25.3399 40.1C25.3966 40.01 25.4466 39.9166 25.4899 39.82C25.5433 39.73 25.5966 39.6366 25.6399 39.54C25.6966 39.4466 25.7499 39.35 25.7966 39.25C25.8499 39.1633 25.8966 39.0733 25.9433 38.98C25.9999 38.8866 26.0499 38.7933 26.0966 38.6933C26.1499 38.6033 26.1999 38.5133 26.2433 38.42C26.2999 38.33 26.3499 38.2333 26.3966 38.1366C26.4533 38.0433 26.5033 37.95 26.5499 37.85C26.6033 37.7633 26.6533 37.67 26.6966 37.5766C26.7566 37.48 26.8099 37.38 26.8566 37.28C26.9066 37.1933 26.9566 37.1066 26.9966 37.0166C27.0533 36.9233 27.1033 36.83 27.1499 36.7333C27.2066 36.64 27.2566 36.5466 27.3033 36.45C27.3566 36.36 27.4066 36.27 27.4499 36.1766C27.5066 36.0833 27.5599 35.9866 27.6066 35.8866C27.6599 35.7966 27.7099 35.7066 27.7533 35.61C27.8099 35.5166 27.8599 35.42 27.9066 35.3233C27.9599 35.2333 28.0099 35.14 28.0566 35.0433C28.1099 34.9533 28.1599 34.8633 28.2033 34.7666C28.2599 34.6766 28.3099 34.58 28.3566 34.4833C28.4099 34.3933 28.4633 34.3 28.5066 34.2033C28.5599 34.1133 28.6133 34.02 28.6566 33.9233C28.7133 33.8333 28.7633 33.7366 28.8099 33.64C28.8666 33.5466 28.9199 33.45 28.9666 33.35C29.0199 33.2633 29.0666 33.17 29.1133 33.08C29.1699 32.99 29.2199 32.8966 29.2633 32.8C29.3199 32.71 29.3699 32.6166 29.4133 32.52C29.4699 32.43 29.5199 32.3366 29.5633 32.24C29.6199 32.15 29.6699 32.0566 29.7133 31.96C29.7699 31.87 29.8199 31.7766 29.8633 31.68C29.9199 31.5866 29.9733 31.49 30.0199 31.39C30.0733 31.3033 30.1199 31.2133 30.1666 31.12C30.2233 31.0266 30.2733 30.9333 30.3199 30.8333C30.3733 30.7466 30.4233 30.6566 30.4666 30.5633C30.5233 30.47 30.5733 30.3766 30.6199 30.28C30.6766 30.19 30.7266 30.0933 30.7733 29.9966C30.8266 29.9066 30.8766 29.8133 30.9233 29.72C30.9833 29.6233 31.0366 29.5266 31.0833 29.4233C31.1333 29.3366 31.1799 29.25 31.2233 29.16C31.2799 29.07 31.3299 28.9733 31.3766 28.8766C31.4333 28.7833 31.4833 28.69 31.5299 28.59C31.5833 28.5033 31.6333 28.41 31.6766 28.3166C31.7333 28.2233 31.7866 28.1266 31.8333 28.03C31.8866 27.94 31.9366 27.8466 31.9833 27.7533C32.0399 27.66 32.0899 27.5666 32.1366 27.47C32.1933 27.38 32.2433 27.2866 32.2866 27.1866C32.3399 27.1 32.3899 27.0066 32.4333 26.9133C32.4899 26.82 32.5433 26.7233 32.5899 26.6233C32.6433 26.5333 32.6933 26.4433 32.7366 26.35C32.7899 26.26 32.8399 26.1666 32.8866 26.0733C32.9433 25.98 32.9966 25.8833 33.0433 25.7833C33.0999 25.6933 33.1499 25.5966 33.1966 25.5C33.2233 25.4533 33.2533 25.41 33.2766 25.3633V31.1366V31.7133V40.4966C33.2766 40.4966 33.2766 40.5 33.2766 40.5033C33.2766 40.69 33.2966 40.8733 33.3333 41.05C33.3333 41.0666 33.3399 41.0833 33.3433 41.0966C33.3799 41.26 33.4299 41.4166 33.4899 41.5666C33.4999 41.5933 33.5133 41.62 33.5233 41.6433C33.5866 41.7833 33.6566 41.9133 33.7399 42.04C33.7599 42.07 33.7799 42.1 33.8033 42.13C33.8866 42.2466 33.9799 42.36 34.0799 42.4633C34.1066 42.49 34.1333 42.52 34.1633 42.5466C34.2666 42.6466 34.3799 42.7366 34.4999 42.82C34.5299 42.84 34.5599 42.86 34.5899 42.88C34.7166 42.9633 34.8499 43.0333 34.9899 43.0966C35.0166 43.1066 35.0433 43.12 35.0666 43.13C35.2199 43.19 35.3766 43.24 35.5433 43.2766C35.5599 43.2766 35.5733 43.2833 35.5899 43.2866C35.7699 43.3233 35.9566 43.34 36.1466 43.3433C36.1466 43.3433 36.1499 43.3433 36.1533 43.3433H36.1599H39.7766H39.7833C39.7833 43.3433 39.7866 43.3433 39.7899 43.3433C39.9799 43.3433 40.1666 43.3233 40.3466 43.2866C40.3633 43.2866 40.3766 43.28 40.3933 43.2766C40.5566 43.24 40.7166 43.1933 40.8699 43.13C40.8966 43.12 40.9233 43.1066 40.9466 43.0966C41.0866 43.0366 41.22 42.9633 41.3499 42.88C41.38 42.86 41.41 42.84 41.4399 42.82C41.5599 42.7366 41.6733 42.6466 41.7766 42.5466C41.8066 42.52 41.8333 42.4933 41.8599 42.4633C41.9599 42.36 42.0533 42.25 42.1366 42.13C42.1566 42.1 42.1799 42.07 42.1999 42.04C42.2833 41.9133 42.3566 41.7833 42.4166 41.6433C42.43 41.6166 42.4399 41.59 42.4499 41.5633C42.5133 41.4133 42.5599 41.2566 42.5966 41.0966C42.5999 41.08 42.6033 41.0633 42.6066 41.05C42.6433 40.8733 42.66 40.69 42.6633 40.5033C42.6633 40.5033 42.6633 40.5 42.6633 40.4966V31.7133V31.1333V14.97V14.1233V3.99663C42.6633 3.99663 33.4699 2.39994 33.4366 2.46663C33.4033 2.5333 24.9999 18.4433 24.9566 18.5366C24.9333 18.5766 24.9066 18.6166 24.8866 18.6566V14.23C24.8866 14.23 24.8866 14.2266 24.8866 14.2233C24.8866 14.0366 24.8666 13.8533 24.8299 13.6766C24.8299 13.66 24.8233 13.6433 24.8199 13.6266C24.7833 13.4666 24.7366 13.31 24.6733 13.16C24.6633 13.1333 24.6499 13.1066 24.6399 13.08C24.5766 12.9433 24.5066 12.81 24.4233 12.6833C24.4033 12.6533 24.3833 12.6233 24.3599 12.5933C24.2766 12.4766 24.1833 12.3666 24.0833 12.26C24.0566 12.2333 24.0266 12.2033 23.9999 12.1766C23.8966 12.0766 23.7833 11.9866 23.6633 11.9033C23.6333 11.8833 23.6033 11.8633 23.5733 11.8433C23.4466 11.7633 23.3133 11.69 23.1733 11.63C23.1466 11.6166 23.1199 11.6066 23.0933 11.5966C22.9399 11.5366 22.7833 11.4866 22.6199 11.45C22.6033 11.4466 22.5866 11.4433 22.5733 11.44C22.3933 11.4033 22.2099 11.3866 22.0199 11.3833C22.0199 11.3833 22.0166 11.3833 22.0133 11.3833H18.3833C18.3833 11.3833 18.3799 11.3833 18.3766 11.3833C18.1866 11.3833 18.0033 11.4033 17.8233 11.44C17.8066 11.44 17.7899 11.4466 17.7766 11.45C17.6133 11.4866 17.4566 11.5333 17.3033 11.5966C17.2766 11.6066 17.2499 11.62 17.2233 11.63C17.0833 11.69 16.9499 11.7633 16.8233 11.8433C16.7933 11.8633 16.7633 11.8833 16.7333 11.9033C16.6133 11.9866 16.5033 12.0766 16.3966 12.1766C16.3666 12.2033 16.3399 12.23 16.3133 12.26C16.2133 12.3633 16.1199 12.4733 16.0366 12.59C16.0166 12.62 9.22995 22.3433 9.17328 22.4266C9.18511 22.5925 9.49325 24.3703 9.48141 24.6666V40.9629" fill="url(#paint0_linear_724_85971)" fill-opacity="0.4"/>
<path d="M6.30333 20.6665H3.30667C1.48045 20.6665 0 22.1469 0 23.9732V40.0265C0 41.8527 1.48045 43.3332 3.30667 43.3332H6.30333C8.12955 43.3332 9.61 41.8527 9.61 40.0265V23.9732C9.61 22.1469 8.12955 20.6665 6.30333 20.6665Z" fill="url(#paint1_linear_724_85971)"/>
<path d="M21.8331 11.3831H18.8365C17.0102 11.3831 15.5298 12.8635 15.5298 14.6897V39.9964C15.5298 41.8226 17.0102 43.3031 18.8365 43.3031H21.8331C23.6593 43.3031 25.1398 41.8226 25.1398 39.9964V14.6897C25.1398 12.8635 23.6593 11.3831 21.8331 11.3831Z" fill="url(#paint2_linear_724_85971)"/>
<path d="M39.36 0.666504H36.3633C34.5371 0.666504 33.0566 2.14695 33.0566 3.97317V40.0265C33.0566 41.8527 34.5371 43.3332 36.3633 43.3332H39.36C41.1862 43.3332 42.6666 41.8527 42.6666 40.0265V3.97317C42.6666 2.14695 41.1862 0.666504 39.36 0.666504Z" fill="url(#paint3_linear_724_85971)"/>
</g>
<defs>
<linearGradient id="paint0_linear_724_85971" x1="36.4444" y1="3.92583" x2="1.77772" y2="43.3332" gradientUnits="userSpaceOnUse">
<stop stop-opacity="0.8"/>
<stop offset="1" stop-opacity="0"/>
</linearGradient>
<linearGradient id="paint1_linear_724_85971" x1="14.9433" y1="29.0091" x2="4.52503" y2="46.0927" gradientUnits="userSpaceOnUse">
<stop stop-color="#A4A4A4"/>
<stop offset="1" stop-color="#A4A4A4" stop-opacity="0.1"/>
</linearGradient>
<linearGradient id="paint2_linear_724_85971" x1="30.4731" y1="23.1314" x2="14.2333" y2="40.1379" gradientUnits="userSpaceOnUse">
<stop stop-color="#A4A4A4"/>
<stop offset="1" stop-color="#A4A4A4" stop-opacity="0"/>
</linearGradient>
<linearGradient id="paint3_linear_724_85971" x1="47.9999" y1="16.3702" x2="30.9026" y2="31.8979" gradientUnits="userSpaceOnUse">
<stop stop-color="#A4A4A4"/>
<stop offset="1" stop-color="#A4A4A4" stop-opacity="0"/>
</linearGradient>
<clipPath id="clip0_724_85971">
<rect width="42.6667" height="42.6667" fill="white" transform="translate(0 0.666504)"/>
</clipPath>
</defs>
</svg>
