<svg width="20" height="20" viewBox="0 0 20 20" fill="none" xmlns="http://www.w3.org/2000/svg">
<path fill-rule="evenodd" clip-rule="evenodd" d="M15.3057 0.904526H19.9953L12.3632 19.9334H7.66602L15.3057 0.904526ZM7.66651 5.85291H12.3562L4.72407 19.9335H0.0268555L7.66651 5.85291Z" fill="currentColor" fill-opacity="0.5"/>
<path fill-rule="evenodd" clip-rule="evenodd" d="M16.4467 0C15.8149 0 15.3028 0.51213 15.3028 1.14387V18.7946C15.3028 19.4263 15.8149 19.9384 16.4467 19.9384H18.8561C19.4879 19.9384 20 19.4263 20 18.7946V1.14387C20 0.51213 19.4879 0 18.8561 0H16.4467ZM7.65161 6.12848C7.65161 5.49673 8.16374 4.9846 8.79549 4.9846H11.205C11.8367 4.9846 12.3488 5.49673 12.3488 6.12848V18.7946C12.3488 19.4263 11.8367 19.9384 11.205 19.9384H8.79548C8.16374 19.9384 7.65161 19.4263 7.65161 18.7946V6.12848ZM0 11.5235C0 10.8918 0.51213 10.3797 1.14387 10.3797H3.55872C4.19046 10.3797 4.70259 10.8918 4.70259 11.5235V18.856C4.70259 19.4878 4.19046 19.9999 3.55872 19.9999H1.14387C0.51213 19.9999 0 19.4878 0 18.856V11.5235Z" fill="currentColor"/>
</svg>
