<svg
  width="104"
  height="14"
  viewBox="0 0 104 14"
  fill="none"
  xmlns="http://www.w3.org/2000/svg"
>
  <path
    d="M10.3972 12.9938H12.4733L7.89218 0.475671H5.43865L0.943359 12.9938H2.93364L3.91162 10.2635H9.43637L10.3972 12.9938ZM4.46067 8.73522L5.28423 6.43422L6.48526 2.50192H6.87989L8.08092 6.43422L8.88733 8.73522H4.46067Z"
    fill="currentColor"
  />
  <path
    d="M22.1459 3.96151H20.3272V8.76956C20.3272 10.4867 19.4178 11.6544 17.8221 11.6544C16.6554 11.6544 15.9005 10.9847 15.9005 9.5938V3.96151H14.0818V10.1433C14.0818 11.9463 15.0769 13.1655 16.9986 13.1655C18.3369 13.1655 19.4693 12.4786 19.9668 11.3281H20.3443L20.5845 12.9938H22.1459V3.96151Z"
    fill="currentColor"
  />
  <path
    d="M27.2744 11.517V5.45544H29.5392V3.96151H27.2744V1.00799H25.4728V3.96151H23.7399V5.45544H25.4728V11.517C25.4728 12.3928 25.8674 12.9938 26.9998 12.9938H29.7279V11.517H27.2744Z"
    fill="currentColor"
  />
  <path
    d="M30.9065 8.47764C30.9065 11.3625 32.5537 13.1655 35.1788 13.1655C37.8897 13.1655 39.451 11.2938 39.451 8.47764C39.451 5.47261 37.6838 3.78979 35.1788 3.78979C32.6223 3.78979 30.9065 5.5413 30.9065 8.47764ZM32.7596 9.21602V7.80795C32.7596 6.27968 33.7547 5.30089 35.1788 5.30089C36.5857 5.30089 37.598 6.26251 37.598 7.80795V9.21602C37.598 10.813 36.5514 11.6716 35.1788 11.6716C33.8405 11.6716 32.7596 10.8302 32.7596 9.21602Z"
    fill="currentColor"
  />
  <path
    d="M41.6809 12.9938H43.4996V8.09987C43.4996 6.41705 44.3746 5.30089 45.6786 5.30089C46.8796 5.30089 47.5144 6.07362 47.5144 7.67058V12.9938H49.3331V8.13421C49.3331 6.45139 50.0709 5.30089 51.4435 5.30089C52.6102 5.30089 53.3309 5.86756 53.3309 7.51603V12.9938H55.1496V6.94937C55.1496 4.76857 54 3.78979 52.2156 3.78979C50.9459 3.78979 49.8822 4.511 49.4018 5.71301H49.0243C48.7155 4.49383 47.7032 3.78979 46.5021 3.78979C45.3183 3.78979 44.2888 4.47666 43.8599 5.64433H43.4996L43.2593 3.96151H41.6809V12.9938Z"
    fill="currentColor"
  />
  <path
    d="M57.2461 8.46047C57.2461 11.3281 58.9276 13.1655 61.5699 13.1655C63.6631 13.1655 65.293 11.9978 65.619 10.2291H63.8518C63.6288 11.1392 62.7537 11.7574 61.5699 11.7574C60.0943 11.7574 59.0992 10.7958 59.0992 9.38774V8.87259H65.5332C65.5847 8.58067 65.6019 8.18573 65.6019 7.85946C65.6019 5.28372 63.9376 3.78979 61.5355 3.78979C58.9791 3.78979 57.2461 5.50695 57.2461 8.46047ZM59.0992 7.63623V7.37866C59.0992 6.09079 60.0943 5.21504 61.5184 5.21504C62.8738 5.21504 63.8003 6.05645 63.8003 7.30997V7.63623H59.0992Z"
    fill="currentColor"
  />
  <path
    d="M70.0008 11.517V5.45544H72.2656V3.96151H70.0008V1.00799H68.1992V3.96151H66.4663V5.45544H68.1992V11.517C68.1992 12.3928 68.5939 12.9938 69.7263 12.9938H72.4543V11.517H70.0008Z"
    fill="currentColor"
  />
  <path
    d="M79.7036 3.90999C78.5197 3.90999 77.4902 4.57969 77.0956 5.7817H76.7524L76.5122 3.96151H73.2523V5.45544H74.9166V12.9938H76.7353V8.63219C76.7353 6.62311 78.0221 5.57564 79.7379 5.57564C79.9266 5.57564 80.1497 5.59281 80.3555 5.62715V3.96151C80.2183 3.92717 79.9266 3.90999 79.7036 3.90999Z"
    fill="currentColor"
  />
  <path
    d="M82.1788 2.48475H83.9803V0.355469H82.1788V2.48475ZM82.1788 12.9938H83.9803V3.96151H82.1788V12.9938Z"
    fill="currentColor"
  />
  <path
    d="M94.4691 9.85137H92.719C92.5475 10.9675 91.6896 11.6716 90.5057 11.6716C89.0302 11.6716 88.0693 10.6928 88.0693 9.25037V7.84229C88.0693 6.34836 89.0645 5.30089 90.4886 5.30089C91.5867 5.30089 92.4445 5.85039 92.6847 7.00089H94.4348C94.2632 5.06049 92.7191 3.78979 90.54 3.78979C87.9836 3.78979 86.2163 5.55847 86.2163 8.49481C86.2163 11.2938 87.8291 13.1655 90.5057 13.1655C92.7191 13.1655 94.2461 11.8605 94.4691 9.85137Z"
    fill="currentColor"
  />
  <path
    d="M97.752 10.212H96.0191C96.0019 12.0322 97.4603 13.1655 99.7766 13.1655C102.024 13.1655 103.5 12.0837 103.5 10.315C103.5 9.11299 102.813 8.15138 101.081 7.84229L99.3648 7.55038C98.8844 7.46452 98.0094 7.30997 98.0094 6.38271C98.0094 5.62716 98.5927 5.14635 99.7251 5.14635C100.772 5.14635 101.492 5.57564 101.527 6.60594H103.208C103.225 4.8716 101.99 3.78979 99.6736 3.78979C97.5633 3.78979 96.1735 4.83726 96.1735 6.55442C96.1735 7.75644 96.9113 8.6837 98.6613 8.99279L100.497 9.33622C100.892 9.40491 101.612 9.57663 101.612 10.4696C101.612 11.311 100.926 11.8089 99.7766 11.8089C98.5412 11.8089 97.752 11.2079 97.752 10.212Z"
    fill="currentColor"
  />
</svg>
