<svg width="20" height="20" viewBox="0 0 20 20" fill="none" xmlns="http://www.w3.org/2000/svg">
<path d="M12.5 6.25C12.5 6.08424 12.5658 5.92527 12.6831 5.80806C12.8003 5.69085 12.9592 5.625 13.125 5.625H18.125C18.2908 5.625 18.4497 5.69085 18.5669 5.80806C18.6842 5.92527 18.75 6.08424 18.75 6.25C18.75 6.41576 18.6842 6.57473 18.5669 6.69194C18.4497 6.80915 18.2908 6.875 18.125 6.875H13.125C12.9592 6.875 12.8003 6.80915 12.6831 6.69194C12.5658 6.57473 12.5 6.41576 12.5 6.25ZM19.375 11.875C19.375 12.0408 19.3092 12.1997 19.1919 12.3169C19.0747 12.4342 18.9158 12.5 18.75 12.5H13.2031C13.3429 13.0362 13.6564 13.511 14.0946 13.8502C14.5327 14.1894 15.0709 14.3739 15.625 14.375C15.9534 14.3766 16.2788 14.3124 16.5821 14.1863C16.8853 14.0602 17.1602 13.8747 17.3906 13.6406C17.5078 13.5237 17.6665 13.4581 17.832 13.4581C17.9975 13.4581 18.1563 13.5237 18.2734 13.6406C18.3323 13.6981 18.379 13.7668 18.4109 13.8426C18.4428 13.9184 18.4593 13.9998 18.4593 14.082C18.4593 14.1643 18.4428 14.2457 18.4109 14.3215C18.379 14.3973 18.3323 14.466 18.2734 14.5234C17.9274 14.8739 17.515 15.1519 17.0602 15.3411C16.6054 15.5302 16.1175 15.6267 15.625 15.625C14.8833 15.625 14.1583 15.4051 13.5416 14.993C12.9249 14.581 12.4443 13.9953 12.1605 13.3101C11.8766 12.6248 11.8024 11.8708 11.9471 11.1434C12.0917 10.416 12.4489 9.7478 12.9733 9.22335C13.4978 8.6989 14.166 8.34175 14.8934 8.19706C15.6208 8.05236 16.3748 8.12662 17.0601 8.41045C17.7453 8.69428 18.331 9.17493 18.743 9.79161C19.1551 10.4083 19.375 11.1333 19.375 11.875ZM18.0469 11.25C17.9092 10.7122 17.5964 10.2356 17.1579 9.89523C16.7194 9.55485 16.1801 9.3701 15.625 9.3701C15.0699 9.3701 14.5306 9.55485 14.0921 9.89523C13.6536 10.2356 13.3408 10.7122 13.2031 11.25H18.0469ZM10.9375 12.3438C10.9375 13.214 10.5918 14.0486 9.97644 14.6639C9.36109 15.2793 8.52649 15.625 7.65625 15.625H2.5C2.33424 15.625 2.17527 15.5592 2.05806 15.4419C1.94085 15.3247 1.875 15.1658 1.875 15V5C1.875 4.83424 1.94085 4.67527 2.05806 4.55806C2.17527 4.44085 2.33424 4.375 2.5 4.375H6.71875C7.29119 4.3758 7.8512 4.54209 8.33131 4.85383C8.81142 5.16557 9.19117 5.60947 9.42481 6.13207C9.65845 6.65466 9.73602 7.23366 9.64817 7.79932C9.56033 8.36499 9.31082 8.89319 8.92969 9.32031C9.52467 9.57086 10.0325 9.99136 10.3897 10.5292C10.7468 11.067 10.9374 11.6982 10.9375 12.3438ZM3.125 9.0625H6.71875C7.17459 9.0625 7.61176 8.88142 7.93409 8.55909C8.25642 8.23676 8.4375 7.79959 8.4375 7.34375C8.4375 6.88791 8.25642 6.45074 7.93409 6.12841C7.61176 5.80608 7.17459 5.625 6.71875 5.625H3.125V9.0625ZM9.6875 12.3438C9.68544 11.8057 9.47078 11.2902 9.09029 10.9097C8.7098 10.5292 8.19434 10.3146 7.65625 10.3125H3.125V14.375H7.65625C8.19434 14.3729 8.7098 14.1583 9.09029 13.7778C9.47078 13.3973 9.68544 12.8818 9.6875 12.3438Z" fill="currentColor"/>
</svg>
