<svg width="20" height="20" viewBox="0 0 20 20" fill="none" xmlns="http://www.w3.org/2000/svg">
<path d="M17.2499 13.7422C16.789 12.9453 16.2343 11.4297 16.2343 8.75V8.19531C16.2343 4.73438 13.4608 1.89844 10.0468 1.875H9.9999C9.18016 1.87603 8.36865 2.0385 7.61171 2.35315C6.85477 2.66779 6.16721 3.12845 5.58829 3.70882C5.00938 4.28918 4.55044 4.97789 4.23769 5.73562C3.92494 6.49335 3.7645 7.30526 3.76552 8.125V8.75C3.76552 11.4297 3.21083 12.9453 2.7499 13.7422C2.63842 13.9321 2.57909 14.1481 2.5779 14.3683C2.57671 14.5885 2.63371 14.8051 2.74313 14.9961C2.85255 15.1872 3.01051 15.346 3.20102 15.4565C3.39152 15.5669 3.60782 15.625 3.82802 15.625H6.8749C6.8749 16.4538 7.20414 17.2487 7.79019 17.8347C8.37624 18.4208 9.1711 18.75 9.9999 18.75C10.8287 18.75 11.6236 18.4208 12.2096 17.8347C12.7957 17.2487 13.1249 16.4538 13.1249 15.625H16.1718C16.3919 15.6264 16.6085 15.5693 16.7993 15.4594C16.9901 15.3496 17.1483 15.1911 17.2577 15C17.3662 14.8079 17.4225 14.5907 17.4211 14.3701C17.4198 14.1494 17.3607 13.933 17.2499 13.7422ZM9.9999 17.5C9.50325 17.4979 9.02753 17.2997 8.67634 16.9486C8.32516 16.5974 8.12695 16.1216 8.1249 15.625H11.8749C11.8728 16.1216 11.6746 16.5974 11.3235 16.9486C10.9723 17.2997 10.4965 17.4979 9.9999 17.5Z" fill="currentColor"/>
</svg>
