<svg width="21" height="21" viewBox="0 0 21 21" fill="none" xmlns="http://www.w3.org/2000/svg">
<path d="M17.2501 14.7422C16.7892 13.9453 16.2345 12.4297 16.2345 9.75V9.19531C16.2345 5.73438 13.4611 2.89844 10.047 2.875H10.0001C9.18041 2.87603 8.3689 3.0385 7.61195 3.35315C6.85501 3.66779 6.16745 4.12845 5.58854 4.70882C5.00962 5.28918 4.55068 5.97789 4.23793 6.73562C3.92518 7.49335 3.76474 8.30526 3.76577 9.125V9.75C3.76577 12.4297 3.21108 13.9453 2.75014 14.7422C2.63867 14.9321 2.57933 15.1481 2.57814 15.3683C2.57696 15.5885 2.63396 15.8051 2.74338 15.9961C2.8528 16.1872 3.01075 16.346 3.20126 16.4565C3.39177 16.5669 3.60807 16.625 3.82827 16.625H6.87514C6.87514 17.4538 7.20438 18.2487 7.79043 18.8347C8.37648 19.4208 9.17134 19.75 10.0001 19.75C10.8289 19.75 11.6238 19.4208 12.2099 18.8347C12.7959 18.2487 13.1251 17.4538 13.1251 16.625H16.172C16.3922 16.6264 16.6087 16.5693 16.7996 16.4594C16.9904 16.3496 17.1486 16.1911 17.258 16C17.3664 15.8079 17.4227 15.5907 17.4214 15.3701C17.42 15.1494 17.361 14.933 17.2501 14.7422ZM10.0001 18.5C9.50349 18.4979 9.02777 18.2997 8.67659 17.9486C8.3254 17.5974 8.1272 17.1216 8.12514 16.625H11.8751C11.8731 17.1216 11.6749 17.5974 11.3237 17.9486C10.9725 18.2997 10.4968 18.4979 10.0001 18.5Z" fill="currentColor"/>
<circle cx="16" cy="5" r="4.33333" fill="#F41900" stroke="white" stroke-width="0.666667"/>
</svg>
