<svg width="20" height="20" viewBox="0 0 20 20" fill="none" xmlns="http://www.w3.org/2000/svg">
<path d="M7.5 16.25C7.99665 16.2521 8.47237 16.4503 8.82355 16.8014C9.17474 17.1526 9.37294 17.6284 9.375 18.125C9.375 18.2908 9.44085 18.4497 9.55806 18.5669C9.67527 18.6842 9.83424 18.75 10 18.75C10.1658 18.75 10.3247 18.6842 10.4419 18.5669C10.5592 18.4497 10.625 18.2908 10.625 18.125C10.6271 17.6284 10.8253 17.1526 11.1764 16.8014C11.5276 16.4503 12.0034 16.2521 12.5 16.25H17.5C17.8315 16.25 18.1495 16.1183 18.3839 15.8839C18.6183 15.6495 18.75 15.3315 18.75 15V5C18.75 4.66848 18.6183 4.35054 18.3839 4.11612C18.1495 3.8817 17.8315 3.75 17.5 3.75H13.75C12.9212 3.75 12.1263 4.07924 11.5403 4.66529C10.9542 5.25134 10.625 6.0462 10.625 6.875V13.125C10.625 13.2908 10.5592 13.4497 10.4419 13.5669C10.3247 13.6842 10.1658 13.75 10 13.75C9.83424 13.75 9.67527 13.6842 9.55806 13.5669C9.44085 13.4497 9.375 13.2908 9.375 13.125V6.875C9.375 6.0462 9.04576 5.25134 8.45971 4.66529C7.87366 4.07924 7.0788 3.75 6.25 3.75H2.5C2.16848 3.75 1.85054 3.8817 1.61612 4.11612C1.3817 4.35054 1.25 4.66848 1.25 5V15C1.25 15.3315 1.3817 15.6495 1.61612 15.8839C1.85054 16.1183 2.16848 16.25 2.5 16.25H7.5Z" fill="currentColor"/>
</svg>
