<svg width="20" height="20" viewBox="0 0 20 20" fill="none" xmlns="http://www.w3.org/2000/svg">
<path d="M6.77351 3.46095L2.61726 10L6.77351 16.5391C6.81826 16.6076 6.84892 16.6844 6.86372 16.7649C6.87852 16.8454 6.87715 16.928 6.8597 17.008C6.84225 17.088 6.80907 17.1637 6.76208 17.2307C6.71509 17.2978 6.65524 17.3548 6.58601 17.3984C6.48704 17.4658 6.3698 17.5013 6.25007 17.5C6.14548 17.5001 6.04257 17.4737 5.95101 17.4231C5.85945 17.3725 5.78224 17.2995 5.72663 17.2109L1.35163 10.336C1.28673 10.2359 1.2522 10.1192 1.2522 10C1.2522 9.88078 1.28673 9.7641 1.35163 9.66408L5.72663 2.78908C5.76631 2.71135 5.82182 2.6428 5.8896 2.58783C5.95737 2.53286 6.0359 2.49269 6.12014 2.46991C6.20438 2.44713 6.29245 2.44225 6.3787 2.45557C6.46494 2.46889 6.54743 2.50012 6.62087 2.54725C6.69431 2.59438 6.75707 2.65637 6.8051 2.72923C6.85313 2.80208 6.88538 2.88419 6.89975 2.97026C6.91413 3.05633 6.91033 3.14446 6.88858 3.22897C6.86684 3.31348 6.82764 3.39251 6.77351 3.46095ZM18.6485 9.66408L14.2735 2.78908C14.2338 2.71135 14.1783 2.6428 14.1105 2.58783C14.0428 2.53286 13.9642 2.49269 13.88 2.46991C13.7958 2.44713 13.7077 2.44225 13.6214 2.45557C13.5352 2.46889 13.4527 2.50012 13.3793 2.54725C13.3058 2.59438 13.2431 2.65637 13.195 2.72923C13.147 2.80208 13.1148 2.88419 13.1004 2.97026C13.086 3.05633 13.0898 3.14446 13.1116 3.22897C13.1333 3.31348 13.1725 3.39251 13.2266 3.46095L17.3829 10L13.2266 16.5391C13.1819 16.6076 13.1512 16.6844 13.1364 16.7649C13.1216 16.8454 13.123 16.928 13.1404 17.008C13.1579 17.088 13.1911 17.1637 13.2381 17.2307C13.285 17.2978 13.3449 17.3548 13.4141 17.3984C13.5131 17.4658 13.6303 17.5013 13.7501 17.5C13.8547 17.5001 13.9576 17.4737 14.0491 17.4231C14.1407 17.3725 14.2179 17.2995 14.2735 17.2109L18.6485 10.336C18.7134 10.2359 18.7479 10.1192 18.7479 10C18.7479 9.88078 18.7134 9.7641 18.6485 9.66408Z" fill="currentColor"/>
</svg>
