<svg width="20" height="20" viewBox="0 0 20 20" fill="none" xmlns="http://www.w3.org/2000/svg">
<path d="M3.75 3.75V16.25H6.25C6.41576 16.25 6.57473 16.3158 6.69194 16.4331C6.80915 16.5503 6.875 16.7092 6.875 16.875C6.875 17.0408 6.80915 17.1997 6.69194 17.3169C6.57473 17.4342 6.41576 17.5 6.25 17.5H3.125C2.95924 17.5 2.80027 17.4342 2.68306 17.3169C2.56585 17.1997 2.5 17.0408 2.5 16.875V3.125C2.5 2.95924 2.56585 2.80027 2.68306 2.68306C2.80027 2.56585 2.95924 2.5 3.125 2.5H6.25C6.41576 2.5 6.57473 2.56585 6.69194 2.68306C6.80915 2.80027 6.875 2.95924 6.875 3.125C6.875 3.29076 6.80915 3.44973 6.69194 3.56694C6.57473 3.68415 6.41576 3.75 6.25 3.75H3.75ZM16.875 2.5H13.75C13.5842 2.5 13.4253 2.56585 13.3081 2.68306C13.1908 2.80027 13.125 2.95924 13.125 3.125C13.125 3.29076 13.1908 3.44973 13.3081 3.56694C13.4253 3.68415 13.5842 3.75 13.75 3.75H16.25V16.25H13.75C13.5842 16.25 13.4253 16.3158 13.3081 16.4331C13.1908 16.5503 13.125 16.7092 13.125 16.875C13.125 17.0408 13.1908 17.1997 13.3081 17.3169C13.4253 17.4342 13.5842 17.5 13.75 17.5H16.875C17.0408 17.5 17.1997 17.4342 17.3169 17.3169C17.4342 17.1997 17.5 17.0408 17.5 16.875V3.125C17.5 2.95924 17.4342 2.80027 17.3169 2.68306C17.1997 2.56585 17.0408 2.5 16.875 2.5Z" fill="currentColor"/>
</svg>
