<svg width="20" height="20" viewBox="0 0 20 20" fill="none" xmlns="http://www.w3.org/2000/svg">
<path d="M3.125 9.99998C3.125 14.5547 5.83594 16.2734 5.95312 16.3437C6.06857 16.4153 6.15757 16.5225 6.20665 16.6491C6.25573 16.7758 6.26222 16.9149 6.22515 17.0456C6.18807 17.1763 6.10943 17.2913 6.00115 17.3733C5.89286 17.4553 5.76082 17.4997 5.625 17.5C5.51277 17.4982 5.40272 17.4687 5.30469 17.414C5.16406 17.3281 1.875 15.2969 1.875 9.99998C1.875 4.7031 5.16406 2.67185 5.30469 2.58591C5.44802 2.50249 5.61838 2.47868 5.7791 2.51959C5.93982 2.5605 6.07806 2.66287 6.16406 2.80466C6.2471 2.94681 6.2707 3.11597 6.22974 3.27541C6.18878 3.43485 6.08657 3.5717 5.94531 3.65623C5.82031 3.73435 3.125 5.4531 3.125 9.99998ZM14.6953 2.58591C14.5534 2.49993 14.3831 2.47384 14.2219 2.5134C14.0608 2.55296 13.9219 2.65492 13.8359 2.79685C13.7499 2.93878 13.7239 3.10906 13.7634 3.27023C13.803 3.43139 13.9049 3.57024 14.0469 3.65623C14.1641 3.72654 16.875 5.44529 16.875 9.99998C16.875 14.5547 14.1641 16.2734 14.0547 16.3359C13.936 16.4055 13.8437 16.5123 13.7919 16.6398C13.7401 16.7672 13.7319 16.9082 13.7683 17.0408C13.8048 17.1734 13.8841 17.2903 13.9938 17.3733C14.1034 17.4564 14.2374 17.5009 14.375 17.5C14.4872 17.4982 14.5973 17.4687 14.6953 17.414C14.8359 17.3281 18.125 15.2969 18.125 9.99998C18.125 4.7031 14.8359 2.67185 14.6953 2.58591Z" fill="currentColor"/>
</svg>
