<svg width="20" height="20" viewBox="0 0 20 20" fill="none" xmlns="http://www.w3.org/2000/svg">
<path d="M3.375 10C3.63909 10.2199 3.85233 10.4944 4 10.8047C4.375 11.5781 4.375 12.5234 4.375 13.4375C4.375 15.3359 4.45312 16.25 6.25 16.25C6.41576 16.25 6.57473 16.3158 6.69194 16.4331C6.80915 16.5503 6.875 16.7092 6.875 16.875C6.875 17.0408 6.80915 17.1997 6.69194 17.3169C6.57473 17.4342 6.41576 17.5 6.25 17.5C4.88281 17.5 3.96094 17.0234 3.5 16.0703C3.125 15.2969 3.125 14.3516 3.125 13.4375C3.125 11.5391 3.04688 10.625 1.25 10.625C1.08424 10.625 0.925268 10.5592 0.808058 10.4419C0.690848 10.3247 0.625 10.1658 0.625 10C0.625 9.83424 0.690848 9.67527 0.808058 9.55806C0.925268 9.44085 1.08424 9.375 1.25 9.375C3.04688 9.375 3.125 8.46094 3.125 6.5625C3.125 5.64844 3.125 4.70312 3.5 3.92969C3.96094 2.97656 4.88281 2.5 6.25 2.5C6.41576 2.5 6.57473 2.56585 6.69194 2.68306C6.80915 2.80027 6.875 2.95924 6.875 3.125C6.875 3.29076 6.80915 3.44973 6.69194 3.56694C6.57473 3.68415 6.41576 3.75 6.25 3.75C4.45312 3.75 4.375 4.66406 4.375 6.5625C4.375 7.47656 4.375 8.42188 4 9.19531C3.85233 9.5056 3.63909 9.78014 3.375 10ZM18.75 9.375C16.9531 9.375 16.875 8.46094 16.875 6.5625C16.875 5.64844 16.875 4.70312 16.5 3.92969C16.0391 2.97656 15.1172 2.5 13.75 2.5C13.5842 2.5 13.4253 2.56585 13.3081 2.68306C13.1908 2.80027 13.125 2.95924 13.125 3.125C13.125 3.29076 13.1908 3.44973 13.3081 3.56694C13.4253 3.68415 13.5842 3.75 13.75 3.75C15.5469 3.75 15.625 4.66406 15.625 6.5625C15.625 7.47656 15.625 8.42188 16 9.19531C16.1477 9.5056 16.3609 9.78014 16.625 10C16.3609 10.2199 16.1477 10.4944 16 10.8047C15.625 11.5781 15.625 12.5234 15.625 13.4375C15.625 15.3359 15.5469 16.25 13.75 16.25C13.5842 16.25 13.4253 16.3158 13.3081 16.4331C13.1908 16.5503 13.125 16.7092 13.125 16.875C13.125 17.0408 13.1908 17.1997 13.3081 17.3169C13.4253 17.4342 13.5842 17.5 13.75 17.5C15.1172 17.5 16.0391 17.0234 16.5 16.0703C16.875 15.2969 16.875 14.3516 16.875 13.4375C16.875 11.5391 16.9531 10.625 18.75 10.625C18.9158 10.625 19.0747 10.5592 19.1919 10.4419C19.3092 10.3247 19.375 10.1658 19.375 10C19.375 9.83424 19.3092 9.67527 19.1919 9.55806C19.0747 9.44085 18.9158 9.375 18.75 9.375Z" fill="currentColor"/>
</svg>
