<svg width="20" height="20" viewBox="0 0 20 20" fill="none" xmlns="http://www.w3.org/2000/svg">
<path d="M13.1172 7.18752C13.1172 7.37294 13.0622 7.55419 12.9592 7.70836C12.8562 7.86253 12.7098 7.9827 12.5385 8.05365C12.3671 8.12461 12.1786 8.14318 11.9968 8.107C11.8149 8.07083 11.6479 7.98154 11.5168 7.85043C11.3857 7.71932 11.2964 7.55227 11.2602 7.37041C11.224 7.18856 11.2426 7.00006 11.3136 6.82875C11.3845 6.65744 11.5047 6.51103 11.6588 6.40801C11.813 6.305 11.9943 6.25002 12.1797 6.25002C12.4283 6.25002 12.6668 6.34879 12.8426 6.5246C13.0184 6.70042 13.1172 6.93888 13.1172 7.18752ZM7.80469 6.25002C7.61927 6.25002 7.43801 6.305 7.28384 6.40801C7.12967 6.51103 7.00951 6.65744 6.93855 6.82875C6.86759 7.00006 6.84903 7.18856 6.8852 7.37041C6.92137 7.55227 7.01066 7.71932 7.14178 7.85043C7.27289 7.98154 7.43993 8.07083 7.62179 8.107C7.80365 8.14318 7.99215 8.12461 8.16345 8.05365C8.33476 7.9827 8.48118 7.86253 8.58419 7.70836C8.6872 7.55419 8.74219 7.37294 8.74219 7.18752C8.74219 6.93888 8.64342 6.70042 8.4676 6.5246C8.29178 6.34879 8.05333 6.25002 7.80469 6.25002ZM19.6875 10C19.6875 10.1658 19.6217 10.3247 19.5044 10.442C19.3872 10.5592 19.2283 10.625 19.0625 10.625H16.875V11.25C16.8762 11.8757 16.7921 12.4986 16.625 13.1016L18.4297 14.1485C18.5478 14.2177 18.6398 14.3238 18.6917 14.4505C18.7436 14.5772 18.7525 14.7174 18.717 14.8496C18.6816 14.9818 18.6036 15.0987 18.4953 15.1823C18.3869 15.2659 18.2541 15.3117 18.1172 15.3125C18.0071 15.3134 17.8989 15.2837 17.8047 15.2266L16.1719 14.2813C15.6056 15.4353 14.7271 16.4074 13.6361 17.0872C12.5452 17.7671 11.2855 18.1275 10 18.1275C8.71455 18.1275 7.45484 17.7671 6.36388 17.0872C5.27293 16.4074 4.39443 15.4353 3.82812 14.2813L2.19531 15.2266C2.10113 15.2837 1.99293 15.3134 1.88281 15.3125C1.74593 15.3117 1.6131 15.2659 1.50473 15.1823C1.39636 15.0987 1.31844 14.9818 1.28295 14.8496C1.24746 14.7174 1.25635 14.5772 1.30827 14.4505C1.36018 14.3238 1.45224 14.2177 1.57031 14.1485L3.375 13.1016C3.2079 12.4986 3.12379 11.8757 3.125 11.25V10.625H0.9375C0.77174 10.625 0.612769 10.5592 0.495558 10.442C0.378348 10.3247 0.3125 10.1658 0.3125 10C0.3125 9.83426 0.378348 9.67529 0.495558 9.55808C0.612769 9.44087 0.77174 9.37502 0.9375 9.37502H3.125V8.75002C3.12379 8.12433 3.2079 7.50141 3.375 6.89845L1.57031 5.85158C1.4264 5.76965 1.32089 5.63395 1.27695 5.47429C1.233 5.31463 1.25422 5.14405 1.33594 5.00002C1.42067 4.8569 1.55833 4.75289 1.71916 4.71049C1.87998 4.66809 2.05104 4.69071 2.19531 4.77345L3.82812 5.71877C4.39443 4.56478 5.27293 3.59267 6.36388 2.91281C7.45484 2.23295 8.71455 1.87256 10 1.87256C11.2855 1.87256 12.5452 2.23295 13.6361 2.91281C14.7271 3.59267 15.6056 4.56478 16.1719 5.71877L17.8047 4.77345C17.949 4.69071 18.12 4.66809 18.2808 4.71049C18.4417 4.75289 18.5793 4.8569 18.6641 5.00002C18.7458 5.14405 18.767 5.31463 18.7231 5.47429C18.6791 5.63395 18.5736 5.76965 18.4297 5.85158L16.625 6.89845C16.7921 7.50141 16.8762 8.12433 16.875 8.75002V9.37502H19.0625C19.2283 9.37502 19.3872 9.44087 19.5044 9.55808C19.6217 9.67529 19.6875 9.83426 19.6875 10ZM10.625 11.25C10.625 11.0843 10.5592 10.9253 10.4419 10.8081C10.3247 10.6909 10.1658 10.625 10 10.625C9.83424 10.625 9.67527 10.6909 9.55806 10.8081C9.44085 10.9253 9.375 11.0843 9.375 11.25V16.25C9.375 16.4158 9.44085 16.5747 9.55806 16.692C9.67527 16.8092 9.83424 16.875 10 16.875C10.1658 16.875 10.3247 16.8092 10.4419 16.692C10.5592 16.5747 10.625 16.4158 10.625 16.25V11.25ZM15.625 8.75002C15.625 7.25817 15.0324 5.82743 13.9775 4.77254C12.9226 3.71765 11.4918 3.12502 10 3.12502C8.50816 3.12502 7.07742 3.71765 6.02252 4.77254C4.96763 5.82743 4.375 7.25817 4.375 8.75002V9.37502H15.625V8.75002Z" fill="currentColor"/>
</svg>
