<svg width="20" height="20" viewBox="0 0 20 20" fill="none" xmlns="http://www.w3.org/2000/svg">
<path d="M3.9375 2.6406C3.82518 2.52487 3.76194 2.3702 3.761 2.20893C3.76006 2.04766 3.8215 1.89227 3.93247 1.77525C4.04345 1.65822 4.19536 1.58862 4.35645 1.581C4.51755 1.57338 4.67535 1.62832 4.79688 1.73435L6.25781 3.12497C7.33569 2.31559 8.64686 1.87736 9.99479 1.87595C11.3427 1.87454 12.6548 2.31004 13.7344 3.11716L15.1875 1.73435C15.3077 1.62052 15.4682 1.55906 15.6338 1.56345C15.7993 1.56785 15.9563 1.63774 16.0703 1.75779C16.1276 1.81682 16.1726 1.88671 16.2025 1.96336C16.2324 2.04002 16.2467 2.12187 16.2445 2.20413C16.2423 2.28638 16.2237 2.36737 16.1898 2.44232C16.1558 2.51728 16.1072 2.58469 16.0469 2.6406L14.6562 3.96091C15.5401 4.94447 16.0874 6.18417 16.2188 7.49997H3.78125C3.91357 6.18825 4.4578 4.95209 5.33594 3.96872L3.9375 2.6406ZM2.5 7.49997C2.33424 7.49997 2.17527 7.56582 2.05806 7.68303C1.94085 7.80024 1.875 7.95921 1.875 8.12497C1.875 8.29073 1.94085 8.4497 2.05806 8.56691C2.17527 8.68412 2.33424 8.74997 2.5 8.74997H3.75V7.49997H2.5ZM16.25 11.875C16.2515 12.0837 16.241 12.2924 16.2188 12.5H17.5C17.6658 12.5 17.8247 12.5658 17.9419 12.683C18.0592 12.8002 18.125 12.9592 18.125 13.125C18.125 13.2907 18.0592 13.4497 17.9419 13.5669C17.8247 13.6841 17.6658 13.75 17.5 13.75H15.9609C15.5613 15.0178 14.7679 16.1252 13.696 16.9113C12.624 17.6974 11.3293 18.1212 10 18.1212C8.67069 18.1212 7.37601 17.6974 6.30404 16.9113C5.23207 16.1252 4.43865 15.0178 4.03906 13.75H2.5C2.33424 13.75 2.17527 13.6841 2.05806 13.5669C1.94085 13.4497 1.875 13.2907 1.875 13.125C1.875 12.9592 1.94085 12.8002 2.05806 12.683C2.17527 12.5658 2.33424 12.5 2.5 12.5H3.78125C3.75896 12.2924 3.74853 12.0837 3.75 11.875V11.25H2.5C2.33424 11.25 2.17527 11.1841 2.05806 11.0669C1.94085 10.9497 1.875 10.7907 1.875 10.625C1.875 10.4592 1.94085 10.3002 2.05806 10.183C2.17527 10.0658 2.33424 9.99997 2.5 9.99997H3.75V8.74997H16.25V9.99997H17.5C17.6658 9.99997 17.8247 10.0658 17.9419 10.183C18.0592 10.3002 18.125 10.4592 18.125 10.625C18.125 10.7907 18.0592 10.9497 17.9419 11.0669C17.8247 11.1841 17.6658 11.25 17.5 11.25H16.25V11.875ZM10.625 10.625C10.625 10.4592 10.5592 10.3002 10.4419 10.183C10.3247 10.0658 10.1658 9.99997 10 9.99997C9.83424 9.99997 9.67527 10.0658 9.55806 10.183C9.44085 10.3002 9.375 10.4592 9.375 10.625V15.625C9.375 15.7907 9.44085 15.9497 9.55806 16.0669C9.67527 16.1841 9.83424 16.25 10 16.25C10.1658 16.25 10.3247 16.1841 10.4419 16.0669C10.5592 15.9497 10.625 15.7907 10.625 15.625V10.625ZM18.125 8.12497C18.125 7.95921 18.0592 7.80024 17.9419 7.68303C17.8247 7.56582 17.6658 7.49997 17.5 7.49997H16.25V8.74997H17.5C17.6658 8.74997 17.8247 8.68412 17.9419 8.56691C18.0592 8.4497 18.125 8.29073 18.125 8.12497Z" fill="currentColor"/>
</svg>
