<svg width="20" height="20" viewBox="0 0 20 20" fill="none" xmlns="http://www.w3.org/2000/svg">
<path d="M14.9453 3.67185L16.0469 2.64841C16.1667 2.53305 16.2369 2.37563 16.2427 2.20942C16.2486 2.04321 16.1895 1.88126 16.0781 1.75778C15.9652 1.63666 15.8087 1.56533 15.6432 1.55947C15.4777 1.55361 15.3166 1.6137 15.1953 1.72653L13.9922 2.85153C12.8268 2.01352 11.4276 1.5627 9.99219 1.5627C8.55677 1.5627 7.1576 2.01352 5.99219 2.85153L4.79688 1.72653C4.67463 1.61361 4.51253 1.55387 4.34624 1.56047C4.17995 1.56706 4.02309 1.63944 3.91016 1.76169C3.79724 1.88394 3.7375 2.04604 3.74409 2.21233C3.75069 2.37862 3.82307 2.53548 3.94532 2.64841L5.04688 3.67185C3.8073 4.94829 3.11493 6.65818 3.11719 8.43747V11.5625C3.11719 13.3858 3.84152 15.1345 5.13083 16.4238C6.42015 17.7131 8.16883 18.4375 9.99219 18.4375C11.8156 18.4375 13.5642 17.7131 14.8536 16.4238C16.1429 15.1345 16.8672 13.3858 16.8672 11.5625V8.43747C16.8691 6.65976 16.1799 4.95091 14.9453 3.67185ZM9.99219 2.81247C11.4834 2.81454 12.9129 3.40783 13.9674 4.46228C15.0218 5.51672 15.6151 6.94626 15.6172 8.43747V9.37497H4.36719V8.43747C4.36926 6.94626 4.96256 5.51672 6.017 4.46228C7.07144 3.40783 8.50098 2.81454 9.99219 2.81247ZM11.2422 7.18747C11.2422 7.00205 11.2972 6.8208 11.4002 6.66662C11.5032 6.51245 11.6496 6.39229 11.8209 6.32133C11.9922 6.25038 12.1807 6.23181 12.3626 6.26798C12.5444 6.30416 12.7115 6.39345 12.8426 6.52456C12.9737 6.65567 13.063 6.82272 13.0992 7.00457C13.1354 7.18643 13.1168 7.37493 13.0458 7.54624C12.9749 7.71754 12.8547 7.86396 12.7005 7.96697C12.5464 8.06999 12.3651 8.12497 12.1797 8.12497C11.9311 8.12497 11.6926 8.0262 11.5168 7.85038C11.341 7.67457 11.2422 7.43611 11.2422 7.18747ZM6.86719 7.18747C6.86719 7.00205 6.92218 6.8208 7.02519 6.66662C7.1282 6.51245 7.27462 6.39229 7.44593 6.32133C7.61723 6.25038 7.80573 6.23181 7.98759 6.26798C8.16945 6.30416 8.33649 6.39345 8.46761 6.52456C8.59872 6.65567 8.68801 6.82272 8.72418 7.00457C8.76035 7.18643 8.74179 7.37493 8.67083 7.54624C8.59987 7.71754 8.47971 7.86396 8.32554 7.96697C8.17137 8.06999 7.99011 8.12497 7.80469 8.12497C7.55605 8.12497 7.3176 8.0262 7.14178 7.85038C6.96596 7.67457 6.86719 7.43611 6.86719 7.18747Z" fill="currentColor"/>
</svg>
