<svg width="20" height="20" viewBox="0 0 20 20" fill="none" xmlns="http://www.w3.org/2000/svg">
<path d="M16.25 2.5H14.375V1.875C14.375 1.70924 14.3092 1.55027 14.1919 1.43306C14.0747 1.31585 13.9158 1.25 13.75 1.25C13.5842 1.25 13.4253 1.31585 13.3081 1.43306C13.1908 1.55027 13.125 1.70924 13.125 1.875V2.5H6.875V1.875C6.875 1.70924 6.80915 1.55027 6.69194 1.43306C6.57473 1.31585 6.41576 1.25 6.25 1.25C6.08424 1.25 5.92527 1.31585 5.80806 1.43306C5.69085 1.55027 5.625 1.70924 5.625 1.875V2.5H3.75C3.41848 2.5 3.10054 2.6317 2.86612 2.86612C2.6317 3.10054 2.5 3.41848 2.5 3.75V16.25C2.5 16.5815 2.6317 16.8995 2.86612 17.1339C3.10054 17.3683 3.41848 17.5 3.75 17.5H16.25C16.5815 17.5 16.8995 17.3683 17.1339 17.1339C17.3683 16.8995 17.5 16.5815 17.5 16.25V3.75C17.5 3.41848 17.3683 3.10054 17.1339 2.86612C16.8995 2.6317 16.5815 2.5 16.25 2.5ZM12.1875 12.5H10.625V14.0625C10.625 14.2283 10.5592 14.3872 10.4419 14.5044C10.3247 14.6217 10.1658 14.6875 10 14.6875C9.83424 14.6875 9.67527 14.6217 9.55806 14.5044C9.44085 14.3872 9.375 14.2283 9.375 14.0625V12.5H7.8125C7.64674 12.5 7.48777 12.4342 7.37056 12.3169C7.25335 12.1997 7.1875 12.0408 7.1875 11.875C7.1875 11.7092 7.25335 11.5503 7.37056 11.4331C7.48777 11.3158 7.64674 11.25 7.8125 11.25H9.375V9.6875C9.375 9.52174 9.44085 9.36277 9.55806 9.24556C9.67527 9.12835 9.83424 9.0625 10 9.0625C10.1658 9.0625 10.3247 9.12835 10.4419 9.24556C10.5592 9.36277 10.625 9.52174 10.625 9.6875V11.25H12.1875C12.3533 11.25 12.5122 11.3158 12.6294 11.4331C12.7467 11.5503 12.8125 11.7092 12.8125 11.875C12.8125 12.0408 12.7467 12.1997 12.6294 12.3169C12.5122 12.4342 12.3533 12.5 12.1875 12.5ZM16.25 6.25H3.75V3.75H5.625V4.375C5.625 4.54076 5.69085 4.69973 5.80806 4.81694C5.92527 4.93415 6.08424 5 6.25 5C6.41576 5 6.57473 4.93415 6.69194 4.81694C6.80915 4.69973 6.875 4.54076 6.875 4.375V3.75H13.125V4.375C13.125 4.54076 13.1908 4.69973 13.3081 4.81694C13.4253 4.93415 13.5842 5 13.75 5C13.9158 5 14.0747 4.93415 14.1919 4.81694C14.3092 4.69973 14.375 4.54076 14.375 4.375V3.75H16.25V6.25Z" fill="currentColor"/>
</svg>
