<svg width="20" height="20" viewBox="0 0 20 20" fill="none" xmlns="http://www.w3.org/2000/svg">
<path d="M16.25 2.5H14.375V1.875C14.375 1.70924 14.3092 1.55027 14.1919 1.43306C14.0747 1.31585 13.9158 1.25 13.75 1.25C13.5842 1.25 13.4253 1.31585 13.3081 1.43306C13.1908 1.55027 13.125 1.70924 13.125 1.875V2.5H6.875V1.875C6.875 1.70924 6.80915 1.55027 6.69194 1.43306C6.57473 1.31585 6.41576 1.25 6.25 1.25C6.08424 1.25 5.92527 1.31585 5.80806 1.43306C5.69085 1.55027 5.625 1.70924 5.625 1.875V2.5H3.75C3.41848 2.5 3.10054 2.6317 2.86612 2.86612C2.6317 3.10054 2.5 3.41848 2.5 3.75V16.25C2.5 16.5815 2.6317 16.8995 2.86612 17.1339C3.10054 17.3683 3.41848 17.5 3.75 17.5H16.25C16.5815 17.5 16.8995 17.3683 17.1339 17.1339C17.3683 16.8995 17.5 16.5815 17.5 16.25V3.75C17.5 3.41848 17.3683 3.10054 17.1339 2.86612C16.8995 2.6317 16.5815 2.5 16.25 2.5ZM12.3203 13.3047C12.4377 13.4232 12.5035 13.5832 12.5035 13.75C12.5035 13.9168 12.4377 14.0768 12.3203 14.1953C12.1995 14.3087 12.0407 14.3727 11.875 14.375C11.709 14.3743 11.5497 14.31 11.4297 14.1953L10 12.7578L8.57031 14.1953C8.44949 14.3087 8.29065 14.3727 8.125 14.375C7.95904 14.3743 7.79966 14.31 7.67969 14.1953C7.56232 14.0768 7.49648 13.9168 7.49648 13.75C7.49648 13.5832 7.56232 13.4232 7.67969 13.3047L9.11719 11.875L7.67969 10.4453C7.58002 10.3239 7.52909 10.1697 7.5368 10.0128C7.5445 9.8559 7.6103 9.70747 7.72138 9.59638C7.83247 9.4853 7.9809 9.4195 8.13781 9.4118C8.29471 9.40409 8.44888 9.45502 8.57031 9.55469L10 10.9922L11.4297 9.55469C11.5511 9.45502 11.7053 9.40409 11.8622 9.4118C12.0191 9.4195 12.1675 9.4853 12.2786 9.59638C12.3897 9.70747 12.4555 9.8559 12.4632 10.0128C12.4709 10.1697 12.42 10.3239 12.3203 10.4453L10.8828 11.875L12.3203 13.3047ZM16.25 6.25H3.75V3.75H5.625V4.375C5.625 4.54076 5.69085 4.69973 5.80806 4.81694C5.92527 4.93415 6.08424 5 6.25 5C6.41576 5 6.57473 4.93415 6.69194 4.81694C6.80915 4.69973 6.875 4.54076 6.875 4.375V3.75H13.125V4.375C13.125 4.54076 13.1908 4.69973 13.3081 4.81694C13.4253 4.93415 13.5842 5 13.75 5C13.9158 5 14.0747 4.93415 14.1919 4.81694C14.3092 4.69973 14.375 4.54076 14.375 4.375V3.75H16.25V6.25Z" fill="currentColor"/>
</svg>
