<svg width="20" height="20" viewBox="0 0 20 20" fill="none" xmlns="http://www.w3.org/2000/svg">
<path d="M18.125 16.25C18.125 16.4158 18.0592 16.5747 17.9419 16.6919C17.8247 16.8092 17.6658 16.875 17.5 16.875H2.5C2.33424 16.875 2.17527 16.8092 2.05806 16.6919C1.94085 16.5747 1.875 16.4158 1.875 16.25V3.75C1.875 3.58424 1.94085 3.42527 2.05806 3.30806C2.17527 3.19085 2.33424 3.125 2.5 3.125C2.66576 3.125 2.82473 3.19085 2.94194 3.30806C3.05915 3.42527 3.125 3.58424 3.125 3.75V12.2422L7.05469 8.30469C7.17318 8.18732 7.33322 8.12148 7.5 8.12148C7.66678 8.12148 7.82682 8.18732 7.94531 8.30469L10 10.3672L13.8047 6.5625L12.6797 5.44531C12.5949 5.35495 12.5374 5.24242 12.5139 5.12076C12.4904 4.99909 12.5018 4.87326 12.5469 4.75781C12.5955 4.64467 12.6761 4.54818 12.7788 4.48018C12.8815 4.41218 13.0018 4.37563 13.125 4.375H16.25C16.4158 4.375 16.5747 4.44085 16.6919 4.55806C16.8092 4.67527 16.875 4.83424 16.875 5V8.125C16.8754 8.24839 16.8392 8.36913 16.7711 8.47202C16.703 8.5749 16.6059 8.65531 16.4922 8.70312C16.4151 8.73374 16.3329 8.74964 16.25 8.75C16.084 8.7493 15.9247 8.68499 15.8047 8.57031L14.6875 7.44531L10.4453 11.6953C10.3268 11.8127 10.1668 11.8785 10 11.8785C9.83322 11.8785 9.67318 11.8127 9.55469 11.6953L7.5 9.63281L3.125 14.0078V15.625H17.5C17.6658 15.625 17.8247 15.6908 17.9419 15.8081C18.0592 15.9253 18.125 16.0842 18.125 16.25Z" fill="currentColor"/>
</svg>
