<svg width="20" height="20" viewBox="0 0 20 20" fill="none" xmlns="http://www.w3.org/2000/svg">
<path d="M17.0548 5.96872C17.0467 5.96 17.0413 5.94916 17.0392 5.93747L17.0079 5.8984C15.9011 4.09073 14.1317 2.78714 12.0772 2.26577C10.0227 1.74439 7.8458 2.04652 6.01094 3.10767C4.17609 4.16883 2.82855 5.90501 2.25584 7.94578C1.68312 9.98655 1.93058 12.1703 2.9454 14.0312L2.96103 14.0625L2.98447 14.0937C4.08092 15.9215 5.85172 17.2453 7.91511 17.7796C9.9785 18.314 12.1692 18.0161 14.015 16.9502C15.8609 15.8843 17.2139 14.1358 17.7825 12.0816C18.3511 10.0274 18.0898 7.83202 17.0548 5.96872ZM15.6173 6.03903L10.6251 8.91403V3.15622C11.616 3.24775 12.5754 3.55283 13.4371 4.05047C14.2989 4.54812 15.0427 5.22653 15.6173 6.03903ZM10.0001 16.875C8.89886 16.8746 7.81382 16.6098 6.83629 16.1026C5.85877 15.5955 5.01737 14.861 4.3829 13.9609L16.2423 7.11715C16.7261 8.16474 16.9385 9.31727 16.8599 10.4685C16.7813 11.6198 16.4141 12.7327 15.7923 13.7048C15.1704 14.6768 14.3139 15.4767 13.3017 16.0308C12.2894 16.5848 11.154 16.8751 10.0001 16.875Z" fill="currentColor"/>
</svg>
