<svg width="20" height="20" viewBox="0 0 20 20" fill="none" xmlns="http://www.w3.org/2000/svg">
<path d="M7.8125 9.10162C7.9078 9.04569 7.9868 8.96577 8.04162 8.86983C8.09645 8.77388 8.1252 8.66525 8.125 8.55475V2.92975C8.12587 2.82907 8.10241 2.72967 8.05661 2.64001C8.01081 2.55034 7.94403 2.47307 7.86195 2.41477C7.77986 2.35647 7.68491 2.31886 7.58516 2.30514C7.48542 2.29143 7.38384 2.30201 7.28906 2.336C5.70674 2.89966 4.33727 3.93856 3.36811 5.31049C2.39895 6.68242 1.87745 8.32034 1.875 10.0001C1.87585 10.4978 1.92029 10.9945 2.00781 11.4844C2.02659 11.5823 2.06822 11.6744 2.12931 11.7531C2.19041 11.8319 2.26923 11.8951 2.35938 11.9376C2.44256 11.9768 2.53306 11.9981 2.625 12.0001C2.73491 11.9994 2.8427 11.9697 2.9375 11.9141L7.8125 9.10162ZM6.875 3.87506V8.19537L3.13281 10.3594C3.125 10.2344 3.125 10.1172 3.125 10.0001C3.1274 8.73322 3.4786 7.49151 4.14008 6.41108C4.80157 5.33065 5.7478 4.45324 6.875 3.87506Z" fill="currentColor"/>
<path d="M17.0545 5.96875C17.0464 5.96003 17.041 5.94919 17.0389 5.9375L17.0076 5.89844C16.2926 4.67422 15.2695 3.65862 14.04 2.95272C12.8105 2.24682 11.4175 1.87526 9.99983 1.875C9.83407 1.875 9.67509 1.94085 9.55788 2.05806C9.44067 2.17527 9.37483 2.33424 9.37483 2.5V9.64062L3.19514 13.2109C3.12311 13.2507 3.05977 13.3045 3.00884 13.3692C2.95791 13.4338 2.92043 13.508 2.89859 13.5874C2.87675 13.6667 2.871 13.7496 2.88168 13.8312C2.89236 13.9128 2.91925 13.9914 2.96076 14.0625V14.0781L2.9842 14.1172C3.88541 15.6599 5.26999 16.8626 6.92364 17.539C8.57729 18.2154 10.4078 18.328 12.1319 17.8591C13.8559 17.3903 15.3774 16.3663 16.4607 14.9456C17.5441 13.5249 18.129 11.7867 18.1248 10C18.1267 8.58577 17.7577 7.19578 17.0545 5.96875Z" fill="currentColor"/>
</svg>
