<svg width="20" height="20" viewBox="0 0 20 20" fill="none" xmlns="http://www.w3.org/2000/svg">
<path d="M17.5 15.625H3.125V12.7812L7.53125 8.92969L12.125 12.375C12.24 12.4614 12.3813 12.5055 12.5251 12.4998C12.6688 12.4941 12.8062 12.439 12.9141 12.3438L17.9141 7.96875C17.9756 7.91437 18.0259 7.84841 18.0619 7.77461C18.098 7.70082 18.1192 7.62065 18.1242 7.53867C18.1293 7.45669 18.1182 7.37452 18.0915 7.29684C18.0648 7.21916 18.0231 7.14749 17.9688 7.08594C17.9144 7.02438 17.8484 6.97414 17.7746 6.93807C17.7008 6.90201 17.6206 6.88084 17.5387 6.87576C17.4567 6.87068 17.3745 6.8818 17.2968 6.90848C17.2192 6.93516 17.1475 6.97687 17.0859 7.03125L12.4688 11.0703L7.875 7.625C7.75997 7.5386 7.61866 7.49453 7.47491 7.50022C7.33116 7.50591 7.19377 7.56102 7.08594 7.65625L3.125 11.125V3.75C3.125 3.58424 3.05915 3.42527 2.94194 3.30806C2.82473 3.19085 2.66576 3.125 2.5 3.125C2.33424 3.125 2.17527 3.19085 2.05806 3.30806C1.94085 3.42527 1.875 3.58424 1.875 3.75V16.25C1.875 16.4158 1.94085 16.5747 2.05806 16.6919C2.17527 16.8092 2.33424 16.875 2.5 16.875H17.5C17.6658 16.875 17.8247 16.8092 17.9419 16.6919C18.0592 16.5747 18.125 16.4158 18.125 16.25C18.125 16.0842 18.0592 15.9253 17.9419 15.8081C17.8247 15.6908 17.6658 15.625 17.5 15.625Z" fill="currentColor"/>
</svg>
