<svg width="20" height="20" viewBox="0 0 20 20" fill="none" xmlns="http://www.w3.org/2000/svg">
<path d="M17.8125 15.625H17.1875V3.125C17.1875 2.95924 17.1217 2.80027 17.0044 2.68306C16.8872 2.56585 16.7283 2.5 16.5625 2.5H12.1875C12.0217 2.5 11.8628 2.56585 11.7456 2.68306C11.6283 2.80027 11.5625 2.95924 11.5625 3.125V6.25H7.8125C7.64674 6.25 7.48777 6.31585 7.37056 6.43306C7.25335 6.55027 7.1875 6.70924 7.1875 6.875V10H3.4375C3.27174 10 3.11277 10.0658 2.99556 10.1831C2.87835 10.3003 2.8125 10.4592 2.8125 10.625V15.625H2.1875C2.02174 15.625 1.86277 15.6908 1.74556 15.8081C1.62835 15.9253 1.5625 16.0842 1.5625 16.25C1.5625 16.4158 1.62835 16.5747 1.74556 16.6919C1.86277 16.8092 2.02174 16.875 2.1875 16.875H17.8125C17.9783 16.875 18.1372 16.8092 18.2544 16.6919C18.3717 16.5747 18.4375 16.4158 18.4375 16.25C18.4375 16.0842 18.3717 15.9253 18.2544 15.8081C18.1372 15.6908 17.9783 15.625 17.8125 15.625ZM8.4375 7.5H11.5625V15.625H8.4375V7.5ZM4.0625 11.25H7.1875V15.625H4.0625V11.25Z" fill="currentColor"/>
</svg>
