<svg
  xmlns="http://www.w3.org/2000/svg"
  width="20"
  height="20"
  viewBox="0 0 20 20"
  fill="none"
>
  <path
    d="M10.3125 1.5625C8.15831 1.56477 6.09301 2.42153 4.56977 3.94477C3.04653 5.46801 2.18977 7.53331 2.1875 9.6875V16.2758C2.18791 16.6832 2.34995 17.0738 2.63805 17.3619C2.92615 17.65 3.31678 17.8121 3.72422 17.8125H10.3125C12.4674 17.8125 14.534 16.9565 16.0577 15.4327C17.5815 13.909 18.4375 11.8424 18.4375 9.6875C18.4375 7.53262 17.5815 5.46599 16.0577 3.94226C14.534 2.41852 12.4674 1.5625 10.3125 1.5625ZM10.3125 15.9375H4.0625V9.6875C4.0625 8.45137 4.42906 7.24299 5.11581 6.21519C5.80257 5.18738 6.77869 4.3863 7.92073 3.91325C9.06277 3.44021 10.3194 3.31643 11.5318 3.55759C12.7442 3.79875 13.8578 4.394 14.7319 5.26808C15.606 6.14216 16.2013 7.2558 16.4424 8.46819C16.6836 9.68057 16.5598 10.9372 16.0867 12.0793C15.6137 13.2213 14.8126 14.1974 13.7848 14.8842C12.757 15.5709 11.5486 15.9375 10.3125 15.9375Z"
    fill="currentColor"
  />
  <path
    opacity="0.2"
    d="M17.6472 9.87109C17.6472 10.815 17.4613 11.7496 17.1001 12.6216C16.7389 13.4937 16.2095 14.286 15.5421 14.9534C14.8747 15.6208 14.0823 16.1503 13.2103 16.5115C12.3383 16.8727 11.4036 17.0586 10.4597 17.0586H3.87147C3.79275 17.0587 3.71478 17.0433 3.64203 17.0132C3.56929 16.9831 3.50319 16.939 3.44753 16.8833C3.39186 16.8277 3.34773 16.7616 3.31765 16.6888C3.28757 16.6161 3.27214 16.5381 3.27225 16.4594V9.87109C3.27225 7.96485 4.0295 6.13668 5.37742 4.78876C6.72534 3.44085 8.5535 2.68359 10.4597 2.68359C11.4036 2.68359 12.3383 2.8695 13.2103 3.23071C14.0823 3.59192 14.8747 4.12134 15.5421 4.78876C16.2095 5.45618 16.7389 6.24853 17.1001 7.12056C17.4613 7.99258 17.6472 8.92722 17.6472 9.87109Z"
    fill="currentColor"
  />
</svg>
