<svg width="20" height="20" viewBox="0 0 20 20" fill="none" xmlns="http://www.w3.org/2000/svg">
<path d="M10.0001 1.875C8.58904 1.87489 7.20225 2.24229 5.97629 2.94101C4.75034 3.63973 3.7275 4.64569 3.00846 5.85985C2.28943 7.074 1.89901 8.45448 1.87563 9.86538C1.85225 11.2763 2.19672 12.6689 2.87513 13.9062L2.21107 16.25C2.14912 16.4636 2.14564 16.6899 2.20098 16.9052C2.25633 17.1206 2.36848 17.3172 2.52572 17.4744C2.68296 17.6316 2.87953 17.7438 3.0949 17.7991C3.31028 17.8545 3.53656 17.851 3.75013 17.7891L6.09388 17.125C7.18004 17.7203 8.38793 18.0594 9.62522 18.1164C10.8625 18.1734 12.0965 17.9467 13.2327 17.4538C14.369 16.9608 15.3775 16.2146 16.1813 15.2721C16.985 14.3297 17.5626 13.216 17.8699 12.0161C18.1772 10.8162 18.2062 9.56199 17.9545 8.34922C17.7029 7.13645 17.1773 5.99727 16.4179 5.01874C15.6586 4.04022 14.6855 3.24825 13.5732 2.70339C12.4609 2.15852 11.2387 1.87517 10.0001 1.875Z" fill="currentColor"/>
</svg>
