<svg width="20" height="20" viewBox="0 0 20 20" fill="none" xmlns="http://www.w3.org/2000/svg">
<path d="M18.0077 14.8281C18.4878 13.9321 18.742 12.9325 18.7484 11.916C18.7549 10.8995 18.5132 9.89677 18.0445 8.99475C17.5758 8.09273 16.8942 7.31865 16.0587 6.73962C15.2232 6.16059 14.259 5.79409 13.2499 5.67189C12.9176 4.89692 12.432 4.19719 11.8222 3.61484C11.2124 3.03248 10.4911 2.57954 9.70163 2.28327C8.91219 1.987 8.07097 1.85353 7.2286 1.89091C6.38623 1.92828 5.56013 2.13572 4.80003 2.50073C4.03993 2.86575 3.36155 3.3808 2.80573 4.01487C2.24991 4.64894 1.82813 5.38892 1.5658 6.19027C1.30346 6.99163 1.20599 7.83777 1.27925 8.67779C1.35251 9.5178 1.59499 10.3343 1.99208 11.0781L1.50771 12.7656C1.45157 12.9534 1.44726 13.1528 1.49524 13.3427C1.54322 13.5327 1.64169 13.7061 1.78024 13.8447C1.91878 13.9832 2.09222 14.0817 2.28219 14.1297C2.47215 14.1776 2.67156 14.1733 2.85927 14.1172L4.54677 13.6328C5.23212 13.9981 5.979 14.2339 6.74989 14.3281C7.0904 15.1262 7.59334 15.8446 8.22669 16.4376C8.86003 17.0306 9.60991 17.4852 10.4286 17.7726C11.2473 18.0599 12.1168 18.1737 12.9818 18.1066C13.8469 18.0395 14.6885 17.793 15.453 17.3828L17.1405 17.8672C17.3282 17.9233 17.5276 17.9277 17.7176 17.8797C17.9076 17.8317 18.081 17.7332 18.2196 17.5947C18.3581 17.4561 18.4566 17.2827 18.5046 17.0927C18.5525 16.9028 18.5482 16.7034 18.4921 16.5156L18.0077 14.8281ZM16.8046 14.4297C16.7591 14.5008 16.7293 14.5808 16.7172 14.6643C16.7051 14.7478 16.7109 14.833 16.7343 14.9141L17.2186 16.5938L15.539 16.1094C15.4579 16.086 15.3727 16.0802 15.2892 16.0923C15.2057 16.1044 15.1257 16.1342 15.0546 16.1797C14.4819 16.5176 13.8477 16.7383 13.1889 16.8289C12.5301 16.9194 11.8599 16.8781 11.2172 16.7072C10.5745 16.5364 9.97224 16.2395 9.44539 15.8337C8.91854 15.428 8.47764 14.9215 8.14833 14.3438C9.68441 14.18 11.1059 13.4546 12.1397 12.3068C13.1736 11.1591 13.747 9.66979 13.7499 8.12501C13.7481 7.75039 13.7142 7.37662 13.6483 7.00783C14.7448 7.26658 15.7217 7.88803 16.4208 8.77144C17.1198 9.65485 17.5001 10.7485 17.4999 11.875C17.4988 12.7732 17.2589 13.6549 16.8046 14.4297Z" fill="currentColor"/>
</svg>
