<svg
  xmlns="http://www.w3.org/2000/svg"
  width="20"
  height="20"
  viewBox="0 0 20 20"
  fill="none"
>
  <path
    opacity="0.2"
    d="M18.3833 11.9581V17.1143C18.3833 17.2387 18.3339 17.3579 18.246 17.4458C18.1581 17.5337 18.0389 17.5831 17.9146 17.5831H12.7583C11.5948 17.5834 10.4599 17.2229 9.50989 16.5513C8.55984 15.8797 7.84143 14.93 7.45361 13.8331H7.7583C9.25014 13.8331 10.6809 13.2405 11.7358 12.1856C12.7907 11.1307 13.3833 9.69994 13.3833 8.20809C13.3837 7.5727 13.2762 6.94186 13.0653 6.34247C14.5017 6.42099 15.8534 7.04683 16.8425 8.09132C17.8317 9.13582 18.383 10.5196 18.3833 11.9581Z"
    fill="currentColor"
  />
  <path
    d="M13.4602 5.38281C12.8341 4.02422 11.7627 2.92029 10.4235 2.2539C9.08421 1.58751 7.55748 1.39866 6.09622 1.71865C4.63495 2.03863 3.32686 2.84824 2.38866 4.01334C1.45047 5.17845 0.938469 6.62911 0.9375 8.125V13.2812C0.9375 13.6542 1.08566 14.0119 1.34938 14.2756C1.6131 14.5393 1.97079 14.6875 2.34375 14.6875H6.57031C7.10393 15.8085 7.94399 16.7556 8.99333 17.4193C10.0427 18.0829 11.2584 18.4359 12.5 18.4375H17.6562C18.0292 18.4375 18.3869 18.2893 18.6506 18.0256C18.9143 17.7619 19.0625 17.4042 19.0625 17.0312V11.875C19.0626 10.3008 18.4968 8.77908 17.4684 7.5873C16.4399 6.39552 15.0174 5.61313 13.4602 5.38281ZM2.8125 8.125C2.8125 7.1979 3.08742 6.29162 3.60249 5.52076C4.11756 4.74991 4.84964 4.1491 5.70617 3.79431C6.5627 3.43953 7.5052 3.3467 8.41449 3.52757C9.32377 3.70844 10.159 4.15488 10.8146 4.81044C11.4701 5.46599 11.9166 6.30123 12.0974 7.21051C12.2783 8.1198 12.1855 9.0623 11.8307 9.91883C11.4759 10.7754 10.8751 11.5074 10.1042 12.0225C9.33338 12.5376 8.4271 12.8125 7.5 12.8125H2.8125V8.125ZM17.1875 16.5625H12.5C11.75 16.5616 11.0112 16.3812 10.3452 16.0364C9.67923 15.6916 9.10546 15.1924 8.67188 14.5805C10.3007 14.2862 11.758 13.3869 12.7513 12.0629C13.7446 10.7389 14.2004 9.08828 14.0273 7.44219C14.95 7.76017 15.7504 8.35818 16.3169 9.15282C16.8834 9.94746 17.1877 10.8991 17.1875 11.875V16.5625Z"
    fill="currentColor"
  />
</svg>
