<svg width="20" height="20" viewBox="0 0 20 20" fill="none" xmlns="http://www.w3.org/2000/svg">
<path d="M10.0001 1.875C8.58904 1.87489 7.20225 2.24229 5.97629 2.94101C4.75034 3.63973 3.7275 4.64569 3.00846 5.85985C2.28943 7.074 1.89901 8.45448 1.87563 9.86538C1.85225 11.2763 2.19672 12.6689 2.87513 13.9062L2.21107 16.2422C2.14861 16.4571 2.14465 16.6849 2.19958 16.9018C2.25451 17.1188 2.36636 17.3172 2.52357 17.4766C2.68077 17.6345 2.87779 17.747 3.09374 17.802C3.30969 17.857 3.53651 17.8525 3.75013 17.7891L6.09388 17.125C7.18004 17.7203 8.38793 18.0594 9.62522 18.1164C10.8625 18.1734 12.0965 17.9467 13.2327 17.4538C14.369 16.9608 15.3775 16.2146 16.1813 15.2721C16.985 14.3297 17.5626 13.216 17.8699 12.0161C18.1772 10.8162 18.2062 9.56199 17.9545 8.34922C17.7029 7.13645 17.1773 5.99727 16.4179 5.01874C15.6586 4.04022 14.6855 3.24825 13.5732 2.70339C12.4609 2.15852 11.2387 1.87517 10.0001 1.875ZM6.25013 10.9375C6.06471 10.9375 5.88345 10.8825 5.72928 10.7795C5.57511 10.6765 5.45495 10.5301 5.38399 10.3588C5.31303 10.1875 5.29447 9.99896 5.33064 9.8171C5.36682 9.63525 5.4561 9.4682 5.58722 9.33709C5.71833 9.20598 5.88537 9.11669 6.06723 9.08051C6.24909 9.04434 6.43759 9.06291 6.60889 9.13386C6.7802 9.20482 6.92662 9.32498 7.02963 9.47915C7.13265 9.63332 7.18763 9.81458 7.18763 10C7.18763 10.2486 7.08886 10.4871 6.91304 10.6629C6.73723 10.8387 6.49877 10.9375 6.25013 10.9375ZM10.0001 10.9375C9.81471 10.9375 9.63345 10.8825 9.47928 10.7795C9.32511 10.6765 9.20495 10.5301 9.13399 10.3588C9.06303 10.1875 9.04447 9.99896 9.08064 9.8171C9.11682 9.63525 9.2061 9.4682 9.33722 9.33709C9.46833 9.20598 9.63537 9.11669 9.81723 9.08051C9.99909 9.04434 10.1876 9.06291 10.3589 9.13386C10.5302 9.20482 10.6766 9.32498 10.7796 9.47915C10.8826 9.63332 10.9376 9.81458 10.9376 10C10.9376 10.2486 10.8389 10.4871 10.663 10.6629C10.4872 10.8387 10.2488 10.9375 10.0001 10.9375ZM13.7501 10.9375C13.5647 10.9375 13.3835 10.8825 13.2293 10.7795C13.0751 10.6765 12.9549 10.5301 12.884 10.3588C12.813 10.1875 12.7945 9.99896 12.8306 9.8171C12.8668 9.63525 12.9561 9.4682 13.0872 9.33709C13.2183 9.20598 13.3854 9.11669 13.5672 9.08051C13.7491 9.04434 13.9376 9.06291 14.1089 9.13386C14.2802 9.20482 14.4266 9.32498 14.5296 9.47915C14.6326 9.63332 14.6876 9.81458 14.6876 10C14.6876 10.2486 14.5889 10.4871 14.413 10.6629C14.2372 10.8387 13.9988 10.9375 13.7501 10.9375Z" fill="currentColor"/>
</svg>
