<svg width="20" height="20" viewBox="0 0 20 20" fill="none" xmlns="http://www.w3.org/2000/svg">
  <path opacity="0.2"
    d="M16.7842 3.96362V16.4636C16.7842 16.6294 16.7183 16.7884 16.6011 16.9056C16.4839 17.0228 16.3249 17.0886 16.1592 17.0886H3.65918C3.49342 17.0886 3.33445 17.0228 3.21724 16.9056C3.10003 16.7884 3.03418 16.6294 3.03418 16.4636V3.96362C3.03418 3.79786 3.10003 3.63889 3.21724 3.52168C3.33445 3.40447 3.49342 3.33862 3.65918 3.33862H16.1592C16.3249 3.33862 16.4839 3.40447 16.6011 3.52168C16.7183 3.63889 16.7842 3.79786 16.7842 3.96362Z"
    fill="currentColor" />
  <path
    d="M6.21172 11.2883C6.12451 11.2011 6.05534 11.0975 6.00814 10.9836C5.96095 10.8697 5.93665 10.7475 5.93665 10.6242C5.93665 10.5009 5.96095 10.3788 6.00814 10.2648C6.05534 10.1509 6.12451 10.0474 6.21172 9.96016C6.29892 9.87295 6.40245 9.80377 6.51639 9.75658C6.63033 9.70938 6.75245 9.68509 6.87578 9.68509C6.99911 9.68509 7.12123 9.70938 7.23517 9.75658C7.34911 9.80377 7.45264 9.87295 7.53984 9.96016L8.75 11.1719L12.4617 7.45938C12.6378 7.28326 12.8767 7.18431 13.1258 7.18431C13.3749 7.18431 13.6137 7.28326 13.7898 7.45938C13.966 7.6355 14.0649 7.87437 14.0649 8.12344C14.0649 8.37251 13.966 8.61138 13.7898 8.7875L9.41484 13.1625C9.32775 13.2499 9.22425 13.3192 9.1103 13.3666C8.99634 13.4139 8.87417 13.4382 8.75078 13.4382C8.62739 13.4382 8.50522 13.4139 8.39126 13.3666C8.27731 13.3192 8.17382 13.2499 8.08672 13.1625L6.21172 11.2883ZM17.8125 3.75V16.25C17.8125 16.6644 17.6479 17.0618 17.3549 17.3549C17.0618 17.6479 16.6644 17.8125 16.25 17.8125H3.75C3.3356 17.8125 2.93817 17.6479 2.64515 17.3549C2.35212 17.0618 2.1875 16.6644 2.1875 16.25V3.75C2.1875 3.3356 2.35212 2.93817 2.64515 2.64515C2.93817 2.35212 3.3356 2.1875 3.75 2.1875H16.25C16.6644 2.1875 17.0618 2.35212 17.3549 2.64515C17.6479 2.93817 17.8125 3.3356 17.8125 3.75ZM15.9375 4.0625H4.0625V15.9375H15.9375V4.0625Z"
    fill="currentColor" />
</svg>
