<svg width="20" height="20" viewBox="0 0 20 20" fill="none" xmlns="http://www.w3.org/2000/svg">
<path d="M16.25 2.5H3.75C3.41848 2.5 3.10054 2.6317 2.86612 2.86612C2.6317 3.10054 2.5 3.41848 2.5 3.75V16.25C2.5 16.5815 2.6317 16.8995 2.86612 17.1339C3.10054 17.3683 3.41848 17.5 3.75 17.5H16.25C16.5815 17.5 16.8995 17.3683 17.1339 17.1339C17.3683 16.8995 17.5 16.5815 17.5 16.25V3.75C17.5 3.41848 17.3683 3.10054 17.1339 2.86612C16.8995 2.6317 16.5815 2.5 16.25 2.5ZM13.8672 8.57812L9.28906 12.9531C9.17071 13.0645 9.01405 13.126 8.85156 13.125C8.69146 13.1256 8.53739 13.064 8.42188 12.9531L6.13281 10.7656C6.06932 10.7102 6.01769 10.6426 5.98101 10.5667C5.94434 10.4909 5.92338 10.4084 5.9194 10.3242C5.91541 10.24 5.92849 10.1559 5.95784 10.077C5.98719 9.99798 6.03221 9.92575 6.09018 9.86461C6.14816 9.80347 6.2179 9.75469 6.29521 9.72119C6.37253 9.68769 6.45581 9.67017 6.54007 9.66968C6.62432 9.66919 6.70781 9.68574 6.78551 9.71834C6.8632 9.75094 6.9335 9.79891 6.99219 9.85938L8.85156 11.6328L13.0078 7.67188C13.1293 7.56585 13.2871 7.51091 13.4482 7.51853C13.6093 7.52615 13.7612 7.59575 13.8722 7.71277C13.9832 7.8298 14.0446 7.98519 14.0437 8.14646C14.0428 8.30773 13.9795 8.4624 13.8672 8.57812Z" fill="currentColor"/>
</svg>
