<svg width="20" height="20" viewBox="0 0 20 20" fill="none" xmlns="http://www.w3.org/2000/svg">
<path d="M10.625 6.24998V9.64061L13.5625 11.3359C13.6806 11.4052 13.7726 11.5113 13.8245 11.638C13.8765 11.7646 13.8854 11.9048 13.8499 12.037C13.8144 12.1692 13.7365 12.2861 13.6281 12.3698C13.5197 12.4534 13.3869 12.4992 13.25 12.5C13.1396 12.5031 13.0308 12.4732 12.9375 12.414L9.6875 10.539H9.67188L9.64063 10.5234L9.61719 10.5L9.59375 10.4844L9.57031 10.4609L9.55469 10.4453C9.53906 10.4375 9.53125 10.4219 9.52344 10.414L9.50781 10.3984L9.49219 10.3672L9.47656 10.3437L9.46094 10.3203C9.45609 10.3167 9.45215 10.3119 9.44944 10.3065C9.44672 10.3011 9.44531 10.2951 9.44531 10.289L9.42969 10.2656C9.42969 10.2578 9.42188 10.25 9.42188 10.2344C9.41905 10.2312 9.4169 10.2275 9.41556 10.2234C9.41421 10.2194 9.4137 10.2152 9.41406 10.2109L9.39844 10.1797C9.3988 10.1754 9.39829 10.1712 9.39695 10.1671C9.3956 10.1631 9.39345 10.1594 9.39062 10.1562C9.39062 10.1406 9.39063 10.1328 9.38281 10.125V10.0937C9.38281 10.0781 9.375 10.0703 9.375 10.0625V6.24998C9.375 6.08422 9.44085 5.92525 9.55806 5.80804C9.67527 5.69083 9.83424 5.62498 10 5.62498C10.1658 5.62498 10.3247 5.69083 10.4419 5.80804C10.5592 5.92525 10.625 6.08422 10.625 6.24998ZM15.3047 4.69529C13.896 3.29174 11.9885 2.50366 10 2.50366C8.01146 2.50366 6.10397 3.29174 4.69531 4.69529L4.04688 5.34373L2.92969 4.22654C2.84298 4.13856 2.73213 4.07824 2.61116 4.05321C2.49019 4.02818 2.36451 4.03956 2.25 4.08592C2.13598 4.13422 2.0384 4.21453 1.96908 4.31714C1.89975 4.41974 1.86165 4.54024 1.85938 4.66404V7.78904C1.85938 7.9548 1.92522 8.11378 2.04243 8.23099C2.15964 8.3482 2.31861 8.41404 2.48438 8.41404H5.60938C5.73237 8.41384 5.85257 8.37735 5.95492 8.30915C6.05727 8.24095 6.13723 8.14407 6.18477 8.03063C6.23231 7.9172 6.24533 7.79226 6.22219 7.67146C6.19905 7.55066 6.14078 7.43938 6.05469 7.35154L4.92969 6.22654L5.57813 5.57811C6.45248 4.70472 7.56613 4.11016 8.77833 3.86956C9.99052 3.62897 11.2468 3.75315 12.3885 4.2264C13.5301 4.69965 14.5058 5.50073 15.1923 6.52839C15.8787 7.55605 16.2451 8.76414 16.2451 9.99998C16.2451 11.2358 15.8787 12.4439 15.1923 13.4716C14.5058 14.4992 13.5301 15.3003 12.3885 15.7736C11.2468 16.2468 9.99052 16.371 8.77833 16.1304C7.56613 15.8898 6.45248 15.2952 5.57813 14.4219C5.52064 14.363 5.45198 14.3163 5.37618 14.2844C5.30038 14.2525 5.21896 14.236 5.13672 14.236C5.05447 14.236 4.97306 14.2525 4.89726 14.2844C4.82146 14.3163 4.7528 14.363 4.69531 14.4219C4.57843 14.539 4.51279 14.6978 4.51279 14.8633C4.51279 15.0288 4.57843 15.1875 4.69531 15.3047C6.1022 16.7116 8.01036 17.5019 10 17.5019C11.9896 17.5019 13.8978 16.7116 15.3047 15.3047C16.7116 13.8978 17.502 11.9896 17.502 9.99998C17.502 8.01034 16.7116 6.10218 15.3047 4.69529Z" fill="currentColor"/>
</svg>
