<svg width="20" height="20" viewBox="0 0 20 20" fill="none" xmlns="http://www.w3.org/2000/svg">
<path d="M10.6249 6.25V9.64063L13.5624 11.3359C13.6805 11.4052 13.7725 11.5113 13.8245 11.638C13.8764 11.7647 13.8853 11.9049 13.8498 12.0371C13.8143 12.1693 13.7364 12.2862 13.628 12.3698C13.5196 12.4534 13.3868 12.4992 13.2499 12.5C13.1395 12.5031 13.0307 12.4732 12.9374 12.4141L9.68741 10.5391H9.67179L9.64054 10.5234L9.6171 10.5L9.59366 10.4844L9.57022 10.4609L9.5546 10.4453C9.53897 10.4375 9.53116 10.4219 9.52335 10.4141L9.50772 10.3984L9.4921 10.3672L9.47647 10.3438L9.46085 10.3203C9.456 10.3167 9.45206 10.312 9.44935 10.3065C9.44664 10.3011 9.44522 10.2951 9.44522 10.2891L9.4296 10.2656C9.4296 10.2578 9.42179 10.25 9.42179 10.2344C9.41896 10.2312 9.41681 10.2275 9.41547 10.2235C9.41412 10.2194 9.41362 10.2152 9.41397 10.2109L9.39835 10.1797C9.39871 10.1755 9.3982 10.1712 9.39686 10.1672C9.39551 10.1631 9.39336 10.1594 9.39054 10.1563C9.39054 10.1406 9.39054 10.1328 9.38272 10.125V10.0938C9.38272 10.0781 9.37491 10.0703 9.37491 10.0625V6.25C9.37491 6.08424 9.44076 5.92527 9.55797 5.80806C9.67518 5.69085 9.83415 5.625 9.99991 5.625C10.1657 5.625 10.3246 5.69085 10.4419 5.80806C10.5591 5.92527 10.6249 6.08424 10.6249 6.25ZM17.7499 4.08594C17.6354 4.03958 17.5097 4.0282 17.3888 4.05323C17.2678 4.07826 17.1569 4.13858 17.0702 4.22657L15.953 5.34375L15.3046 4.69532C14.2555 3.64681 12.9192 2.9329 11.4644 2.64383C10.0097 2.35476 8.50187 2.50351 7.13165 3.07128C5.76144 3.63905 4.59033 4.60035 3.76639 5.83363C2.94245 7.06692 2.50269 8.51681 2.50269 10C2.50269 11.4832 2.94245 12.9331 3.76639 14.1664C4.59033 15.3997 5.76144 16.361 7.13165 16.9287C8.50187 17.4965 10.0097 17.6453 11.4644 17.3562C12.9192 17.0671 14.2555 16.3532 15.3046 15.3047C15.4215 15.1875 15.4871 15.0288 15.4871 14.8633C15.4871 14.6978 15.4215 14.539 15.3046 14.4219C15.2471 14.3631 15.1785 14.3163 15.1027 14.2844C15.0269 14.2525 14.9454 14.2361 14.8632 14.2361C14.7809 14.2361 14.6995 14.2525 14.6237 14.2844C14.5479 14.3163 14.4793 14.3631 14.4218 14.4219C13.5474 15.2953 12.4338 15.8898 11.2216 16.1304C10.0094 16.371 8.75308 16.2468 7.61145 15.7736C6.46982 15.3003 5.49411 14.4993 4.80766 13.4716C4.12121 12.4439 3.75483 11.2358 3.75483 10C3.75483 8.76417 4.12121 7.55607 4.80766 6.52841C5.49411 5.50076 6.46982 4.69967 7.61145 4.22642C8.75308 3.75317 10.0094 3.62899 11.2216 3.86959C12.4338 4.11018 13.5474 4.70475 14.4218 5.57813L15.0702 6.22657L13.9452 7.35157C13.8591 7.4394 13.8009 7.55069 13.7777 7.67148C13.7546 7.79228 13.7676 7.91722 13.8151 8.03065C13.8627 8.14409 13.9426 8.24097 14.045 8.30918C14.1473 8.37738 14.2675 8.41386 14.3905 8.41407H17.5155C17.6813 8.41407 17.8403 8.34822 17.9575 8.23101C18.0747 8.1138 18.1405 7.95483 18.1405 7.78907V4.66407C18.1383 4.54026 18.1002 4.41976 18.0308 4.31716C17.9615 4.21456 17.8639 4.13424 17.7499 4.08594Z" fill="currentColor"/>
</svg>
