<svg width="28" height="28" viewBox="0 0 28 28" fill="none" xmlns="http://www.w3.org/2000/svg">
<g clip-path="url(#clip0_3_743)">
<path d="M28 0H0V28H28V0Z" fill="url(#paint0_linear_3_743)"/>
<path d="M11.76 17.92H7.65333C7.23791 17.912 6.83257 17.7907 6.48106 17.5691C5.9152 17.2224 5.44996 16.7337 5.13164 16.1514C4.81332 15.5691 4.65301 14.9136 4.66666 14.2502C4.6287 13.4901 4.84733 12.7393 5.28743 12.1184C5.72753 11.4975 6.36356 11.0426 7.09333 10.8267C7.09333 10.7296 7.09333 10.6326 7.09333 10.5355C7.1138 9.58696 7.39768 8.66282 7.91326 7.86638C8.42883 7.06995 9.15577 6.43261 10.0128 6.02563C10.9339 5.61809 11.9583 5.50445 12.9464 5.70019C13.9345 5.89594 14.8382 6.39155 15.5344 7.11949C16.0024 7.59612 16.3817 8.15238 16.6544 8.76216C17.0434 8.44815 17.5283 8.27687 18.0283 8.27683C19.0437 8.27683 20.1861 9.04589 20.3952 10.7334C21.3547 10.9611 23.3259 11.7451 23.3259 14.2838C23.3585 14.9195 23.2098 15.5515 22.8972 16.106C22.5846 16.6605 22.1208 17.1148 21.56 17.416L21.1867 16.7627C21.6288 16.5236 21.9936 16.1634 22.2382 15.7243C22.4829 15.2853 22.5973 14.7855 22.568 14.2838C22.568 12.0886 20.7499 11.5435 19.9547 11.4091C19.9058 11.4004 19.8592 11.382 19.8175 11.3551C19.7759 11.3282 19.74 11.2932 19.712 11.2523C19.6573 11.1741 19.6345 11.0779 19.6485 10.9835C19.5403 9.62829 18.7488 9.02349 18.0059 9.02349C17.7693 9.0256 17.5365 9.08391 17.3269 9.19361C17.1172 9.3033 16.9366 9.46125 16.8 9.65443C16.76 9.70918 16.7059 9.752 16.6434 9.77831C16.5809 9.80462 16.5124 9.81342 16.4453 9.80376C16.3784 9.79329 16.3157 9.76483 16.2637 9.72143C16.2118 9.67802 16.1726 9.62131 16.1504 9.55736C15.907 8.84081 15.5065 8.18773 14.9781 7.64589C14.3875 7.03294 13.6232 6.61562 12.7882 6.4501C11.9532 6.28457 11.0876 6.37877 10.3077 6.72003C9.5886 7.06983 8.97866 7.6094 8.54376 8.2805C8.10886 8.9516 7.86552 9.72874 7.84 10.528C7.84032 10.7002 7.85029 10.8722 7.86986 11.0432C7.88195 11.1379 7.85735 11.2335 7.80111 11.3106C7.74488 11.3877 7.66127 11.4403 7.56746 11.4576C6.93286 11.5873 6.36593 11.9406 5.96988 12.4531C5.57384 12.9657 5.37501 13.6034 5.4096 14.2502C5.39392 14.788 5.52153 15.3204 5.77935 15.7928C6.03716 16.2651 6.41591 16.6604 6.8768 16.9382C7.10897 17.0867 7.37774 17.1681 7.65333 17.1734H11.76V17.92Z" fill="white"/>
<path d="M22.9189 20.1601L20.2683 17.4982C20.6484 16.6445 20.7144 15.6839 20.4547 14.7862C20.1949 13.8885 19.6262 13.1115 18.8489 12.5927C18.0717 12.0738 17.136 11.8465 16.2074 11.9508C15.2787 12.0552 14.4168 12.4845 13.7741 13.1629C13.1314 13.8413 12.7492 14.7251 12.6952 15.6581C12.6412 16.591 12.9187 17.513 13.4788 18.2611C14.0389 19.0092 14.8455 19.5351 15.7559 19.746C16.6663 19.9569 17.6219 19.8391 18.4539 19.4134L21.0672 22.0267C21.3165 22.27 21.6522 22.4042 22.0005 22.4001C22.1725 22.4025 22.3432 22.3707 22.5028 22.3066C22.6623 22.2425 22.8076 22.1474 22.9301 22.0267C23.0527 21.9038 23.1496 21.7579 23.2154 21.5973C23.2813 21.4367 23.3146 21.2646 23.3136 21.0911C23.3125 20.9175 23.2771 20.7459 23.2094 20.5861C23.1416 20.4263 23.0429 20.2815 22.9189 20.1601ZM16.6507 19.1035C16.0164 19.1035 15.3964 18.9155 14.869 18.5631C14.3416 18.2107 13.9306 17.7098 13.6878 17.1239C13.4451 16.5379 13.3816 15.8931 13.5054 15.271C13.6291 14.6489 13.9345 14.0775 14.383 13.629C14.8315 13.1805 15.4029 12.875 16.025 12.7513C16.6471 12.6276 17.2919 12.6911 17.8779 12.9338C18.4639 13.1765 18.9648 13.5876 19.3171 14.1149C19.6695 14.6423 19.8576 15.2623 19.8576 15.8966C19.8576 16.7471 19.5197 17.5628 18.9183 18.1643C18.3169 18.7657 17.5012 19.1035 16.6507 19.1035ZM22.4 21.4854C22.2911 21.5886 22.1468 21.6461 21.9968 21.6461C21.8468 21.6461 21.7025 21.5886 21.5936 21.4854L19.1072 18.999C19.4108 18.7608 19.6775 18.479 19.8987 18.1627L22.4 20.679C22.5058 20.7865 22.5651 20.9314 22.5651 21.0822C22.5651 21.2331 22.5058 21.3779 22.4 21.4854Z" fill="white"/>
<path d="M17.6773 14.1605L17.2331 14.7616C17.0332 14.6136 16.794 14.5281 16.5456 14.5159C16.2972 14.5038 16.0507 14.5655 15.8374 14.6933C15.6241 14.8212 15.4534 15.0094 15.347 15.2342C15.2406 15.459 15.2031 15.7102 15.2395 15.9563C15.2602 16.1234 15.3149 16.2845 15.4003 16.4296C15.4857 16.5747 15.6 16.7008 15.736 16.8L15.3067 17.3824C14.8902 17.0621 14.6162 16.5912 14.5435 16.0709C14.4707 15.5506 14.6051 15.0225 14.9177 14.6003C15.2304 14.1781 15.6962 13.8955 16.2151 13.8132C16.734 13.731 17.2644 13.8557 17.6923 14.1605H17.6773Z" fill="white"/>
</g>
<defs>
<linearGradient id="paint0_linear_3_743" x1="-5.79787" y1="33.7979" x2="33.7979" y2="-5.79787" gradientUnits="userSpaceOnUse">
<stop stop-color="#B0084D"/>
<stop offset="1" stop-color="#FF4F8B"/>
</linearGradient>
<clipPath id="clip0_3_743">
<rect width="28" height="28" rx="14" fill="white"/>
</clipPath>
</defs>
</svg>
