<svg width="20" height="20" viewBox="0 0 20 20" fill="none" xmlns="http://www.w3.org/2000/svg">
<path d="M17.9607 10.1371C17.7774 8.93888 17.0075 7.99184 15.9009 7.6048C15.6353 7.51216 15.5282 7.39788 15.4459 7.11684C15.1401 6.08128 14.4309 5.47392 13.4499 5.40704C13.4149 5.40496 13.3778 5.40292 13.3418 5.40292C13.0484 5.40292 12.7622 5.48012 12.4863 5.55528C12.4194 5.5738 12.3546 5.59128 12.2907 5.60672C11.2397 3.98748 9.9705 3.2 8.41814 3.2C8.10006 3.2 7.7645 3.23397 7.4217 3.30191C6.62494 3.4594 5.90846 3.86087 5.29186 4.49396C4.46526 5.34216 4.02366 6.37876 3.9763 7.57804C2.39309 8.4108 1.8156 9.5246 2.0503 11.2705C2.1378 11.92 2.4775 12.5891 2.9819 13.1059C3.53675 13.6731 4.2213 13.985 4.90998 13.985C4.97686 13.985 14.2301 13.9757 14.2301 13.9757H14.2363C14.4834 13.9757 15.7433 13.9531 16.3631 13.5074C16.4186 13.4703 16.4711 13.4374 16.5205 13.4054C16.6266 13.3385 16.7264 13.2747 16.8232 13.2026C17.6992 12.551 18.1449 11.3477 17.9596 10.1361L17.9607 10.1371ZM14.2363 13.6844H14.2353C14.2353 13.6844 14.2384 13.6844 14.2394 13.6844C14.2394 13.6844 14.2373 13.6844 14.2363 13.6844Z" fill="currentColor"/>
<path d="M8.26563 11.6239C8.26975 9.983 9.58431 8.5192 11.1665 8.39672C12.9854 8.25568 14.5501 9.41992 14.7632 11.1339C14.824 11.6239 14.7468 12.1427 14.6623 12.6368C14.617 12.9014 14.6314 13.065 14.8301 13.2555C15.4334 13.834 16.0191 14.431 16.6038 15.0281C17.137 15.5716 17.1864 16.2438 16.7407 16.7081C16.2723 17.196 15.596 17.163 15.0247 16.6082C14.511 16.109 13.987 15.6169 13.5104 15.0837C13.1975 14.7337 12.9082 14.6657 12.4502 14.7975C10.2946 15.4172 8.26051 13.8566 8.26563 11.6239ZM11.5474 14.2426C12.9865 14.2385 14.1157 13.1175 14.1168 11.6898C14.1188 10.2455 12.9607 9.07096 11.535 9.072C10.1556 9.072 8.91623 10.3032 8.93783 11.6496C8.96151 13.1052 10.1093 14.2468 11.5474 14.2437V14.2426Z" fill="currentColor"/>
<path d="M11.5473 14.2436C10.1103 14.2477 8.96146 13.1061 8.93778 11.6495C8.91618 10.303 10.1555 9.07292 11.5349 9.07188C12.9607 9.07188 14.1187 10.2454 14.1167 11.6896C14.1146 13.1174 12.9864 14.2394 11.5473 14.2425V14.2436Z" fill="black"/>
<path d="M13.928 14.025L13.9342 14.0198C14.0886 13.8963 14.3109 13.9066 14.453 14.0435C15.014 14.584 15.6131 15.1522 16.1854 15.7472C16.2256 15.7883 16.2328 15.8604 16.2287 15.9438C16.2194 16.1394 16.0609 16.2958 15.8663 16.3102C15.7428 16.3195 15.6306 16.3164 15.5678 16.2588C14.9955 15.7348 14.454 15.1779 13.893 14.6097C13.7283 14.4429 13.7448 14.1701 13.928 14.024V14.025Z" fill="black"/>
<path d="M12.3004 10.168C12.2706 10.0538 12.1923 9.96113 12.0853 9.91277C11.8598 9.81085 11.622 9.75937 11.3781 9.75937C10.815 9.75937 10.3034 10.0311 9.97395 10.5067C9.51691 11.1666 9.56015 12.022 10.0769 12.5892C10.1531 12.6726 10.256 12.7189 10.3652 12.7189C10.4918 12.7189 10.6132 12.6592 10.6894 12.5604C10.7625 12.4657 10.7852 12.3483 10.7543 12.2299C10.7337 12.1517 10.6894 12.0714 10.6441 11.9695C10.3507 11.3096 10.465 11.1882 10.675 10.9442C10.885 10.7002 11.1063 10.5736 11.3431 10.5736C11.4275 10.5736 11.5181 10.5819 11.6107 10.5973C11.6581 10.6055 11.7075 10.6189 11.7754 10.6446C11.8197 10.6611 11.867 10.6694 11.9134 10.6694C12.039 10.6694 12.1594 10.6086 12.2335 10.5078C12.3045 10.41 12.3282 10.2874 12.2973 10.1701L12.3004 10.168ZM10.6863 12.2474C10.6832 12.234 10.6781 12.2196 10.6729 12.2052C10.6781 12.2196 10.6822 12.234 10.6863 12.2474ZM10.3672 12.6458C10.3672 12.6458 10.358 12.6448 10.3538 12.6448C10.36 12.6448 10.3652 12.6448 10.3713 12.6448C10.3703 12.6448 10.3682 12.6448 10.3672 12.6448V12.6458ZM11.3688 9.83349C11.3688 9.83349 11.376 9.83349 11.3801 9.83349C11.3914 9.83349 11.4018 9.83453 11.4131 9.83557C11.3987 9.83557 11.3842 9.83453 11.3698 9.83453L11.3688 9.83349ZM11.9175 10.5952C11.9175 10.5952 11.9144 10.5952 11.9134 10.5952C11.9185 10.5952 11.9226 10.5952 11.9268 10.5952C11.9236 10.5952 11.9206 10.5963 11.9175 10.5963V10.5952ZM12.0564 9.97969C12.1254 10.0106 12.1769 10.0641 12.2078 10.1258C12.1769 10.063 12.1254 10.0106 12.0564 9.97969ZM12.179 10.4635C12.1944 10.4429 12.2057 10.4213 12.216 10.3986C12.2068 10.4213 12.1944 10.4429 12.179 10.4635Z" fill="currentColor"/>
</svg>
