<svg width="20" height="20" viewBox="0 0 20 20" fill="none" xmlns="http://www.w3.org/2000/svg">
<path d="M5.47647 6.47651C5.42509 6.41256 5.36133 6.35964 5.28902 6.32092C5.2167 6.28221 5.1373 6.25849 5.0556 6.25119C4.97389 6.2439 4.89155 6.25318 4.81352 6.27847C4.73549 6.30376 4.66336 6.34455 4.60147 6.39838L0.851468 9.52338C0.78111 9.58128 0.724446 9.65405 0.685543 9.73644C0.646641 9.81884 0.626465 9.90883 0.626465 9.99995C0.626465 10.0911 0.646641 10.1811 0.685543 10.2635C0.724446 10.3458 0.78111 10.4186 0.851468 10.4765L4.60147 13.6015C4.66336 13.6553 4.73549 13.6961 4.81352 13.7214C4.89155 13.7467 4.97389 13.756 5.0556 13.7487C5.1373 13.7414 5.2167 13.7177 5.28902 13.679C5.36133 13.6403 5.42509 13.5873 5.47647 13.5234C5.53031 13.4615 5.57109 13.3894 5.59639 13.3113C5.62168 13.2333 5.63095 13.151 5.62366 13.0693C5.61636 12.9875 5.59265 12.9082 5.55393 12.8358C5.51521 12.7635 5.46229 12.6998 5.39834 12.6484L2.22647 9.99995L5.39834 7.35151C5.46229 7.30013 5.51521 7.23638 5.55393 7.16406C5.59265 7.09174 5.61636 7.01235 5.62366 6.93064C5.63095 6.84893 5.62168 6.7666 5.59639 6.68856C5.57109 6.61053 5.53031 6.5384 5.47647 6.47651Z" fill="currentColor"/>
<path d="M19.1484 9.52337L15.3984 6.39837C15.2702 6.31334 15.1152 6.27856 14.963 6.30069C14.8108 6.32282 14.6721 6.4003 14.5734 6.5183C14.4747 6.63631 14.4231 6.78655 14.4283 6.94027C14.4334 7.094 14.4951 7.24041 14.6015 7.3515L17.7734 9.99993L14.6015 12.6484C14.5043 12.7308 14.4347 12.8411 14.4019 12.9642C14.3691 13.0874 14.3748 13.2177 14.4181 13.3375C14.4615 13.4574 14.5405 13.5612 14.6445 13.6349C14.7484 13.7086 14.8725 13.7487 15 13.7499C15.1464 13.7506 15.2881 13.6978 15.3984 13.6015L19.1484 10.4765C19.2188 10.4186 19.2754 10.3458 19.3143 10.2634C19.3532 10.181 19.3734 10.0911 19.3734 9.99993C19.3734 9.90882 19.3532 9.81883 19.3143 9.73643C19.2754 9.65403 19.2188 9.58127 19.1484 9.52337Z" fill="currentColor"/>
<path d="M12.7108 2.53901C12.6339 2.51054 12.5521 2.49768 12.4702 2.50117C12.3882 2.50466 12.3079 2.52444 12.2337 2.55936C12.1595 2.59427 12.093 2.64361 12.0381 2.7045C11.9832 2.7654 11.941 2.83662 11.9139 2.91401L6.91389 16.664C6.88542 16.7409 6.87256 16.8227 6.87605 16.9046C6.87954 16.9865 6.89932 17.0669 6.93423 17.1411C6.96914 17.2153 7.01849 17.2818 7.07938 17.3367C7.14027 17.3916 7.2115 17.4338 7.28889 17.4609C7.35665 17.4851 7.42787 17.4983 7.49983 17.4999C7.62846 17.5006 7.75409 17.461 7.85914 17.3868C7.9642 17.3126 8.04343 17.2074 8.08576 17.0859L13.0858 3.33589C13.1142 3.259 13.1271 3.1772 13.1236 3.09529C13.1201 3.01337 13.1003 2.93297 13.0654 2.85879C13.0305 2.7846 12.9812 2.71811 12.9203 2.66321C12.8594 2.6083 12.7882 2.56608 12.7108 2.53901Z" fill="currentColor"/>
</svg>
