<svg width="20" height="20" viewBox="0 0 20 20" fill="none" xmlns="http://www.w3.org/2000/svg">
<path d="M18.125 9.90628V6.14846C18.1261 5.93181 18.0695 5.71877 17.9609 5.53128H17.9531C17.8424 5.33735 17.6801 5.17782 17.4844 5.07034L10.6094 1.20315C10.4231 1.09915 10.2133 1.04456 10 1.04456C9.78667 1.04456 9.57689 1.09915 9.39062 1.20315L2.51563 5.07034C2.3215 5.18001 2.1598 5.33902 2.04688 5.53128C2.04688 5.53335 2.04605 5.53534 2.04459 5.5368C2.04312 5.53827 2.04113 5.53909 2.03906 5.53909V5.55471C1.93241 5.73446 1.87576 5.93946 1.875 6.14846V9.90628V13.8516C1.8754 14.0743 1.93491 14.2929 2.04746 14.4851C2.16002 14.6772 2.32158 14.8361 2.51563 14.9453L5.95312 16.875L9.39062 18.8125C9.56371 18.9069 9.75614 18.9604 9.95312 18.9688H10.0547C10.2492 18.9603 10.4391 18.9068 10.6094 18.8125L14.0469 16.875L17.4844 14.9453C17.6784 14.8361 17.84 14.6772 17.9525 14.4851C18.0651 14.2929 18.1246 14.0743 18.125 13.8516V9.90628ZM6.55469 11.4844L3.125 9.5469V6.84378L9.44531 10.3672L9.38281 17.375L6.875 15.961V12.0235C6.87464 11.9132 6.84473 11.805 6.7884 11.7102C6.73207 11.6154 6.65137 11.5374 6.55469 11.4844ZM6.17188 4.42971L9.69531 6.40628C9.78712 6.46217 9.89252 6.49173 10 6.49173C10.1075 6.49173 10.2129 6.46217 10.3047 6.40628L13.8281 4.42971L16.2266 5.78128L10.0703 9.28128L3.78125 5.78128L6.17188 4.42971ZM10.6953 10.3672L16.875 6.85159V9.5469L13.4453 11.4844C13.3486 11.5374 13.2679 11.6154 13.2116 11.7102C13.1553 11.805 13.1254 11.9132 13.125 12.0235V15.961L10.6328 17.3672L10.6953 10.3672Z" fill="currentColor"/>
</svg>
