<svg width="20" height="20" viewBox="0 0 20 20" fill="none" xmlns="http://www.w3.org/2000/svg">
<path d="M18.75 7.89062V12.8906C18.7502 13.002 18.7206 13.1115 18.6643 13.2077C18.608 13.3038 18.527 13.3832 18.4297 13.4375L11.0938 17.6016C11.046 17.6291 10.9919 17.6435 10.9368 17.6434C10.8817 17.6433 10.8276 17.6286 10.78 17.6009C10.7324 17.5731 10.693 17.5332 10.6658 17.4854C10.6386 17.4375 10.6245 17.3832 10.625 17.3281V12.8672L14.9844 10.3906L17.5 11.8203V8.96093L14.9844 10.3906L13.7188 9.67187L16.8594 7.89062L10.625 4.35155V7.91405L13.7188 9.67187L10 11.7812L6.28125 9.67187L9.375 7.91405V4.35155L3.14063 7.89062L6.28125 9.67187L5.01563 10.3906L2.5 8.96093V11.8203L5.01563 10.3906L9.375 12.8672V17.3281C9.3755 17.3832 9.36142 17.4375 9.33419 17.4854C9.30697 17.5332 9.26756 17.5731 9.21997 17.6009C9.17238 17.6286 9.1183 17.6433 9.06321 17.6434C9.00811 17.6435 8.95396 17.6291 8.90625 17.6016L1.57031 13.4375C1.47302 13.3832 1.39202 13.3038 1.3357 13.2077C1.27938 13.1115 1.24979 13.002 1.25 12.8906V7.89062C1.24979 7.77918 1.27938 7.66972 1.3357 7.57357C1.39202 7.47741 1.47302 7.39806 1.57031 7.34374L9.38281 2.91405C9.57072 2.80647 9.78348 2.74988 10 2.74988C10.2165 2.74988 10.4293 2.80647 10.6172 2.91405L18.4297 7.34374C18.527 7.39806 18.608 7.47741 18.6643 7.57357C18.7206 7.66972 18.7502 7.77918 18.75 7.89062Z" fill="currentColor"/>
</svg>
