<svg width="20" height="20" viewBox="0 0 20 20" fill="none" xmlns="http://www.w3.org/2000/svg">
<path d="M7.34393 4.58595C7.28958 4.52434 7.22363 4.47405 7.14983 4.43795C7.07604 4.40186 6.99585 4.38066 6.91386 4.37559C6.83186 4.37051 6.74967 4.38164 6.67199 4.40835C6.5943 4.43507 6.52264 4.47683 6.46111 4.53126L0.836113 9.53126C0.769609 9.58991 0.716346 9.66204 0.679863 9.74286C0.64338 9.82368 0.624512 9.91134 0.624512 10C0.624512 10.0887 0.64338 10.1763 0.679863 10.2572C0.716346 10.338 0.769609 10.4101 0.836113 10.4688L6.46111 15.4688C6.57583 15.569 6.72285 15.6245 6.87518 15.625C7.00218 15.6251 7.12622 15.5866 7.23076 15.5145C7.3353 15.4423 7.41539 15.3401 7.46036 15.2213C7.50532 15.1025 7.51304 14.9728 7.48247 14.8496C7.4519 14.7263 7.38449 14.6153 7.28924 14.5313L2.18768 10L7.28924 5.46876C7.35085 5.41442 7.40114 5.34846 7.43723 5.27467C7.47333 5.20087 7.49452 5.12068 7.4996 5.03869C7.50468 4.9567 7.49354 4.87451 7.46683 4.79682C7.44012 4.71914 7.39836 4.64748 7.34393 4.58595Z" fill="currentColor"/>
<path d="M19.1642 9.5312L13.5392 4.5312C13.4149 4.42139 13.2521 4.36545 13.0865 4.37571C12.9209 4.38597 12.7662 4.46157 12.6564 4.58589C12.5466 4.71021 12.4907 4.87306 12.5009 5.03862C12.5112 5.20418 12.5868 5.35889 12.7111 5.4687L17.8127 9.99995L12.7111 14.5312C12.6159 14.6152 12.5485 14.7262 12.5179 14.8495C12.4873 14.9728 12.495 15.1025 12.54 15.2212C12.585 15.34 12.6651 15.4423 12.7696 15.5144C12.8741 15.5865 12.9982 15.6251 13.1252 15.625C13.2775 15.6244 13.4245 15.5689 13.5392 15.4687L19.1642 10.4687C19.2307 10.4101 19.284 10.3379 19.3205 10.2571C19.357 10.1763 19.3758 10.0886 19.3758 9.99995C19.3758 9.91128 19.357 9.82362 19.3205 9.7428C19.284 9.66198 19.2307 9.58985 19.1642 9.5312Z" fill="currentColor"/>
</svg>
