<svg width="20" height="20" viewBox="0 0 20 20" fill="none" xmlns="http://www.w3.org/2000/svg">
<path fill-rule="evenodd" clip-rule="evenodd" d="M12.157 3.79383C12.0751 3.61284 11.8938 3.49752 11.6952 3.50004C11.4966 3.50256 11.3183 3.62243 11.2409 3.80543L8.43641 10.4442L7.29719 8.11376C7.21401 7.9436 7.04184 7.83505 6.85245 7.83336C6.66307 7.83167 6.48898 7.93713 6.40278 8.10577L1.97276 16.7724C1.89353 16.9274 1.90062 17.1125 1.99148 17.261C2.08234 17.4095 2.24389 17.5 2.41797 17.5H11.0846C11.0858 17.5 11.087 17.5 11.0882 17.5H17.5856C17.7555 17.5 17.9137 17.4138 18.0058 17.271C18.0979 17.1283 18.1112 16.9486 18.0411 16.7938L12.157 3.79383ZM11.3968 16.5H16.8105L11.7173 5.24746L9.01875 11.6354L11.3968 16.5ZM8.50275 12.8569L10.2837 16.5H6.96373L8.50275 12.8569ZM7.92042 11.6656L5.87815 16.5H3.23508L6.83801 9.45142L7.92042 11.6656Z" fill="currentColor"/>
</svg>
