<svg width="20" height="20" viewBox="0 0 20 20" fill="none" xmlns="http://www.w3.org/2000/svg">
<path d="M14.0625 11.25H12.5V8.75H14.0625C14.6188 8.75 15.1625 8.58505 15.625 8.27601C16.0876 7.96697 16.448 7.52772 16.6609 7.0138C16.8738 6.49988 16.9295 5.93438 16.821 5.38881C16.7124 4.84324 16.4446 4.3421 16.0512 3.94876C15.6579 3.55543 15.1568 3.28756 14.6112 3.17904C14.0656 3.07052 13.5001 3.12622 12.9862 3.33909C12.4723 3.55196 12.033 3.91245 11.724 4.37496C11.415 4.83747 11.25 5.38124 11.25 5.9375V7.5H8.75V5.9375C8.75 5.38124 8.58505 4.83747 8.27601 4.37496C7.96697 3.91245 7.52772 3.55196 7.0138 3.33909C6.49988 3.12622 5.93438 3.07052 5.38881 3.17904C4.84324 3.28756 4.3421 3.55543 3.94876 3.94876C3.55543 4.3421 3.28756 4.84324 3.17904 5.38881C3.07052 5.93438 3.12622 6.49988 3.33909 7.0138C3.55196 7.52772 3.91245 7.96697 4.37496 8.27601C4.83747 8.58505 5.38124 8.75 5.9375 8.75H7.5V11.25H5.9375C5.38124 11.25 4.83747 11.415 4.37496 11.724C3.91245 12.033 3.55196 12.4723 3.33909 12.9862C3.12622 13.5001 3.07052 14.0656 3.17904 14.6112C3.28756 15.1568 3.55543 15.6579 3.94876 16.0512C4.3421 16.4446 4.84324 16.7124 5.38881 16.821C5.93438 16.9295 6.49988 16.8738 7.0138 16.6609C7.52772 16.448 7.96697 16.0876 8.27601 15.625C8.58505 15.1625 8.75 14.6188 8.75 14.0625V12.5H11.25V14.0625C11.25 14.6188 11.415 15.1625 11.724 15.625C12.033 16.0876 12.4723 16.448 12.9862 16.6609C13.5001 16.8738 14.0656 16.9295 14.6112 16.821C15.1568 16.7124 15.6579 16.4446 16.0512 16.0512C16.4446 15.6579 16.7124 15.1568 16.821 14.6112C16.9295 14.0656 16.8738 13.5001 16.6609 12.9862C16.448 12.4723 16.0876 12.033 15.625 11.724C15.1625 11.415 14.6188 11.25 14.0625 11.25ZM12.5 5.9375C12.5 5.62847 12.5916 5.32637 12.7633 5.06942C12.935 4.81247 13.179 4.6122 13.4646 4.49394C13.7501 4.37568 14.0642 4.34473 14.3673 4.40502C14.6704 4.46531 14.9488 4.61413 15.1674 4.83265C15.3859 5.05117 15.5347 5.32958 15.595 5.63267C15.6553 5.93577 15.6243 6.24993 15.5061 6.53544C15.3878 6.82095 15.1875 7.06498 14.9306 7.23667C14.6736 7.40836 14.3715 7.5 14.0625 7.5H12.5V5.9375ZM4.375 5.9375C4.375 5.5231 4.53962 5.12567 4.83265 4.83265C5.12567 4.53962 5.5231 4.375 5.9375 4.375C6.3519 4.375 6.74933 4.53962 7.04236 4.83265C7.33538 5.12567 7.5 5.5231 7.5 5.9375V7.5H5.9375C5.52373 7.49795 5.1275 7.33267 4.83492 7.04009C4.54233 6.7475 4.37705 6.35127 4.375 5.9375ZM7.5 14.0625C7.5 14.3715 7.40836 14.6736 7.23667 14.9306C7.06498 15.1875 6.82095 15.3878 6.53544 15.5061C6.24993 15.6243 5.93577 15.6553 5.63267 15.595C5.32958 15.5347 5.05117 15.3859 4.83265 15.1674C4.61413 14.9488 4.46531 14.6704 4.40502 14.3673C4.34473 14.0642 4.37568 13.7501 4.49394 13.4646C4.6122 13.179 4.81247 12.935 5.06942 12.7633C5.32637 12.5916 5.62847 12.5 5.9375 12.5H7.5V14.0625ZM8.75 8.75H11.25V11.25H8.75V8.75ZM14.0625 15.625C13.6487 15.6229 13.2525 15.4577 12.9599 15.1651C12.6673 14.8725 12.5021 14.4763 12.5 14.0625V12.5H14.0625C14.4769 12.5 14.8743 12.6646 15.1674 12.9576C15.4604 13.2507 15.625 13.6481 15.625 14.0625C15.625 14.4769 15.4604 14.8743 15.1674 15.1674C14.8743 15.4604 14.4769 15.625 14.0625 15.625Z" fill="currentColor"/>
</svg>
