<svg width="20" height="20" viewBox="0 0 20 20" fill="none" xmlns="http://www.w3.org/2000/svg">
<path d="M10 1.875C5.79688 1.875 2.5 3.79688 2.5 6.25V13.75C2.5 16.2031 5.79688 18.125 10 18.125C14.2031 18.125 17.5 16.2031 17.5 13.75V6.25C17.5 3.79688 14.2031 1.875 10 1.875ZM16.25 10C16.25 10.75 15.6328 11.5156 14.5625 12.1016C13.3516 12.7656 11.7344 13.125 10 13.125C8.26562 13.125 6.64844 12.7656 5.4375 12.1016C4.36719 11.5156 3.75 10.75 3.75 10V8.70312C5.08594 9.86719 7.35938 10.625 10 10.625C12.6406 10.625 14.9141 9.86719 16.25 8.70312V10ZM14.5625 15.8516C13.3516 16.5156 11.7344 16.875 10 16.875C8.26562 16.875 6.64844 16.5156 5.4375 15.8516C4.36719 15.2656 3.75 14.5 3.75 13.75V12.4531C5.08594 13.6172 7.35938 14.375 10 14.375C12.6406 14.375 14.9141 13.6172 16.25 12.4531V13.75C16.25 14.5 15.6328 15.2656 14.5625 15.8516Z" fill="currentColor"/>
</svg>
