<svg width="20" height="20" viewBox="0 0 20 20" fill="none" xmlns="http://www.w3.org/2000/svg">
<path d="M16.25 3.125H3.75C3.25335 3.12706 2.77763 3.32526 2.42645 3.67645C2.07526 4.02763 1.87706 4.50335 1.875 5V13.75C1.87706 14.2466 2.07526 14.7224 2.42645 15.0736C2.77763 15.4247 3.25335 15.6229 3.75 15.625H9.375V16.875H7.5C7.33424 16.875 7.17527 16.9408 7.05806 17.0581C6.94085 17.1753 6.875 17.3342 6.875 17.5C6.875 17.6658 6.94085 17.8247 7.05806 17.9419C7.17527 18.0592 7.33424 18.125 7.5 18.125H12.5C12.6658 18.125 12.8247 18.0592 12.9419 17.9419C13.0592 17.8247 13.125 17.6658 13.125 17.5C13.125 17.3342 13.0592 17.1753 12.9419 17.0581C12.8247 16.9408 12.6658 16.875 12.5 16.875H10.625V15.625H16.25C16.7466 15.6229 17.2224 15.4247 17.5736 15.0736C17.9247 14.7224 18.1229 14.2466 18.125 13.75V5C18.1229 4.50335 17.9247 4.02763 17.5736 3.67645C17.2224 3.32526 16.7466 3.12706 16.25 3.125ZM16.25 14.375H3.75C3.58424 14.375 3.42527 14.3092 3.30806 14.1919C3.19085 14.0747 3.125 13.9158 3.125 13.75V12.5H16.875V13.75C16.875 13.9158 16.8092 14.0747 16.6919 14.1919C16.5747 14.3092 16.4158 14.375 16.25 14.375Z" fill="currentColor"/>
</svg>
