<svg width="20" height="20" viewBox="0 0 20 20" fill="none" xmlns="http://www.w3.org/2000/svg">
<path d="M13.75 1.25H6.25C5.75335 1.25206 5.27763 1.45026 4.92645 1.80145C4.57526 2.15263 4.37706 2.62835 4.375 3.125V16.875C4.37706 17.3716 4.57526 17.8474 4.92645 18.1986C5.27763 18.5497 5.75335 18.7479 6.25 18.75H13.75C14.2466 18.7479 14.7224 18.5497 15.0736 18.1986C15.4247 17.8474 15.6229 17.3716 15.625 16.875V3.125C15.6229 2.62835 15.4247 2.15263 15.0736 1.80145C14.7224 1.45026 14.2466 1.25206 13.75 1.25ZM6.25 2.5H13.75C13.9158 2.5 14.0747 2.56585 14.1919 2.68306C14.3092 2.80027 14.375 2.95924 14.375 3.125V3.75H5.625V3.125C5.625 2.95924 5.69085 2.80027 5.80806 2.68306C5.92527 2.56585 6.08424 2.5 6.25 2.5ZM13.75 17.5H6.25C6.08424 17.5 5.92527 17.4342 5.80806 17.3169C5.69085 17.1997 5.625 17.0408 5.625 16.875V16.25H14.375V16.875C14.375 17.0408 14.3092 17.1997 14.1919 17.3169C14.0747 17.4342 13.9158 17.5 13.75 17.5Z" fill="currentColor"/>
</svg>
