<svg width="20" height="20" viewBox="0 0 20 20" fill="none" xmlns="http://www.w3.org/2000/svg">
<path d="M19.3204 13.2656L16.6641 4.4219C16.6131 4.24303 16.5218 4.07822 16.3972 3.94009C16.2726 3.80197 16.1181 3.69419 15.9454 3.62502H15.8985L15.9454 3.6094C15.0738 3.26017 14.1714 2.99338 13.2501 2.81252C13.1695 2.7966 13.0866 2.79671 13.0061 2.81283C12.9256 2.82895 12.8491 2.86077 12.7809 2.90648C12.7127 2.95219 12.6542 3.01088 12.6087 3.07921C12.5632 3.14754 12.5316 3.22416 12.5157 3.30471C12.4986 3.38478 12.4976 3.46745 12.5128 3.54791C12.528 3.62836 12.559 3.70499 12.6041 3.77334C12.6492 3.84169 12.7074 3.90038 12.7754 3.946C12.8434 3.99163 12.9197 4.02327 13.0001 4.03908C13.3516 4.1094 13.6954 4.19533 14.0313 4.28908C14.1551 4.35331 14.2538 4.45706 14.3117 4.58384C14.3697 4.71062 14.3837 4.85314 14.3513 4.98875C14.319 5.12436 14.2423 5.24527 14.1333 5.33225C14.0244 5.41922 13.8895 5.46728 13.7501 5.46877H13.6876C12.4836 5.15479 11.2443 4.99725 10.0001 5.00002C8.78511 4.9964 7.5747 5.14868 6.3985 5.45315C6.24883 5.49264 6.08983 5.47518 5.95229 5.40416C5.81476 5.33314 5.70847 5.21361 5.65401 5.06871C5.59955 4.92381 5.6008 4.76386 5.65751 4.61983C5.71423 4.47581 5.82237 4.35795 5.961 4.28908H5.96882C6.30475 4.19533 6.6485 4.1094 7.00007 4.03908C7.08061 4.0232 7.15724 3.9916 7.22557 3.94609C7.2939 3.90058 7.35259 3.84206 7.3983 3.77386C7.444 3.70566 7.47583 3.62913 7.49195 3.54863C7.50807 3.46813 7.50817 3.38525 7.49225 3.30471C7.4583 3.14305 7.36248 3.00108 7.22526 2.90911C7.08805 2.81715 6.92031 2.78248 6.75788 2.81252C5.83321 2.99743 4.92813 3.26947 4.05475 3.62502C3.88208 3.69419 3.72754 3.80197 3.60295 3.94009C3.47837 4.07822 3.38705 4.24303 3.336 4.4219L0.679754 13.2656C0.610845 13.4969 0.610323 13.7431 0.67825 13.9746C0.746178 14.2061 0.879652 14.413 1.06257 14.5703C1.13444 14.6396 1.21007 14.7048 1.28913 14.7656H1.29694C2.56257 15.7969 4.22663 16.586 6.10163 17.0391C6.14962 17.0544 6.19968 17.0624 6.25007 17.0625C6.40459 17.065 6.55455 17.0101 6.67097 16.9085C6.7874 16.8068 6.86205 16.6657 6.8805 16.5122C6.89895 16.3588 6.8599 16.2039 6.77088 16.0776C6.68187 15.9513 6.5492 15.8624 6.3985 15.8281C5.55557 15.6245 4.73607 15.3339 3.95319 14.961C3.84604 14.8606 3.77766 14.7256 3.76005 14.5799C3.74244 14.4341 3.77671 14.2867 3.85687 14.1637C3.93703 14.0407 4.05795 13.9498 4.19841 13.907C4.33888 13.8642 4.48993 13.8723 4.62507 13.9297C6.10944 14.586 7.97663 15 10.0001 15C12.0235 15 13.8907 14.586 15.3751 13.9297C15.5102 13.8723 15.6613 13.8642 15.8017 13.907C15.9422 13.9498 16.0631 14.0407 16.1433 14.1637C16.2234 14.2867 16.2577 14.4341 16.2401 14.5799C16.2225 14.7256 16.1541 14.8606 16.0469 14.961C15.2641 15.3339 14.4446 15.6245 13.6016 15.8281C13.4509 15.8624 13.3183 15.9513 13.2292 16.0776C13.1402 16.2039 13.1012 16.3588 13.1196 16.5122C13.1381 16.6657 13.2127 16.8068 13.3292 16.9085C13.4456 17.0101 13.5955 17.065 13.7501 17.0625C13.8005 17.0624 13.8505 17.0544 13.8985 17.0391C15.7735 16.586 17.4376 15.7969 18.7032 14.7656H18.711C18.7901 14.7048 18.8657 14.6396 18.9376 14.5703C19.1205 14.413 19.254 14.2061 19.3219 13.9746C19.3898 13.7431 19.3893 13.4969 19.3204 13.2656ZM7.50007 12.1875C7.31465 12.1875 7.13339 12.1325 6.97922 12.0295C6.82505 11.9265 6.70489 11.7801 6.63393 11.6088C6.56297 11.4375 6.54441 11.249 6.58058 11.0671C6.61675 10.8853 6.70604 10.7182 6.83715 10.5871C6.96827 10.456 7.13531 10.3667 7.31717 10.3305C7.49903 10.2944 7.68753 10.3129 7.85883 10.3839C8.03014 10.4548 8.17656 10.575 8.27957 10.7292C8.38258 10.8833 8.43757 11.0646 8.43757 11.25C8.43757 11.4987 8.33879 11.7371 8.16298 11.9129C7.98716 12.0887 7.74871 12.1875 7.50007 12.1875ZM12.5001 12.1875C12.3146 12.1875 12.1334 12.1325 11.9792 12.0295C11.825 11.9265 11.7049 11.7801 11.6339 11.6088C11.563 11.4375 11.5444 11.249 11.5806 11.0671C11.6168 10.8853 11.706 10.7182 11.8372 10.5871C11.9683 10.456 12.1353 10.3667 12.3172 10.3305C12.499 10.2944 12.6875 10.3129 12.8588 10.3839C13.0301 10.4548 13.1766 10.575 13.2796 10.7292C13.3826 10.8833 13.4376 11.0646 13.4376 11.25C13.4376 11.4987 13.3388 11.7371 13.163 11.9129C12.9872 12.0887 12.7487 12.1875 12.5001 12.1875Z" fill="currentColor"/>
</svg>
