<svg width="20" height="20" viewBox="0 0 20 20" fill="none" xmlns="http://www.w3.org/2000/svg">
<path fill-rule="evenodd" clip-rule="evenodd" d="M4 3C4 2.44772 4.44772 2 5 2H15C15.5523 2 16 2.44772 16 3V6C16 6.55228 15.5523 7 15 7H5C4.44772 7 4 6.55228 4 6V3ZM1.375 10C1.375 9.65482 1.65482 9.375 2 9.375H18C18.3452 9.375 18.625 9.65482 18.625 10C18.625 10.3452 18.3452 10.625 18 10.625H2C1.65482 10.625 1.375 10.3452 1.375 10ZM5 13C4.44772 13 4 13.4477 4 14V17C4 17.5523 4.44772 18 5 18H15C15.5523 18 16 17.5523 16 17V14C16 13.4477 15.5523 13 15 13H5Z" fill="currentColor"/>
</svg>
