<svg width="20" height="20" viewBox="0 0 20 20" fill="none" xmlns="http://www.w3.org/2000/svg">
<path d="M10.9375 10C10.9375 10.1854 10.8825 10.3667 10.7795 10.5208C10.6765 10.675 10.5301 10.7952 10.3588 10.8661C10.1875 10.9371 9.99896 10.9557 9.8171 10.9195C9.63525 10.8833 9.4682 10.794 9.33709 10.6629C9.20598 10.5318 9.11669 10.3648 9.08051 10.1829C9.04434 10.001 9.06291 9.81254 9.13386 9.64123C9.20482 9.46993 9.32498 9.32351 9.47915 9.2205C9.63332 9.11748 9.81458 9.0625 10 9.0625C10.2486 9.0625 10.4871 9.16127 10.6629 9.33709C10.8387 9.5129 10.9375 9.75136 10.9375 10ZM15 9.0625C14.8146 9.0625 14.6333 9.11748 14.4792 9.2205C14.325 9.32351 14.2048 9.46993 14.1339 9.64123C14.0629 9.81254 14.0443 10.001 14.0805 10.1829C14.1167 10.3648 14.206 10.5318 14.3371 10.6629C14.4682 10.794 14.6352 10.8833 14.8171 10.9195C14.999 10.9557 15.1875 10.9371 15.3588 10.8661C15.5301 10.7952 15.6765 10.675 15.7795 10.5208C15.8825 10.3667 15.9375 10.1854 15.9375 10C15.9375 9.75136 15.8387 9.5129 15.6629 9.33709C15.4871 9.16127 15.2486 9.0625 15 9.0625ZM5 9.0625C4.81458 9.0625 4.63332 9.11748 4.47915 9.2205C4.32498 9.32351 4.20482 9.46993 4.13386 9.64123C4.06291 9.81254 4.04434 10.001 4.08051 10.1829C4.11669 10.3648 4.20598 10.5318 4.33709 10.6629C4.4682 10.794 4.63525 10.8833 4.8171 10.9195C4.99896 10.9557 5.18746 10.9371 5.35877 10.8661C5.53007 10.7952 5.67649 10.675 5.7795 10.5208C5.88252 10.3667 5.9375 10.1854 5.9375 10C5.9375 9.75136 5.83873 9.5129 5.66291 9.33709C5.4871 9.16127 5.24864 9.0625 5 9.0625Z" fill="currentColor"/>
</svg>
