<svg width="20" height="20" viewBox="0 0 20 20" fill="none" xmlns="http://www.w3.org/2000/svg">
<path d="M8.125 4.6875C8.125 4.87292 8.07002 5.05418 7.967 5.20835C7.86399 5.36252 7.71757 5.48268 7.54627 5.55364C7.37496 5.62459 7.18646 5.64316 7.0046 5.60699C6.82275 5.57081 6.6557 5.48152 6.52459 5.35041C6.39348 5.2193 6.30419 5.05225 6.26801 4.8704C6.23184 4.68854 6.25041 4.50004 6.32136 4.32873C6.39232 4.15743 6.51248 4.01101 6.66665 3.908C6.82082 3.80498 7.00208 3.75 7.1875 3.75C7.43614 3.75 7.6746 3.84877 7.85041 4.02459C8.02623 4.2004 8.125 4.43886 8.125 4.6875ZM12.8125 5.625C12.9979 5.625 13.1792 5.57002 13.3333 5.467C13.4875 5.36399 13.6077 5.21757 13.6786 5.04627C13.7496 4.87496 13.7682 4.68646 13.732 4.5046C13.6958 4.32275 13.6065 4.1557 13.4754 4.02459C13.3443 3.89348 13.1773 3.80419 12.9954 3.76801C12.8135 3.73184 12.625 3.75041 12.4537 3.82136C12.2824 3.89232 12.136 4.01248 12.033 4.16665C11.93 4.32082 11.875 4.50208 11.875 4.6875C11.875 4.93614 11.9738 5.1746 12.1496 5.35041C12.3254 5.52623 12.5639 5.625 12.8125 5.625ZM7.1875 9.0625C7.00208 9.0625 6.82082 9.11748 6.66665 9.2205C6.51248 9.32351 6.39232 9.46993 6.32136 9.64123C6.25041 9.81254 6.23184 10.001 6.26801 10.1829C6.30419 10.3648 6.39348 10.5318 6.52459 10.6629C6.6557 10.794 6.82275 10.8833 7.0046 10.9195C7.18646 10.9557 7.37496 10.9371 7.54627 10.8661C7.71757 10.7952 7.86399 10.675 7.967 10.5208C8.07002 10.3667 8.125 10.1854 8.125 10C8.125 9.75136 8.02623 9.5129 7.85041 9.33709C7.6746 9.16127 7.43614 9.0625 7.1875 9.0625ZM12.8125 9.0625C12.6271 9.0625 12.4458 9.11748 12.2917 9.2205C12.1375 9.32351 12.0173 9.46993 11.9464 9.64123C11.8754 9.81254 11.8568 10.001 11.893 10.1829C11.9292 10.3648 12.0185 10.5318 12.1496 10.6629C12.2807 10.794 12.4477 10.8833 12.6296 10.9195C12.8115 10.9557 13 10.9371 13.1713 10.8661C13.3426 10.7952 13.489 10.675 13.592 10.5208C13.695 10.3667 13.75 10.1854 13.75 10C13.75 9.75136 13.6512 9.5129 13.4754 9.33709C13.2996 9.16127 13.0611 9.0625 12.8125 9.0625ZM7.1875 14.375C7.00208 14.375 6.82082 14.43 6.66665 14.533C6.51248 14.636 6.39232 14.7824 6.32136 14.9537C6.25041 15.125 6.23184 15.3135 6.26801 15.4954C6.30419 15.6773 6.39348 15.8443 6.52459 15.9754C6.6557 16.1065 6.82275 16.1958 7.0046 16.232C7.18646 16.2682 7.37496 16.2496 7.54627 16.1786C7.71757 16.1077 7.86399 15.9875 7.967 15.8333C8.07002 15.6792 8.125 15.4979 8.125 15.3125C8.125 15.0639 8.02623 14.8254 7.85041 14.6496C7.6746 14.4738 7.43614 14.375 7.1875 14.375ZM12.8125 14.375C12.6271 14.375 12.4458 14.43 12.2917 14.533C12.1375 14.636 12.0173 14.7824 11.9464 14.9537C11.8754 15.125 11.8568 15.3135 11.893 15.4954C11.9292 15.6773 12.0185 15.8443 12.1496 15.9754C12.2807 16.1065 12.4477 16.1958 12.6296 16.232C12.8115 16.2682 13 16.2496 13.1713 16.1786C13.3426 16.1077 13.489 15.9875 13.592 15.8333C13.695 15.6792 13.75 15.4979 13.75 15.3125C13.75 15.0639 13.6512 14.8254 13.4754 14.6496C13.2996 14.4738 13.0611 14.375 12.8125 14.375Z" fill="currentColor"/>
</svg>
