<svg width="20" height="20" viewBox="0 0 20 20" fill="none" xmlns="http://www.w3.org/2000/svg">
<path d="M5.80469 6.69531C5.70502 6.57388 5.65409 6.41971 5.6618 6.26281C5.6695 6.1059 5.7353 5.95747 5.84638 5.84638C5.95747 5.7353 6.1059 5.6695 6.26281 5.6618C6.41971 5.65409 6.57388 5.70502 6.69531 5.80469L9.375 8.49219V1.875C9.375 1.70924 9.44085 1.55027 9.55806 1.43306C9.67527 1.31585 9.83424 1.25 10 1.25C10.1658 1.25 10.3247 1.31585 10.4419 1.43306C10.5592 1.55027 10.625 1.70924 10.625 1.875V8.49219L13.3047 5.80469C13.4261 5.70502 13.5803 5.65409 13.7372 5.6618C13.8941 5.6695 14.0425 5.7353 14.1536 5.84638C14.2647 5.95747 14.3305 6.1059 14.3382 6.26281C14.3459 6.41971 14.295 6.57388 14.1953 6.69531L10.4453 10.4453C10.3258 10.5608 10.1662 10.6254 10 10.6254C9.83382 10.6254 9.67415 10.5608 9.55469 10.4453L5.80469 6.69531ZM18.75 10.625V15.625C18.75 15.9565 18.6183 16.2745 18.3839 16.5089C18.1495 16.7433 17.8315 16.875 17.5 16.875H2.5C2.16848 16.875 1.85054 16.7433 1.61612 16.5089C1.3817 16.2745 1.25 15.9565 1.25 15.625V10.625C1.25 10.2935 1.3817 9.97554 1.61612 9.74112C1.85054 9.5067 2.16848 9.375 2.5 9.375H6.59375C6.63485 9.37369 6.67573 9.3814 6.71353 9.3976C6.75132 9.41379 6.78511 9.43808 6.8125 9.46875L8.67188 11.3281C9.02471 11.6793 9.50222 11.8764 10 11.8764C10.4978 11.8764 10.9753 11.6793 11.3281 11.3281L13.1875 9.46875C13.2149 9.43808 13.2487 9.41379 13.2865 9.3976C13.3243 9.3814 13.3652 9.37369 13.4062 9.375H17.5C17.8315 9.375 18.1495 9.5067 18.3839 9.74112C18.6183 9.97554 18.75 10.2935 18.75 10.625ZM15.625 13.125C15.625 12.9396 15.57 12.7583 15.467 12.6042C15.364 12.45 15.2176 12.3298 15.0463 12.2589C14.875 12.1879 14.6865 12.1693 14.5046 12.2055C14.3227 12.2417 14.1557 12.331 14.0246 12.4621C13.8935 12.5932 13.8042 12.7602 13.768 12.9421C13.7318 13.124 13.7504 13.3125 13.8214 13.4838C13.8923 13.6551 14.0125 13.8015 14.1667 13.9045C14.3208 14.0075 14.5021 14.0625 14.6875 14.0625C14.9361 14.0625 15.1746 13.9637 15.3504 13.7879C15.5262 13.6121 15.625 13.3736 15.625 13.125Z" fill="currentColor"/>
</svg>
