<svg width="20" height="20" viewBox="0 0 20 20" fill="none" xmlns="http://www.w3.org/2000/svg">
<path d="M7.28906 2.88281C7.2384 2.85183 7.1976 2.80705 7.17147 2.75372C7.14534 2.70039 7.13494 2.64072 7.1415 2.5817C7.14805 2.52267 7.1713 2.46673 7.2085 2.42044C7.24571 2.37415 7.29533 2.33942 7.35156 2.32031C8.49023 1.9264 9.70243 1.79143 10.8999 1.92523C12.0973 2.05903 13.2498 2.45823 14.2734 3.09375C14.3115 3.11648 14.3443 3.14706 14.3697 3.18345C14.395 3.21984 14.4124 3.26121 14.4205 3.30482C14.4286 3.34842 14.4274 3.39325 14.4168 3.43633C14.4063 3.47941 14.3867 3.51976 14.3594 3.55469C13.451 4.70734 12.3421 5.68658 11.0859 6.44531C10.0693 5.01757 8.7786 3.80653 7.28906 2.88281ZM9.96875 7.03125C8.82492 5.47713 7.32449 4.22052 5.59375 3.36719C5.54265 3.34404 5.48656 3.33406 5.43061 3.33815C5.37466 3.34224 5.32063 3.36029 5.27344 3.39063C3.87308 4.39923 2.82611 5.82343 2.28125 7.46094C2.26836 7.5025 2.26429 7.5463 2.2693 7.58953C2.27432 7.63275 2.2883 7.67446 2.31037 7.71196C2.33243 7.74947 2.36209 7.78196 2.39743 7.80734C2.43278 7.83273 2.47303 7.85045 2.51563 7.85938C3.33202 8.03555 4.16481 8.1246 5 8.125C6.7162 8.12717 8.41209 7.75386 9.96875 7.03125ZM18.0781 9.11719C17.8783 7.30505 17.0748 5.61277 15.7969 4.3125C15.7653 4.28177 15.7278 4.25788 15.6866 4.24231C15.6454 4.22675 15.6014 4.21985 15.5574 4.22205C15.5134 4.22425 15.4703 4.2355 15.4309 4.2551C15.3914 4.27469 15.3565 4.30221 15.3281 4.33594C14.3402 5.59671 13.1302 6.66635 11.7578 7.49219C12.1859 8.23505 12.5417 9.01728 12.8203 9.82813C13.9384 9.52579 15.0917 9.37341 16.25 9.375C16.746 9.37615 17.2416 9.40484 17.7344 9.46094C17.7807 9.46586 17.8276 9.46035 17.8715 9.44482C17.9155 9.42928 17.9554 9.40411 17.9883 9.37116C18.0213 9.3382 18.0465 9.29829 18.062 9.25434C18.0775 9.2104 18.083 9.16354 18.0781 9.11719ZM13.1641 11.0313C13.3936 12.0174 13.5089 13.0266 13.5078 14.0391C13.5072 15.0063 13.3998 15.9704 13.1875 16.9141C13.1736 16.9721 13.1766 17.0329 13.1961 17.0893C13.2156 17.1457 13.2509 17.1953 13.2977 17.2322C13.3446 17.2692 13.401 17.292 13.4604 17.2979C13.5198 17.3038 13.5796 17.2926 13.6328 17.2656C14.8183 16.6727 15.8409 15.799 16.6116 14.7206C17.3822 13.6422 17.8777 12.3917 18.0547 11.0781C18.0602 11.037 18.0574 10.9953 18.0466 10.9553C18.0357 10.9153 18.017 10.8778 17.9916 10.8451C17.9661 10.8124 17.9344 10.785 17.8983 10.7647C17.8622 10.7443 17.8224 10.7314 17.7812 10.7266C17.2738 10.6572 16.7622 10.6233 16.25 10.625C15.2079 10.6237 14.1703 10.7603 13.1641 11.0313ZM11.625 10.2188C11.3774 9.47844 11.0527 8.76619 10.6562 8.09375C8.89066 8.93927 6.9576 9.37715 5 9.375C4.08353 9.37451 3.16964 9.27762 2.27344 9.08594C2.23003 9.07693 2.1852 9.07727 2.14192 9.08692C2.09865 9.09657 2.05793 9.11532 2.02246 9.14192C1.98699 9.16853 1.95759 9.20237 1.9362 9.24121C1.91482 9.28005 1.90195 9.32299 1.89844 9.36719C1.88281 9.57552 1.875 9.78646 1.875 10C1.8746 11.1124 2.10331 12.213 2.54686 13.2332C2.99042 14.2534 3.63932 15.1713 4.45313 15.9297C4.48666 15.9619 4.52712 15.986 4.57141 16.0002C4.6157 16.0143 4.66264 16.0181 4.70864 16.0114C4.75464 16.0046 4.79848 15.9873 4.83679 15.961C4.8751 15.9347 4.90688 15.8999 4.92969 15.8594C6.45404 13.2716 8.81604 11.2817 11.625 10.2188ZM5.91406 16.6563C5.89322 16.6921 5.87971 16.7317 5.87432 16.7728C5.86893 16.8139 5.87178 16.8556 5.88268 16.8956C5.89359 16.9356 5.91234 16.973 5.93785 17.0057C5.96335 17.0384 5.9951 17.0657 6.03125 17.0859C7.24204 17.7697 8.60948 18.1277 10 18.125C10.4742 18.1271 10.9476 18.0852 11.4141 18C11.4681 17.991 11.5185 17.9673 11.5599 17.9315C11.6012 17.8956 11.6319 17.849 11.6484 17.7969C12.0537 16.5855 12.2595 15.3164 12.2578 14.0391C12.2574 13.1587 12.1604 12.2811 11.9688 11.4219C9.40965 12.4202 7.27183 14.2684 5.91406 16.6563Z" fill="currentColor"/>
</svg>
