<svg width="20" height="20" viewBox="0 0 20 20" fill="none" xmlns="http://www.w3.org/2000/svg">
<path fill-rule="evenodd" clip-rule="evenodd" d="M7.82585 4.27461C7.89757 4.34121 7.96929 4.4078 8.04101 4.47952C8.45084 4.88936 8.81969 5.36067 9.10658 5.87296C9.31149 6.20083 9.49592 6.54919 9.65985 6.91804H3.65578C4.31151 5.46313 5.35659 4.21313 6.66806 3.35248L6.66807 3.35249C6.99594 3.57789 7.3238 3.8033 7.61068 4.06969C7.6824 4.14141 7.75412 4.20801 7.82585 4.27461ZM10.336 10.8319C10.3565 10.627 10.3565 10.4016 10.3565 10.1967V10.1967V10.1966C10.3565 9.99174 10.3565 9.76633 10.336 9.56142C10.2951 9.02864 10.2131 8.51634 10.0696 8.02454C10.0575 7.96359 10.038 7.90264 10.0199 7.84601C10.0076 7.80743 9.99598 7.77086 9.98768 7.73766H3.36885C3.12295 8.51634 3 9.33601 3 10.1967C3 11.0573 3.12295 11.877 3.36885 12.6557H9.98768C9.99987 12.5947 10.0193 12.5338 10.0374 12.4771L10.0374 12.4771C10.0497 12.4386 10.0613 12.402 10.0696 12.3688C10.2131 11.877 10.2951 11.3647 10.336 10.8319ZM9.12711 14.5204C9.33203 14.1925 9.51645 13.8442 9.68039 13.4753H3.67631C4.31156 14.9302 5.35663 16.1802 6.6886 17.0409C7.01646 16.8155 7.32384 16.5901 7.63122 16.3237C7.77465 16.2007 7.91809 16.0573 8.06153 15.9139L8.06154 15.9138C8.45088 15.504 8.81973 15.0327 9.12711 14.5204Z" fill="currentColor"/>
<path fill-rule="evenodd" clip-rule="evenodd" d="M6.66821 3.35245C7.95919 2.4918 9.51656 2 11.1764 2C14.0247 2 16.5247 3.45491 18.0001 5.64753C17.2419 6.42621 16.1764 6.91801 15.0083 6.91801H9.6805C9.51656 6.54916 9.33214 6.2008 9.12722 5.87294C8.81984 5.36064 8.45099 4.90982 8.04116 4.4795L8.04115 4.47949C7.89771 4.33605 7.75427 4.19261 7.61083 4.06966C7.30346 3.80327 6.99608 3.57786 6.66821 3.35245ZM14.2706 7.73768H9.98782C10 7.79862 10.0195 7.85957 10.0375 7.91621C10.0498 7.95478 10.0615 7.99135 10.0698 8.02456C10.2132 8.51636 10.2952 9.02865 10.3362 9.56144C10.3567 9.76635 10.3567 9.99175 10.3567 10.1967V10.1967V10.1967C10.3567 10.4016 10.3567 10.627 10.3362 10.8319C10.2952 11.3647 10.2132 11.877 10.0698 12.3688C10.0576 12.4298 10.0382 12.4907 10.0201 12.5473L10.0201 12.5473C10.0078 12.5859 9.99612 12.6225 9.98782 12.6557H14.2706C15.623 12.6557 16.7091 11.5491 16.7091 10.1967C16.7091 8.84423 15.623 7.73768 14.2706 7.73768ZM15.0084 13.4754H9.68053C9.5166 13.8442 9.33217 14.1926 9.12725 14.5204C8.81988 15.0327 8.45103 15.4835 8.04119 15.9139C7.96947 15.9856 7.89775 16.0522 7.82603 16.1188C7.75431 16.1854 7.68259 16.252 7.61087 16.3237C7.32399 16.5901 6.99613 16.8155 6.66828 17.0409H6.66827L6.66825 17.0409C7.95923 17.9016 9.5166 18.3934 11.1764 18.3934C14.0248 18.3934 16.5248 16.9384 18.0002 14.7458C17.242 13.9672 16.1764 13.4754 15.0084 13.4754Z" fill="currentColor"/>
</svg>
