<svg width="20" height="20" viewBox="0 0 20 20" fill="none" xmlns="http://www.w3.org/2000/svg">
<path d="M17.8438 6.9765L10.3438 1.9765C10.241 1.91117 10.1218 1.87646 10 1.87646C9.87827 1.87646 9.75903 1.91117 9.65628 1.9765L2.15628 6.9765C2.06914 7.03303 1.99768 7.11065 1.94851 7.20214C1.89935 7.29364 1.87407 7.39607 1.87503 7.49994V15.6249C1.87503 15.9565 2.00672 16.2744 2.24114 16.5088C2.47556 16.7432 2.79351 16.8749 3.12503 16.8749H16.875C17.2065 16.8749 17.5245 16.7432 17.7589 16.5088C17.9933 16.2744 18.125 15.9565 18.125 15.6249V7.49994C18.126 7.39607 18.1007 7.29364 18.0515 7.20214C18.0024 7.11065 17.9309 7.03303 17.8438 6.9765ZM3.12503 15.6249V8.71088L8.27346 12.3828C8.37805 12.4584 8.50374 12.4994 8.63284 12.4999H11.3672C11.4963 12.4994 11.622 12.4584 11.7266 12.3828L16.875 8.71088V15.6249H3.12503Z" fill="currentColor"/>
</svg>
