<svg width="20" height="20" viewBox="0 0 20 20" fill="none" xmlns="http://www.w3.org/2000/svg">
<path d="M19.3205 9.75C19.297 9.6875 18.633 8.21875 17.1642 6.74219C15.2033 4.78906 12.7267 3.75 10.0002 3.75C7.2736 3.75 4.79704 4.78906 2.8361 6.74219C1.36735 8.21875 0.703291 9.6875 0.679853 9.75C0.644973 9.82873 0.626953 9.91389 0.626953 10C0.626953 10.0861 0.644973 10.1713 0.679853 10.25C0.703291 10.3125 1.36735 11.7812 2.8361 13.2578C4.79704 15.2109 7.2736 16.25 10.0002 16.25C12.7267 16.25 15.2033 15.2109 17.1642 13.2578C18.633 11.7812 19.297 10.3125 19.3205 10.25C19.3554 10.1713 19.3734 10.0861 19.3734 10C19.3734 9.91389 19.3554 9.82873 19.3205 9.75ZM10.0002 7.1875C10.5564 7.1875 11.1002 7.35245 11.5627 7.66149C12.0252 7.97053 12.3857 8.40979 12.5986 8.9237C12.8114 9.43762 12.8671 10.0031 12.7586 10.5487C12.6501 11.0943 12.3822 11.5954 11.9889 11.9887C11.5956 12.3821 11.0944 12.6499 10.5489 12.7585C10.0033 12.867 9.43779 12.8113 8.92387 12.5984C8.40995 12.3855 7.9707 12.0251 7.66166 11.5625C7.35262 11.1 7.18767 10.5563 7.18767 10C7.18767 9.25408 7.48398 8.53871 8.01143 8.01126C8.53887 7.48382 9.25424 7.1875 10.0002 7.1875Z" fill="currentColor"/>
</svg>
