<svg
  xmlns="http://www.w3.org/2000/svg"
  width="20"
  height="20"
  viewBox="0 0 20 20"
  fill="none"
>
  <path
    d="M19.6093 9.61953C19.5804 9.55625 18.896 8.03672 17.3843 6.525C15.3617 4.50547 12.8124 3.4375 9.99994 3.4375C7.18744 3.4375 4.63822 4.50547 2.61791 6.525C1.10619 8.03672 0.421816 9.55625 0.390566 9.61953C0.337638 9.73953 0.310303 9.86924 0.310303 10.0004C0.310303 10.1315 0.337638 10.2613 0.390566 10.3813C0.419472 10.4453 1.10385 11.9641 2.61635 13.4758C4.63822 15.4953 7.18744 16.5625 9.99994 16.5625C12.8124 16.5625 15.3617 15.4953 17.3812 13.4758C18.8937 11.9641 19.5781 10.4453 19.607 10.3813C19.6603 10.2614 19.688 10.1318 19.6884 10.0006C19.6888 9.86949 19.6619 9.73969 19.6093 9.61953ZM16.0109 12.1977C14.3335 13.8492 12.3117 14.6875 9.99994 14.6875C7.68822 14.6875 5.66635 13.8492 3.99135 12.1969C3.33224 11.5447 2.76528 10.8056 2.30619 10C2.76542 9.19474 3.33236 8.45589 3.99135 7.80391C5.66713 6.15078 7.68822 5.3125 9.99994 5.3125C12.3117 5.3125 14.3328 6.15078 16.0085 7.80391C16.6676 8.45583 17.2345 9.19469 17.6937 10C17.2345 10.8055 16.6676 11.5447 16.0085 12.1969L16.0109 12.1977ZM9.99994 6.5625C9.32007 6.5625 8.65546 6.76411 8.09017 7.14182C7.52487 7.51954 7.08428 8.0564 6.82411 8.68453C6.56393 9.31265 6.49585 10.0038 6.62849 10.6706C6.76113 11.3374 7.08852 11.9499 7.56926 12.4307C8.05 12.9114 8.66251 13.2388 9.32932 13.3714C9.99613 13.5041 10.6873 13.436 11.3154 13.1758C11.9435 12.9157 12.4804 12.4751 12.8581 11.9098C13.2358 11.3445 13.4374 10.6799 13.4374 10C13.4364 9.08864 13.0739 8.21489 12.4295 7.57046C11.785 6.92603 10.9113 6.56353 9.99994 6.5625ZM9.99994 11.5625C9.69091 11.5625 9.38881 11.4709 9.13186 11.2992C8.87491 11.1275 8.67464 10.8835 8.55638 10.5979C8.43812 10.3124 8.40717 9.99827 8.46746 9.69517C8.52775 9.39208 8.67657 9.11367 8.89509 8.89515C9.11361 8.67663 9.39202 8.52781 9.69511 8.46752C9.99821 8.40723 10.3124 8.43818 10.5979 8.55644C10.8834 8.6747 11.1274 8.87497 11.2991 9.13192C11.4708 9.38887 11.5624 9.69097 11.5624 10C11.5624 10.4144 11.3978 10.8118 11.1048 11.1049C10.8118 11.3979 10.4143 11.5625 9.99994 11.5625Z"
    fill="currentColor"
  />
  <path
    opacity="0.2"
    d="M9.95984 4.27002C3.70984 4.27002 1.20984 9.89502 1.20984 9.89502C1.20984 9.89502 3.70984 15.52 9.95984 15.52C16.2098 15.52 18.7098 9.89502 18.7098 9.89502C18.7098 9.89502 16.2098 4.27002 9.95984 4.27002ZM9.95984 13.02C9.34177 13.02 8.73759 12.8367 8.22368 12.4934C7.70978 12.15 7.30924 11.6619 7.07271 11.0909C6.83619 10.5199 6.77431 9.89155 6.89488 9.28536C7.01546 8.67917 7.31309 8.12235 7.75013 7.68531C8.18717 7.24827 8.74399 6.95064 9.35018 6.83007C9.95637 6.70949 10.5847 6.77137 11.1557 7.0079C11.7267 7.24442 12.2148 7.64496 12.5582 8.15886C12.9016 8.67277 13.0848 9.27695 13.0848 9.89502C13.0848 10.7238 12.7556 11.5187 12.1695 12.1047C11.5835 12.6908 10.7886 13.02 9.95984 13.02Z"
    fill="currentColor"
  />
</svg>
