<svg width="20" height="20" viewBox="0 0 20 20" fill="none" xmlns="http://www.w3.org/2000/svg">
<path d="M19.3205 9.75002C19.297 9.68752 18.633 8.21877 17.1642 6.7422C15.2033 4.78908 12.7267 3.75002 10.0002 3.75002C9.42432 3.74897 8.84941 3.79601 8.2814 3.89064C8.17165 3.91121 8.0693 3.96044 7.98473 4.03336C7.90016 4.10627 7.83639 4.20026 7.7999 4.30578C7.7634 4.41131 7.75547 4.52462 7.77692 4.6342C7.79837 4.74378 7.84844 4.84573 7.92203 4.9297L15.8361 13.6328C15.8946 13.6968 15.9658 13.7479 16.0452 13.7829C16.1245 13.8179 16.2103 13.8359 16.297 13.836C16.4514 13.8339 16.6004 13.7787 16.7189 13.6797C18.5002 12.0781 19.2892 10.3281 19.3205 10.2578C19.3551 10.1777 19.3729 10.0913 19.3729 10.0039C19.3729 9.9166 19.3551 9.83019 19.3205 9.75002Z" fill="currentColor"/>
<path d="M4.21091 2.70315C4.098 2.58502 3.9433 2.51581 3.77998 2.51036C3.61665 2.5049 3.45769 2.56363 3.33714 2.67396C3.21659 2.7843 3.14405 2.93745 3.13506 3.10062C3.12607 3.26379 3.18134 3.42399 3.28904 3.5469L4.78904 5.19534C1.9531 6.93753 0.73435 9.62503 0.679662 9.75003C0.645051 9.8302 0.627197 9.91661 0.627197 10.0039C0.627197 10.0913 0.645051 10.1777 0.679662 10.2578C0.7031 10.3125 1.36716 11.7813 2.83591 13.2578C4.79685 15.211 7.27341 16.25 9.99998 16.25C11.4011 16.2596 12.7884 15.972 14.0703 15.4063L15.789 17.2969C15.8476 17.3609 15.9188 17.412 15.9981 17.447C16.0775 17.4819 16.1633 17.5 16.25 17.5C16.4059 17.4985 16.5559 17.4402 16.6719 17.336C16.7333 17.2811 16.7831 17.2146 16.8184 17.1402C16.8538 17.0658 16.8738 16.9851 16.8775 16.9028C16.8811 16.8205 16.8682 16.7384 16.8396 16.6611C16.811 16.5839 16.7673 16.5132 16.7109 16.4532L4.21091 2.70315ZM9.99998 12.8125C9.48601 12.8122 8.98196 12.671 8.54258 12.4044C8.1032 12.1377 7.7453 11.7557 7.50775 11.2999C7.27019 10.8442 7.16208 10.332 7.19514 9.8191C7.2282 9.3062 7.40118 8.81216 7.69529 8.39065L11.3828 12.4453C10.962 12.6869 10.4851 12.8135 9.99998 12.8125Z" fill="currentColor"/>
</svg>
