<svg width="20" height="20" viewBox="0 0 20 20" fill="none" xmlns="http://www.w3.org/2000/svg">
<path d="M18.125 9.99997C18.1209 11.985 17.3924 13.9004 16.0762 15.3863C14.76 16.8723 12.9466 17.8267 10.9765 18.0703C10.9326 18.0746 10.8882 18.0698 10.8462 18.0561C10.8042 18.0425 10.7654 18.0203 10.7324 17.9909C10.6994 17.9616 10.6728 17.9257 10.6543 17.8856C10.6358 17.8455 10.6258 17.8019 10.625 17.7578V11.875H12.5C12.5854 11.8751 12.67 11.8578 12.7485 11.8239C12.827 11.7901 12.8977 11.7406 12.9563 11.6783C13.0149 11.6161 13.0601 11.5425 13.0891 11.4621C13.1181 11.3817 13.1303 11.2962 13.125 11.2109C13.1111 11.0493 13.0365 10.8989 12.9162 10.7902C12.7958 10.6814 12.6387 10.6224 12.4765 10.625H10.625V8.74997C10.625 8.41845 10.7567 8.1005 10.9911 7.86608C11.2255 7.63166 11.5434 7.49997 11.875 7.49997H13.125C13.2104 7.50013 13.295 7.48277 13.3735 7.44895C13.452 7.41512 13.5227 7.36556 13.5813 7.30332C13.6399 7.24108 13.6851 7.16749 13.7141 7.08709C13.7431 7.0067 13.7553 6.92121 13.75 6.83591C13.7361 6.67429 13.6615 6.52394 13.5412 6.41519C13.4208 6.30645 13.2637 6.2474 13.1015 6.24997H11.875C11.2119 6.24997 10.576 6.51336 10.1072 6.9822C9.63835 7.45104 9.37496 8.08693 9.37496 8.74997V10.625H7.49996C7.41449 10.6248 7.32989 10.6422 7.2514 10.676C7.17291 10.7098 7.10219 10.7594 7.04361 10.8216C6.98503 10.8839 6.93984 10.9574 6.91083 11.0378C6.88182 11.1182 6.86961 11.2037 6.87496 11.289C6.88878 11.4506 6.9634 11.601 7.08375 11.7097C7.20409 11.8185 7.36121 11.8775 7.52339 11.875H9.37496V17.7578C9.37517 17.8016 9.36618 17.8449 9.34856 17.8851C9.33094 17.9252 9.30508 17.9611 9.27267 17.9906C9.24026 18.02 9.20201 18.0424 9.16041 18.0561C9.11881 18.0698 9.07479 18.0747 9.03121 18.0703C4.90621 17.5703 1.71871 13.9843 1.88277 9.69528C1.97486 7.57714 2.89125 5.5789 4.43631 4.12708C5.98137 2.67526 8.03272 1.88488 10.1525 1.92465C12.2723 1.96441 14.2925 2.83117 15.782 4.33992C17.2716 5.84866 18.1124 7.87986 18.125 9.99997Z" fill="currentColor"/>
</svg>
