<svg
  xmlns="http://www.w3.org/2000/svg"
  width="25"
  height="19"
  viewBox="0 0 25 19"
  fill="none"
>
  <path
    d="M0.0932617 6.65059V9.69164L12.285 9.71577L13.0043 6.67472L0.0932617 6.65059Z"
    fill="currentColor"
  />
  <path
    d="M0.0932617 0.556351V3.5974L13.7236 3.62153L13.8455 3.09056C14.1503 1.81139 13.175 0.580486 11.8461 0.580486L0.0932617 0.556351Z"
    fill="currentColor"
  />
  <path
    d="M11.5537 12.7567L12.273 9.71564L19.9904 9.7277L18.8565 12.7687L11.5537 12.7567Z"
    fill="currentColor"
  />
  <path
    d="M12.9922 6.67455L13.7237 3.63351L24.7206 3.59731L23.4283 6.62628L12.9922 6.67455Z"
    fill="currentColor"
  />
  <path
    d="M0.0932617 12.7326V15.7736L10.8342 15.7977L11.5535 12.7567L0.0932617 12.7326Z"
    fill="currentColor"
  />
  <path
    d="M15.4181 18.8508H13.1871C11.5778 18.8508 10.4073 17.3303 10.8219 15.7977H16.6495L15.4181 18.8508Z"
    fill="currentColor"
  />
</svg>
