<svg width="20" height="20" viewBox="0 0 20 20" fill="none" xmlns="http://www.w3.org/2000/svg">
<path d="M14.5782 7.34375C15.139 6.93702 15.5567 6.36322 15.7714 5.70455C15.9862 5.04588 15.9869 4.33615 15.7736 3.67702C15.5602 3.0179 15.1437 2.44322 14.5838 2.03531C14.0238 1.6274 13.3491 1.4072 12.6563 1.40625H7.34379C6.65101 1.4072 5.97629 1.6274 5.41632 2.03531C4.85635 2.44322 4.43986 3.0179 4.22651 3.67702C4.01316 4.33615 4.01391 5.04588 4.22865 5.70455C4.44338 6.36322 4.86109 6.93702 5.42192 7.34375C5.00087 7.64699 4.65794 8.04599 4.4214 8.50782C4.18487 8.96966 4.06152 9.48112 4.06152 10C4.06152 10.5189 4.18487 11.0303 4.4214 11.4922C4.65794 11.954 5.00087 12.353 5.42192 12.6562C4.96648 12.9854 4.60319 13.4259 4.36686 13.9357C4.13053 14.4455 4.02908 15.0075 4.07224 15.5677C4.11539 16.128 4.30169 16.6678 4.6133 17.1354C4.92491 17.603 5.35139 17.9827 5.85185 18.2382C6.35232 18.4937 6.91002 18.6164 7.47151 18.5945C8.033 18.5727 8.57946 18.407 9.05854 18.1133C9.53762 17.8197 9.93326 17.4079 10.2076 16.9175C10.4818 16.4271 10.6256 15.8744 10.625 15.3125V12.5703C10.9656 12.8577 11.3612 13.0727 11.7876 13.2022C12.214 13.3316 12.6623 13.3729 13.1051 13.3235C13.548 13.274 13.9762 13.1349 14.3635 12.9146C14.7508 12.6942 15.0892 12.3973 15.358 12.0419C15.6269 11.6865 15.8205 11.28 15.927 10.8473C16.0336 10.4146 16.051 9.96478 15.978 9.52517C15.905 9.08556 15.7433 8.66543 15.5026 8.29038C15.2619 7.91534 14.9474 7.59325 14.5782 7.34375ZM14.6875 4.6875C14.6855 5.22559 14.4708 5.74105 14.0903 6.12154C13.7098 6.50203 13.1944 6.71669 12.6563 6.71875H10.625V2.65625H12.6563C13.1944 2.65831 13.7098 2.87297 14.0903 3.25346C14.4708 3.63395 14.6855 4.14941 14.6875 4.6875ZM12.6563 12.0312C12.1176 12.0312 11.6009 11.8172 11.22 11.4363C10.839 11.0554 10.625 10.5387 10.625 10C10.625 9.46128 10.839 8.94462 11.22 8.56369C11.6009 8.18276 12.1176 7.96875 12.6563 7.96875C13.195 7.96875 13.7117 8.18276 14.0926 8.56369C14.4735 8.94462 14.6875 9.46128 14.6875 10C14.6875 10.5387 14.4735 11.0554 14.0926 11.4363C13.7117 11.8172 13.195 12.0312 12.6563 12.0312Z" fill="currentColor"/>
</svg>
