<svg width="20" height="20" viewBox="0 0 20 20" fill="none" xmlns="http://www.w3.org/2000/svg">
<path d="M16.6953 6.4297L12.3203 2.0547C12.2012 1.93862 12.0413 1.87407 11.875 1.87501H4.375C4.04348 1.87501 3.72554 2.00671 3.49112 2.24113C3.2567 2.47555 3.125 2.79349 3.125 3.12501V16.875C3.125 17.2065 3.2567 17.5245 3.49112 17.7589C3.72554 17.9933 4.04348 18.125 4.375 18.125H15.625C15.9565 18.125 16.2745 17.9933 16.5089 17.7589C16.7433 17.5245 16.875 17.2065 16.875 16.875V6.87501C16.8759 6.70873 16.8114 6.54876 16.6953 6.4297ZM11.875 12.5H10.625V13.75C10.625 13.9158 10.5592 14.0747 10.4419 14.192C10.3247 14.3092 10.1658 14.375 10 14.375C9.83424 14.375 9.67527 14.3092 9.55806 14.192C9.44085 14.0747 9.375 13.9158 9.375 13.75V12.5H8.125C7.95924 12.5 7.80027 12.4342 7.68306 12.317C7.56585 12.1997 7.5 12.0408 7.5 11.875C7.5 11.7092 7.56585 11.5503 7.68306 11.4331C7.80027 11.3159 7.95924 11.25 8.125 11.25H9.375V10C9.375 9.83425 9.44085 9.67528 9.55806 9.55807C9.67527 9.44086 9.83424 9.37501 10 9.37501C10.1658 9.37501 10.3247 9.44086 10.4419 9.55807C10.5592 9.67528 10.625 9.83425 10.625 10V11.25H11.875C12.0408 11.25 12.1997 11.3159 12.3169 11.4331C12.4342 11.5503 12.5 11.7092 12.5 11.875C12.5 12.0408 12.4342 12.1997 12.3169 12.317C12.1997 12.4342 12.0408 12.5 11.875 12.5ZM11.875 6.87501V3.38282L15.3672 6.87501H11.875Z" fill="currentColor"/>
</svg>
