<svg width="20" height="20" viewBox="0 0 20 20" fill="none" xmlns="http://www.w3.org/2000/svg">
<path d="M16.6954 6.4297L12.3204 2.0547C12.2014 1.93862 12.0414 1.87407 11.8751 1.87501H4.37512C4.0436 1.87501 3.72566 2.00671 3.49124 2.24113C3.25682 2.47555 3.12512 2.79349 3.12512 3.12501V10.625C3.12512 10.7908 3.19097 10.9497 3.30818 11.067C3.42539 11.1842 3.58436 11.25 3.75012 11.25C3.91588 11.25 4.07485 11.1842 4.19206 11.067C4.30927 10.9497 4.37512 10.7908 4.37512 10.625V3.12501H11.2501V6.87501C11.2501 7.04077 11.316 7.19974 11.4332 7.31695C11.5504 7.43416 11.7094 7.50001 11.8751 7.50001H15.6251V16.875H15.0001C14.8344 16.875 14.6754 16.9409 14.5582 17.0581C14.441 17.1753 14.3751 17.3342 14.3751 17.5C14.3751 17.6658 14.441 17.8247 14.5582 17.942C14.6754 18.0592 14.8344 18.125 15.0001 18.125H15.6251C15.9566 18.125 16.2746 17.9933 16.509 17.7589C16.7434 17.5245 16.8751 17.2065 16.8751 16.875V6.87501C16.8761 6.70873 16.8115 6.54876 16.6954 6.4297ZM12.5001 6.25001V4.00782L14.7423 6.25001H12.5001ZM12.3986 17.1563C12.4589 17.2512 12.4935 17.3601 12.4989 17.4724C12.5044 17.5848 12.4806 17.6966 12.4298 17.7969C12.3759 17.8968 12.2957 17.9801 12.198 18.038C12.1003 18.0958 11.9887 18.1259 11.8751 18.125H1.87512C1.7629 18.1244 1.65291 18.0937 1.55668 18.0359C1.46046 17.9782 1.38155 17.8956 1.32825 17.7969C1.27463 17.6991 1.24849 17.5887 1.25262 17.4772C1.25675 17.3658 1.29098 17.2576 1.35168 17.1641L3.89856 13.1953C3.98341 13.0631 4.10013 12.9543 4.23801 12.8789C4.37589 12.8036 4.53049 12.7641 4.68762 12.7641C4.84475 12.7641 4.99935 12.8036 5.13723 12.8789C5.27511 12.9543 5.39184 13.0631 5.47668 13.1953L5.97668 13.9766L7.34387 11.9219C7.42939 11.793 7.54548 11.6872 7.6818 11.6141C7.81811 11.5409 7.97042 11.5026 8.12512 11.5026C8.27983 11.5026 8.43213 11.5409 8.56845 11.6141C8.70476 11.6872 8.82085 11.793 8.90637 11.9219L12.3986 17.1563Z" fill="currentColor"/>
</svg>
