<svg width="20" height="20" viewBox="0 0 20 20" fill="none" xmlns="http://www.w3.org/2000/svg">
<path d="M16.6953 5.1797L13.5703 2.0547C13.4512 1.93862 13.2913 1.87407 13.125 1.87501H6.875C6.54348 1.87501 6.22554 2.00671 5.99112 2.24113C5.7567 2.47555 5.625 2.79349 5.625 3.12501V4.37501H4.375C4.04348 4.37501 3.72554 4.50671 3.49112 4.74113C3.2567 4.97555 3.125 5.29349 3.125 5.62501V16.875C3.125 17.2065 3.2567 17.5245 3.49112 17.7589C3.72554 17.9933 4.04348 18.125 4.375 18.125H13.125C13.4565 18.125 13.7745 17.9933 14.0089 17.7589C14.2433 17.5245 14.375 17.2065 14.375 16.875V15.625H15.625C15.9565 15.625 16.2745 15.4933 16.5089 15.2589C16.7433 15.0245 16.875 14.7065 16.875 14.375V5.62501C16.8759 5.45873 16.8114 5.29876 16.6953 5.1797ZM10.625 15H6.875C6.70924 15 6.55027 14.9342 6.43306 14.817C6.31585 14.6997 6.25 14.5408 6.25 14.375C6.25 14.2092 6.31585 14.0503 6.43306 13.9331C6.55027 13.8159 6.70924 13.75 6.875 13.75H10.625C10.7908 13.75 10.9497 13.8159 11.0669 13.9331C11.1842 14.0503 11.25 14.2092 11.25 14.375C11.25 14.5408 11.1842 14.6997 11.0669 14.817C10.9497 14.9342 10.7908 15 10.625 15ZM10.625 12.5H6.875C6.70924 12.5 6.55027 12.4342 6.43306 12.317C6.31585 12.1997 6.25 12.0408 6.25 11.875C6.25 11.7092 6.31585 11.5503 6.43306 11.4331C6.55027 11.3159 6.70924 11.25 6.875 11.25H10.625C10.7908 11.25 10.9497 11.3159 11.0669 11.4331C11.1842 11.5503 11.25 11.7092 11.25 11.875C11.25 12.0408 11.1842 12.1997 11.0669 12.317C10.9497 12.4342 10.7908 12.5 10.625 12.5ZM15.625 14.375H14.375V8.12501C14.3759 7.95873 14.3114 7.79876 14.1953 7.6797L11.0703 4.5547C10.9512 4.43862 10.7913 4.37407 10.625 4.37501H6.875V3.12501H12.8672L15.625 5.88282V14.375Z" fill="currentColor"/>
</svg>
