<svg width="20" height="20" viewBox="0 0 20 20" fill="none" xmlns="http://www.w3.org/2000/svg">
<path d="M14.6874 13.75V14.375H15.9374C16.1031 14.375 16.2621 14.4409 16.3793 14.5581C16.4965 14.6753 16.5624 14.8342 16.5624 15C16.5624 15.1658 16.4965 15.3247 16.3793 15.442C16.2621 15.5592 16.1031 15.625 15.9374 15.625H14.6874V16.25H16.2499C16.4156 16.25 16.5746 16.3159 16.6918 16.4331C16.809 16.5503 16.8749 16.7092 16.8749 16.875C16.8749 17.0408 16.809 17.1997 16.6918 17.317C16.5746 17.4342 16.4156 17.5 16.2499 17.5H14.0624C13.8966 17.5 13.7376 17.4342 13.6204 17.317C13.5032 17.1997 13.4374 17.0408 13.4374 16.875V13.125C13.4374 12.9592 13.5032 12.8003 13.6204 12.6831C13.7376 12.5659 13.8966 12.5 14.0624 12.5H16.2499C16.4156 12.5 16.5746 12.5659 16.6918 12.6831C16.809 12.8003 16.8749 12.9592 16.8749 13.125C16.8749 13.2908 16.809 13.4497 16.6918 13.567C16.5746 13.6842 16.4156 13.75 16.2499 13.75H14.6874ZM6.80454 12.5469C6.72865 12.5148 6.64717 12.4981 6.56479 12.4977C6.48241 12.4972 6.40076 12.513 6.32452 12.5443C6.24829 12.5755 6.17898 12.6215 6.12058 12.6796C6.06218 12.7377 6.01584 12.8067 5.98423 12.8828L4.99985 15.25L4.01548 12.8828C3.95124 12.7295 3.82873 12.608 3.67489 12.545C3.52106 12.482 3.34849 12.4827 3.19516 12.5469C3.04184 12.6111 2.9203 12.7336 2.8573 12.8875C2.7943 13.0413 2.79499 13.2139 2.85923 13.3672L4.42173 17.1172C4.46881 17.2318 4.54892 17.3299 4.65186 17.3989C4.7548 17.4679 4.87592 17.5047 4.99985 17.5047C5.12378 17.5047 5.24491 17.4679 5.34785 17.3989C5.45079 17.3299 5.53089 17.2318 5.57798 17.1172L7.14048 13.3672C7.17253 13.2913 7.18926 13.2098 7.18971 13.1275C7.19016 13.0451 7.17431 12.9634 7.14309 12.8872C7.11187 12.8109 7.06589 12.7416 7.00779 12.6832C6.94969 12.6248 6.88061 12.5785 6.80454 12.5469ZM11.5624 12.5C11.3966 12.5 11.2376 12.5659 11.1204 12.6831C11.0032 12.8003 10.9374 12.9592 10.9374 13.125V15.4688C10.9374 15.676 10.855 15.8747 10.7085 16.0212C10.562 16.1677 10.3633 16.25 10.1561 16.25C9.9489 16.25 9.75019 16.1677 9.60367 16.0212C9.45716 15.8747 9.37485 15.676 9.37485 15.4688V13.125C9.37485 12.9592 9.309 12.8003 9.19179 12.6831C9.07458 12.5659 8.91561 12.5 8.74985 12.5C8.58409 12.5 8.42512 12.5659 8.30791 12.6831C8.1907 12.8003 8.12485 12.9592 8.12485 13.125V15.4688C8.12485 16.0075 8.33886 16.5241 8.71979 16.9051C9.10072 17.286 9.61738 17.5 10.1561 17.5C10.6948 17.5 11.2115 17.286 11.5924 16.9051C11.9733 16.5241 12.1874 16.0075 12.1874 15.4688V13.125C12.1874 12.9592 12.1215 12.8003 12.0043 12.6831C11.8871 12.5659 11.7281 12.5 11.5624 12.5ZM16.8749 6.87501V10C16.8749 10.1658 16.809 10.3247 16.6918 10.442C16.5746 10.5592 16.4156 10.625 16.2499 10.625H3.74985C3.58409 10.625 3.42512 10.5592 3.30791 10.442C3.1907 10.3247 3.12485 10.1658 3.12485 10V3.12501C3.12485 2.79349 3.25655 2.47555 3.49097 2.24113C3.72539 2.00671 4.04333 1.87501 4.37485 1.87501H11.8749C12.0411 1.87407 12.2011 1.93862 12.3202 2.0547L16.6952 6.4297C16.8112 6.54876 16.8758 6.70873 16.8749 6.87501ZM15.3124 6.87501L11.8749 3.43751V6.87501H15.3124Z" fill="currentColor"/>
</svg>
