<svg width="20" height="20" viewBox="0 0 20 20" fill="none" xmlns="http://www.w3.org/2000/svg">
<path d="M16.6953 6.4297L12.3203 2.0547C12.2012 1.93862 12.0413 1.87407 11.875 1.87501H4.375C4.04348 1.87501 3.72554 2.00671 3.49112 2.24113C3.2567 2.47555 3.125 2.79349 3.125 3.12501V10C3.125 10.1658 3.19085 10.3247 3.30806 10.442C3.42527 10.5592 3.58424 10.625 3.75 10.625H16.25C16.4158 10.625 16.5747 10.5592 16.6919 10.442C16.8092 10.3247 16.875 10.1658 16.875 10V6.87501C16.8759 6.70873 16.8114 6.54876 16.6953 6.4297ZM11.875 6.87501V3.43751L15.3125 6.87501H11.875ZM5 12.5H3.75C3.58424 12.5 3.42527 12.5659 3.30806 12.6831C3.19085 12.8003 3.125 12.9592 3.125 13.125V16.875C3.125 17.0408 3.19085 17.1997 3.30806 17.317C3.42527 17.4342 3.58424 17.5 3.75 17.5C3.91576 17.5 4.07473 17.4342 4.19194 17.317C4.30915 17.1997 4.375 17.0408 4.375 16.875V16.25H5C5.49728 16.25 5.97419 16.0525 6.32583 15.7008C6.67746 15.3492 6.875 14.8723 6.875 14.375C6.875 13.8777 6.67746 13.4008 6.32583 13.0492C5.97419 12.6976 5.49728 12.5 5 12.5ZM5 15H4.375V13.75H5C5.16576 13.75 5.32473 13.8159 5.44194 13.9331C5.55915 14.0503 5.625 14.2092 5.625 14.375C5.625 14.5408 5.55915 14.6997 5.44194 14.817C5.32473 14.9342 5.16576 15 5 15ZM10 12.5H8.75C8.58424 12.5 8.42527 12.5659 8.30806 12.6831C8.19085 12.8003 8.125 12.9592 8.125 13.125V16.875C8.125 17.0408 8.19085 17.1997 8.30806 17.317C8.42527 17.4342 8.58424 17.5 8.75 17.5C8.91576 17.5 9.07473 17.4342 9.19194 17.317C9.30915 17.1997 9.375 17.0408 9.375 16.875V16.25H10C10.4973 16.25 10.9742 16.0525 11.3258 15.7008C11.6775 15.3492 11.875 14.8723 11.875 14.375C11.875 13.8777 11.6775 13.4008 11.3258 13.0492C10.9742 12.6976 10.4973 12.5 10 12.5ZM10 15H9.375V13.75H10C10.1658 13.75 10.3247 13.8159 10.4419 13.9331C10.5592 14.0503 10.625 14.2092 10.625 14.375C10.625 14.5408 10.5592 14.6997 10.4419 14.817C10.3247 14.9342 10.1658 15 10 15ZM16.875 13.125C16.875 13.2908 16.8092 13.4497 16.6919 13.567C16.5747 13.6842 16.4158 13.75 16.25 13.75H15.4688V16.875C15.4688 17.0408 15.4029 17.1997 15.2857 17.317C15.1685 17.4342 15.0095 17.5 14.8438 17.5C14.678 17.5 14.519 17.4342 14.4018 17.317C14.2846 17.1997 14.2188 17.0408 14.2188 16.875V13.75H13.4375C13.2717 13.75 13.1128 13.6842 12.9956 13.567C12.8783 13.4497 12.8125 13.2908 12.8125 13.125C12.8125 12.9592 12.8783 12.8003 12.9956 12.6831C13.1128 12.5659 13.2717 12.5 13.4375 12.5H16.25C16.4158 12.5 16.5747 12.5659 16.6919 12.6831C16.8092 12.8003 16.875 12.9592 16.875 13.125Z" fill="currentColor"/>
</svg>
