<svg width="20" height="20" viewBox="0 0 20 20" fill="none" xmlns="http://www.w3.org/2000/svg">
<path d="M17.1406 13.3672L15.5781 17.1172C15.531 17.2318 15.4509 17.3299 15.348 17.3989C15.2451 17.4679 15.1239 17.5047 15 17.5047C14.8761 17.5047 14.7549 17.4679 14.652 17.3989C14.5491 17.3299 14.469 17.2318 14.4219 17.1172L12.8594 13.3672C12.8276 13.2913 12.811 13.2098 12.8107 13.1275C12.8104 13.0452 12.8263 12.9636 12.8575 12.8875C12.8886 12.8113 12.9345 12.742 12.9925 12.6836C13.0505 12.6251 13.1194 12.5787 13.1953 12.5469C13.2712 12.5151 13.3527 12.4985 13.435 12.4982C13.5173 12.4979 13.5989 12.5138 13.675 12.545C13.7512 12.5762 13.8205 12.622 13.8789 12.68C13.9374 12.738 13.9838 12.8069 14.0156 12.8828L15 15.25L15.9844 12.8828C16.0162 12.8069 16.0626 12.738 16.1211 12.68C16.1795 12.622 16.2488 12.5762 16.325 12.545C16.4011 12.5138 16.4827 12.4979 16.565 12.4982C16.6473 12.4985 16.7288 12.5151 16.8047 12.5469C16.8806 12.5787 16.9495 12.6251 17.0075 12.6836C17.0655 12.742 17.1114 12.8113 17.1425 12.8875C17.1737 12.9636 17.1896 13.0452 17.1893 13.1275C17.189 13.2098 17.1724 13.2913 17.1406 13.3672ZM5.15625 13.75C5.40534 13.7525 5.64469 13.8471 5.82812 14.0156C5.88868 14.0715 5.9598 14.1147 6.03731 14.1427C6.11482 14.1706 6.19714 14.1828 6.27942 14.1784C6.3617 14.174 6.44227 14.1532 6.51638 14.1172C6.59049 14.0812 6.65664 14.0307 6.71094 13.9688C6.82279 13.8465 6.88151 13.6848 6.87418 13.5193C6.86686 13.3537 6.79409 13.1979 6.67188 13.0859C6.25532 12.7119 5.71611 12.5034 5.15625 12.5C3.86719 12.5 2.8125 13.625 2.8125 15C2.8125 16.375 3.86719 17.5 5.15625 17.5C5.71611 17.4966 6.25532 17.2882 6.67188 16.9141C6.79409 16.8022 6.86686 16.6463 6.87418 16.4808C6.88151 16.3152 6.82279 16.1535 6.71094 16.0313C6.65664 15.9693 6.59049 15.9188 6.51638 15.8828C6.44227 15.8468 6.3617 15.826 6.27942 15.8216C6.19714 15.8173 6.11482 15.8294 6.03731 15.8574C5.9598 15.8853 5.88868 15.9285 5.82812 15.9844C5.64469 16.1529 5.40534 16.2475 5.15625 16.25C4.55469 16.25 4.0625 15.6875 4.0625 15C4.0625 14.3125 4.55469 13.75 5.15625 13.75ZM10.1328 14.3594C9.89062 14.2969 9.46094 14.1797 9.375 14.0781V14.0625C9.375 13.8047 9.5625 13.6719 9.92188 13.6719C10.201 13.6776 10.4725 13.7644 10.7031 13.9219H10.6953C10.8087 14.0119 10.949 14.0614 11.0938 14.0625C11.2595 14.0625 11.4185 13.9967 11.5357 13.8795C11.6529 13.7622 11.7188 13.6033 11.7188 13.4375C11.7203 13.346 11.7006 13.2553 11.6613 13.1727C11.622 13.09 11.5641 13.0175 11.4922 12.9609C11.0414 12.6151 10.49 12.4258 9.92188 12.4219C8.86719 12.4219 8.125 13.0938 8.125 14.0625C8.125 15.0313 9.14062 15.3906 9.8125 15.5703C10.0781 15.6406 10.3594 15.7109 10.5312 15.8125C10.7031 15.9141 10.625 15.8906 10.625 15.9375C10.625 15.9844 10.625 16.3281 9.92188 16.3281C9.6427 16.3224 9.37123 16.2356 9.14062 16.0781H9.14844C9.03505 15.9881 8.89479 15.9386 8.75 15.9375C8.58424 15.9375 8.42527 16.0034 8.30806 16.1206C8.19085 16.2378 8.125 16.3967 8.125 16.5625C8.12347 16.654 8.14313 16.7447 8.18243 16.8273C8.22173 16.91 8.27962 16.9825 8.35156 17.0391C8.80235 17.3849 9.35371 17.5742 9.92188 17.5781C11.1484 17.5781 11.875 16.9609 11.875 15.9375C11.875 14.9141 10.7812 14.5313 10.1328 14.3594ZM3.125 10V3.12501C3.125 2.79349 3.2567 2.47555 3.49112 2.24113C3.72554 2.00671 4.04348 1.87501 4.375 1.87501H11.875C12.0413 1.87407 12.2012 1.93862 12.3203 2.0547L16.6953 6.4297C16.8114 6.54876 16.8759 6.70873 16.875 6.87501V10C16.875 10.1658 16.8092 10.3247 16.6919 10.442C16.5747 10.5592 16.4158 10.625 16.25 10.625H3.75C3.58424 10.625 3.42527 10.5592 3.30806 10.442C3.19085 10.3247 3.125 10.1658 3.125 10ZM11.875 6.87501H15.3125L11.875 3.43751V6.87501Z" fill="currentColor"/>
</svg>
