<svg width="20" height="20" viewBox="0 0 20 20" fill="none" xmlns="http://www.w3.org/2000/svg">
<path d="M10.1328 14.3594C9.89062 14.2969 9.46094 14.1797 9.375 14.0781V14.0625C9.375 13.8047 9.5625 13.6719 9.92188 13.6719C10.201 13.6776 10.4725 13.7644 10.7031 13.9219H10.6953C10.8087 14.0119 10.949 14.0614 11.0938 14.0625C11.2595 14.0625 11.4185 13.9967 11.5357 13.8795C11.6529 13.7622 11.7188 13.6033 11.7188 13.4375C11.7203 13.346 11.7006 13.2553 11.6613 13.1727C11.622 13.09 11.5641 13.0175 11.4922 12.9609C11.0414 12.6151 10.49 12.4258 9.92188 12.4219C8.86719 12.4219 8.125 13.0938 8.125 14.0625C8.125 15.0313 9.14062 15.3906 9.8125 15.5703C10.0781 15.6406 10.3594 15.7109 10.5312 15.8125C10.7031 15.9141 10.625 15.8906 10.625 15.9375C10.625 15.9844 10.625 16.3281 9.92188 16.3281C9.6427 16.3224 9.37123 16.2356 9.14062 16.0781H9.14844C9.03505 15.9881 8.89479 15.9386 8.75 15.9375C8.58424 15.9375 8.42527 16.0034 8.30806 16.1206C8.19085 16.2378 8.125 16.3967 8.125 16.5625C8.12347 16.654 8.14313 16.7447 8.18243 16.8273C8.22173 16.91 8.27962 16.9825 8.35156 17.0391C8.80235 17.3849 9.35371 17.5742 9.92188 17.5781C11.1484 17.5781 11.875 16.9609 11.875 15.9375C11.875 14.9141 10.7812 14.5313 10.1328 14.3594ZM4.0625 15C4.0625 15.6875 4.55469 16.25 5.15625 16.25C5.40534 16.2475 5.64469 16.1529 5.82812 15.9844C5.88868 15.9285 5.9598 15.8853 6.03731 15.8574C6.11482 15.8294 6.19714 15.8173 6.27942 15.8216C6.3617 15.826 6.44227 15.8468 6.51638 15.8828C6.59049 15.9188 6.65664 15.9693 6.71094 16.0313C6.82279 16.1535 6.88151 16.3152 6.87418 16.4808C6.86686 16.6463 6.79409 16.8022 6.67188 16.9141C6.25532 17.2882 5.71611 17.4966 5.15625 17.5C3.86719 17.5 2.8125 16.375 2.8125 15C2.8125 13.625 3.86719 12.5 5.15625 12.5C5.71611 12.5034 6.25532 12.7119 6.67188 13.0859C6.79409 13.1979 6.86686 13.3537 6.87418 13.5193C6.88151 13.6848 6.82279 13.8465 6.71094 13.9688C6.65664 14.0307 6.59049 14.0812 6.51638 14.1172C6.44227 14.1532 6.3617 14.174 6.27942 14.1784C6.19714 14.1828 6.11482 14.1706 6.03731 14.1427C5.9598 14.1147 5.88868 14.0715 5.82812 14.0156C5.64469 13.8471 5.40534 13.7525 5.15625 13.75C4.55469 13.75 4.0625 14.3125 4.0625 15ZM15.1328 14.3594C14.8906 14.2969 14.4609 14.1797 14.375 14.0781V14.0625C14.375 13.8047 14.5625 13.6719 14.9219 13.6719C15.201 13.6776 15.4725 13.7644 15.7031 13.9219H15.6953C15.8087 14.0119 15.949 14.0614 16.0938 14.0625C16.2595 14.0625 16.4185 13.9967 16.5357 13.8795C16.6529 13.7622 16.7188 13.6033 16.7188 13.4375C16.7203 13.346 16.7006 13.2553 16.6613 13.1727C16.622 13.09 16.5641 13.0175 16.4922 12.9609C16.0414 12.6151 15.49 12.4258 14.9219 12.4219C13.8672 12.4219 13.125 13.0938 13.125 14.0625C13.125 15.0313 14.1406 15.3906 14.8125 15.5703C15.0781 15.6406 15.3594 15.7109 15.5312 15.8125C15.7031 15.9141 15.625 15.8906 15.625 15.9375C15.625 15.9844 15.625 16.3281 14.9219 16.3281C14.6427 16.3224 14.3712 16.2356 14.1406 16.0781H14.1484C14.0351 15.9881 13.8948 15.9386 13.75 15.9375C13.5842 15.9375 13.4253 16.0034 13.3081 16.1206C13.1908 16.2378 13.125 16.3967 13.125 16.5625C13.1235 16.654 13.1431 16.7447 13.1824 16.8273C13.2217 16.91 13.2796 16.9825 13.3516 17.0391C13.8024 17.3849 14.3537 17.5742 14.9219 17.5781C16.1484 17.5781 16.875 16.9609 16.875 15.9375C16.875 14.9141 15.7812 14.5313 15.1328 14.3594ZM16.6953 6.4297L12.3203 2.0547C12.2012 1.93862 12.0413 1.87407 11.875 1.87501H4.375C4.04348 1.87501 3.72554 2.00671 3.49112 2.24113C3.2567 2.47555 3.125 2.79349 3.125 3.12501V10C3.125 10.1658 3.19085 10.3247 3.30806 10.442C3.42527 10.5592 3.58424 10.625 3.75 10.625H16.25C16.4158 10.625 16.5747 10.5592 16.6919 10.442C16.8092 10.3247 16.875 10.1658 16.875 10V6.87501C16.8759 6.70873 16.8114 6.54876 16.6953 6.4297ZM11.875 6.87501V3.43751L15.3125 6.87501H11.875Z" fill="currentColor"/>
</svg>
