<svg width="20" height="20" viewBox="0 0 20 20" fill="none" xmlns="http://www.w3.org/2000/svg">
<path d="M16.6875 6.42969L12.3203 2.05469L12.2969 2.03906L12.2734 2.01563L12.25 2L12.2266 1.98438C12.2188 1.97656 12.2109 1.97656 12.2109 1.96875L12.1719 1.94531H12.1562L12.1172 1.92188H12.1094L12.0547 1.89844H4.375C4.0475 1.89838 3.73306 2.02685 3.4993 2.25623C3.26554 2.4856 3.13114 2.79756 3.125 3.125V16.875C3.125 17.2065 3.2567 17.5245 3.49112 17.7589C3.72554 17.9933 4.04348 18.125 4.375 18.125H15.625C15.9565 18.125 16.2745 17.9933 16.5089 17.7589C16.7433 17.5245 16.875 17.2065 16.875 16.875V6.875C16.8758 6.79191 16.8595 6.70955 16.8273 6.63297C16.795 6.55639 16.7475 6.48721 16.6875 6.42969ZM12.9219 14.8047C12.8052 14.9196 12.6481 14.9841 12.4844 14.9844C12.3184 14.9837 12.159 14.9194 12.0391 14.8047L11.1875 13.9453C10.7367 14.2241 10.2176 14.3728 9.6875 14.375C9.13124 14.375 8.58747 14.21 8.12496 13.901C7.66245 13.592 7.30196 13.1527 7.08909 12.6388C6.87622 12.1249 6.82052 11.5594 6.92904 11.0138C7.03756 10.4682 7.30543 9.9671 7.69876 9.57376C8.0921 9.18043 8.59324 8.91256 9.13881 8.80404C9.68438 8.69552 10.2499 8.75122 10.7638 8.96409C11.2777 9.17696 11.717 9.53745 12.026 9.99996C12.335 10.4625 12.5 11.0062 12.5 11.5625C12.502 12.0931 12.3529 12.6134 12.0703 13.0625L12.9219 13.9141C12.9809 13.9722 13.0278 14.0415 13.0598 14.118C13.0918 14.1944 13.1083 14.2765 13.1083 14.3594C13.1083 14.4423 13.0918 14.5243 13.0598 14.6008C13.0278 14.6772 12.9809 14.7465 12.9219 14.8047ZM11.875 6.875V3.38281L15.3672 6.875H11.875Z" fill="currentColor"/>
<path d="M9.68744 10C9.48251 10.0004 9.27969 10.0414 9.09064 10.1205C8.9016 10.1996 8.73005 10.3153 8.58588 10.4609C8.4399 10.6049 8.32398 10.7763 8.24486 10.9655C8.16574 11.1546 8.125 11.3575 8.125 11.5625C8.125 11.7675 8.16574 11.9704 8.24486 12.1595C8.32398 12.3487 8.4399 12.5201 8.58588 12.6641C8.73033 12.8091 8.902 12.9242 9.09103 13.0027C9.28007 13.0812 9.48275 13.1217 9.68744 13.1217C9.89214 13.1217 10.0948 13.0812 10.2839 13.0027C10.4729 12.9242 10.6446 12.8091 10.789 12.6641C10.935 12.5201 11.0509 12.3487 11.13 12.1595C11.2091 11.9704 11.2499 11.7675 11.2499 11.5625C11.2499 11.3575 11.2091 11.1546 11.13 10.9655C11.0509 10.7763 10.935 10.6049 10.789 10.4609C10.6448 10.3153 10.4733 10.1996 10.2842 10.1205C10.0952 10.0414 9.89237 10.0004 9.68744 10Z" fill="currentColor"/>
</svg>
