<svg width="20" height="20" viewBox="0 0 20 20" fill="none" xmlns="http://www.w3.org/2000/svg">
<path d="M4.53125 12.5H3.4375C3.27174 12.5 3.11277 12.5659 2.99556 12.6831C2.87835 12.8003 2.8125 12.9592 2.8125 13.125V16.875C2.8125 17.0408 2.87835 17.1997 2.99556 17.317C3.11277 17.4342 3.27174 17.5 3.4375 17.5H4.53125C5.19429 17.5 5.83018 17.2366 6.29902 16.7678C6.76786 16.2989 7.03125 15.6631 7.03125 15C7.03125 14.337 6.76786 13.7011 6.29902 13.2322C5.83018 12.7634 5.19429 12.5 4.53125 12.5ZM4.53125 16.25H4.0625V13.75H4.53125C4.86277 13.75 5.18071 13.8817 5.41513 14.1161C5.64955 14.3505 5.78125 14.6685 5.78125 15C5.78125 15.3315 5.64955 15.6495 5.41513 15.8839C5.18071 16.1183 4.86277 16.25 4.53125 16.25ZM10.1562 12.5C8.86719 12.5 7.8125 13.625 7.8125 15C7.8125 16.375 8.86719 17.5 10.1562 17.5C11.4453 17.5 12.5 16.375 12.5 15C12.5 13.625 11.4453 12.5 10.1562 12.5ZM10.1562 16.25C9.55469 16.25 9.0625 15.6875 9.0625 15C9.0625 14.3125 9.55469 13.75 10.1562 13.75C10.7578 13.75 11.25 14.3125 11.25 15C11.25 15.6875 10.7578 16.25 10.1562 16.25ZM17.0234 16.0313C17.1353 16.1535 17.194 16.3152 17.1867 16.4808C17.1794 16.6463 17.1066 16.8022 16.9844 16.9141C16.5678 17.2882 16.0286 17.4966 15.4688 17.5C14.1797 17.5 13.125 16.375 13.125 15C13.125 13.625 14.1797 12.5 15.4688 12.5C16.0286 12.5034 16.5678 12.7119 16.9844 13.0859C17.1066 13.1979 17.1794 13.3537 17.1867 13.5193C17.194 13.6848 17.1353 13.8465 17.0234 13.9688C16.9691 14.0307 16.903 14.0812 16.8289 14.1172C16.7548 14.1532 16.6742 14.174 16.5919 14.1784C16.5096 14.1828 16.4273 14.1706 16.3498 14.1427C16.2723 14.1147 16.2012 14.0715 16.1406 14.0156C15.9572 13.8471 15.7178 13.7525 15.4688 13.75C14.8672 13.75 14.375 14.3125 14.375 15C14.375 15.6875 14.8672 16.25 15.4688 16.25C15.7178 16.2475 15.9572 16.1529 16.1406 15.9844C16.2012 15.9285 16.2723 15.8853 16.3498 15.8574C16.4273 15.8294 16.5096 15.8173 16.5919 15.8216C16.6742 15.826 16.7548 15.8468 16.8289 15.8828C16.903 15.9188 16.9691 15.9693 17.0234 16.0313ZM3.75 10.625H16.25C16.4158 10.625 16.5747 10.5592 16.6919 10.442C16.8092 10.3247 16.875 10.1658 16.875 10V6.87501C16.8759 6.70873 16.8114 6.54876 16.6953 6.4297L12.3203 2.0547C12.2012 1.93862 12.0413 1.87407 11.875 1.87501H4.375C4.04348 1.87501 3.72554 2.00671 3.49112 2.24113C3.2567 2.47555 3.125 2.79349 3.125 3.12501V10C3.125 10.1658 3.19085 10.3247 3.30806 10.442C3.42527 10.5592 3.58424 10.625 3.75 10.625ZM11.875 3.43751L15.3125 6.87501H11.875V3.43751Z" fill="currentColor"/>
</svg>
