<svg width="20" height="20" viewBox="0 0 20 20" fill="none" xmlns="http://www.w3.org/2000/svg">
<path d="M9.375 13.125H6.875C6.70924 13.125 6.55027 13.1908 6.43306 13.3081C6.31585 13.4253 6.25 13.5842 6.25 13.75C6.25 13.9158 6.31585 14.0747 6.43306 14.1919C6.55027 14.3092 6.70924 14.375 6.875 14.375H7.5V16.875C7.5 17.0408 7.56585 17.1997 7.68306 17.3169C7.80027 17.4342 7.95924 17.5 8.125 17.5C8.29076 17.5 8.44973 17.4342 8.56694 17.3169C8.68415 17.1997 8.75 17.0408 8.75 16.875V14.375H9.375C9.54076 14.375 9.69973 14.3092 9.81694 14.1919C9.93415 14.0747 10 13.9158 10 13.75C10 13.5842 9.93415 13.4253 9.81694 13.3081C9.69973 13.1908 9.54076 13.125 9.375 13.125Z" fill="currentColor"/>
<path d="M5 13.125C4.83424 13.125 4.67527 13.1908 4.55806 13.3081C4.44085 13.4253 4.375 13.5842 4.375 13.75V14.6875H3.4375V13.75C3.4375 13.5842 3.37165 13.4253 3.25444 13.3081C3.13723 13.1908 2.97826 13.125 2.8125 13.125C2.64674 13.125 2.48777 13.1908 2.37056 13.3081C2.25335 13.4253 2.1875 13.5842 2.1875 13.75V16.875C2.1875 17.0408 2.25335 17.1997 2.37056 17.3169C2.48777 17.4342 2.64674 17.5 2.8125 17.5C2.97826 17.5 3.13723 17.4342 3.25444 17.3169C3.37165 17.1997 3.4375 17.0408 3.4375 16.875V15.9375H4.375V16.875C4.375 17.0408 4.44085 17.1997 4.55806 17.3169C4.67527 17.4342 4.83424 17.5 5 17.5C5.16576 17.5 5.32473 17.4342 5.44194 17.3169C5.55915 17.1997 5.625 17.0408 5.625 16.875V13.75C5.625 13.5842 5.55915 13.4253 5.44194 13.3081C5.32473 13.1908 5.16576 13.125 5 13.125Z" fill="currentColor"/>
<path d="M18.4375 16.25H17.1875V13.75C17.1875 13.5842 17.1217 13.4253 17.0044 13.3081C16.8872 13.1908 16.7283 13.125 16.5625 13.125C16.3967 13.125 16.2378 13.1908 16.1206 13.3081C16.0033 13.4253 15.9375 13.5842 15.9375 13.75V16.875C15.9375 17.0408 16.0033 17.1997 16.1206 17.3169C16.2378 17.4342 16.3967 17.5 16.5625 17.5H18.4375C18.6033 17.5 18.7622 17.4342 18.8794 17.3169C18.9967 17.1997 19.0625 17.0408 19.0625 16.875C19.0625 16.7092 18.9967 16.5503 18.8794 16.4331C18.7622 16.3158 18.6033 16.25 18.4375 16.25Z" fill="currentColor"/>
<path d="M14.5625 13.1562C14.4369 13.1145 14.3011 13.1148 14.1756 13.157C14.0502 13.1993 13.9419 13.2813 13.8672 13.3906L12.8125 14.8594L11.7578 13.3906C11.6809 13.2835 11.5721 13.2034 11.447 13.1618C11.3218 13.1202 11.1867 13.1193 11.061 13.1592C10.9353 13.1991 10.8254 13.2777 10.7471 13.3838C10.6688 13.4899 10.626 13.6181 10.625 13.75V16.875C10.625 17.0407 10.6908 17.1997 10.8081 17.3169C10.9253 17.4341 11.0842 17.5 11.25 17.5C11.4158 17.5 11.5747 17.4341 11.6919 17.3169C11.8092 17.1997 11.875 17.0407 11.875 16.875V15.7031L12.3047 16.2969C12.3615 16.379 12.4373 16.4462 12.5258 16.4926C12.6142 16.539 12.7126 16.5633 12.8125 16.5633C12.9124 16.5633 13.0108 16.539 13.0992 16.4926C13.1877 16.4462 13.2635 16.379 13.3203 16.2969L13.75 15.7031V16.875C13.75 17.0407 13.8158 17.1997 13.9331 17.3169C14.0503 17.4341 14.2092 17.5 14.375 17.5C14.5408 17.5 14.6997 17.4341 14.8169 17.3169C14.9342 17.1997 15 17.0407 15 16.875V13.75C15.002 13.6168 14.9603 13.4866 14.8813 13.3794C14.8023 13.2722 14.6903 13.1938 14.5625 13.1562Z" fill="currentColor"/>
<path d="M3.75 10.625H16.25C16.4158 10.625 16.5747 10.5592 16.6919 10.442C16.8092 10.3247 16.875 10.1658 16.875 10V6.87501C16.8759 6.70873 16.8114 6.54876 16.6953 6.4297L12.3203 2.0547C12.2012 1.93862 12.0413 1.87407 11.875 1.87501H4.375C4.04348 1.87501 3.72554 2.00671 3.49112 2.24113C3.2567 2.47555 3.125 2.79349 3.125 3.12501V10C3.125 10.1658 3.19085 10.3247 3.30806 10.442C3.42527 10.5592 3.58424 10.625 3.75 10.625ZM11.875 3.43751L15.3125 6.87501H11.875V3.43751Z" fill="currentColor"/>
</svg>
