<svg width="20" height="20" viewBox="0 0 20 20" fill="none" xmlns="http://www.w3.org/2000/svg">
<path d="M6.25 17.5C6.25 17.6658 6.18415 17.8247 6.06694 17.9419C5.94973 18.0592 5.79076 18.125 5.625 18.125H4.375C4.04348 18.125 3.72554 17.9933 3.49112 17.7589C3.2567 17.5245 3.125 17.2065 3.125 16.875V14.375C3.125 14.2092 3.19085 14.0503 3.30806 13.9331C3.42527 13.8158 3.58424 13.75 3.75 13.75C3.91576 13.75 4.07473 13.8158 4.19194 13.9331C4.30915 14.0503 4.375 14.2092 4.375 14.375V16.875H5.625C5.79076 16.875 5.94973 16.9408 6.06694 17.0581C6.18415 17.1753 6.25 17.3342 6.25 17.5ZM6.25 1.875H4.375C4.04348 1.875 3.72554 2.0067 3.49112 2.24112C3.2567 2.47554 3.125 2.79348 3.125 3.125V5C3.125 5.16576 3.19085 5.32473 3.30806 5.44194C3.42527 5.55915 3.58424 5.625 3.75 5.625C3.91576 5.625 4.07473 5.55915 4.19194 5.44194C4.30915 5.32473 4.375 5.16576 4.375 5V3.125H6.25C6.41576 3.125 6.57473 3.05915 6.69194 2.94194C6.80915 2.82473 6.875 2.66576 6.875 2.5C6.875 2.33424 6.80915 2.17527 6.69194 2.05806C6.57473 1.94085 6.41576 1.875 6.25 1.875ZM16.875 6.875C16.8758 6.79191 16.8595 6.70955 16.8273 6.63297C16.795 6.55639 16.7475 6.48721 16.6875 6.42969L12.3203 2.05469H12.3047L12.2734 2.02344H12.2578L12.2266 2C12.2188 1.99219 12.2109 1.99219 12.2109 1.98437L12.1719 1.96094H12.1562L12.1172 1.9375H12.1094L12.0547 1.91406H9.375C9.20924 1.91406 9.05027 1.97991 8.93306 2.09712C8.81585 2.21433 8.75 2.3733 8.75 2.53906C8.75 2.70482 8.81585 2.86379 8.93306 2.981C9.05027 3.09821 9.20924 3.16406 9.375 3.16406H11.25V6.875C11.25 7.04076 11.3158 7.19973 11.4331 7.31694C11.5503 7.43415 11.7092 7.5 11.875 7.5H15.625V10.625C15.625 10.7908 15.6908 10.9497 15.8081 11.0669C15.9253 11.1842 16.0842 11.25 16.25 11.25C16.4158 11.25 16.5747 11.1842 16.6919 11.0669C16.8092 10.9497 16.875 10.7908 16.875 10.625V6.875ZM16.25 13.125C16.0842 13.125 15.9253 13.1908 15.8081 13.3081C15.6908 13.4253 15.625 13.5842 15.625 13.75V16.875H15C14.8342 16.875 14.6753 16.9408 14.5581 17.0581C14.4408 17.1753 14.375 17.3342 14.375 17.5C14.375 17.6658 14.4408 17.8247 14.5581 17.9419C14.6753 18.0592 14.8342 18.125 15 18.125H15.625C15.9565 18.125 16.2745 17.9933 16.5089 17.7589C16.7433 17.5245 16.875 17.2065 16.875 16.875V13.75C16.875 13.5842 16.8092 13.4253 16.6919 13.3081C16.5747 13.1908 16.4158 13.125 16.25 13.125ZM3.75 11.875C3.91576 11.875 4.07473 11.8092 4.19194 11.6919C4.30915 11.5747 4.375 11.4158 4.375 11.25V8.125C4.375 7.95924 4.30915 7.80027 4.19194 7.68306C4.07473 7.56585 3.91576 7.5 3.75 7.5C3.58424 7.5 3.42527 7.56585 3.30806 7.68306C3.19085 7.80027 3.125 7.95924 3.125 8.125V11.25C3.125 11.4158 3.19085 11.5747 3.30806 11.6919C3.42527 11.8092 3.58424 11.875 3.75 11.875ZM11.875 16.875H8.75C8.58424 16.875 8.42527 16.9408 8.30806 17.0581C8.19085 17.1753 8.125 17.3342 8.125 17.5C8.125 17.6658 8.19085 17.8247 8.30806 17.9419C8.42527 18.0592 8.58424 18.125 8.75 18.125H11.875C12.0408 18.125 12.1997 18.0592 12.3169 17.9419C12.4342 17.8247 12.5 17.6658 12.5 17.5C12.5 17.3342 12.4342 17.1753 12.3169 17.0581C12.1997 16.9408 12.0408 16.875 11.875 16.875Z" fill="currentColor"/>
</svg>
