<svg width="20" height="20" viewBox="0 0 20 20" fill="none" xmlns="http://www.w3.org/2000/svg">
<path d="M6.25 13.125V15.625C6.25 16.1223 6.05246 16.5992 5.70083 16.9508C5.34919 17.3025 4.87228 17.5 4.375 17.5C3.87772 17.5 3.40081 17.3025 3.04917 16.9508C2.69754 16.5992 2.5 16.1223 2.5 15.625C2.5 15.4592 2.56585 15.3003 2.68306 15.1831C2.80027 15.0659 2.95924 15 3.125 15C3.29076 15 3.44973 15.0659 3.56694 15.1831C3.68415 15.3003 3.75 15.4592 3.75 15.625C3.75 15.7908 3.81585 15.9497 3.93306 16.067C4.05027 16.1842 4.20924 16.25 4.375 16.25C4.54076 16.25 4.69973 16.1842 4.81694 16.067C4.93415 15.9497 5 15.7908 5 15.625V13.125C5 12.9592 5.06585 12.8003 5.18306 12.6831C5.30027 12.5659 5.45924 12.5 5.625 12.5C5.79076 12.5 5.94973 12.5659 6.06694 12.6831C6.18415 12.8003 6.25 12.9592 6.25 13.125ZM9.50781 14.3594C9.26562 14.2969 8.83594 14.1797 8.75 14.0781V14.0625C8.75 13.8047 8.9375 13.6719 9.29688 13.6719C9.57605 13.6776 9.84752 13.7644 10.0781 13.9219H10.0703C10.1837 14.0119 10.324 14.0614 10.4688 14.0625C10.6345 14.0625 10.7935 13.9967 10.9107 13.8795C11.0279 13.7622 11.0938 13.6033 11.0938 13.4375C11.0953 13.346 11.0756 13.2553 11.0363 13.1727C10.997 13.09 10.9391 13.0175 10.8672 12.9609C10.4164 12.6151 9.86504 12.4258 9.29688 12.4219C8.24219 12.4219 7.5 13.0938 7.5 14.0625C7.5 15.0313 8.51562 15.3906 9.1875 15.5703C9.45312 15.6406 9.73438 15.7109 9.90625 15.8125C10.0781 15.9141 10 15.8906 10 15.9375C10 15.9844 10 16.3281 9.29688 16.3281C9.0177 16.3224 8.74623 16.2356 8.51562 16.0781H8.52344C8.41005 15.9881 8.26979 15.9386 8.125 15.9375C7.95924 15.9375 7.80027 16.0034 7.68306 16.1206C7.56585 16.2378 7.5 16.3967 7.5 16.5625C7.49847 16.654 7.51813 16.7447 7.55743 16.8273C7.59673 16.91 7.65462 16.9825 7.72656 17.0391C8.17735 17.3849 8.72871 17.5742 9.29688 17.5781C10.5234 17.5781 11.25 16.9609 11.25 15.9375C11.25 14.9141 10.1562 14.5313 9.50781 14.3594ZM16 12.625C15.8674 12.5256 15.7007 12.4828 15.5366 12.5063C15.3725 12.5297 15.2245 12.6174 15.125 12.75L14.2188 13.9609L13.3125 12.75C13.2633 12.6843 13.2016 12.629 13.1309 12.5872C13.0603 12.5454 12.9821 12.5179 12.9009 12.5063C12.8196 12.4947 12.7369 12.4992 12.6574 12.5196C12.5779 12.5399 12.5032 12.5758 12.4375 12.625C12.3718 12.6743 12.3165 12.736 12.2747 12.8066C12.2329 12.8772 12.2054 12.9554 12.1938 13.0366C12.1822 13.1179 12.1867 13.2006 12.2071 13.2801C12.2274 13.3596 12.2633 13.4343 12.3125 13.5L13.4375 15L12.3125 16.5C12.2633 16.5657 12.2274 16.6404 12.2071 16.7199C12.1867 16.7994 12.1822 16.8821 12.1938 16.9634C12.2054 17.0447 12.2329 17.1228 12.2747 17.1934C12.3165 17.2641 12.3718 17.3258 12.4375 17.375C12.5449 17.4577 12.677 17.5018 12.8125 17.5C12.9095 17.5 13.0052 17.4774 13.092 17.434C13.1788 17.3906 13.2543 17.3276 13.3125 17.25L14.2188 16.0391L15.125 17.25C15.1832 17.3276 15.2587 17.3906 15.3455 17.434C15.4323 17.4774 15.528 17.5 15.625 17.5C15.7605 17.5018 15.8926 17.4577 16 17.375C16.0657 17.3258 16.121 17.2641 16.1628 17.1934C16.2046 17.1228 16.2321 17.0447 16.2437 16.9634C16.2553 16.8821 16.2508 16.7994 16.2304 16.7199C16.2101 16.6404 16.1742 16.5657 16.125 16.5L15 15L16.125 13.5C16.1742 13.4343 16.2101 13.3596 16.2304 13.2801C16.2508 13.2006 16.2553 13.1179 16.2437 13.0366C16.2321 12.9554 16.2046 12.8772 16.1628 12.8066C16.121 12.736 16.0657 12.6743 16 12.625ZM16.875 6.87501V10C16.875 10.1658 16.8092 10.3247 16.6919 10.442C16.5747 10.5592 16.4158 10.625 16.25 10.625H3.75C3.58424 10.625 3.42527 10.5592 3.30806 10.442C3.19085 10.3247 3.125 10.1658 3.125 10V3.12501C3.125 2.79349 3.2567 2.47555 3.49112 2.24113C3.72554 2.00671 4.04348 1.87501 4.375 1.87501H11.875C12.0413 1.87407 12.2012 1.93862 12.3203 2.0547L16.6953 6.4297C16.8114 6.54876 16.8759 6.70873 16.875 6.87501ZM15.3125 6.87501L11.875 3.43751V6.87501H15.3125Z" fill="currentColor"/>
</svg>
