<svg width="20" height="20" viewBox="0 0 20 20" fill="none" xmlns="http://www.w3.org/2000/svg">
<path d="M16.6953 6.4297L12.3203 2.0547C12.2012 1.93862 12.0413 1.87407 11.875 1.87501H4.375C4.04348 1.87501 3.72554 2.00671 3.49112 2.24113C3.2567 2.47555 3.125 2.79349 3.125 3.12501V16.875C3.125 17.2065 3.2567 17.5245 3.49112 17.7589C3.72554 17.9933 4.04348 18.125 4.375 18.125H15.625C15.9565 18.125 16.2745 17.9933 16.5089 17.7589C16.7433 17.5245 16.875 17.2065 16.875 16.875V6.87501C16.8759 6.70873 16.8114 6.54876 16.6953 6.4297ZM8.57031 13.3047C8.68768 13.4232 8.75352 13.5832 8.75352 13.75C8.75352 13.9168 8.68768 14.0768 8.57031 14.1953C8.45085 14.3108 8.29118 14.3754 8.125 14.3754C7.95882 14.3754 7.79915 14.3108 7.67969 14.1953L5.80469 12.3203C5.68732 12.2018 5.62148 12.0418 5.62148 11.875C5.62148 11.7082 5.68732 11.5482 5.80469 11.4297L7.67969 9.5547C7.80112 9.45503 7.95529 9.4041 8.11219 9.41181C8.2691 9.41951 8.41753 9.48531 8.52862 9.59639C8.6397 9.70748 8.7055 9.85591 8.7132 10.0128C8.72091 10.1697 8.66998 10.3239 8.57031 10.4453L7.13281 11.875L8.57031 13.3047ZM14.1953 12.3203L12.3203 14.1953C12.2008 14.3108 12.0412 14.3754 11.875 14.3754C11.7088 14.3754 11.5492 14.3108 11.4297 14.1953C11.3123 14.0768 11.2465 13.9168 11.2465 13.75C11.2465 13.5832 11.3123 13.4232 11.4297 13.3047L12.8672 11.875L11.4297 10.4453C11.33 10.3239 11.2791 10.1697 11.2868 10.0128C11.2945 9.85591 11.3603 9.70748 11.4714 9.59639C11.5825 9.48531 11.7309 9.41951 11.8878 9.41181C12.0447 9.4041 12.1989 9.45503 12.3203 9.5547L14.1953 11.4297C14.3127 11.5482 14.3785 11.7082 14.3785 11.875C14.3785 12.0418 14.3127 12.2018 14.1953 12.3203ZM11.875 6.87501V3.43751L15.3125 6.87501H11.875Z" fill="currentColor"/>
</svg>
