<svg width="20" height="20" viewBox="0 0 20 20" fill="none" xmlns="http://www.w3.org/2000/svg">
<path d="M11.25 15.9375C11.25 16.9609 10.5234 17.5781 9.29688 17.5781C8.72961 17.5764 8.17834 17.39 7.72656 17.0469C7.65355 16.9895 7.59501 16.9158 7.55567 16.8316C7.51632 16.7475 7.49725 16.6553 7.5 16.5625C7.5 16.3967 7.56585 16.2378 7.68306 16.1206C7.80027 16.0034 7.95924 15.9375 8.125 15.9375C8.26979 15.9386 8.41005 15.9881 8.52344 16.0781H8.51562C8.74623 16.2356 9.0177 16.3224 9.29688 16.3281C10 16.3281 10 16.0938 10 15.9375C10 15.7813 10 15.8672 9.90625 15.8125C9.8125 15.7578 9.45312 15.6406 9.1875 15.5703C8.51562 15.3906 7.5 15.1172 7.5 14.0625C7.5 13.0078 8.24219 12.4219 9.29688 12.4219C9.86414 12.4236 10.4154 12.6101 10.8672 12.9531C10.9402 13.0105 10.9987 13.0842 11.0381 13.1684C11.0774 13.2525 11.0965 13.3447 11.0938 13.4375C11.0938 13.6033 11.0279 13.7622 10.9107 13.8795C10.7935 13.9967 10.6345 14.0625 10.4688 14.0625C10.324 14.0614 10.1837 14.0119 10.0703 13.9219H10.0781C9.84752 13.7644 9.57605 13.6776 9.29688 13.6719C8.9375 13.6719 8.75 13.8047 8.75 14.0625V14.0781C8.83594 14.1797 9.26562 14.2969 9.50781 14.3594C10.1562 14.5313 11.25 14.8203 11.25 15.9375ZM5.625 12.5C5.45924 12.5 5.30027 12.5659 5.18306 12.6831C5.06585 12.8003 5 12.9592 5 13.125V15.625C5 15.7908 4.93415 15.9497 4.81694 16.067C4.69973 16.1842 4.54076 16.25 4.375 16.25C4.20924 16.25 4.05027 16.1842 3.93306 16.067C3.81585 15.9497 3.75 15.7908 3.75 15.625C3.75 15.4592 3.68415 15.3003 3.56694 15.1831C3.44973 15.0659 3.29076 15 3.125 15C2.95924 15 2.80027 15.0659 2.68306 15.1831C2.56585 15.3003 2.5 15.4592 2.5 15.625C2.5 16.1223 2.69754 16.5992 3.04917 16.9508C3.40081 17.3025 3.87772 17.5 4.375 17.5C4.87228 17.5 5.34919 17.3025 5.70083 16.9508C6.05246 16.5992 6.25 16.1223 6.25 15.625V13.125C6.25 12.9592 6.18415 12.8003 6.06694 12.6831C5.94973 12.5659 5.79076 12.5 5.625 12.5ZM16.875 6.87501V16.875C16.875 17.2065 16.7433 17.5245 16.5089 17.7589C16.2745 17.9933 15.9565 18.125 15.625 18.125H13.75C13.5842 18.125 13.4253 18.0592 13.3081 17.942C13.1908 17.8247 13.125 17.6658 13.125 17.5V11.25C13.125 11.0842 13.0592 10.9253 12.9419 10.8081C12.8247 10.6909 12.6658 10.625 12.5 10.625H3.75C3.58424 10.625 3.42527 10.5592 3.30806 10.442C3.19085 10.3247 3.125 10.1658 3.125 10V3.12501C3.125 2.79349 3.2567 2.47555 3.49112 2.24113C3.72554 2.00671 4.04348 1.87501 4.375 1.87501H11.875C12.0413 1.87407 12.2012 1.93862 12.3203 2.0547L16.6953 6.4297C16.8114 6.54876 16.8759 6.70873 16.875 6.87501ZM15.3125 6.87501L11.875 3.43751V6.87501H15.3125Z" fill="currentColor"/>
</svg>
