<svg width="20" height="20" viewBox="0 0 20 20" fill="none" xmlns="http://www.w3.org/2000/svg">
<path d="M4.6875 12.5H3.4375C3.27174 12.5 3.11277 12.5659 2.99556 12.6831C2.87835 12.8003 2.8125 12.9592 2.8125 13.125V16.875C2.8125 17.0408 2.87835 17.1997 2.99556 17.317C3.11277 17.4342 3.27174 17.5 3.4375 17.5C3.60326 17.5 3.76223 17.4342 3.87944 17.317C3.99665 17.1997 4.0625 17.0408 4.0625 16.875V16.25H4.6875C5.18478 16.25 5.66169 16.0525 6.01333 15.7008C6.36496 15.3492 6.5625 14.8723 6.5625 14.375C6.5625 13.8777 6.36496 13.4008 6.01333 13.0492C5.66169 12.6976 5.18478 12.5 4.6875 12.5ZM4.6875 15H4.0625V13.75H4.6875C4.85326 13.75 5.01223 13.8159 5.12944 13.9331C5.24665 14.0503 5.3125 14.2092 5.3125 14.375C5.3125 14.5408 5.24665 14.6997 5.12944 14.817C5.01223 14.9342 4.85326 15 4.6875 15ZM11.875 13.125V16.875C11.875 17.0066 11.8335 17.1349 11.7563 17.2415C11.6792 17.3481 11.5703 17.4276 11.4453 17.4688C11.3825 17.4905 11.3164 17.501 11.25 17.5C11.1528 17.5013 11.0566 17.4792 10.9696 17.4357C10.8827 17.3922 10.8073 17.3286 10.75 17.25L9.0625 15V16.875C9.0625 17.0408 8.99665 17.1997 8.87944 17.317C8.76223 17.4342 8.60326 17.5 8.4375 17.5C8.27174 17.5 8.11277 17.4342 7.99556 17.317C7.87835 17.1997 7.8125 17.0408 7.8125 16.875V13.125C7.81249 12.9934 7.85402 12.8652 7.93118 12.7585C8.00833 12.6519 8.11717 12.5724 8.24219 12.5313C8.3663 12.4892 8.50058 12.4877 8.62559 12.527C8.75059 12.5664 8.85984 12.6445 8.9375 12.75L10.625 15V13.125C10.625 12.9592 10.6908 12.8003 10.8081 12.6831C10.9253 12.5659 11.0842 12.5 11.25 12.5C11.4158 12.5 11.5747 12.5659 11.6919 12.6831C11.8092 12.8003 11.875 12.9592 11.875 13.125ZM17.5 16.0781C17.5013 16.1979 17.4658 16.3151 17.3984 16.4141C17.1944 16.743 16.9105 17.0151 16.5731 17.2049C16.2357 17.3948 15.8558 17.4963 15.4688 17.5C14.1797 17.5 13.125 16.375 13.125 15C13.125 13.625 14.1797 12.5 15.4688 12.5C15.9346 12.501 16.3883 12.6486 16.7656 12.9219C16.8832 13.0234 16.9588 13.1651 16.9777 13.3193C16.9965 13.4735 16.9572 13.6292 16.8674 13.7561C16.7777 13.8829 16.6439 13.9717 16.4922 14.0053C16.3405 14.0388 16.1817 14.0147 16.0469 13.9375C15.8788 13.8156 15.6764 13.75 15.4688 13.75C14.8672 13.75 14.375 14.3125 14.375 15C14.375 15.6875 14.8672 16.25 15.4688 16.25C15.6183 16.2474 15.7655 16.2126 15.9003 16.1478C16.0352 16.0831 16.1544 15.9901 16.25 15.875V15.7813H15.9375C15.7717 15.7813 15.6128 15.7154 15.4956 15.5982C15.3783 15.481 15.3125 15.322 15.3125 15.1563C15.3125 14.9905 15.3783 14.8315 15.4956 14.7143C15.6128 14.5971 15.7717 14.5313 15.9375 14.5313H16.875C17.0408 14.5313 17.1997 14.5971 17.3169 14.7143C17.4342 14.8315 17.5 14.9905 17.5 15.1563V16.0781ZM3.75 10.625H16.25C16.4158 10.625 16.5747 10.5592 16.6919 10.442C16.8092 10.3247 16.875 10.1658 16.875 10V6.87501C16.8759 6.70873 16.8114 6.54876 16.6953 6.4297L12.3203 2.0547C12.2012 1.93862 12.0413 1.87407 11.875 1.87501H4.375C4.04348 1.87501 3.72554 2.00671 3.49112 2.24113C3.2567 2.47555 3.125 2.79349 3.125 3.12501V10C3.125 10.1658 3.19085 10.3247 3.30806 10.442C3.42527 10.5592 3.58424 10.625 3.75 10.625ZM11.875 3.43751L15.3125 6.87501H11.875V3.43751Z" fill="currentColor"/>
</svg>
