<svg width="20" height="20" viewBox="0 0 20 20" fill="none" xmlns="http://www.w3.org/2000/svg">
<path d="M7.375 13.5L6.25 15L7.375 16.5C7.47446 16.6326 7.51716 16.7993 7.49372 16.9634C7.47028 17.1275 7.38261 17.2756 7.25 17.375C7.14265 17.4577 7.01051 17.5018 6.875 17.5C6.77797 17.5 6.68228 17.4774 6.59549 17.434C6.50871 17.3906 6.43322 17.3276 6.375 17.25L5.46875 16.0391L4.5625 17.25C4.50428 17.3276 4.42879 17.3906 4.34201 17.434C4.25522 17.4774 4.15953 17.5 4.0625 17.5C3.92699 17.5018 3.79485 17.4577 3.6875 17.375C3.55489 17.2756 3.46722 17.1275 3.44378 16.9634C3.42034 16.7993 3.46304 16.6326 3.5625 16.5L4.6875 15L3.5625 13.5C3.51325 13.4343 3.47742 13.3596 3.45705 13.2801C3.43668 13.2006 3.43217 13.1179 3.44378 13.0366C3.45539 12.9554 3.48289 12.8772 3.5247 12.8066C3.56652 12.736 3.62184 12.6743 3.6875 12.625C3.75316 12.5758 3.82788 12.5399 3.90739 12.5196C3.9869 12.4992 4.06964 12.4947 4.15089 12.5063C4.23214 12.5179 4.31031 12.5454 4.38093 12.5872C4.45156 12.629 4.51325 12.6843 4.5625 12.75L5.46875 13.9609L6.375 12.75C6.47446 12.6174 6.62252 12.5297 6.78661 12.5063C6.95071 12.4828 7.11739 12.5256 7.25 12.625C7.38261 12.7245 7.47028 12.8725 7.49372 13.0366C7.51716 13.2007 7.47446 13.3674 7.375 13.5ZM11.5625 16.25H10V13.125C10 12.9592 9.93415 12.8003 9.81694 12.6831C9.69973 12.5659 9.54076 12.5 9.375 12.5C9.20924 12.5 9.05027 12.5659 8.93306 12.6831C8.81585 12.8003 8.75 12.9592 8.75 13.125V16.875C8.75 17.0408 8.81585 17.1997 8.93306 17.317C9.05027 17.4342 9.20924 17.5 9.375 17.5H11.5625C11.7283 17.5 11.8872 17.4342 12.0044 17.317C12.1217 17.1997 12.1875 17.0408 12.1875 16.875C12.1875 16.7092 12.1217 16.5503 12.0044 16.4331C11.8872 16.3159 11.7283 16.25 11.5625 16.25ZM15.1328 14.3594C14.8906 14.2969 14.4609 14.1797 14.375 14.0781V14.0625C14.375 13.8047 14.5625 13.6719 14.9219 13.6719C15.201 13.6776 15.4725 13.7644 15.7031 13.9219H15.6953C15.8087 14.0119 15.949 14.0614 16.0938 14.0625C16.2595 14.0625 16.4185 13.9967 16.5357 13.8795C16.6529 13.7622 16.7188 13.6033 16.7188 13.4375C16.7203 13.346 16.7006 13.2553 16.6613 13.1727C16.622 13.09 16.5641 13.0175 16.4922 12.9609C16.0414 12.6151 15.49 12.4258 14.9219 12.4219C13.8672 12.4219 13.125 13.0938 13.125 14.0625C13.125 15.0313 14.1406 15.3906 14.8125 15.5703C15.0781 15.6406 15.3594 15.7109 15.5312 15.8125C15.7031 15.9141 15.625 15.8906 15.625 15.9375C15.625 15.9844 15.625 16.3281 14.9219 16.3281C14.6427 16.3224 14.3712 16.2356 14.1406 16.0781H14.1484C14.0351 15.9881 13.8948 15.9386 13.75 15.9375C13.5842 15.9375 13.4253 16.0034 13.3081 16.1206C13.1908 16.2378 13.125 16.3967 13.125 16.5625C13.1235 16.654 13.1431 16.7447 13.1824 16.8273C13.2217 16.91 13.2796 16.9825 13.3516 17.0391C13.8024 17.3849 14.3537 17.5742 14.9219 17.5781C16.1484 17.5781 16.875 16.9609 16.875 15.9375C16.875 14.9141 15.7812 14.5313 15.1328 14.3594ZM16.875 6.87501V10C16.875 10.1658 16.8092 10.3247 16.6919 10.442C16.5747 10.5592 16.4158 10.625 16.25 10.625H3.75C3.58424 10.625 3.42527 10.5592 3.30806 10.442C3.19085 10.3247 3.125 10.1658 3.125 10V3.12501C3.125 2.79349 3.2567 2.47555 3.49112 2.24113C3.72554 2.00671 4.04348 1.87501 4.375 1.87501H11.875C12.0413 1.87407 12.2012 1.93862 12.3203 2.0547L16.6953 6.4297C16.8114 6.54876 16.8759 6.70873 16.875 6.87501ZM15.3125 6.87501L11.875 3.43751V6.87501H15.3125Z" fill="currentColor"/>
</svg>
