<svg width="20" height="20" viewBox="0 0 20 20" fill="none" xmlns="http://www.w3.org/2000/svg">
<path d="M16.6875 6.42969L12.3203 2.05469L12.2969 2.03906L12.2734 2.01563L12.25 2L12.2266 1.98438C12.2188 1.97656 12.2109 1.97656 12.2109 1.96875L12.1719 1.94531H12.1562L12.1172 1.92188H12.1094L12.0547 1.89844H4.375C4.0475 1.89838 3.73306 2.02685 3.4993 2.25623C3.26554 2.4856 3.13114 2.79756 3.125 3.125V16.875C3.125 17.2065 3.2567 17.5245 3.49112 17.7589C3.72554 17.9933 4.04348 18.125 4.375 18.125H15.625C15.9565 18.125 16.2745 17.9933 16.5089 17.7589C16.7433 17.5245 16.875 17.2065 16.875 16.875V6.875C16.8758 6.79191 16.8595 6.70955 16.8273 6.63297C16.795 6.55639 16.7475 6.48721 16.6875 6.42969ZM12.6328 12.0078C12.5143 12.1252 12.3543 12.191 12.1875 12.191C12.0207 12.191 11.8607 12.1252 11.7422 12.0078L10.625 10.8828V14.375C10.625 14.5408 10.5592 14.6997 10.4419 14.8169C10.3247 14.9342 10.1658 15 10 15C9.83424 15 9.67527 14.9342 9.55806 14.8169C9.44085 14.6997 9.375 14.5408 9.375 14.375V10.8828L8.25781 12.0078C8.13638 12.1075 7.98221 12.1584 7.82531 12.1507C7.6684 12.143 7.51997 12.0772 7.40888 11.9661C7.2978 11.855 7.232 11.7066 7.2243 11.5497C7.21659 11.3928 7.26752 11.2386 7.36719 11.1172L9.55469 8.92969H9.5625L9.60156 8.89063L9.625 8.875L9.65625 8.85156L9.67969 8.83594L9.70312 8.82031H9.73438L9.75781 8.80469H9.78906L9.82031 8.78906H10.1797L10.2109 8.80469H10.2422L10.2656 8.82031H10.2969L10.3203 8.83594L10.3437 8.85156L10.375 8.875L10.3984 8.89063L10.4375 8.92969H10.4453L12.6328 11.1172C12.7502 11.2357 12.816 11.3957 12.816 11.5625C12.816 11.7293 12.7502 11.8893 12.6328 12.0078ZM11.875 6.875V3.38281L15.3672 6.875H11.875Z" fill="currentColor"/>
</svg>
