<svg width="20" height="20" viewBox="0 0 20 20" fill="none" xmlns="http://www.w3.org/2000/svg">
<path d="M5 12.5H3.75C3.58424 12.5 3.42527 12.5659 3.30806 12.6831C3.19085 12.8003 3.125 12.9592 3.125 13.125V16.875C3.125 17.0408 3.19085 17.1997 3.30806 17.317C3.42527 17.4342 3.58424 17.5 3.75 17.5C3.91576 17.5 4.07473 17.4342 4.19194 17.317C4.30915 17.1997 4.375 17.0408 4.375 16.875V16.25H5C5.49728 16.25 5.97419 16.0525 6.32583 15.7008C6.67746 15.3492 6.875 14.8723 6.875 14.375C6.875 13.8777 6.67746 13.4008 6.32583 13.0492C5.97419 12.6976 5.49728 12.5 5 12.5ZM5 15H4.375V13.75H5C5.16576 13.75 5.32473 13.8159 5.44194 13.9331C5.55915 14.0503 5.625 14.2092 5.625 14.375C5.625 14.5408 5.55915 14.6997 5.44194 14.817C5.32473 14.9342 5.16576 15 5 15ZM15.3125 13.75V14.6875H16.5625C16.7283 14.6875 16.8872 14.7534 17.0044 14.8706C17.1217 14.9878 17.1875 15.1467 17.1875 15.3125C17.1875 15.4783 17.1217 15.6372 17.0044 15.7545C16.8872 15.8717 16.7283 15.9375 16.5625 15.9375H15.3125V16.875C15.3125 17.0408 15.2467 17.1997 15.1294 17.317C15.0122 17.4342 14.8533 17.5 14.6875 17.5C14.5217 17.5 14.3628 17.4342 14.2456 17.317C14.1283 17.1997 14.0625 17.0408 14.0625 16.875V13.125C14.0625 12.9592 14.1283 12.8003 14.2456 12.6831C14.3628 12.5659 14.5217 12.5 14.6875 12.5H16.875C17.0408 12.5 17.1997 12.5659 17.3169 12.6831C17.4342 12.8003 17.5 12.9592 17.5 13.125C17.5 13.2908 17.4342 13.4497 17.3169 13.567C17.1997 13.6842 17.0408 13.75 16.875 13.75H15.3125ZM10 12.5H8.90625C8.74049 12.5 8.58152 12.5659 8.46431 12.6831C8.3471 12.8003 8.28125 12.9592 8.28125 13.125V16.875C8.28125 17.0408 8.3471 17.1997 8.46431 17.317C8.58152 17.4342 8.74049 17.5 8.90625 17.5H10C10.663 17.5 11.2989 17.2366 11.7678 16.7678C12.2366 16.2989 12.5 15.6631 12.5 15C12.5 14.337 12.2366 13.7011 11.7678 13.2322C11.2989 12.7634 10.663 12.5 10 12.5ZM10 16.25H9.53125V13.75H10C10.3315 13.75 10.6495 13.8817 10.8839 14.1161C11.1183 14.3505 11.25 14.6685 11.25 15C11.25 15.3315 11.1183 15.6495 10.8839 15.8839C10.6495 16.1183 10.3315 16.25 10 16.25ZM3.75 10.625H16.25C16.4158 10.625 16.5747 10.5592 16.6919 10.442C16.8092 10.3247 16.875 10.1658 16.875 10V6.87501C16.8759 6.70873 16.8114 6.54876 16.6953 6.4297L12.3203 2.0547C12.2012 1.93862 12.0413 1.87407 11.875 1.87501H4.375C4.04348 1.87501 3.72554 2.00671 3.49112 2.24113C3.2567 2.47555 3.125 2.79349 3.125 3.12501V10C3.125 10.1658 3.19085 10.3247 3.30806 10.442C3.42527 10.5592 3.58424 10.625 3.75 10.625ZM11.875 3.43751L15.3125 6.87501H11.875V3.43751Z" fill="currentColor"/>
</svg>
