<svg width="20" height="20" viewBox="0 0 20 20" fill="none" xmlns="http://www.w3.org/2000/svg">
<path d="M16.6953 6.4297L12.3203 2.0547C12.2012 1.93862 12.0413 1.87407 11.875 1.87501H4.375C4.04348 1.87501 3.72554 2.00671 3.49112 2.24113C3.2567 2.47555 3.125 2.79349 3.125 3.12501V16.875C3.125 17.2065 3.2567 17.5245 3.49112 17.7589C3.72554 17.9933 4.04348 18.125 4.375 18.125H15.625C15.9565 18.125 16.2745 17.9933 16.5089 17.7589C16.7433 17.5245 16.875 17.2065 16.875 16.875V6.87501C16.8759 6.70873 16.8114 6.54876 16.6953 6.4297ZM12.3203 13.3047C12.4377 13.4232 12.5035 13.5832 12.5035 13.75C12.5035 13.9168 12.4377 14.0768 12.3203 14.1953C12.2008 14.3108 12.0412 14.3754 11.875 14.3754C11.7088 14.3754 11.5492 14.3108 11.4297 14.1953L10 12.7578L8.57031 14.1953C8.45085 14.3108 8.29118 14.3754 8.125 14.3754C7.95882 14.3754 7.79915 14.3108 7.67969 14.1953C7.56232 14.0768 7.49648 13.9168 7.49648 13.75C7.49648 13.5832 7.56232 13.4232 7.67969 13.3047L9.11719 11.875L7.67969 10.4453C7.58002 10.3239 7.52909 10.1697 7.5368 10.0128C7.5445 9.85591 7.6103 9.70748 7.72138 9.59639C7.83247 9.48531 7.9809 9.41951 8.13781 9.41181C8.29471 9.4041 8.44888 9.45503 8.57031 9.5547L10 10.9922L11.4297 9.5547C11.5511 9.45503 11.7053 9.4041 11.8622 9.41181C12.0191 9.41951 12.1675 9.48531 12.2786 9.59639C12.3897 9.70748 12.4555 9.85591 12.4632 10.0128C12.4709 10.1697 12.42 10.3239 12.3203 10.4453L10.8828 11.875L12.3203 13.3047ZM11.875 6.87501V3.43751L15.3125 6.87501H11.875Z" fill="currentColor"/>
</svg>
