<svg width="20" height="20" viewBox="0 0 20 20" fill="none" xmlns="http://www.w3.org/2000/svg">
<path d="M7.1875 13.125C7.1875 13.2908 7.12165 13.4497 7.00444 13.567C6.88723 13.6842 6.72826 13.75 6.5625 13.75H5.78125V16.875C5.78125 17.0408 5.7154 17.1997 5.59819 17.317C5.48098 17.4342 5.32201 17.5 5.15625 17.5C4.99049 17.5 4.83152 17.4342 4.71431 17.317C4.5971 17.1997 4.53125 17.0408 4.53125 16.875V13.75H3.75C3.58424 13.75 3.42527 13.6842 3.30806 13.567C3.19085 13.4497 3.125 13.2908 3.125 13.125C3.125 12.9592 3.19085 12.8003 3.30806 12.6831C3.42527 12.5659 3.58424 12.5 3.75 12.5H6.5625C6.72826 12.5 6.88723 12.5659 7.00444 12.6831C7.12165 12.8003 7.1875 12.9592 7.1875 13.125ZM10.1328 14.3594C9.89062 14.2969 9.46094 14.1797 9.375 14.0781V14.0625C9.375 13.8047 9.5625 13.6719 9.92188 13.6719C10.201 13.6776 10.4725 13.7644 10.7031 13.9219H10.6953C10.8087 14.0119 10.949 14.0614 11.0938 14.0625C11.2595 14.0625 11.4185 13.9967 11.5357 13.8795C11.6529 13.7622 11.7188 13.6033 11.7188 13.4375C11.7203 13.346 11.7006 13.2553 11.6613 13.1727C11.622 13.09 11.5641 13.0175 11.4922 12.9609C11.0414 12.6151 10.49 12.4258 9.92188 12.4219C8.86719 12.4219 8.125 13.0938 8.125 14.0625C8.125 15.0313 9.14062 15.3906 9.8125 15.5703C10.0781 15.6406 10.3594 15.7109 10.5312 15.8125C10.7031 15.9141 10.625 15.8906 10.625 15.9375C10.625 15.9844 10.625 16.3281 9.92188 16.3281C9.6427 16.3224 9.37123 16.2356 9.14062 16.0781H9.14844C9.03505 15.9881 8.89479 15.9386 8.75 15.9375C8.58424 15.9375 8.42527 16.0034 8.30806 16.1206C8.19085 16.2378 8.125 16.3967 8.125 16.5625C8.12347 16.654 8.14313 16.7447 8.18243 16.8273C8.22173 16.91 8.27962 16.9825 8.35156 17.0391C8.80235 17.3849 9.35371 17.5742 9.92188 17.5781C11.1484 17.5781 11.875 16.9609 11.875 15.9375C11.875 14.9141 10.7812 14.5313 10.1328 14.3594ZM16.875 6.87501V16.875C16.875 17.2065 16.7433 17.5245 16.5089 17.7589C16.2745 17.9933 15.9565 18.125 15.625 18.125H14.375C14.2092 18.125 14.0503 18.0592 13.9331 17.942C13.8158 17.8247 13.75 17.6658 13.75 17.5V11.25C13.75 11.0842 13.6842 10.9253 13.5669 10.8081C13.4497 10.6909 13.2908 10.625 13.125 10.625H3.75C3.58424 10.625 3.42527 10.5592 3.30806 10.442C3.19085 10.3247 3.125 10.1658 3.125 10V3.12501C3.125 2.79349 3.2567 2.47555 3.49112 2.24113C3.72554 2.00671 4.04348 1.87501 4.375 1.87501H11.875C12.0413 1.87407 12.2012 1.93862 12.3203 2.0547L16.6953 6.4297C16.8114 6.54876 16.8759 6.70873 16.875 6.87501ZM15.3125 6.87501L11.875 3.43751V6.87501H15.3125Z" fill="currentColor"/>
</svg>
