<svg width="20" height="20" viewBox="0 0 20 20" fill="none" xmlns="http://www.w3.org/2000/svg">
<path d="M9.375 12.5H8.125C7.95924 12.5 7.80027 12.5659 7.68306 12.6831C7.56585 12.8003 7.5 12.9592 7.5 13.125V16.875C7.5 17.0408 7.56585 17.1997 7.68306 17.317C7.80027 17.4342 7.95924 17.5 8.125 17.5C8.29076 17.5 8.44973 17.4342 8.56694 17.317C8.68415 17.1997 8.75 17.0408 8.75 16.875V16.25H9.375C9.87228 16.25 10.3492 16.0525 10.7008 15.7008C11.0525 15.3492 11.25 14.8723 11.25 14.375C11.25 13.8777 11.0525 13.4008 10.7008 13.0492C10.3492 12.6976 9.87228 12.5 9.375 12.5ZM9.375 15H8.75V13.75H9.375C9.54076 13.75 9.69973 13.8159 9.81694 13.9331C9.93415 14.0503 10 14.2092 10 14.375C10 14.5408 9.93415 14.6997 9.81694 14.817C9.69973 14.9342 9.54076 15 9.375 15ZM6.25 13.125V15.625C6.25 16.1223 6.05246 16.5992 5.70083 16.9508C5.34919 17.3025 4.87228 17.5 4.375 17.5C3.87772 17.5 3.40081 17.3025 3.04917 16.9508C2.69754 16.5992 2.5 16.1223 2.5 15.625C2.5 15.4592 2.56585 15.3003 2.68306 15.1831C2.80027 15.0659 2.95924 15 3.125 15C3.29076 15 3.44973 15.0659 3.56694 15.1831C3.68415 15.3003 3.75 15.4592 3.75 15.625C3.75 15.7908 3.81585 15.9497 3.93306 16.067C4.05027 16.1842 4.20924 16.25 4.375 16.25C4.54076 16.25 4.69973 16.1842 4.81694 16.067C4.93415 15.9497 5 15.7908 5 15.625V13.125C5 12.9592 5.06585 12.8003 5.18306 12.6831C5.30027 12.5659 5.45924 12.5 5.625 12.5C5.79076 12.5 5.94973 12.5659 6.06694 12.6831C6.18415 12.8003 6.25 12.9592 6.25 13.125ZM16.25 15.1563V16.0781C16.2513 16.1979 16.2158 16.3151 16.1484 16.4141C15.9444 16.743 15.6605 17.0151 15.3231 17.2049C14.9857 17.3948 14.6058 17.4963 14.2188 17.5C12.9297 17.5 11.875 16.375 11.875 15C11.875 13.625 12.9297 12.5 14.2188 12.5C14.6846 12.501 15.1383 12.6486 15.5156 12.9219C15.6332 13.0234 15.7088 13.1651 15.7277 13.3193C15.7465 13.4735 15.7072 13.6292 15.6174 13.7561C15.5277 13.8829 15.3939 13.9717 15.2422 14.0053C15.0905 14.0388 14.9317 14.0147 14.7969 13.9375C14.6288 13.8156 14.4264 13.75 14.2188 13.75C13.6172 13.75 13.125 14.3125 13.125 15C13.125 15.6875 13.6172 16.25 14.2188 16.25C14.3683 16.2474 14.5155 16.2126 14.6503 16.1478C14.7852 16.0831 14.9044 15.9901 15 15.875V15.7813H14.6875C14.5217 15.7813 14.3628 15.7154 14.2456 15.5982C14.1283 15.481 14.0625 15.322 14.0625 15.1563C14.0625 14.9905 14.1283 14.8315 14.2456 14.7143C14.3628 14.5971 14.5217 14.5313 14.6875 14.5313H15.625C15.7908 14.5313 15.9497 14.5971 16.0669 14.7143C16.1842 14.8315 16.25 14.9905 16.25 15.1563ZM16.6953 6.4297L12.3203 2.0547C12.2012 1.93862 12.0413 1.87407 11.875 1.87501H4.375C4.04348 1.87501 3.72554 2.00671 3.49112 2.24113C3.2567 2.47555 3.125 2.79349 3.125 3.12501V10C3.125 10.1658 3.19085 10.3247 3.30806 10.442C3.42527 10.5592 3.58424 10.625 3.75 10.625H16.25C16.4158 10.625 16.5747 10.5592 16.6919 10.442C16.8092 10.3247 16.875 10.1658 16.875 10V6.87501C16.8759 6.70873 16.8114 6.54876 16.6953 6.4297ZM11.875 6.87501V3.43751L15.3125 6.87501H11.875Z" fill="currentColor"/>
</svg>
