<svg width="20" height="20" viewBox="0 0 20 20" fill="none" xmlns="http://www.w3.org/2000/svg">
<path d="M14.375 12.5H13.125C12.9592 12.5 12.8003 12.5659 12.6831 12.6831C12.5658 12.8003 12.5 12.9592 12.5 13.125V16.875C12.5 17.0408 12.5658 17.1997 12.6831 17.317C12.8003 17.4342 12.9592 17.5 13.125 17.5C13.2908 17.5 13.4497 17.4342 13.5669 17.317C13.6842 17.1997 13.75 17.0408 13.75 16.875V16.25H14.375C14.8723 16.25 15.3492 16.0525 15.7008 15.7008C16.0525 15.3492 16.25 14.8723 16.25 14.375C16.25 13.8777 16.0525 13.4008 15.7008 13.0492C15.3492 12.6976 14.8723 12.5 14.375 12.5ZM14.375 15H13.75V13.75H14.375C14.5408 13.75 14.6997 13.8159 14.8169 13.9331C14.9342 14.0503 15 14.2092 15 14.375C15 14.5408 14.9342 14.6997 14.8169 14.817C14.6997 14.9342 14.5408 15 14.375 15ZM7.5 16.875C7.5 17.0408 7.43415 17.1997 7.31694 17.317C7.19973 17.4342 7.04076 17.5 6.875 17.5H4.375C4.26146 17.5009 4.14983 17.4708 4.0521 17.413C3.95438 17.3551 3.87424 17.2718 3.82031 17.1719C3.76953 17.0716 3.74571 16.9598 3.75118 16.8474C3.75666 16.7351 3.79125 16.6262 3.85156 16.5313L5.71094 13.75H4.375C4.20924 13.75 4.05027 13.6842 3.93306 13.567C3.81585 13.4497 3.75 13.2908 3.75 13.125C3.75 12.9592 3.81585 12.8003 3.93306 12.6831C4.05027 12.5659 4.20924 12.5 4.375 12.5H6.875C6.98854 12.4992 7.10017 12.5293 7.1979 12.5871C7.29562 12.6449 7.37576 12.7282 7.42969 12.8281C7.48047 12.9285 7.50429 13.0403 7.49882 13.1526C7.49334 13.2649 7.45875 13.3739 7.39844 13.4688L5.53906 16.25H6.875C7.04076 16.25 7.19973 16.3159 7.31694 16.4331C7.43415 16.5503 7.5 16.7092 7.5 16.875ZM10.625 13.125V16.875C10.625 17.0408 10.5592 17.1997 10.4419 17.317C10.3247 17.4342 10.1658 17.5 10 17.5C9.83424 17.5 9.67527 17.4342 9.55806 17.317C9.44085 17.1997 9.375 17.0408 9.375 16.875V13.125C9.375 12.9592 9.44085 12.8003 9.55806 12.6831C9.67527 12.5659 9.83424 12.5 10 12.5C10.1658 12.5 10.3247 12.5659 10.4419 12.6831C10.5592 12.8003 10.625 12.9592 10.625 13.125ZM16.6953 6.4297L12.3203 2.0547C12.2012 1.93862 12.0413 1.87407 11.875 1.87501H4.375C4.04348 1.87501 3.72554 2.00671 3.49112 2.24113C3.2567 2.47555 3.125 2.79349 3.125 3.12501V10C3.125 10.1658 3.19085 10.3247 3.30806 10.442C3.42527 10.5592 3.58424 10.625 3.75 10.625H16.25C16.4158 10.625 16.5747 10.5592 16.6919 10.442C16.8092 10.3247 16.875 10.1658 16.875 10V6.87501C16.8759 6.70873 16.8114 6.54876 16.6953 6.4297ZM11.875 6.87501V3.43751L15.3125 6.87501H11.875Z" fill="currentColor"/>
</svg>
