<svg width="20" height="20" viewBox="0 0 20 20" fill="none" xmlns="http://www.w3.org/2000/svg">
<path d="M6.25781 15.7656C6.5388 15.5115 6.73622 15.1782 6.82404 14.8097C6.91187 14.4411 6.88599 14.0546 6.74982 13.7011C6.61365 13.3475 6.37356 13.0435 6.06121 12.8291C5.74885 12.6147 5.37886 12.5 5 12.5H3.75C3.58424 12.5 3.42527 12.5659 3.30806 12.6831C3.19085 12.8003 3.125 12.9592 3.125 13.125V16.875C3.125 17.0408 3.19085 17.1997 3.30806 17.317C3.42527 17.4342 3.58424 17.5 3.75 17.5C3.91576 17.5 4.07473 17.4342 4.19194 17.317C4.30915 17.1997 4.375 17.0408 4.375 16.875V16.25H5.07812L5.72656 17.2188C5.7831 17.3059 5.86071 17.3774 5.95221 17.4265C6.04371 17.4757 6.14613 17.501 6.25 17.5C6.37217 17.5014 6.49194 17.466 6.59375 17.3984C6.66199 17.3528 6.72057 17.2942 6.76614 17.2259C6.81171 17.1576 6.84338 17.081 6.85934 17.0005C6.8753 16.9199 6.87524 16.837 6.85916 16.7565C6.84308 16.676 6.8113 16.5995 6.76562 16.5313L6.25781 15.7656ZM5 15H4.375V13.75H5C5.16576 13.75 5.32473 13.8159 5.44194 13.9331C5.55915 14.0503 5.625 14.2092 5.625 14.375C5.625 14.5408 5.55915 14.6997 5.44194 14.817C5.32473 14.9342 5.16576 15 5 15ZM11.875 15.9375C11.875 16.9609 11.1484 17.5781 9.92188 17.5781C9.35461 17.5764 8.80334 17.39 8.35156 17.0469C8.27855 16.9895 8.22001 16.9158 8.18067 16.8316C8.14132 16.7475 8.12225 16.6553 8.125 16.5625C8.125 16.3967 8.19085 16.2378 8.30806 16.1206C8.42527 16.0034 8.58424 15.9375 8.75 15.9375C8.89479 15.9386 9.03505 15.9881 9.14844 16.0781H9.14062C9.37123 16.2356 9.6427 16.3224 9.92188 16.3281C10.625 16.3281 10.625 16.0938 10.625 15.9375C10.625 15.7813 10.625 15.8672 10.5312 15.8125C10.4375 15.7578 10.0781 15.6406 9.8125 15.5703C9.14062 15.3906 8.125 15.1172 8.125 14.0625C8.125 13.0078 8.86719 12.4219 9.92188 12.4219C10.4891 12.4236 11.0404 12.6101 11.4922 12.9531C11.5652 13.0105 11.6237 13.0842 11.6631 13.1684C11.7024 13.2525 11.7215 13.3447 11.7188 13.4375C11.7188 13.6033 11.6529 13.7622 11.5357 13.8795C11.4185 13.9967 11.2595 14.0625 11.0938 14.0625C10.949 14.0614 10.8087 14.0119 10.6953 13.9219H10.7031C10.4725 13.7644 10.201 13.6776 9.92188 13.6719C9.5625 13.6719 9.375 13.8047 9.375 14.0625V14.0781C9.46094 14.1797 9.89062 14.2969 10.1328 14.3594C10.7812 14.5313 11.875 14.8203 11.875 15.9375ZM16.6953 6.4297L12.3203 2.0547C12.2012 1.93862 12.0413 1.87407 11.875 1.87501H4.375C4.04348 1.87501 3.72554 2.00671 3.49112 2.24113C3.2567 2.47555 3.125 2.79349 3.125 3.12501V10C3.125 10.1658 3.19085 10.3247 3.30806 10.442C3.42527 10.5592 3.58424 10.625 3.75 10.625H13.125C13.2908 10.625 13.4497 10.6909 13.5669 10.8081C13.6842 10.9253 13.75 11.0842 13.75 11.25V17.5C13.75 17.6658 13.8158 17.8247 13.9331 17.942C14.0503 18.0592 14.2092 18.125 14.375 18.125H15.625C15.9565 18.125 16.2745 17.9933 16.5089 17.7589C16.7433 17.5245 16.875 17.2065 16.875 16.875V6.87501C16.8759 6.70873 16.8114 6.54876 16.6953 6.4297ZM11.875 6.87501V3.43751L15.3125 6.87501H11.875Z" fill="currentColor"/>
</svg>
