<svg width="20" height="20" viewBox="0 0 20 20" fill="none" xmlns="http://www.w3.org/2000/svg">
<path d="M11.875 12.8125V16.6563C11.8742 16.7734 11.8409 16.888 11.7788 16.9873C11.7168 17.0866 11.6283 17.1667 11.5234 17.2188C11.4378 17.2588 11.3446 17.2801 11.25 17.2813C11.1111 17.2813 10.9762 17.2345 10.8672 17.1484L9.375 15.9766V16.25C9.375 16.5815 9.2433 16.8995 9.00888 17.1339C8.77446 17.3683 8.45652 17.5 8.125 17.5H3.75C3.41848 17.5 3.10054 17.3683 2.86612 17.1339C2.6317 16.8995 2.5 16.5815 2.5 16.25V13.125C2.5 12.7935 2.6317 12.4755 2.86612 12.2411C3.10054 12.0067 3.41848 11.875 3.75 11.875H8.125C8.45652 11.875 8.77446 12.0067 9.00888 12.2411C9.2433 12.4755 9.375 12.7935 9.375 13.125V13.4375L10.875 12.3125C10.9679 12.2429 11.0783 12.2005 11.1939 12.19C11.3095 12.1796 11.4257 12.2016 11.5295 12.2535C11.6333 12.3054 11.7206 12.3852 11.7817 12.4839C11.8427 12.5827 11.875 12.6964 11.875 12.8125ZM16.875 6.87501V16.875C16.875 17.2065 16.7433 17.5245 16.5089 17.7589C16.2745 17.9933 15.9565 18.125 15.625 18.125H13.125C12.9592 18.125 12.8003 18.0592 12.6831 17.942C12.5658 17.8247 12.5 17.6658 12.5 17.5C12.5 17.3342 12.5658 17.1753 12.6831 17.0581C12.8003 16.9409 12.9592 16.875 13.125 16.875H15.625V7.50001H11.875C11.7092 7.50001 11.5503 7.43416 11.4331 7.31695C11.3158 7.19974 11.25 7.04077 11.25 6.87501V3.12501H4.375V9.37501C4.375 9.54077 4.30915 9.69974 4.19194 9.81695C4.07473 9.93416 3.91576 10 3.75 10C3.58424 10 3.42527 9.93416 3.30806 9.81695C3.19085 9.69974 3.125 9.54077 3.125 9.37501V3.12501C3.125 2.79349 3.2567 2.47555 3.49112 2.24113C3.72554 2.00671 4.04348 1.87501 4.375 1.87501H11.875C12.0413 1.87407 12.2012 1.93862 12.3203 2.0547L16.6953 6.4297C16.8114 6.54876 16.8759 6.70873 16.875 6.87501ZM14.7422 6.25001L12.5 4.00782V6.25001H14.7422Z" fill="currentColor"/>
</svg>
