<svg width="20" height="20" viewBox="0 0 20 20" fill="none" xmlns="http://www.w3.org/2000/svg">
<path d="M16.6953 6.4297L12.3203 2.0547C12.2012 1.93862 12.0413 1.87407 11.875 1.87501H4.375C4.04348 1.87501 3.72554 2.00671 3.49112 2.24113C3.2567 2.47555 3.125 2.79349 3.125 3.12501V10C3.125 10.1658 3.19085 10.3247 3.30806 10.442C3.42527 10.5592 3.58424 10.625 3.75 10.625H16.25C16.4158 10.625 16.5747 10.5592 16.6919 10.442C16.8092 10.3247 16.875 10.1658 16.875 10V6.87501C16.8759 6.70873 16.8114 6.54876 16.6953 6.4297ZM11.875 6.87501V3.43751L15.3125 6.87501H11.875ZM7.1875 13.125C7.1875 13.2908 7.12165 13.4497 7.00444 13.567C6.88723 13.6842 6.72826 13.75 6.5625 13.75H5.78125V16.875C5.78125 17.0408 5.7154 17.1997 5.59819 17.317C5.48098 17.4342 5.32201 17.5 5.15625 17.5C4.99049 17.5 4.83152 17.4342 4.71431 17.317C4.5971 17.1997 4.53125 17.0408 4.53125 16.875V13.75H3.75C3.58424 13.75 3.42527 13.6842 3.30806 13.567C3.19085 13.4497 3.125 13.2908 3.125 13.125C3.125 12.9592 3.19085 12.8003 3.30806 12.6831C3.42527 12.5659 3.58424 12.5 3.75 12.5H6.5625C6.72826 12.5 6.88723 12.5659 7.00444 12.6831C7.12165 12.8003 7.1875 12.9592 7.1875 13.125ZM16.75 13.5L15.625 15L16.75 16.5C16.7992 16.5657 16.8351 16.6404 16.8554 16.7199C16.8758 16.7994 16.8803 16.8821 16.8687 16.9634C16.8571 17.0447 16.8296 17.1228 16.7878 17.1934C16.746 17.2641 16.6907 17.3258 16.625 17.375C16.5176 17.4577 16.3855 17.5018 16.25 17.5C16.153 17.5 16.0573 17.4774 15.9705 17.434C15.8837 17.3906 15.8082 17.3276 15.75 17.25L14.8438 16.0391L13.9375 17.25C13.8793 17.3276 13.8038 17.3906 13.717 17.434C13.6302 17.4774 13.5345 17.5 13.4375 17.5C13.302 17.5018 13.1699 17.4577 13.0625 17.375C12.9316 17.2743 12.8453 17.1264 12.8219 16.9629C12.7986 16.7995 12.84 16.6333 12.9375 16.5L14.0625 15L12.9375 13.5C12.84 13.3667 12.7986 13.2006 12.8219 13.0371C12.8453 12.8736 12.9316 12.7257 13.0625 12.625C13.1951 12.5256 13.3618 12.4828 13.5259 12.5063C13.69 12.5297 13.838 12.6174 13.9375 12.75L14.8438 13.9609L15.75 12.75C15.7992 12.6843 15.8609 12.629 15.9316 12.5872C16.0022 12.5454 16.0804 12.5179 16.1616 12.5063C16.2429 12.4947 16.3256 12.4992 16.4051 12.5196C16.4846 12.5399 16.5593 12.5758 16.625 12.625C16.6907 12.6743 16.746 12.736 16.7878 12.8066C16.8296 12.8772 16.8571 12.9554 16.8687 13.0366C16.8803 13.1179 16.8758 13.2006 16.8554 13.2801C16.8351 13.3596 16.7992 13.4343 16.75 13.5ZM11.875 15.9375C11.875 16.9609 11.1484 17.5781 9.92188 17.5781C9.35461 17.5764 8.80334 17.39 8.35156 17.0469C8.27855 16.9895 8.22001 16.9158 8.18067 16.8316C8.14132 16.7475 8.12225 16.6553 8.125 16.5625C8.125 16.3967 8.19085 16.2378 8.30806 16.1206C8.42527 16.0034 8.58424 15.9375 8.75 15.9375C8.89479 15.9386 9.03505 15.9881 9.14844 16.0781H9.14062C9.37123 16.2356 9.6427 16.3224 9.92188 16.3281C10.625 16.3281 10.625 16.0938 10.625 15.9375C10.625 15.7813 10.625 15.8672 10.5312 15.8125C10.4375 15.7578 10.0781 15.6406 9.8125 15.5703C9.14062 15.3906 8.125 15.1172 8.125 14.0625C8.125 13.0078 8.86719 12.4219 9.92188 12.4219C10.4891 12.4236 11.0404 12.6101 11.4922 12.9531C11.5652 13.0105 11.6237 13.0842 11.6631 13.1684C11.7024 13.2525 11.7215 13.3447 11.7188 13.4375C11.7188 13.6033 11.6529 13.7622 11.5357 13.8795C11.4185 13.9967 11.2595 14.0625 11.0938 14.0625C10.949 14.0614 10.8087 14.0119 10.6953 13.9219H10.7031C10.4725 13.7644 10.201 13.6776 9.92188 13.6719C9.5625 13.6719 9.375 13.8047 9.375 14.0625V14.0781C9.46094 14.1797 9.89062 14.2969 10.1328 14.3594C10.7812 14.5313 11.875 14.8203 11.875 15.9375Z" fill="currentColor"/>
</svg>
