<svg width="20" height="20" viewBox="0 0 20 20" fill="none" xmlns="http://www.w3.org/2000/svg">
<path d="M16.6953 6.4297L12.3203 2.0547C12.2012 1.93862 12.0413 1.87407 11.875 1.87501H4.375C4.04348 1.87501 3.72554 2.00671 3.49112 2.24113C3.2567 2.47555 3.125 2.79349 3.125 3.12501V10C3.125 10.1658 3.19085 10.3247 3.30806 10.442C3.42527 10.5592 3.58424 10.625 3.75 10.625C3.91576 10.625 4.07473 10.5592 4.19194 10.442C4.30915 10.3247 4.375 10.1658 4.375 10V3.12501H11.25V6.87501C11.25 7.04077 11.3158 7.19974 11.4331 7.31695C11.5503 7.43416 11.7092 7.50001 11.875 7.50001H15.625V16.875H13.125C12.9592 16.875 12.8003 16.9409 12.6831 17.0581C12.5658 17.1753 12.5 17.3342 12.5 17.5C12.5 17.6658 12.5658 17.8247 12.6831 17.942C12.8003 18.0592 12.9592 18.125 13.125 18.125H15.625C15.9565 18.125 16.2745 17.9933 16.5089 17.7589C16.7433 17.5245 16.875 17.2065 16.875 16.875V6.87501C16.8759 6.70873 16.8114 6.54876 16.6953 6.4297ZM12.5 4.00782L14.7422 6.25001H12.5V4.00782ZM10 13.4375H9.375V13.125C9.375 12.5448 9.14453 11.9884 8.7343 11.5782C8.32406 11.168 7.76766 10.9375 7.1875 10.9375C6.60734 10.9375 6.05094 11.168 5.6407 11.5782C5.23047 11.9884 5 12.5448 5 13.125V13.4375H4.375C4.20924 13.4375 4.05027 13.5034 3.93306 13.6206C3.81585 13.7378 3.75 13.8967 3.75 14.0625V17.5C3.75 17.6658 3.81585 17.8247 3.93306 17.942C4.05027 18.0592 4.20924 18.125 4.375 18.125H10C10.1658 18.125 10.3247 18.0592 10.4419 17.942C10.5592 17.8247 10.625 17.6658 10.625 17.5V14.0625C10.625 13.8967 10.5592 13.7378 10.4419 13.6206C10.3247 13.5034 10.1658 13.4375 10 13.4375ZM8.125 13.4375H6.25V13.125C6.25 12.8764 6.34877 12.6379 6.52459 12.4621C6.7004 12.2863 6.93886 12.1875 7.1875 12.1875C7.43614 12.1875 7.6746 12.2863 7.85041 12.4621C8.02623 12.6379 8.125 12.8764 8.125 13.125V13.4375Z" fill="currentColor"/>
</svg>
