<svg width="20" height="20" viewBox="0 0 20 20" fill="none" xmlns="http://www.w3.org/2000/svg">
  <path
    d="M11.4008 1.15425C11.2852 1.05842 11.1483 0.991756 11.0016 0.959866C10.8548 0.927977 10.7026 0.931793 10.5577 0.970994C10.4127 1.0102 10.2793 1.08363 10.1687 1.18513C10.058 1.28663 9.9734 1.41322 9.92188 1.55425L8.36484 5.82065L6.82656 4.32768C6.7315 4.23537 6.61795 4.16427 6.4934 4.11904C6.36885 4.07382 6.23613 4.05552 6.10399 4.06534C5.97185 4.07516 5.84329 4.11287 5.72679 4.17601C5.61029 4.23914 5.5085 4.32625 5.42813 4.43159C3.69297 6.70503 2.8125 8.99956 2.8125 11.2503C2.8125 13.1566 3.56975 14.9848 4.91767 16.3327C6.26559 17.6806 8.09376 18.4378 10 18.4378C11.9062 18.4378 13.7344 17.6806 15.0823 16.3327C16.4302 14.9848 17.1875 13.1566 17.1875 11.2503C17.1875 6.473 13.1406 2.598 11.4008 1.15425ZM10 16.5628C8.59148 16.5614 7.24107 16.0012 6.24509 15.0052C5.24912 14.0093 4.68895 12.6589 4.6875 11.2503C4.6875 9.69253 5.23438 8.0769 6.30547 6.43472L8.09688 8.173C8.20911 8.2819 8.3468 8.361 8.49742 8.40309C8.64803 8.44517 8.80678 8.44892 8.95921 8.41397C9.11164 8.37903 9.25291 8.30651 9.37015 8.20302C9.48739 8.09953 9.57688 7.96835 9.63047 7.82143L11.2094 3.49331C12.9211 5.12612 15.3125 7.99175 15.3125 11.2503C15.3111 12.6589 14.7509 14.0093 13.7549 15.0052C12.7589 16.0012 11.4085 16.5614 10 16.5628Z"
    fill="currentColor" />
  <path opacity="0.2"
    d="M16.3604 11.0049C16.3604 12.6625 15.7019 14.2522 14.5298 15.4243C13.3577 16.5964 11.768 17.2549 10.1104 17.2549C8.45275 17.2549 6.86304 16.5964 5.69093 15.4243C4.51883 14.2522 3.86035 12.6625 3.86035 11.0049C3.86035 8.6166 4.98691 6.45332 6.28223 4.75488L8.86035 7.25488L10.9127 1.62988C12.5994 3.02988 16.3604 6.6416 16.3604 11.0049Z"
    fill="currentColor" />
</svg>
