<svg width="20" height="21" viewBox="0 0 20 21" fill="none" xmlns="http://www.w3.org/2000/svg">
<path d="M17.1796 11.4375C17.1796 13.3438 16.4223 15.1719 15.0744 16.5199C13.7265 17.8678 11.8983 18.625 9.99207 18.625C8.08582 18.625 6.25765 17.8678 4.90974 16.5199C3.56182 15.1719 2.80457 13.3438 2.80457 11.4375C2.80457 9.63284 3.578 7.55472 5.10144 5.25785C5.19189 5.12161 5.33212 5.02625 5.49207 4.99222C5.65707 4.95971 5.82824 4.99338 5.96863 5.08597L8.48425 6.76566L10.8983 1.70316C10.9407 1.61372 11.0041 1.5358 11.0829 1.47598C11.1618 1.41615 11.2539 1.37617 11.3514 1.35941C11.4509 1.3417 11.5532 1.34806 11.6497 1.37796C11.7462 1.40786 11.8341 1.46044 11.9061 1.53128C13.0546 2.67972 14.3671 4.07816 15.3905 5.70316C16.5936 7.61722 17.1796 9.49222 17.1796 11.4375Z" fill="currentColor"/>
</svg>
