<svg width="20" height="20" viewBox="0 0 20 20" fill="none" xmlns="http://www.w3.org/2000/svg">
<path d="M16.25 2.5H13.4375C13.3546 2.5 13.2751 2.53292 13.2165 2.59153C13.1579 2.65013 13.125 2.72962 13.125 2.8125V6.25C13.125 6.41576 13.0592 6.57473 12.9419 6.69194C12.8247 6.80915 12.6658 6.875 12.5 6.875H7.52344C7.36126 6.87757 7.20414 6.81852 7.08379 6.70977C6.96344 6.60103 6.88883 6.45068 6.875 6.28906C6.86966 6.20376 6.88187 6.11827 6.91088 6.03787C6.93989 5.95748 6.98508 5.88389 7.04365 5.82165C7.10223 5.75941 7.17295 5.70984 7.25144 5.67602C7.32994 5.6422 7.41453 5.62483 7.5 5.625H11.875V2.8125C11.875 2.72962 11.8421 2.65013 11.7835 2.59153C11.7249 2.53292 11.6454 2.5 11.5625 2.5H7.13281C6.9687 2.49985 6.80619 2.53223 6.65466 2.59525C6.50314 2.65828 6.3656 2.7507 6.25 2.86719L2.86719 6.25C2.7507 6.3656 2.65828 6.50314 2.59525 6.65466C2.53223 6.80619 2.49985 6.9687 2.5 7.13281V16.25C2.5 16.5815 2.6317 16.8995 2.86612 17.1339C3.10054 17.3683 3.41848 17.5 3.75 17.5H16.25C16.5815 17.5 16.8995 17.3683 17.1339 17.1339C17.3683 16.8995 17.5 16.5815 17.5 16.25V3.75C17.5 3.41848 17.3683 3.10054 17.1339 2.86612C16.8995 2.6317 16.5815 2.5 16.25 2.5ZM10 13.75C9.56735 13.75 9.14442 13.6217 8.78469 13.3813C8.42496 13.141 8.14458 12.7993 7.97901 12.3996C7.81345 11.9999 7.77013 11.5601 7.85453 11.1357C7.93894 10.7114 8.14728 10.3216 8.4532 10.0157C8.75913 9.70978 9.14891 9.50144 9.57324 9.41703C9.99757 9.33263 10.4374 9.37595 10.8371 9.54151C11.2368 9.70708 11.5785 9.98746 11.8188 10.3472C12.0592 10.7069 12.1875 11.1299 12.1875 11.5625C12.1854 12.142 11.9543 12.6972 11.5445 13.107C11.1347 13.5168 10.5795 13.7479 10 13.75Z" fill="currentColor"/>
</svg>
