<svg width="20" height="20" viewBox="0 0 20 20" fill="none" xmlns="http://www.w3.org/2000/svg">
<path d="M17.1328 6.25L13.75 2.86719C13.6344 2.7507 13.4969 2.65828 13.3453 2.59525C13.1938 2.53223 13.0313 2.49985 12.8672 2.5H3.75C3.41848 2.5 3.10054 2.6317 2.86612 2.86612C2.6317 3.10054 2.5 3.41848 2.5 3.75V16.25C2.5 16.5815 2.6317 16.8995 2.86612 17.1339C3.10054 17.3683 3.41848 17.5 3.75 17.5H16.25C16.5815 17.5 16.8995 17.3683 17.1339 17.1339C17.3683 16.8995 17.5 16.5815 17.5 16.25V7.13281C17.5001 6.9687 17.4678 6.80619 17.4047 6.65466C17.3417 6.50314 17.2493 6.3656 17.1328 6.25ZM16.25 7.13281V16.25H14.375V11.875C14.375 11.5435 14.2433 11.2255 14.0089 10.9911C13.7745 10.7567 13.4565 10.625 13.125 10.625H6.875C6.54348 10.625 6.22554 10.7567 5.99112 10.9911C5.7567 11.2255 5.625 11.5435 5.625 11.875V16.25H3.75V3.75H12.8672L16.25 7.13281ZM12.5 5.625C12.5 5.79076 12.4342 5.94973 12.3169 6.06694C12.1997 6.18415 12.0408 6.25 11.875 6.25H7.5C7.33424 6.25 7.17527 6.18415 7.05806 6.06694C6.94085 5.94973 6.875 5.79076 6.875 5.625C6.875 5.45924 6.94085 5.30027 7.05806 5.18306C7.17527 5.06585 7.33424 5 7.5 5H11.875C12.0408 5 12.1997 5.06585 12.3169 5.18306C12.4342 5.30027 12.5 5.45924 12.5 5.625Z" fill="currentColor"/>
</svg>
