<svg width="20" height="20" viewBox="0 0 20 20" fill="none" xmlns="http://www.w3.org/2000/svg">
<path d="M16.875 5.62504H10.2109L8.03906 4.00004C7.82379 3.83569 7.5599 3.74773 7.28906 3.75004H3.125C2.79348 3.75004 2.47554 3.88174 2.24112 4.11616C2.0067 4.35058 1.875 4.66852 1.875 5.00004V15.625C1.875 15.9566 2.0067 16.2745 2.24112 16.5089C2.47554 16.7433 2.79348 16.875 3.125 16.875H16.9453C17.2576 16.873 17.5564 16.7481 17.7772 16.5273C17.998 16.3065 18.123 16.0076 18.125 15.6954V6.87504C18.125 6.54352 17.9933 6.22558 17.7589 5.99116C17.5245 5.75674 17.2065 5.62504 16.875 5.62504Z" fill="currentColor"/>
</svg>
