<svg width="20" height="20" viewBox="0 0 20 20" fill="none" xmlns="http://www.w3.org/2000/svg">
<path d="M17.5 5.00004H12.0859L9.91406 3.37504C9.69879 3.21069 9.4349 3.12273 9.16406 3.12504H5.625C5.29348 3.12504 4.97554 3.25674 4.74112 3.49116C4.5067 3.72558 4.375 4.04352 4.375 4.37504V5.62504H3.125C2.79348 5.62504 2.47554 5.75674 2.24112 5.99116C2.0067 6.22558 1.875 6.54352 1.875 6.87504V15.625C1.875 15.9566 2.0067 16.2745 2.24112 16.5089C2.47554 16.7433 2.79348 16.875 3.125 16.875H15.0703C15.3826 16.873 15.6814 16.7481 15.9022 16.5273C16.123 16.3065 16.248 16.0076 16.25 15.6954V14.375H17.5703C17.8826 14.373 18.1814 14.2481 18.4022 14.0273C18.623 13.8065 18.748 13.5076 18.75 13.1954V6.25004C18.75 5.91852 18.6183 5.60058 18.3839 5.36616C18.1495 5.13174 17.8315 5.00004 17.5 5.00004ZM17.5 13.125H16.25V8.75004C16.25 8.41852 16.1183 8.10058 15.8839 7.86616C15.6495 7.63174 15.3315 7.50004 15 7.50004H9.58594L7.41406 5.87504C7.19879 5.71069 6.9349 5.62273 6.66406 5.62504H5.625V4.37504H9.16406L11.3359 6.00004C11.5512 6.1644 11.8151 6.25236 12.0859 6.25004H17.5V13.125Z" fill="currentColor"/>
</svg>
