<svg width="20" height="20" viewBox="0 0 20 20" fill="none" xmlns="http://www.w3.org/2000/svg">
<path d="M7.5 16.25C7.5 16.4158 7.43415 16.5747 7.31694 16.6919C7.19973 16.8092 7.04076 16.875 6.875 16.875H3.07813C2.75904 16.875 2.45302 16.7482 2.22739 16.5226C2.00176 16.297 1.875 15.991 1.875 15.6719V15C1.875 14.8342 1.94085 14.6753 2.05806 14.5581C2.17527 14.4408 2.33424 14.375 2.5 14.375C2.66576 14.375 2.82473 14.4408 2.94194 14.5581C3.05915 14.6753 3.125 14.8342 3.125 15V15.625H6.875C7.04076 15.625 7.19973 15.6908 7.31694 15.8081C7.43415 15.9253 7.5 16.0842 7.5 16.25ZM12.5 15.625H10C9.83424 15.625 9.67527 15.6908 9.55806 15.8081C9.44085 15.9253 9.375 16.0842 9.375 16.25C9.375 16.4158 9.44085 16.5747 9.55806 16.6919C9.67527 16.8092 9.83424 16.875 10 16.875H12.5C12.6658 16.875 12.8247 16.8092 12.9419 16.6919C13.0592 16.5747 13.125 16.4158 13.125 16.25C13.125 16.0842 13.0592 15.9253 12.9419 15.8081C12.8247 15.6908 12.6658 15.625 12.5 15.625ZM17.5 11.25C17.3342 11.25 17.1753 11.3158 17.0581 11.4331C16.9408 11.5503 16.875 11.7092 16.875 11.875V15.625H15.625C15.4592 15.625 15.3003 15.6908 15.1831 15.8081C15.0658 15.9253 15 16.0842 15 16.25C15 16.4158 15.0658 16.5747 15.1831 16.6919C15.3003 16.8092 15.4592 16.875 15.625 16.875H16.9453C17.2576 16.873 17.5564 16.748 17.7772 16.5272C17.998 16.3064 18.123 16.0076 18.125 15.6953V11.875C18.125 11.7092 18.0592 11.5503 17.9419 11.4331C17.8247 11.3158 17.6658 11.25 17.5 11.25ZM16.875 5.625H13.125C12.9592 5.625 12.8003 5.69085 12.6831 5.80806C12.5658 5.92527 12.5 6.08424 12.5 6.25C12.5 6.41576 12.5658 6.57473 12.6831 6.69194C12.8003 6.80915 12.9592 6.875 13.125 6.875H16.875V8.75C16.875 8.91576 16.9408 9.07473 17.0581 9.19194C17.1753 9.30915 17.3342 9.375 17.5 9.375C17.6658 9.375 17.8247 9.30915 17.9419 9.19194C18.0592 9.07473 18.125 8.91576 18.125 8.75V6.875C18.125 6.54348 17.9933 6.22554 17.7589 5.99112C17.5245 5.7567 17.2065 5.625 16.875 5.625ZM2.5 6.875H10C10.1234 6.87539 10.2441 6.83924 10.347 6.77112C10.4499 6.70299 10.5303 6.60594 10.5781 6.49219C10.6232 6.37674 10.6346 6.25091 10.6111 6.12924C10.5876 6.00758 10.5301 5.89505 10.4453 5.80469L8.125 3.49219C8.0094 3.3757 7.87186 3.28328 7.72034 3.22025C7.56881 3.15723 7.4063 3.12485 7.24219 3.125H3.125C2.79348 3.125 2.47554 3.2567 2.24112 3.49112C2.0067 3.72554 1.875 4.04348 1.875 4.375V6.25C1.875 6.41576 1.94085 6.57473 2.05806 6.69194C2.17527 6.80915 2.33424 6.875 2.5 6.875ZM2.5 12.5C2.66576 12.5 2.82473 12.4342 2.94194 12.3169C3.05915 12.1997 3.125 12.0408 3.125 11.875V9.375C3.125 9.20924 3.05915 9.05027 2.94194 8.93306C2.82473 8.81585 2.66576 8.75 2.5 8.75C2.33424 8.75 2.17527 8.81585 2.05806 8.93306C1.94085 9.05027 1.875 9.20924 1.875 9.375V11.875C1.875 12.0408 1.94085 12.1997 2.05806 12.3169C2.17527 12.4342 2.33424 12.5 2.5 12.5Z" fill="currentColor"/>
</svg>
