<svg width="20" height="20" viewBox="0 0 20 20" fill="none" xmlns="http://www.w3.org/2000/svg">
<path d="M16.875 5.625H10.2578L8.125 3.49219C7.89053 3.25836 7.57332 3.12642 7.24219 3.125H3.125C2.79348 3.125 2.47554 3.2567 2.24112 3.49112C2.0067 3.72554 1.875 4.04348 1.875 4.375V15.6719C1.875 15.991 2.00176 16.297 2.22739 16.5226C2.45302 16.7482 2.75904 16.875 3.07813 16.875H16.9453C17.2576 16.873 17.5564 16.748 17.7772 16.5272C17.998 16.3064 18.123 16.0076 18.125 15.6953V6.875C18.125 6.54348 17.9933 6.22554 17.7589 5.99112C17.5245 5.7567 17.2065 5.625 16.875 5.625ZM3.125 4.375H7.24219L8.49219 5.625H3.125V4.375ZM11.875 11.875H10.625V13.125C10.625 13.2908 10.5592 13.4497 10.4419 13.5669C10.3247 13.6842 10.1658 13.75 10 13.75C9.83424 13.75 9.67527 13.6842 9.55806 13.5669C9.44085 13.4497 9.375 13.2908 9.375 13.125V11.875H8.125C7.95924 11.875 7.80027 11.8092 7.68306 11.6919C7.56585 11.5747 7.5 11.4158 7.5 11.25C7.5 11.0842 7.56585 10.9253 7.68306 10.8081C7.80027 10.6908 7.95924 10.625 8.125 10.625H9.375V9.375C9.375 9.20924 9.44085 9.05027 9.55806 8.93306C9.67527 8.81585 9.83424 8.75 10 8.75C10.1658 8.75 10.3247 8.81585 10.4419 8.93306C10.5592 9.05027 10.625 9.20924 10.625 9.375V10.625H11.875C12.0408 10.625 12.1997 10.6908 12.3169 10.8081C12.4342 10.9253 12.5 11.0842 12.5 11.25C12.5 11.4158 12.4342 11.5747 12.3169 11.6919C12.1997 11.8092 12.0408 11.875 11.875 11.875Z" fill="currentColor"/>
</svg>
