<svg width="20" height="20" viewBox="0 0 20 20" fill="none" xmlns="http://www.w3.org/2000/svg">
<path d="M17.5 12.1875H16.875V11.875C16.875 11.2948 16.6445 10.7384 16.2343 10.3282C15.8241 9.91797 15.2677 9.6875 14.6875 9.6875C14.1073 9.6875 13.5509 9.91797 13.1407 10.3282C12.7305 10.7384 12.5 11.2948 12.5 11.875V12.1875H11.875C11.7092 12.1875 11.5503 12.2533 11.4331 12.3706C11.3158 12.4878 11.25 12.6467 11.25 12.8125V16.25C11.25 16.4158 11.3158 16.5747 11.4331 16.6919C11.5503 16.8092 11.7092 16.875 11.875 16.875H17.5C17.6658 16.875 17.8247 16.8092 17.9419 16.6919C18.0592 16.5747 18.125 16.4158 18.125 16.25V12.8125C18.125 12.6467 18.0592 12.4878 17.9419 12.3706C17.8247 12.2533 17.6658 12.1875 17.5 12.1875ZM13.75 11.875C13.75 11.6264 13.8488 11.3879 14.0246 11.2121C14.2004 11.0363 14.4389 10.9375 14.6875 10.9375C14.9361 10.9375 15.1746 11.0363 15.3504 11.2121C15.5262 11.3879 15.625 11.6264 15.625 11.875V12.1875H13.75V11.875ZM16.875 5.625H10.2578L8.125 3.49219C8.0094 3.3757 7.87186 3.28328 7.72034 3.22025C7.56881 3.15723 7.4063 3.12485 7.24219 3.125H3.125C2.79348 3.125 2.47554 3.2567 2.24112 3.49112C2.0067 3.72554 1.875 4.04348 1.875 4.375V15.6719C1.875 15.991 2.00176 16.297 2.22739 16.5226C2.45302 16.7482 2.75904 16.875 3.07813 16.875H8.79688C8.96264 16.875 9.12161 16.8092 9.23882 16.6919C9.35603 16.5747 9.42188 16.4158 9.42188 16.25C9.42188 16.0842 9.35603 15.9253 9.23882 15.8081C9.12161 15.6908 8.96264 15.625 8.79688 15.625H3.125V6.875H16.875V8.125C16.875 8.29076 16.9408 8.44973 17.0581 8.56694C17.1753 8.68415 17.3342 8.75 17.5 8.75C17.6658 8.75 17.8247 8.68415 17.9419 8.56694C18.0592 8.44973 18.125 8.29076 18.125 8.125V6.875C18.125 6.54348 17.9933 6.22554 17.7589 5.99112C17.5245 5.7567 17.2065 5.625 16.875 5.625ZM7.24219 4.375L8.49219 5.625H3.125V4.375H7.24219Z" fill="currentColor"/>
</svg>
