<svg width="20" height="20" viewBox="0 0 20 20" fill="none" xmlns="http://www.w3.org/2000/svg">
<path d="M16.25 7.8125V2.5C16.25 2.33424 16.1842 2.17527 16.0669 2.05806C15.9497 1.94085 15.7908 1.875 15.625 1.875H4.37501C4.25009 1.87516 4.12809 1.91274 4.02475 1.9829C3.9214 2.05305 3.84144 2.15257 3.7952 2.26861C3.74895 2.38464 3.73854 2.51187 3.76529 2.63388C3.79205 2.7559 3.85476 2.86709 3.94532 2.95312L8.42969 7.1875H4.37501C4.20925 7.1875 4.05027 7.25335 3.93306 7.37056C3.81585 7.48777 3.75001 7.64674 3.75001 7.8125V13.125C3.74964 13.2099 3.7668 13.294 3.80041 13.3719C3.83402 13.4499 3.88335 13.5201 3.94532 13.5781L9.57032 18.8906C9.68713 18.9995 9.84036 19.0608 10 19.0625C10.0864 19.0632 10.1718 19.0445 10.25 19.0078C10.3617 18.9602 10.4568 18.8807 10.5235 18.7792C10.5902 18.6778 10.6255 18.5589 10.625 18.4375V13.75H15.625C15.7499 13.7498 15.8719 13.7123 15.9753 13.6421C16.0786 13.5719 16.1586 13.4724 16.2048 13.3564C16.2511 13.2404 16.2615 13.1131 16.2347 12.9911C16.208 12.8691 16.1453 12.7579 16.0547 12.6719L11.5703 8.4375H15.625C15.7908 8.4375 15.9497 8.37165 16.0669 8.25444C16.1842 8.13723 16.25 7.97826 16.25 7.8125Z" fill="currentColor"/>
</svg>
