<svg width="20" height="20" viewBox="0 0 20 20" fill="none" xmlns="http://www.w3.org/2000/svg">
<path d="M17.8515 3.86719C17.7542 3.64592 17.5944 3.45784 17.3918 3.32601C17.1892 3.19418 16.9525 3.12432 16.7108 3.125H3.28896C3.04731 3.12695 2.81133 3.19846 2.60926 3.331C2.40718 3.46353 2.24756 3.65146 2.14949 3.87233C2.05142 4.09319 2.01905 4.33763 2.05625 4.57641C2.09346 4.81519 2.19866 5.03819 2.35927 5.21876L7.49989 10.8672V16.9609C7.49951 17.1877 7.56119 17.4102 7.67825 17.6044C7.7953 17.7985 7.96327 17.957 8.16396 18.0625C8.34463 18.158 8.54554 18.2089 8.74989 18.2109C8.99744 18.211 9.23943 18.1376 9.44521 18L11.9452 16.3281C12.1164 16.2144 12.2567 16.0599 12.3535 15.8785C12.4503 15.6972 12.5006 15.4946 12.4999 15.2891V10.8672L17.6405 5.21876C17.8041 5.03885 17.9113 4.81488 17.9488 4.57462C17.9863 4.33437 17.9524 4.08839 17.8515 3.86719Z" fill="currentColor"/>
</svg>
