<svg width="20" height="20" viewBox="0 0 20 20" fill="none" xmlns="http://www.w3.org/2000/svg">
<path d="M15 9.375H5C4.83424 9.375 4.67527 9.44085 4.55806 9.55806C4.44085 9.67527 4.375 9.83424 4.375 10C4.375 10.1658 4.44085 10.3247 4.55806 10.4419C4.67527 10.5592 4.83424 10.625 5 10.625H15C15.1658 10.625 15.3247 10.5592 15.4419 10.4419C15.5592 10.3247 15.625 10.1658 15.625 10C15.625 9.83424 15.5592 9.67527 15.4419 9.55806C15.3247 9.44085 15.1658 9.375 15 9.375Z" fill="currentColor"/>
<path d="M18.125 5.625H1.875C1.70924 5.625 1.55027 5.69085 1.43306 5.80806C1.31585 5.92527 1.25 6.08424 1.25 6.25C1.25 6.41576 1.31585 6.57473 1.43306 6.69194C1.55027 6.80915 1.70924 6.875 1.875 6.875H18.125C18.2908 6.875 18.4497 6.80915 18.5669 6.69194C18.6842 6.57473 18.75 6.41576 18.75 6.25C18.75 6.08424 18.6842 5.92527 18.5669 5.80806C18.4497 5.69085 18.2908 5.625 18.125 5.625Z" fill="currentColor"/>
<path d="M11.875 13.125H8.125C7.95924 13.125 7.80027 13.1908 7.68306 13.3081C7.56585 13.4253 7.5 13.5842 7.5 13.75C7.5 13.9158 7.56585 14.0747 7.68306 14.1919C7.80027 14.3092 7.95924 14.375 8.125 14.375H11.875C12.0408 14.375 12.1997 14.3092 12.3169 14.1919C12.4342 14.0747 12.5 13.9158 12.5 13.75C12.5 13.5842 12.4342 13.4253 12.3169 13.3081C12.1997 13.1908 12.0408 13.125 11.875 13.125Z" fill="currentColor"/>
</svg>
