<svg width="20" height="20" viewBox="0 0 20 20" fill="none" xmlns="http://www.w3.org/2000/svg">
<path d="M18.5547 8.14844C18.5353 8.06107 18.4974 7.97889 18.4434 7.90745C18.3895 7.83602 18.3209 7.777 18.2422 7.73438L16.3828 6.70313C16.2839 6.5 16.1745 6.30469 16.0547 6.11719L16.086 3.99219C16.0867 3.90306 16.069 3.81474 16.0341 3.73274C15.9991 3.65075 15.9476 3.57684 15.8828 3.51563C14.957 2.67622 13.8621 2.04487 12.6719 1.66406C12.5864 1.63741 12.4963 1.6292 12.4074 1.63997C12.3185 1.65075 12.2329 1.68026 12.1563 1.72656L10.336 2.82031C10.1094 2.8125 9.89064 2.8125 9.66408 2.82031L7.84377 1.72656C7.76714 1.68026 7.68155 1.65075 7.59266 1.63997C7.50378 1.6292 7.41362 1.63741 7.32814 1.66406C6.13632 2.04516 5.04098 2.67945 4.11721 3.52344C4.05185 3.58254 3.9999 3.65496 3.96487 3.73581C3.92983 3.81666 3.91251 3.90408 3.91408 3.99219L3.95314 6.11719C3.82814 6.30469 3.71877 6.5 3.60939 6.70313L1.75783 7.73438C1.67815 7.77571 1.60873 7.83434 1.55466 7.90599C1.50058 7.97764 1.46323 8.06048 1.44533 8.14844C1.17968 9.36852 1.17968 10.6315 1.44533 11.8516C1.46474 11.9389 1.50268 12.0211 1.55659 12.0925C1.61051 12.164 1.67913 12.223 1.75783 12.2656L3.61721 13.2969C3.71688 13.499 3.82908 13.6947 3.95314 13.8828L3.91408 16.0078C3.91337 16.0969 3.93104 16.1853 3.96599 16.2673C4.00093 16.3493 4.05241 16.4232 4.11721 16.4844C5.04429 17.322 6.13877 17.9531 7.32814 18.3359C7.41362 18.3626 7.50378 18.3708 7.59266 18.36C7.68155 18.3493 7.76714 18.3197 7.84377 18.2734L9.66408 17.1797H10.336L12.1641 18.2734C12.2591 18.3359 12.3707 18.3686 12.4844 18.3672C12.5479 18.3644 12.6109 18.3539 12.6719 18.3359C13.8637 17.9548 14.9591 17.3206 15.8828 16.4766C15.9482 16.4175 16.0001 16.345 16.0352 16.2642C16.0702 16.1833 16.0875 16.0959 16.086 16.0078L16.0547 13.8828C16.1719 13.6953 16.2813 13.5 16.3906 13.2969L18.25 12.2656C18.3276 12.2226 18.3949 12.1633 18.4475 12.0918C18.5001 12.0204 18.5367 11.9384 18.5547 11.8516C18.8204 10.6315 18.8204 9.36852 18.5547 8.14844ZM13.4375 10C13.4375 10.6799 13.2359 11.3445 12.8582 11.9098C12.4805 12.4751 11.9436 12.9157 11.3155 13.1758C10.6874 13.436 9.99621 13.5041 9.3294 13.3715C8.66259 13.2388 8.05008 12.9114 7.56934 12.4307C7.0886 11.9499 6.76121 11.3374 6.62857 10.6706C6.49593 10.0038 6.56401 9.31265 6.82418 8.68453C7.08436 8.05641 7.52495 7.51954 8.09025 7.14182C8.65554 6.76411 9.32015 6.5625 10 6.5625C10.9117 6.5625 11.786 6.92466 12.4307 7.56932C13.0754 8.21398 13.4375 9.08832 13.4375 10Z" fill="currentColor"/>
</svg>
