<svg width="20" height="20" viewBox="0 0 20 20" fill="none" xmlns="http://www.w3.org/2000/svg">
<path d="M17.5 5.31249C17.5 4.78304 17.3506 4.26435 17.0689 3.81606C16.7872 3.36778 16.3846 3.00811 15.9076 2.77843C15.4306 2.54875 14.8984 2.45838 14.3723 2.51772C13.8462 2.57706 13.3475 2.7837 12.9336 3.11387C12.5197 3.44404 12.2074 3.88433 12.0327 4.3841C11.8579 4.88388 11.8277 5.42283 11.9457 5.93897C12.0636 6.45512 12.3248 6.9275 12.6993 7.30177C13.0738 7.67605 13.5463 7.93702 14.0625 8.05468V8.12499C14.0625 8.45651 13.9308 8.77445 13.6964 9.00887C13.462 9.24329 13.144 9.37499 12.8125 9.37499H7.18751C6.74867 9.37603 6.31774 9.49184 5.93751 9.71093V8.05468C6.61169 7.90102 7.20563 7.50439 7.6059 6.94054C8.00616 6.3767 8.18468 5.68516 8.10737 4.99803C8.03006 4.3109 7.70232 3.67632 7.18677 3.21553C6.67121 2.75473 6.00398 2.5 5.31251 2.5C4.62104 2.5 3.9538 2.75473 3.43825 3.21553C2.92269 3.67632 2.59496 4.3109 2.51764 4.99803C2.44033 5.68516 2.61885 6.3767 3.01912 6.94054C3.41938 7.50439 4.01333 7.90102 4.68751 8.05468V11.9453C4.01333 12.099 3.41938 12.4956 3.01912 13.0594C2.61885 13.6233 2.44033 14.3148 2.51764 15.002C2.59496 15.6891 2.92269 16.3237 3.43825 16.7845C3.9538 17.2453 4.62104 17.5 5.31251 17.5C6.00398 17.5 6.67121 17.2453 7.18677 16.7845C7.70232 16.3237 8.03006 15.6891 8.10737 15.002C8.18468 14.3148 8.00616 13.6233 7.6059 13.0594C7.20563 12.4956 6.61169 12.099 5.93751 11.9453V11.875C5.93751 11.5435 6.0692 11.2255 6.30362 10.9911C6.53804 10.7567 6.85599 10.625 7.18751 10.625H12.8125C13.4749 10.6229 14.1096 10.3589 14.578 9.89048C15.0464 9.42209 15.3104 8.7874 15.3125 8.12499V8.05468C15.9332 7.91177 16.4872 7.56296 16.8844 7.06504C17.2816 6.56713 17.4986 5.94942 17.5 5.31249ZM3.75001 5.31249C3.75001 5.00346 3.84165 4.70136 4.01334 4.44441C4.18503 4.18746 4.42905 3.98719 4.71456 3.86893C5.00007 3.75067 5.31424 3.71972 5.61734 3.78001C5.92043 3.8403 6.19884 3.98912 6.41736 4.20764C6.63588 4.42616 6.78469 4.70457 6.84498 5.00766C6.90527 5.31076 6.87433 5.62492 6.75607 5.91043C6.63781 6.19594 6.43754 6.43997 6.18059 6.61166C5.92363 6.78335 5.62154 6.87499 5.31251 6.87499C4.89874 6.87294 4.5025 6.70766 4.20992 6.41508C3.91734 6.12249 3.75206 5.72626 3.75001 5.31249ZM6.87501 14.6875C6.87501 14.9965 6.78337 15.2986 6.61168 15.5556C6.43999 15.8125 6.19596 16.0128 5.91045 16.1311C5.62494 16.2493 5.31077 16.2803 5.00768 16.22C4.70458 16.1597 4.42617 16.0109 4.20765 15.7923C3.98913 15.5738 3.84032 15.2954 3.78003 14.9923C3.71974 14.6892 3.75068 14.3751 3.86894 14.0895C3.98721 13.804 4.18748 13.56 4.44443 13.3883C4.70138 13.2166 5.00347 13.125 5.31251 13.125C5.72627 13.127 6.12251 13.2923 6.41509 13.5849C6.70767 13.8775 6.87295 14.2737 6.87501 14.6875Z" fill="currentColor"/>
</svg>
