<svg width="20" height="20" viewBox="0 0 20 20" fill="none" xmlns="http://www.w3.org/2000/svg">
<path d="M19.375 9.37507H14.6484C14.4953 8.25195 13.9404 7.22236 13.0865 6.47695C12.2325 5.73153 11.1374 5.3208 10.0039 5.3208C8.8704 5.3208 7.77528 5.73153 6.92134 6.47695C6.06741 7.22236 5.5125 8.25195 5.35938 9.37507H0.625C0.45924 9.37507 0.300269 9.44091 0.183058 9.55812C0.065848 9.67533 0 9.83431 0 10.0001C0 10.1658 0.065848 10.3248 0.183058 10.442C0.300269 10.5592 0.45924 10.6251 0.625 10.6251H5.35938C5.5125 11.7482 6.06741 12.7778 6.92134 13.5232C7.77528 14.2686 8.8704 14.6793 10.0039 14.6793C11.1374 14.6793 12.2325 14.2686 13.0865 13.5232C13.9404 12.7778 14.4953 11.7482 14.6484 10.6251H19.375C19.5408 10.6251 19.6997 10.5592 19.8169 10.442C19.9342 10.3248 20 10.1658 20 10.0001C20 9.83431 19.9342 9.67533 19.8169 9.55812C19.6997 9.44091 19.5408 9.37507 19.375 9.37507Z" fill="currentColor"/>
</svg>
