<svg width="20" height="20" viewBox="0 0 20 20" fill="none" xmlns="http://www.w3.org/2000/svg">
<path d="M18.125 14.6875C18.125 15.2169 17.9756 15.7356 17.6939 16.1839C17.4122 16.6322 17.0096 16.9919 16.5326 17.2215C16.0556 17.4512 15.5234 17.5416 14.9973 17.4823C14.4712 17.4229 13.9725 17.2163 13.5586 16.8861C13.1447 16.5559 12.8324 16.1156 12.6577 15.6159C12.4829 15.1161 12.4527 14.5772 12.5707 14.061C12.6886 13.5449 12.9498 13.0725 13.3243 12.6982C13.6988 12.3239 14.1713 12.063 14.6875 11.9453V9.36718C14.6878 8.95667 14.6073 8.55013 14.4504 8.17077C14.2936 7.79141 14.0636 7.44667 13.7734 7.15624L11.875 5.2578V6.87499C11.875 7.04075 11.8092 7.19972 11.6919 7.31693C11.5747 7.43414 11.4158 7.49999 11.25 7.49999C11.0842 7.49999 10.9253 7.43414 10.8081 7.31693C10.6909 7.19972 10.625 7.04075 10.625 6.87499V3.74999C10.625 3.58423 10.6909 3.42526 10.8081 3.30805C10.9253 3.19084 11.0842 3.12499 11.25 3.12499H14.375C14.5408 3.12499 14.6997 3.19084 14.8169 3.30805C14.9342 3.42526 15 3.58423 15 3.74999C15 3.91575 14.9342 4.07472 14.8169 4.19193C14.6997 4.30914 14.5408 4.37499 14.375 4.37499H12.7578L14.6563 6.27343C15.0642 6.67842 15.3876 7.1605 15.6076 7.69163C15.8275 8.22275 15.9397 8.79231 15.9375 9.36718V11.9453C16.5582 12.0882 17.1122 12.437 17.5094 12.9349C17.9066 13.4329 18.1236 14.0506 18.125 14.6875ZM8.75001 12.5C8.58425 12.5 8.42528 12.5658 8.30806 12.683C8.19085 12.8003 8.12501 12.9592 8.12501 13.125V14.7422L6.22657 12.8437C5.93646 12.5533 5.70642 12.2086 5.54958 11.8292C5.39274 11.4498 5.31218 11.0433 5.31251 10.6328V8.05468C5.98669 7.90102 6.58063 7.50438 6.9809 6.94054C7.38116 6.3767 7.55968 5.68516 7.48237 4.99803C7.40506 4.31089 7.07732 3.67632 6.56177 3.21553C6.04621 2.75473 5.37898 2.5 4.68751 2.5C3.99604 2.5 3.3288 2.75473 2.81325 3.21553C2.29769 3.67632 1.96996 4.31089 1.89264 4.99803C1.81533 5.68516 1.99385 6.3767 2.39412 6.94054C2.79438 7.50438 3.38833 7.90102 4.06251 8.05468V10.6328C4.06032 11.2077 4.17247 11.7772 4.39243 12.3084C4.61239 12.8395 4.93577 13.3216 5.34376 13.7266L7.24219 15.625H5.62501C5.45925 15.625 5.30028 15.6908 5.18306 15.808C5.06585 15.9253 5.00001 16.0842 5.00001 16.25C5.00001 16.4157 5.06585 16.5747 5.18306 16.6919C5.30028 16.8091 5.45925 16.875 5.62501 16.875H8.75001C8.91577 16.875 9.07474 16.8091 9.19195 16.6919C9.30916 16.5747 9.37501 16.4157 9.37501 16.25V13.125C9.37501 12.9592 9.30916 12.8003 9.19195 12.683C9.07474 12.5658 8.91577 12.5 8.75001 12.5Z" fill="currentColor"/>
</svg>
