<svg width="20" height="20" viewBox="0 0 20 20" fill="none" xmlns="http://www.w3.org/2000/svg">
<path d="M17.5 5.31249C17.5 4.78304 17.3506 4.26435 17.0689 3.81606C16.7872 3.36778 16.3846 3.00811 15.9076 2.77843C15.4306 2.54875 14.8984 2.45838 14.3723 2.51772C13.8462 2.57706 13.3475 2.7837 12.9336 3.11387C12.5197 3.44404 12.2074 3.88433 12.0327 4.3841C11.8579 4.88388 11.8277 5.42283 11.9457 5.93897C12.0636 6.45512 12.3248 6.9275 12.6993 7.30177C13.0738 7.67605 13.5463 7.93702 14.0625 8.05468V8.12499C14.0625 8.45651 13.9308 8.77445 13.6964 9.00887C13.462 9.24329 13.144 9.37499 12.8125 9.37499H7.18751C6.85599 9.37499 6.53804 9.24329 6.30362 9.00887C6.0692 8.77445 5.93751 8.45651 5.93751 8.12499V8.05468C6.61169 7.90102 7.20563 7.50439 7.6059 6.94054C8.00616 6.3767 8.18468 5.68516 8.10737 4.99803C8.03006 4.3109 7.70232 3.67632 7.18677 3.21553C6.67121 2.75473 6.00398 2.5 5.31251 2.5C4.62104 2.5 3.9538 2.75473 3.43825 3.21553C2.92269 3.67632 2.59496 4.3109 2.51764 4.99803C2.44033 5.68516 2.61885 6.3767 3.01912 6.94054C3.41938 7.50439 4.01333 7.90102 4.68751 8.05468V8.12499C4.68957 8.7874 4.95362 9.42209 5.42202 9.89048C5.89041 10.3589 6.5251 10.6229 7.18751 10.625H9.37501V11.9453C8.70083 12.099 8.10688 12.4956 7.70662 13.0594C7.30635 13.6233 7.12783 14.3148 7.20514 15.002C7.28246 15.6891 7.61019 16.3237 8.12575 16.7845C8.6413 17.2453 9.30854 17.5 10 17.5C10.6915 17.5 11.3587 17.2453 11.8743 16.7845C12.3898 16.3237 12.7176 15.6891 12.7949 15.002C12.8722 14.3148 12.6937 13.6233 12.2934 13.0594C11.8931 12.4956 11.2992 12.099 10.625 11.9453V10.625H12.8125C13.4749 10.6229 14.1096 10.3589 14.578 9.89048C15.0464 9.42209 15.3104 8.7874 15.3125 8.12499V8.05468C15.9332 7.91177 16.4872 7.56296 16.8844 7.06504C17.2816 6.56713 17.4986 5.94942 17.5 5.31249ZM11.5625 14.6875C11.5625 14.9965 11.4709 15.2986 11.2992 15.5556C11.1275 15.8125 10.8835 16.0128 10.5979 16.1311C10.3124 16.2493 9.99827 16.2803 9.69518 16.22C9.39208 16.1597 9.11367 16.0109 8.89515 15.7923C8.67663 15.5738 8.52782 15.2954 8.46753 14.9923C8.40724 14.6892 8.43818 14.3751 8.55644 14.0895C8.67471 13.804 8.87498 13.56 9.13193 13.3883C9.38888 13.2166 9.69097 13.125 10 13.125C10.4138 13.127 10.81 13.2923 11.1026 13.5849C11.3952 13.8775 11.5605 14.2737 11.5625 14.6875Z" fill="currentColor"/>
</svg>
