<svg width="20" height="20" viewBox="0 0 20 20" fill="none" xmlns="http://www.w3.org/2000/svg">
<path d="M17.5 17.5C17.5 17.6657 17.4342 17.8247 17.3169 17.9419C17.1997 18.0591 17.0408 18.125 16.875 18.125C16.2126 18.1229 15.5779 17.8589 15.1095 17.3905C14.6411 16.9221 14.3771 16.2874 14.375 15.625V15C14.375 14.6685 14.2433 14.3505 14.0089 14.1161C13.7745 13.8817 13.4565 13.75 13.125 13.75H12.1875V16.875C12.1875 17.2065 12.3192 17.5244 12.5536 17.7589C12.788 17.9933 13.106 18.125 13.4375 18.125C13.6033 18.125 13.7622 18.1908 13.8794 18.308C13.9967 18.4252 14.0625 18.5842 14.0625 18.75C14.0625 18.9157 13.9967 19.0747 13.8794 19.1919C13.7622 19.3091 13.6033 19.375 13.4375 19.375C12.7751 19.3729 12.1404 19.1089 11.672 18.6405C11.2036 18.1721 10.9396 17.5374 10.9375 16.875V13.75H9.0625V16.875C9.06044 17.5374 8.79639 18.1721 8.32799 18.6405C7.8596 19.1089 7.22491 19.3729 6.5625 19.375C6.39674 19.375 6.23777 19.3091 6.12056 19.1919C6.00335 19.0747 5.9375 18.9157 5.9375 18.75C5.9375 18.5842 6.00335 18.4252 6.12056 18.308C6.23777 18.1908 6.39674 18.125 6.5625 18.125C6.89402 18.125 7.21196 17.9933 7.44638 17.7589C7.6808 17.5244 7.8125 17.2065 7.8125 16.875V13.75H6.875C6.54348 13.75 6.22554 13.8817 5.99112 14.1161C5.7567 14.3505 5.625 14.6685 5.625 15V15.625C5.62294 16.2874 5.35889 16.9221 4.89049 17.3905C4.4221 17.8589 3.78741 18.1229 3.125 18.125C2.95924 18.125 2.80027 18.0591 2.68306 17.9419C2.56585 17.8247 2.5 17.6657 2.5 17.5C2.5 17.3342 2.56585 17.1752 2.68306 17.058C2.80027 16.9408 2.95924 16.875 3.125 16.875C3.45652 16.875 3.77446 16.7433 4.00888 16.5089C4.2433 16.2744 4.375 15.9565 4.375 15.625V15C4.37551 14.5797 4.48167 14.1662 4.68371 13.7976C4.88575 13.429 5.17719 13.1171 5.53125 12.8906C4.97911 12.4857 4.53012 11.9564 4.22066 11.3456C3.91119 10.7348 3.74995 10.0597 3.75 9.37498V8.74998C3.7578 7.97363 3.96494 7.21231 4.35156 6.53904C4.1611 5.92237 4.10026 5.27297 4.17286 4.63165C4.24546 3.99033 4.44994 3.37096 4.77344 2.81248C4.82686 2.7167 4.90513 2.63712 5.00001 2.58212C5.09488 2.52712 5.20284 2.49874 5.3125 2.49998C6.04053 2.49815 6.75888 2.66677 7.41006 2.99236C8.06123 3.31795 8.62714 3.79145 9.0625 4.37498H10.9375C11.3729 3.79145 11.9388 3.31795 12.5899 2.99236C13.2411 2.66677 13.9595 2.49815 14.6875 2.49998C14.7972 2.49874 14.9051 2.52712 15 2.58212C15.0949 2.63712 15.1731 2.7167 15.2266 2.81248C15.5501 3.37096 15.7545 3.99033 15.8271 4.63165C15.8997 5.27297 15.8389 5.92237 15.6484 6.53904C16.0351 7.21231 16.2422 7.97363 16.25 8.74998V9.37498C16.25 10.0597 16.0888 10.7348 15.7793 11.3456C15.4699 11.9564 15.0209 12.4857 14.4688 12.8906C14.8228 13.1171 15.1143 13.429 15.3163 13.7976C15.5183 14.1662 15.6245 14.5797 15.625 15V15.625C15.625 15.9565 15.7567 16.2744 15.9911 16.5089C16.2255 16.7433 16.5435 16.875 16.875 16.875C17.0408 16.875 17.1997 16.9408 17.3169 17.058C17.4342 17.1752 17.5 17.3342 17.5 17.5Z" fill="currentColor"/>
</svg>
