<svg width="20" height="20" viewBox="0 0 20 20" fill="none" xmlns="http://www.w3.org/2000/svg">
<path d="M18.1171 13.2656L10.7108 18.3906C10.5032 18.5383 10.2547 18.6177 9.99987 18.6177C9.74506 18.6177 9.49657 18.5383 9.28893 18.3906L1.88268 13.2656C1.6709 13.1187 1.50936 12.9103 1.41993 12.6685C1.3305 12.4268 1.3175 12.1634 1.38268 11.914L3.51549 3.90623C3.56546 3.71235 3.67618 3.53956 3.83144 3.41316C3.98671 3.28676 4.17836 3.21338 4.37834 3.20378C4.57832 3.19417 4.77613 3.24884 4.94279 3.35978C5.10946 3.47071 5.23623 3.63209 5.30455 3.82029L6.91393 8.12498H13.0858L14.6952 3.82029C14.7635 3.63209 14.8903 3.47071 15.0569 3.35978C15.2236 3.24884 15.4214 3.19417 15.6214 3.20378C15.8214 3.21338 16.013 3.28676 16.1683 3.41316C16.3236 3.53956 16.4343 3.71235 16.4842 3.90623L18.6171 11.914C18.6822 12.1634 18.6692 12.4268 18.5798 12.6685C18.4904 12.9103 18.3288 13.1187 18.1171 13.2656Z" fill="currentColor"/>
</svg>
