<svg width="20" height="20" viewBox="0 0 20 20" fill="none" xmlns="http://www.w3.org/2000/svg">
<path d="M18.6171 11.914L16.4842 3.90623C16.4343 3.71235 16.3236 3.53956 16.1683 3.41316C16.013 3.28676 15.8214 3.21338 15.6214 3.20378C15.4214 3.19417 15.2236 3.24884 15.0569 3.35978C14.8903 3.47071 14.7635 3.63209 14.6952 3.82029L13.0858 8.12498H6.91393L5.30455 3.82029C5.23623 3.63209 5.10946 3.47071 4.94279 3.35978C4.77613 3.24884 4.57832 3.19417 4.37834 3.20378C4.17836 3.21338 3.98671 3.28676 3.83144 3.41316C3.67618 3.53956 3.56546 3.71235 3.51549 3.90623L1.38268 11.914C1.3175 12.1634 1.3305 12.4268 1.41993 12.6685C1.50936 12.9103 1.6709 13.1187 1.88268 13.2656L9.28893 18.3906C9.45347 18.5058 9.64409 18.5783 9.84362 18.6015H10.1561C10.3556 18.5783 10.5463 18.5058 10.7108 18.3906L18.1171 13.2656C18.3288 13.1187 18.4904 12.9103 18.5798 12.6685C18.6692 12.4268 18.6822 12.1634 18.6171 11.914ZM2.59362 12.2344L3.35143 9.37498H6.05455L8.7108 16.4765L2.59362 12.2344ZM11.2889 16.4765L13.9452 9.37498H16.6483L17.4061 12.2344L11.2889 16.4765Z" fill="currentColor"/>
</svg>
