<svg width="20" height="20" viewBox="0 0 20 20" fill="none" xmlns="http://www.w3.org/2000/svg">
<path d="M14.6875 8.12499C13.9959 8.12626 13.3288 8.38163 12.8132 8.84256C12.2975 9.30349 11.9692 9.93783 11.8906 10.625H10.1953C9.73622 10.6257 9.2826 10.5253 8.86671 10.3309C8.45083 10.1364 8.08289 9.85275 7.78907 9.49999L6.44532 7.8828C7.05433 7.61245 7.5472 7.13411 7.83564 6.53346C8.12408 5.9328 8.18926 5.24908 8.01949 4.60475C7.84972 3.96042 7.4561 3.39758 6.90913 3.01704C6.36217 2.6365 5.69758 2.46312 5.03443 2.52797C4.37127 2.59281 3.75286 2.89163 3.28996 3.37091C2.82707 3.85019 2.54993 4.47862 2.50818 5.14363C2.46644 5.80864 2.66282 6.46679 3.06215 7.0002C3.46147 7.5336 4.03766 7.90741 4.68751 8.05468V11.9453C4.01333 12.099 3.41938 12.4956 3.01912 13.0594C2.61885 13.6233 2.44033 14.3148 2.51764 15.0019C2.59496 15.6891 2.92269 16.3237 3.43825 16.7845C3.9538 17.2452 4.62104 17.5 5.31251 17.5C6.00398 17.5 6.67121 17.2452 7.18677 16.7845C7.70232 16.3237 8.03006 15.6891 8.10737 15.0019C8.18468 14.3148 8.00616 13.6233 7.6059 13.0594C7.20563 12.4956 6.61169 12.099 5.93751 11.9453V9.22655L6.83594 10.2969C7.24382 10.7926 7.75685 11.1914 8.33788 11.4643C8.91891 11.7373 9.55338 11.8775 10.1953 11.875H12.0391C12.211 12.3612 12.5133 12.7909 12.913 13.1169C13.3126 13.4429 13.7942 13.6527 14.3051 13.7234C14.816 13.7941 15.3365 13.723 15.8097 13.5178C16.2829 13.3126 16.6905 12.9813 16.988 12.56C17.2856 12.1387 17.4615 11.6437 17.4967 11.1291C17.5318 10.6146 17.4248 10.1003 17.1873 9.64244C16.9498 9.18461 16.591 8.8009 16.1501 8.53327C15.7093 8.26564 15.2033 8.1244 14.6875 8.12499ZM6.87501 14.6875C6.87501 14.9965 6.78337 15.2986 6.61168 15.5556C6.43999 15.8125 6.19596 16.0128 5.91045 16.131C5.62494 16.2493 5.31077 16.2803 5.00768 16.22C4.70458 16.1597 4.42617 16.0109 4.20765 15.7923C3.98913 15.5738 3.84032 15.2954 3.78003 14.9923C3.71974 14.6892 3.75068 14.3751 3.86894 14.0895C3.98721 13.804 4.18748 13.56 4.44443 13.3883C4.70138 13.2166 5.00347 13.125 5.31251 13.125C5.72627 13.127 6.12251 13.2923 6.41509 13.5849C6.70767 13.8775 6.87295 14.2737 6.87501 14.6875ZM14.6875 12.5C14.3785 12.5 14.0764 12.4083 13.8194 12.2367C13.5625 12.065 13.3622 11.8209 13.2439 11.5354C13.1257 11.2499 13.0947 10.9358 13.155 10.6327C13.2153 10.3296 13.3641 10.0512 13.5827 9.83263C13.8012 9.61411 14.0796 9.4653 14.3827 9.40501C14.6858 9.34472 14.9999 9.37566 15.2854 9.49393C15.571 9.61219 15.815 9.81246 15.9867 10.0694C16.1584 10.3264 16.25 10.6285 16.25 10.9375C16.248 11.3513 16.0827 11.7475 15.7901 12.0401C15.4975 12.3327 15.1013 12.4979 14.6875 12.5Z" fill="currentColor"/>
</svg>
