<svg width="20" height="20" viewBox="0 0 20 20" fill="none" xmlns="http://www.w3.org/2000/svg">
<path d="M17.6483 12.75L17.6718 12.6719C18.2761 10.9419 18.2761 9.05811 17.6718 7.32812L17.6483 7.25C17.0801 5.67685 16.0411 4.31693 14.6726 3.3552C13.3041 2.39348 11.6725 1.87664 9.9999 1.875C8.32727 1.87664 6.69574 2.39348 5.32724 3.3552C3.95874 4.31693 2.91971 5.67685 2.35146 7.25L2.32802 7.32812C1.72367 9.05811 1.72367 10.9419 2.32802 12.6719L2.35146 12.75C2.92164 14.3219 3.96116 15.6806 5.32923 16.642C6.69729 17.6034 8.3278 18.1211 9.9999 18.125C11.6725 18.1234 13.3041 17.6065 14.6726 16.6448C16.0411 15.6831 17.0801 14.3231 17.6483 12.75ZM9.9999 3.5625C10.91 4.49867 11.5917 5.63226 11.9921 6.875H8.00771C8.40805 5.63226 9.08981 4.49867 9.9999 3.5625ZM8.00771 13.125H11.9921C11.5917 14.3677 10.91 15.5013 9.9999 16.4375C9.08981 15.5013 8.40805 14.3677 8.00771 13.125ZM7.67959 11.875C7.44007 10.6365 7.44007 9.36353 7.67959 8.125H12.3202C12.5597 9.36353 12.5597 10.6365 12.3202 11.875H7.67959ZM13.5936 8.125H16.6171C16.9609 9.35135 16.9609 10.6486 16.6171 11.875H13.5936C13.802 10.6337 13.802 9.36632 13.5936 8.125ZM16.1249 6.875H13.3124C12.9365 5.55884 12.2958 4.33329 11.4296 3.27344C12.4298 3.4894 13.3696 3.92441 14.1815 4.54718C14.9934 5.16994 15.6571 5.96496 16.1249 6.875ZM11.4296 16.7266C12.2958 15.6667 12.9365 14.4412 13.3124 13.125H16.1249C15.6571 14.035 14.9934 14.8301 14.1815 15.4528C13.3696 16.0756 12.4298 16.5106 11.4296 16.7266Z" fill="currentColor"/>
</svg>
