<svg width="20" height="20" viewBox="0 0 20 20" fill="none" xmlns="http://www.w3.org/2000/svg">
<path d="M18.125 9.6875H14.6094C15.2726 8.78083 15.6285 7.68583 15.625 6.5625C15.6229 5.15417 15.0626 3.80412 14.0667 2.80828C13.0709 1.81244 11.7208 1.25207 10.3125 1.25C10.1467 1.25 9.98777 1.31585 9.87056 1.43306C9.75335 1.55027 9.6875 1.70924 9.6875 1.875V5.39062C8.78083 4.72742 7.68583 4.37154 6.5625 4.375C5.15417 4.37707 3.80412 4.93744 2.80828 5.93328C1.81244 6.92912 1.25207 8.27917 1.25 9.6875C1.25 9.85326 1.31585 10.0122 1.43306 10.1294C1.55027 10.2467 1.70924 10.3125 1.875 10.3125H5.39062C4.72742 11.2192 4.37154 12.3142 4.375 13.4375C4.37707 14.8458 4.93744 16.1959 5.93328 17.1917C6.92912 18.1876 8.27917 18.7479 9.6875 18.75C9.85326 18.75 10.0122 18.6842 10.1294 18.5669C10.2467 18.4497 10.3125 18.2908 10.3125 18.125V14.6094C11.2192 15.2726 12.3142 15.6285 13.4375 15.625C14.8458 15.6229 16.1959 15.0626 17.1917 14.0667C18.1876 13.0709 18.7479 11.7208 18.75 10.3125C18.75 10.1467 18.6842 9.98777 18.5669 9.87056C18.4497 9.75335 18.2908 9.6875 18.125 9.6875ZM6.5625 5.625C7.15974 5.62253 7.75005 5.75305 8.29057 6.0071C8.8311 6.26114 9.30828 6.63234 9.6875 7.09375V9.0625H2.54687C2.69752 8.10534 3.18467 7.23331 3.92075 6.6032C4.65684 5.97309 5.59356 5.62624 6.5625 5.625ZM13.4375 14.375C12.8403 14.3775 12.25 14.2469 11.7094 13.9929C11.1689 13.7389 10.6917 13.3677 10.3125 12.9062V10.9375H17.4531C17.3025 11.8947 16.8153 12.7667 16.0792 13.3968C15.3432 14.0269 14.4064 14.3738 13.4375 14.375Z" fill="currentColor"/>
</svg>
