<svg width="20" height="20" viewBox="0 0 20 20" fill="none" xmlns="http://www.w3.org/2000/svg">
<path d="M17.4688 8.92185L4.36719 1.41404C4.1741 1.30414 3.95549 1.247 3.73333 1.24838C3.51116 1.24975 3.29328 1.30958 3.10156 1.42185C2.91372 1.5303 2.75777 1.68633 2.64942 1.87423C2.54107 2.06213 2.48415 2.27526 2.48438 2.49216V17.5078C2.48644 17.838 2.61905 18.1539 2.85324 18.3866C3.08744 18.6194 3.4042 18.75 3.73438 18.75C3.95573 18.7492 4.17334 18.6928 4.36719 18.5859L17.4688 11.0781C17.6629 10.9728 17.8249 10.817 17.9379 10.6273C18.0508 10.4375 18.1104 10.2208 18.1104 9.99997C18.1104 9.77915 18.0508 9.56242 17.9379 9.37266C17.8249 9.1829 17.6629 9.02715 17.4688 8.92185ZM11.25 10.8828L12.7266 12.3593L5.83594 16.2968L11.25 10.8828ZM5.83594 3.69529L12.7266 7.6406L11.25 9.11716L5.83594 3.69529ZM13.8438 11.7109L12.1328 9.99997L13.8438 8.28903L16.8438 9.99997L13.8438 11.7109Z" fill="currentColor"/>
</svg>
