<svg width="20" height="20" viewBox="0 0 20 20" fill="none" xmlns="http://www.w3.org/2000/svg">
<path d="M10 1.875C8.39303 1.875 6.82214 2.35152 5.486 3.24431C4.14985 4.1371 3.10844 5.40605 2.49348 6.8907C1.87852 8.37535 1.71762 10.009 2.03112 11.5851C2.34463 13.1612 3.11846 14.6089 4.25476 15.7452C5.39106 16.8815 6.8388 17.6554 8.4149 17.9689C9.99099 18.2824 11.6247 18.1215 13.1093 17.5065C14.594 16.8916 15.8629 15.8502 16.7557 14.514C17.6485 13.1779 18.125 11.607 18.125 10C18.1209 7.84638 17.2635 5.78216 15.7407 4.25932C14.2178 2.73648 12.1536 1.87913 10 1.875ZM10 16.25C8.97254 16.2492 7.96112 15.9951 7.05528 15.5102C6.14944 15.0253 5.37711 14.3245 4.80667 13.47C4.23623 12.6154 3.88526 11.6334 3.78484 10.6108C3.68442 9.5883 3.83765 8.55677 4.23095 7.60757C4.62425 6.65836 5.2455 5.82075 6.03971 5.1689C6.83391 4.51704 7.77658 4.07103 8.78425 3.87036C9.79193 3.66969 10.8335 3.72055 11.8169 4.01842C12.8002 4.31629 13.6949 4.852 14.4219 5.57812C14.5388 5.69529 14.6044 5.85403 14.6044 6.01953C14.6044 6.18503 14.5388 6.34377 14.4219 6.46094C14.3644 6.51976 14.2957 6.5665 14.2199 6.59841C14.1441 6.63032 14.0627 6.64675 13.9805 6.64675C13.8982 6.64675 13.8168 6.63032 13.741 6.59841C13.6652 6.5665 13.5965 6.51976 13.5391 6.46094C12.7399 5.65937 11.6928 5.15219 10.5684 5.02207C9.444 4.89195 8.30871 5.14658 7.3476 5.74443C6.38649 6.34229 5.65626 7.24811 5.27598 8.3142C4.8957 9.38029 4.8878 10.5438 5.25356 11.6149C5.61932 12.6861 6.33717 13.6017 7.29007 14.2126C8.24297 14.8235 9.3747 15.0935 10.5007 14.9787C11.6268 14.8638 12.6807 14.3709 13.4907 13.5803C14.3007 12.7896 14.8189 11.7479 14.9609 10.625H10C9.83424 10.625 9.67527 10.5592 9.55806 10.4419C9.44085 10.3247 9.375 10.1658 9.375 10C9.375 9.83424 9.44085 9.67527 9.55806 9.55806C9.67527 9.44085 9.83424 9.375 10 9.375H15.625C15.7908 9.375 15.9497 9.44085 16.0669 9.55806C16.1842 9.67527 16.25 9.83424 16.25 10C16.2479 11.657 15.5888 13.2455 14.4171 14.4171C13.2455 15.5888 11.657 16.2479 10 16.25Z" fill="currentColor"/>
</svg>
