<svg width="20" height="20" viewBox="0 0 20 20" fill="none" xmlns="http://www.w3.org/2000/svg">
<path d="M10 1.875C8.39303 1.875 6.82214 2.35152 5.486 3.24431C4.14985 4.1371 3.10844 5.40605 2.49348 6.8907C1.87852 8.37535 1.71762 10.009 2.03112 11.5851C2.34463 13.1612 3.11846 14.6089 4.25476 15.7452C5.39106 16.8815 6.8388 17.6554 8.4149 17.9689C9.99099 18.2824 11.6247 18.1215 13.1093 17.5065C14.594 16.8916 15.8629 15.8502 16.7557 14.514C17.6485 13.1779 18.125 11.607 18.125 10C18.1209 7.84638 17.2635 5.78216 15.7407 4.25932C14.2178 2.73648 12.1536 1.87913 10 1.875ZM10 3.125C11.2065 3.12593 12.3916 3.444 13.4364 4.04732C14.4813 4.65064 15.3492 5.51802 15.9531 6.5625H10C9.29978 6.56277 8.61633 6.77688 8.04111 7.17618C7.46589 7.57549 7.02633 8.14094 6.78125 8.79688L4.85157 5.45313C5.49452 4.72091 6.28642 4.13443 7.1743 3.73293C8.06218 3.33143 9.02556 3.12417 10 3.125ZM3.125 10C3.12414 8.79297 3.44216 7.60713 4.04688 6.5625L7.02344 11.7188L7.03907 11.7422C7.39166 12.3421 7.91801 12.8208 8.54852 13.1152C9.17904 13.4095 9.88404 13.5056 10.5703 13.3906L8.63282 16.7422C7.07973 16.4226 5.68417 15.5776 4.68102 14.3497C3.67787 13.1217 3.12837 11.5856 3.125 10ZM10 16.875L12.9766 11.7188C12.9844 11.7109 12.9844 11.6953 12.9922 11.6875C13.3351 11.0831 13.4859 10.3886 13.4245 9.6964C13.3631 9.0042 13.0924 8.34709 12.6484 7.8125H16.5156C16.755 8.51691 16.8764 9.25602 16.875 10C16.8729 11.8227 16.1479 13.5702 14.8591 14.8591C13.5702 16.1479 11.8227 16.8729 10 16.875Z" fill="currentColor"/>
</svg>
