<svg width="20" height="20" viewBox="0 0 20 20" fill="none" xmlns="http://www.w3.org/2000/svg">
<path d="M10.625 1.875V3.75C10.625 3.91576 10.5592 4.07473 10.4419 4.19194C10.3247 4.30915 10.1658 4.375 10 4.375C9.83424 4.375 9.67527 4.30915 9.55806 4.19194C9.44085 4.07473 9.375 3.91576 9.375 3.75V1.875C9.375 1.70924 9.44085 1.55027 9.55806 1.43306C9.67527 1.31585 9.83424 1.25 10 1.25C10.1658 1.25 10.3247 1.31585 10.4419 1.43306C10.5592 1.55027 10.625 1.70924 10.625 1.875ZM13.75 4.6875C13.5842 4.6875 13.4253 4.75335 13.3081 4.87056C13.1908 4.98777 13.125 5.14674 13.125 5.3125V7.1875C13.125 7.35326 13.1908 7.51223 13.3081 7.62944C13.4253 7.74665 13.5842 7.8125 13.75 7.8125C13.9158 7.8125 14.0747 7.74665 14.1919 7.62944C14.3092 7.51223 14.375 7.35326 14.375 7.1875V5.3125C14.375 5.14674 14.3092 4.98777 14.1919 4.87056C14.0747 4.75335 13.9158 4.6875 13.75 4.6875ZM10 15.625C9.83424 15.625 9.67527 15.6908 9.55806 15.8081C9.44085 15.9253 9.375 16.0842 9.375 16.25V18.125C9.375 18.2908 9.44085 18.4497 9.55806 18.5669C9.67527 18.6842 9.83424 18.75 10 18.75C10.1658 18.75 10.3247 18.6842 10.4419 18.5669C10.5592 18.4497 10.625 18.2908 10.625 18.125V16.25C10.625 16.0842 10.5592 15.9253 10.4419 15.8081C10.3247 15.6908 10.1658 15.625 10 15.625ZM10 5.625C9.83424 5.625 9.67527 5.69085 9.55806 5.80806C9.44085 5.92527 9.375 6.08424 9.375 6.25V13.75C9.375 13.9158 9.44085 14.0747 9.55806 14.1919C9.67527 14.3092 9.83424 14.375 10 14.375C10.1658 14.375 10.3247 14.3092 10.4419 14.1919C10.5592 14.0747 10.625 13.9158 10.625 13.75V6.25C10.625 6.08424 10.5592 5.92527 10.4419 5.80806C10.3247 5.69085 10.1658 5.625 10 5.625ZM6.25 4.6875C6.08424 4.6875 5.92527 4.75335 5.80806 4.87056C5.69085 4.98777 5.625 5.14674 5.625 5.3125V10.3125C5.625 10.4783 5.69085 10.6372 5.80806 10.7544C5.92527 10.8717 6.08424 10.9375 6.25 10.9375C6.41576 10.9375 6.57473 10.8717 6.69194 10.7544C6.80915 10.6372 6.875 10.4783 6.875 10.3125V5.3125C6.875 5.14674 6.80915 4.98777 6.69194 4.87056C6.57473 4.75335 6.41576 4.6875 6.25 4.6875ZM13.75 9.0625C13.5842 9.0625 13.4253 9.12835 13.3081 9.24556C13.1908 9.36277 13.125 9.52174 13.125 9.6875V14.6875C13.125 14.8533 13.1908 15.0122 13.3081 15.1294C13.4253 15.2467 13.5842 15.3125 13.75 15.3125C13.9158 15.3125 14.0747 15.2467 14.1919 15.1294C14.3092 15.0122 14.375 14.8533 14.375 14.6875V9.6875C14.375 9.52174 14.3092 9.36277 14.1919 9.24556C14.0747 9.12835 13.9158 9.0625 13.75 9.0625ZM2.5 8.4375C2.33424 8.4375 2.17527 8.50335 2.05806 8.62056C1.94085 8.73777 1.875 8.89674 1.875 9.0625V10.9375C1.875 11.1033 1.94085 11.2622 2.05806 11.3794C2.17527 11.4967 2.33424 11.5625 2.5 11.5625C2.66576 11.5625 2.82473 11.4967 2.94194 11.3794C3.05915 11.2622 3.125 11.1033 3.125 10.9375V9.0625C3.125 8.89674 3.05915 8.73777 2.94194 8.62056C2.82473 8.50335 2.66576 8.4375 2.5 8.4375ZM6.25 12.1875C6.08424 12.1875 5.92527 12.2533 5.80806 12.3706C5.69085 12.4878 5.625 12.6467 5.625 12.8125V14.6875C5.625 14.8533 5.69085 15.0122 5.80806 15.1294C5.92527 15.2467 6.08424 15.3125 6.25 15.3125C6.41576 15.3125 6.57473 15.2467 6.69194 15.1294C6.80915 15.0122 6.875 14.8533 6.875 14.6875V12.8125C6.875 12.6467 6.80915 12.4878 6.69194 12.3706C6.57473 12.2533 6.41576 12.1875 6.25 12.1875ZM17.5 8.4375C17.3342 8.4375 17.1753 8.50335 17.0581 8.62056C16.9408 8.73777 16.875 8.89674 16.875 9.0625V10.9375C16.875 11.1033 16.9408 11.2622 17.0581 11.3794C17.1753 11.4967 17.3342 11.5625 17.5 11.5625C17.6658 11.5625 17.8247 11.4967 17.9419 11.3794C18.0592 11.2622 18.125 11.1033 18.125 10.9375V9.0625C18.125 8.89674 18.0592 8.73777 17.9419 8.62056C17.8247 8.50335 17.6658 8.4375 17.5 8.4375Z" fill="currentColor"/>
</svg>
