<svg width="20" height="20" viewBox="0 0 20 20" fill="none" xmlns="http://www.w3.org/2000/svg">
  <path
    d="M17.5 6.56252H14.0781L14.6727 3.29299C14.7172 3.04828 14.6627 2.79591 14.5212 2.59138C14.3797 2.38684 14.1627 2.24691 13.918 2.20236C13.6733 2.15782 13.4209 2.2123 13.2164 2.35383C13.0118 2.49536 12.8719 2.71235 12.8273 2.95705L12.1719 6.56252H9.07812L9.67266 3.29299C9.69471 3.17182 9.69269 3.0475 9.6667 2.92712C9.64071 2.80673 9.59127 2.69265 9.52119 2.59138C9.45111 2.4901 9.36177 2.40362 9.25827 2.33688C9.15477 2.27013 9.03913 2.22442 8.91797 2.20236C8.7968 2.18031 8.67248 2.18233 8.5521 2.20832C8.43171 2.23431 8.31763 2.28375 8.21636 2.35383C8.01182 2.49536 7.87189 2.71235 7.82734 2.95705L7.17188 6.56252H3.75C3.50136 6.56252 3.2629 6.66129 3.08709 6.83711C2.91127 7.01292 2.8125 7.25138 2.8125 7.50002C2.8125 7.74866 2.91127 7.98712 3.08709 8.16293C3.2629 8.33875 3.50136 8.43752 3.75 8.43752H6.83125L6.26328 11.5625H2.5C2.25136 11.5625 2.0129 11.6613 1.83709 11.8371C1.66127 12.0129 1.5625 12.2514 1.5625 12.5C1.5625 12.7487 1.66127 12.9871 1.83709 13.1629C2.0129 13.3387 2.25136 13.4375 2.5 13.4375H5.92188L5.32734 16.7071C5.30479 16.8284 5.30644 16.9531 5.33219 17.0739C5.35795 17.1946 5.40731 17.3091 5.47743 17.4107C5.54756 17.5124 5.63707 17.5991 5.74082 17.6661C5.84458 17.733 5.96053 17.7788 6.08203 17.8008C6.13753 17.81 6.19377 17.8139 6.25 17.8125C6.46954 17.8124 6.68207 17.7352 6.85053 17.5944C7.019 17.4537 7.13272 17.2582 7.17188 17.0422L7.82812 13.4375H10.9219L10.3273 16.7071C10.3048 16.8284 10.3064 16.9531 10.3322 17.0739C10.358 17.1946 10.4073 17.3091 10.4774 17.4107C10.5476 17.5124 10.6371 17.5991 10.7408 17.6661C10.8446 17.733 10.9605 17.7788 11.082 17.8008C11.1377 17.8113 11.1942 17.8166 11.2508 17.8164C11.4703 17.8163 11.6828 17.7391 11.8513 17.5983C12.0198 17.4576 12.1335 17.2621 12.1727 17.0461L12.8281 13.4375H16.25C16.4986 13.4375 16.7371 13.3387 16.9129 13.1629C17.0887 12.9871 17.1875 12.7487 17.1875 12.5C17.1875 12.2514 17.0887 12.0129 16.9129 11.8371C16.7371 11.6613 16.4986 11.5625 16.25 11.5625H13.1687L13.7367 8.43752H17.5C17.7486 8.43752 17.9871 8.33875 18.1629 8.16293C18.3387 7.98712 18.4375 7.74866 18.4375 7.50002C18.4375 7.25138 18.3387 7.01292 18.1629 6.83711C17.9871 6.66129 17.7486 6.56252 17.5 6.56252ZM11.2633 11.5625H8.16875L8.73672 8.43752H11.8313L11.2633 11.5625Z"
    fill="currentColor" />
  <path opacity="0.2" d="M12.758 7.24091L11.8486 12.2409H6.84863L7.75801 7.24091H12.758Z" fill="currentColor" />
</svg>
