<svg
  xmlns="http://www.w3.org/2000/svg"
  width="20"
  height="20"
  viewBox="0 0 20 20"
  fill="none"
>
  <path
    d="M15.9664 4.03048C14.5862 2.65022 12.7702 1.79118 10.8277 1.5997C8.88519 1.40822 6.93638 1.89616 5.31328 2.98038C3.69018 4.0646 2.49319 5.67803 1.92625 7.5458C1.35931 9.41358 1.45748 11.4201 2.20405 13.2236C2.95061 15.0272 4.29938 16.516 6.02057 17.4366C7.74176 18.3572 9.72889 18.6526 11.6434 18.2724C13.558 17.8922 15.2815 16.86 16.5203 15.3516C17.7591 13.8432 18.4367 11.9519 18.4375 10C18.4375 7.76132 17.5487 5.6142 15.9664 4.03048ZM10.9375 10.625H9.0625V8.70236L10.9375 7.76486V10.625ZM7.8125 16.1914V12.5H12.1875V16.1914C10.7713 16.6873 9.22869 16.6873 7.8125 16.1914ZM14.6406 14.6414C14.4581 14.8231 14.265 14.994 14.0625 15.1531V12.1875C14.0626 11.8273 13.9382 11.4781 13.7104 11.1991C13.4826 10.9201 13.1654 10.7283 12.8125 10.6563V6.25001C12.8125 6.09019 12.7716 5.93303 12.6938 5.79346C12.6159 5.65388 12.5037 5.53652 12.3677 5.45253C12.2317 5.36854 12.0765 5.3207 11.9169 5.31356C11.7572 5.30642 11.5984 5.34021 11.4555 5.41173L7.70547 7.28673C7.54983 7.36461 7.41895 7.48428 7.32747 7.63233C7.23599 7.78038 7.18752 7.95098 7.1875 8.12501V10.657C6.83471 10.7291 6.51761 10.9207 6.28984 11.1996C6.06207 11.4785 5.93761 11.8274 5.9375 12.1875V15.1563C5.73498 14.9971 5.54194 14.8262 5.35938 14.6445C4.44166 13.7267 3.81671 12.5574 3.56355 11.2844C3.31039 10.0114 3.44039 8.69198 3.93711 7.49288C4.43383 6.29378 5.27496 5.26889 6.35414 4.54783C7.43332 3.82676 8.70209 3.44189 10 3.44189C11.2979 3.44189 12.5667 3.82676 13.6459 4.54783C14.725 5.26889 15.5662 6.29378 16.0629 7.49288C16.5596 8.69198 16.6896 10.0114 16.4365 11.2844C16.1833 12.5574 15.5583 13.7267 14.6406 14.6445V14.6414Z"
    fill="currentColor"
  />
  <path
    opacity="0.2"
    d="M15.2323 15.0171C14.6025 15.6484 13.8649 16.162 13.0542 16.5335V11.589C13.0542 11.4232 12.9883 11.2643 12.8711 11.1471C12.7539 11.0298 12.595 10.964 12.4292 10.964H11.8042V5.339L8.05419 7.214V10.964H7.42919C7.26343 10.964 7.10446 11.0298 6.98725 11.1471C6.87004 11.2643 6.80419 11.4232 6.80419 11.589V16.5335C5.35219 15.8683 4.15043 14.757 3.37394 13.3614C2.59745 11.9657 2.28676 10.3586 2.48712 8.7741C2.68747 7.18959 3.38842 5.71042 4.48788 4.55198C5.58734 3.39353 7.02789 2.61631 8.59977 2.3335C10.1717 2.05068 11.7928 2.27704 13.2271 2.9796C14.6614 3.68217 15.8339 4.82425 16.574 6.23955C17.3141 7.65485 17.5831 9.26945 17.3418 10.8482C17.1004 12.427 16.3614 13.8875 15.2323 15.0171Z"
    fill="currentColor"
  />
</svg>
