<svg width="20" height="20" viewBox="0 0 20 20" fill="none" xmlns="http://www.w3.org/2000/svg">
<path d="M15.7421 4.25782C14.9888 3.5024 14.0938 2.90304 13.1084 2.49409C12.1231 2.08514 11.0667 1.87463 9.99988 1.87463C8.93304 1.87463 7.87668 2.08514 6.89134 2.49409C5.90599 2.90304 5.01102 3.5024 4.2577 4.25782C3.50227 5.01114 2.90292 5.90611 2.49397 6.89146C2.08502 7.87681 1.87451 8.93316 1.87451 10C1.87451 11.0668 2.08502 12.1232 2.49397 13.1086C2.90292 14.0939 3.50227 14.9889 4.2577 15.7422C5.01102 16.4976 5.90599 17.097 6.89134 17.5059C7.87668 17.9149 8.93304 18.1254 9.99988 18.1254C11.0667 18.1254 12.1231 17.9149 13.1084 17.5059C14.0938 17.097 14.9888 16.4976 15.7421 15.7422C16.4975 14.9889 17.0969 14.0939 17.5058 13.1086C17.9148 12.1232 18.1253 11.0668 18.1253 10C18.1253 8.93316 17.9148 7.87681 17.5058 6.89146C17.0969 5.90611 16.4975 5.01114 15.7421 4.25782V4.25782ZM7.49988 16.4063V11.875H12.4999V16.4063C10.8919 17.0315 9.10791 17.0315 7.49988 16.4063V16.4063ZM14.8593 14.8594C14.5225 15.1998 14.1506 15.5036 13.7499 15.7656V11.875C13.7499 11.5435 13.6182 11.2255 13.3838 10.9911C13.1493 10.7567 12.8314 10.625 12.4999 10.625V5.62501C12.5005 5.51835 12.4735 5.41335 12.4215 5.32025C12.3694 5.22714 12.2942 5.14911 12.203 5.09376C12.1126 5.03691 12.0091 5.00419 11.9024 4.99871C11.7957 4.99324 11.6894 5.01521 11.5936 5.06251L7.84363 6.93751C7.74074 6.99131 7.6544 7.07207 7.59386 7.17115C7.53331 7.27023 7.50083 7.3839 7.49988 7.50001V10.625C7.16836 10.625 6.85042 10.7567 6.616 10.9911C6.38158 11.2255 6.24988 11.5435 6.24988 11.875V15.7656C5.29344 15.1373 4.50747 14.282 3.96217 13.2759C3.41687 12.2698 3.12921 11.1444 3.12488 10C3.12423 8.86912 3.40256 7.75553 3.9352 6.75794C4.46785 5.76034 5.23836 4.90955 6.17845 4.28095C7.11854 3.65235 8.19918 3.26537 9.3246 3.15429C10.45 3.04321 11.5855 3.21146 12.6303 3.64415C13.6751 4.07683 14.5971 4.76058 15.3145 5.63479C16.0319 6.50901 16.5226 7.54669 16.743 8.65588C16.9634 9.76508 16.9069 10.9115 16.5783 11.9936C16.2497 13.0757 15.6592 14.0601 14.8593 14.8594V14.8594Z" fill="currentColor"/>
</svg>
