<svg width="20" height="20" viewBox="0 0 20 20" fill="none" xmlns="http://www.w3.org/2000/svg">
<path d="M13.125 7.8125C13.125 8.06114 13.0262 8.2996 12.8504 8.47541C12.6746 8.65123 12.4361 8.75 12.1875 8.75C11.9389 8.75 11.7004 8.65123 11.5246 8.47541C11.3488 8.2996 11.25 8.06114 11.25 7.8125C11.25 7.56386 11.3488 7.3254 11.5246 7.14959C11.7004 6.97377 11.9389 6.875 12.1875 6.875C12.4361 6.875 12.6746 6.97377 12.8504 7.14959C13.0262 7.3254 13.125 7.56386 13.125 7.8125ZM18.125 4.375V14.375V15.625C18.125 15.9565 17.9933 16.2745 17.7589 16.5089C17.5245 16.7433 17.2065 16.875 16.875 16.875H3.125C2.79348 16.875 2.47554 16.7433 2.24112 16.5089C2.0067 16.2745 1.875 15.9565 1.875 15.625V13.125V4.375C1.875 4.04348 2.0067 3.72554 2.24112 3.49112C2.47554 3.2567 2.79348 3.125 3.125 3.125H16.875C17.2065 3.125 17.5245 3.2567 17.7589 3.49112C17.9933 3.72554 18.125 4.04348 18.125 4.375ZM16.875 12.8672V4.375H3.125V11.6172L5.99219 8.75C6.22752 8.51812 6.54463 8.38814 6.875 8.38814C7.20537 8.38814 7.52248 8.51812 7.75781 8.75L11.25 12.2422L12.8672 10.625C13.1025 10.3931 13.4196 10.2631 13.75 10.2631C14.0804 10.2631 14.3975 10.3931 14.6328 10.625L16.875 12.8672Z" fill="currentColor"/>
</svg>
