<svg width="20" height="20" viewBox="0 0 20 20" fill="none" xmlns="http://www.w3.org/2000/svg">
<path d="M7.8125 8.125C8.33027 8.125 8.75 7.70527 8.75 7.1875C8.75 6.66973 8.33027 6.25 7.8125 6.25C7.29473 6.25 6.875 6.66973 6.875 7.1875C6.875 7.70527 7.29473 8.125 7.8125 8.125Z" fill="currentColor"/>
<path d="M16.25 2.5H3.75C3.41848 2.5 3.10054 2.6317 2.86612 2.86612C2.6317 3.10054 2.5 3.41848 2.5 3.75V13.75V16.25C2.5 16.5815 2.6317 16.8995 2.86612 17.1339C3.10054 17.3683 3.41848 17.5 3.75 17.5H16.25C16.5815 17.5 16.8995 17.3683 17.1339 17.1339C17.3683 16.8995 17.5 16.5815 17.5 16.25V3.75C17.5 3.41848 17.3683 3.10054 17.1339 2.86612C16.8995 2.6317 16.5815 2.5 16.25 2.5ZM14.0078 8.75C13.7725 8.51812 13.4554 8.38814 13.125 8.38814C12.7946 8.38814 12.4775 8.51812 12.2422 8.75L8.75 12.2422L7.13281 10.625C6.89748 10.3931 6.58037 10.2631 6.25 10.2631C5.91963 10.2631 5.60252 10.3931 5.36719 10.625L3.75 12.2422V3.75H16.25V10.9922L14.0078 8.75Z" fill="currentColor"/>
</svg>
