<svg width="20" height="20" viewBox="0 0 20 20" fill="none" xmlns="http://www.w3.org/2000/svg">
<path d="M8.43775 6.5625C8.43775 6.31527 8.51106 6.0736 8.64841 5.86804C8.78576 5.66248 8.98099 5.50226 9.20939 5.40765C9.4378 5.31304 9.68913 5.28829 9.93161 5.33652C10.1741 5.38475 10.3968 5.5038 10.5716 5.67862C10.7464 5.85343 10.8655 6.07616 10.9137 6.31864C10.962 6.56111 10.9372 6.81245 10.8426 7.04085C10.748 7.26926 10.5878 7.46449 10.3822 7.60184C10.1766 7.73919 9.93497 7.8125 9.68775 7.8125C9.35623 7.8125 9.03828 7.6808 8.80386 7.44638C8.56944 7.21196 8.43775 6.89402 8.43775 6.5625ZM18.4377 10C18.4377 11.6688 17.9429 13.3001 17.0158 14.6876C16.0886 16.0752 14.7709 17.1566 13.2291 17.7952C11.6874 18.4338 9.99089 18.6009 8.35417 18.2754C6.71746 17.9498 5.21404 17.1462 4.03403 15.9662C2.85403 14.7862 2.05043 13.2828 1.72487 11.6461C1.39931 10.0094 1.5664 8.31286 2.20501 6.77111C2.84363 5.22936 3.92508 3.9116 5.31262 2.98448C6.70016 2.05735 8.33147 1.5625 10.0002 1.5625C12.2373 1.56498 14.3819 2.45473 15.9637 4.03653C17.5455 5.61833 18.4353 7.763 18.4377 10ZM16.5627 10C16.5627 8.70206 16.1779 7.43327 15.4568 6.35407C14.7357 5.27487 13.7107 4.43374 12.5116 3.93704C11.3125 3.44034 9.99297 3.31038 8.71997 3.5636C7.44697 3.81681 6.27764 4.44183 5.35986 5.35961C4.44208 6.27739 3.81706 7.44672 3.56384 8.71972C3.31063 9.99272 3.44059 11.3122 3.93729 12.5114C4.43399 13.7105 5.27512 14.7354 6.35432 15.4565C7.43352 16.1776 8.70231 16.5625 10.0002 16.5625C11.7402 16.5606 13.4083 15.8686 14.6386 14.6383C15.8689 13.408 16.5609 11.7399 16.5627 10ZM10.9377 12.8656V10.3125C10.9377 9.8981 10.7731 9.50067 10.4801 9.20765C10.1871 8.91462 9.78965 8.75 9.37525 8.75C9.15385 8.74967 8.93948 8.82771 8.7701 8.97029C8.60072 9.11287 8.48727 9.31079 8.44985 9.52901C8.41242 9.74722 8.45342 9.97164 8.5656 10.1625C8.67778 10.3534 8.85389 10.4984 9.06275 10.5719V13.125C9.06275 13.5394 9.22737 13.9368 9.52039 14.2299C9.81342 14.5229 10.2108 14.6875 10.6252 14.6875C10.8466 14.6878 11.061 14.6098 11.2304 14.4672C11.3998 14.3246 11.5132 14.1267 11.5507 13.9085C11.5881 13.6903 11.5471 13.4659 11.4349 13.275C11.3227 13.0841 11.1466 12.9391 10.9377 12.8656Z" fill="currentColor"/>
</svg>
