<svg width="20" height="20" viewBox="0 0 20 20" fill="none" xmlns="http://www.w3.org/2000/svg">
<path d="M16.875 3.75H3.125C2.95924 3.75 2.80027 3.81585 2.68306 3.93306C2.56585 4.05027 2.5 4.20924 2.5 4.375V16.25C2.5 16.5815 2.6317 16.8995 2.86612 17.1339C3.10054 17.3683 3.41848 17.5 3.75 17.5H6.875C7.20652 17.5 7.52446 17.3683 7.75888 17.1339C7.9933 16.8995 8.125 16.5815 8.125 16.25V12.5H11.875V13.75C11.875 14.0815 12.0067 14.3995 12.2411 14.6339C12.4755 14.8683 12.7935 15 13.125 15H16.25C16.5815 15 16.8995 14.8683 17.1339 14.6339C17.3683 14.3995 17.5 14.0815 17.5 13.75V4.375C17.5 4.20924 17.4342 4.05027 17.3169 3.93306C17.1997 3.81585 17.0408 3.75 16.875 3.75ZM6.875 5V9.375H3.75V5H6.875ZM8.125 11.25V5H11.875V11.25H8.125ZM13.125 13.75V9.375H16.25V13.75H13.125Z" fill="currentColor"/>
</svg>
