<svg width="20" height="20" viewBox="0 0 20 20" fill="none" xmlns="http://www.w3.org/2000/svg">
<path d="M12.5 1.25C11.5135 1.25119 10.5412 1.48561 9.66248 1.93414C8.78379 2.38267 8.02359 3.03259 7.44392 3.83088C6.86425 4.62916 6.48153 5.55319 6.32699 6.52756C6.17246 7.50193 6.25048 8.49903 6.5547 9.4375L2.0547 13.9297C1.93862 14.0488 1.87407 14.2087 1.87501 14.375V17.5C1.87501 17.6658 1.94086 17.8247 2.05807 17.9419C2.17528 18.0592 2.33425 18.125 2.50001 18.125H5.62501C5.79077 18.125 5.94974 18.0592 6.06695 17.9419C6.18416 17.8247 6.25001 17.6658 6.25001 17.5V16.25H7.50001C7.66577 16.25 7.82474 16.1842 7.94195 16.0669C8.05916 15.9497 8.12501 15.7908 8.12501 15.625V14.375H9.37501C9.54129 14.3759 9.70126 14.3114 9.82032 14.1953L10.5625 13.4453C11.4214 13.7238 12.3304 13.8128 13.2269 13.7064C14.1235 13.6 14.9864 13.3005 15.7561 12.8287C16.5259 12.3569 17.1844 11.7239 17.6861 10.9733C18.1879 10.2227 18.521 9.37233 18.6627 8.48065C18.8044 7.58896 18.7512 6.67717 18.5067 5.80802C18.2623 4.93887 17.8325 4.13299 17.2468 3.44584C16.6612 2.75869 15.9336 2.20658 15.1142 1.82752C14.2947 1.44846 13.4029 1.25143 12.5 1.25ZM14.0625 7.1875C13.8153 7.1875 13.5736 7.11419 13.368 6.97684C13.1625 6.83949 13.0023 6.64426 12.9077 6.41585C12.8131 6.18745 12.7883 5.93611 12.8365 5.69364C12.8848 5.45116 13.0038 5.22843 13.1786 5.05362C13.3534 4.8788 13.5762 4.75975 13.8186 4.71152C14.0611 4.66329 14.3125 4.68804 14.5409 4.78265C14.7693 4.87726 14.9645 5.03748 15.1018 5.24304C15.2392 5.4486 15.3125 5.69027 15.3125 5.9375C15.3125 6.26902 15.1808 6.58696 14.9464 6.82138C14.712 7.0558 14.394 7.1875 14.0625 7.1875Z" fill="currentColor"/>
</svg>
