<svg width="20" height="20" viewBox="0 0 20 20" fill="none" xmlns="http://www.w3.org/2000/svg">
  <path opacity="0.2"
    d="M17.5657 4.23828V15.4883C17.5657 15.654 17.4998 15.813 17.3826 15.9302C17.2654 16.0474 17.1064 16.1133 16.9407 16.1133H3.19067C3.02491 16.1133 2.86594 16.0474 2.74873 15.9302C2.63152 15.813 2.56567 15.654 2.56567 15.4883V4.23828C2.56567 4.07252 2.63152 3.91355 2.74873 3.79634C2.86594 3.67913 3.02491 3.61328 3.19067 3.61328H16.9407C17.1064 3.61328 17.2654 3.67913 17.3826 3.79634C17.4998 3.91355 17.5657 4.07252 17.5657 4.23828Z"
    fill="currentColor" />
  <path
    d="M5.58672 11.2883C5.49932 11.2012 5.42997 11.0977 5.38265 10.9837C5.33534 10.8698 5.31098 10.7476 5.31098 10.6242C5.31098 10.5008 5.33534 10.3787 5.38265 10.2647C5.42997 10.1507 5.49932 10.0473 5.58672 9.96016L7.46172 8.08516C7.63784 7.90904 7.87671 7.81009 8.12578 7.81009C8.37485 7.81009 8.61372 7.90904 8.78984 8.08516C8.96596 8.26128 9.06491 8.50015 9.06491 8.74922C9.06491 8.99829 8.96596 9.23716 8.78984 9.41328L8.51562 9.6875H12.8125V8.125C12.8125 7.87636 12.9113 7.6379 13.0871 7.46209C13.2629 7.28627 13.5014 7.1875 13.75 7.1875C13.9986 7.1875 14.2371 7.28627 14.4129 7.46209C14.5887 7.6379 14.6875 7.87636 14.6875 8.125V10.625C14.6875 10.8736 14.5887 11.1121 14.4129 11.2879C14.2371 11.4637 13.9986 11.5625 13.75 11.5625H8.51562L8.79062 11.8367C8.96674 12.0128 9.06569 12.2517 9.06569 12.5008C9.06569 12.7499 8.96674 12.9887 8.79062 13.1648C8.6145 13.341 8.37563 13.4399 8.12656 13.4399C7.87749 13.4399 7.63862 13.341 7.4625 13.1648L5.58672 11.2883ZM18.4375 4.375V15.625C18.4375 16.0394 18.2729 16.4368 17.9799 16.7299C17.6868 17.0229 17.2894 17.1875 16.875 17.1875H3.125C2.7106 17.1875 2.31317 17.0229 2.02015 16.7299C1.72712 16.4368 1.5625 16.0394 1.5625 15.625V4.375C1.5625 3.9606 1.72712 3.56317 2.02015 3.27015C2.31317 2.97712 2.7106 2.8125 3.125 2.8125H16.875C17.2894 2.8125 17.6868 2.97712 17.9799 3.27015C18.2729 3.56317 18.4375 3.9606 18.4375 4.375ZM16.5625 4.6875H3.4375V15.3125H16.5625V4.6875Z"
    fill="currentColor" />
</svg>
