<svg width="20" height="20" viewBox="0 0 20 20" fill="none" xmlns="http://www.w3.org/2000/svg">
<path d="M16.875 3.125H3.125C2.79348 3.125 2.47554 3.2567 2.24112 3.49112C2.0067 3.72554 1.875 4.04348 1.875 4.375V15.625C1.875 15.9565 2.0067 16.2745 2.24112 16.5089C2.47554 16.7433 2.79348 16.875 3.125 16.875H16.875C17.2065 16.875 17.5245 16.7433 17.7589 16.5089C17.9933 16.2745 18.125 15.9565 18.125 15.625V4.375C18.125 4.04348 17.9933 3.72554 17.7589 3.49112C17.5245 3.2567 17.2065 3.125 16.875 3.125ZM14.375 10.625C14.375 10.7908 14.3092 10.9497 14.1919 11.0669C14.0747 11.1842 13.9158 11.25 13.75 11.25H7.75781L8.57031 12.0547C8.68768 12.1732 8.75352 12.3332 8.75352 12.5C8.75352 12.6668 8.68768 12.8268 8.57031 12.9453C8.45085 13.0608 8.29118 13.1254 8.125 13.1254C7.95882 13.1254 7.79915 13.0608 7.67969 12.9453L5.80469 11.0703C5.68732 10.9518 5.62148 10.7918 5.62148 10.625C5.62148 10.4582 5.68732 10.2982 5.80469 10.1797L7.67969 8.30469C7.80112 8.20502 7.95529 8.15409 8.11219 8.1618C8.2691 8.1695 8.41753 8.2353 8.52862 8.34638C8.6397 8.45747 8.7055 8.6059 8.7132 8.76281C8.72091 8.91971 8.66998 9.07388 8.57031 9.19531L7.75781 10H13.125V8.125C13.125 7.95924 13.1908 7.80027 13.3081 7.68306C13.4253 7.56585 13.5842 7.5 13.75 7.5C13.9158 7.5 14.0747 7.56585 14.1919 7.68306C14.3092 7.80027 14.375 7.95924 14.375 8.125V10.625Z" fill="currentColor"/>
</svg>
