<svg width="20" height="20" viewBox="0 0 20 20" fill="none" xmlns="http://www.w3.org/2000/svg">
<path d="M16.8593 9.2344C16.8361 9.13366 16.7883 9.04025 16.7201 8.96253C16.652 8.88481 16.5656 8.82522 16.4687 8.78909L11.9687 7.10159L13.1093 1.37503C13.1356 1.24238 13.1186 1.10482 13.061 0.9825C13.0033 0.860184 12.908 0.759548 12.789 0.695342C12.6688 0.631415 12.5309 0.609012 12.3967 0.631619C12.2624 0.654227 12.1394 0.720577 12.0468 0.820342L3.29683 10.1953C3.22514 10.2697 3.17326 10.3609 3.14596 10.4606C3.11866 10.5602 3.11681 10.6651 3.14058 10.7657C3.16504 10.8658 3.21333 10.9586 3.28133 11.0362C3.34934 11.1137 3.43506 11.1737 3.53121 11.211L8.03121 12.8985L6.89058 18.625C6.86435 18.7577 6.8813 18.8952 6.93894 19.0176C6.99658 19.1399 7.09189 19.2405 7.21089 19.3047C7.3006 19.35 7.39949 19.374 7.49996 19.375C7.58486 19.3754 7.66892 19.3582 7.74689 19.3246C7.82485 19.291 7.89505 19.2417 7.95308 19.1797L16.7031 9.80472C16.7748 9.73033 16.8267 9.63913 16.854 9.53949C16.8813 9.43985 16.8831 9.33495 16.8593 9.2344Z" fill="currentColor"/>
</svg>
