<svg width="20" height="20" viewBox="0 0 20 20" fill="none" xmlns="http://www.w3.org/2000/svg">
<path d="M4.21089 2.70315C4.09798 2.58502 3.94329 2.51581 3.77996 2.51036C3.61663 2.5049 3.45767 2.56363 3.33712 2.67396C3.21657 2.7843 3.14403 2.93745 3.13504 3.10062C3.12605 3.26379 3.18132 3.42399 3.28902 3.5469L6.35152 6.91409L3.29683 10.1953C3.22514 10.2697 3.17326 10.3609 3.14596 10.4606C3.11866 10.5602 3.11681 10.6651 3.14058 10.7657C3.16504 10.8658 3.21333 10.9586 3.28133 11.0362C3.34934 11.1137 3.43506 11.1737 3.53121 11.211L8.03121 12.8985L6.89058 18.625C6.86435 18.7577 6.8813 18.8952 6.93894 19.0176C6.99658 19.1399 7.09189 19.2405 7.21089 19.3047C7.3006 19.35 7.39949 19.374 7.49996 19.375C7.58559 19.3754 7.67031 19.3574 7.74846 19.3224C7.8266 19.2874 7.89636 19.2361 7.95308 19.1719L12.789 14L15.789 17.2969C15.8476 17.3609 15.9188 17.412 15.9981 17.447C16.0775 17.4819 16.1632 17.5 16.25 17.5C16.4059 17.4985 16.5559 17.4402 16.6718 17.336C16.7333 17.2811 16.7831 17.2146 16.8184 17.1402C16.8537 17.0658 16.8738 16.9851 16.8774 16.9028C16.8811 16.8205 16.8682 16.7384 16.8396 16.6611C16.811 16.5839 16.7672 16.5132 16.7109 16.4532L4.21089 2.70315Z" fill="currentColor"/>
<path d="M14.0469 11.6641C14.1045 11.7271 14.1744 11.7777 14.2524 11.8126C14.3303 11.8475 14.4146 11.8661 14.5 11.8672H14.5078C14.5934 11.8676 14.6782 11.8496 14.7563 11.8146C14.8344 11.7796 14.9042 11.7283 14.9609 11.6641L16.7031 9.79691C16.7743 9.7228 16.8259 9.63208 16.8532 9.53298C16.8805 9.43388 16.8825 9.32954 16.8593 9.22943C16.836 9.12932 16.7881 9.03661 16.7199 8.95971C16.6517 8.88282 16.5653 8.82417 16.4687 8.78909L11.9687 7.10159L13.1094 1.36722C13.133 1.23559 13.1138 1.09985 13.0545 0.979955C12.9953 0.860059 12.8991 0.762329 12.7802 0.701127C12.6613 0.639924 12.5259 0.618476 12.3939 0.639935C12.2619 0.661394 12.1403 0.724628 12.0469 0.820344L8.46092 4.66409C8.35276 4.77747 8.29176 4.92774 8.29031 5.08443C8.28886 5.24111 8.34706 5.39249 8.45311 5.50784L14.0469 11.6641Z" fill="currentColor"/>
</svg>
