<svg width="20" height="20" viewBox="0 0 20 20" fill="none" xmlns="http://www.w3.org/2000/svg">
<path d="M16.4063 3.59378C16.0301 3.21513 15.5828 2.91463 15.0901 2.70956C14.5973 2.5045 14.0689 2.39893 13.5352 2.39893C13.0015 2.39893 12.473 2.5045 11.9803 2.70956C11.4875 2.91463 11.0402 3.21513 10.6641 3.59378L9.11721 5.14066C9.00948 5.25955 8.9516 5.41531 8.95555 5.5757C8.9595 5.73608 9.02498 5.88881 9.13842 6.00225C9.25187 6.1157 9.40459 6.18117 9.56498 6.18512C9.72537 6.18907 9.88113 6.13119 10 6.02347L11.5469 4.47659C12.0753 3.95133 12.7901 3.65651 13.5352 3.65651C14.2802 3.65651 14.995 3.95133 15.5235 4.47659C15.7854 4.73722 15.9933 5.04704 16.1351 5.38825C16.277 5.72947 16.35 6.09535 16.35 6.46487C16.35 6.8344 16.277 7.20028 16.1351 7.5415C15.9933 7.88271 15.7854 8.19253 15.5235 8.45316L13.3125 10.6641C12.7841 11.1894 12.0693 11.4842 11.3242 11.4842C10.5792 11.4842 9.86438 11.1894 9.33596 10.6641C9.27911 10.6014 9.2101 10.5508 9.13313 10.5155C9.05616 10.4803 8.97283 10.461 8.88819 10.4589C8.80355 10.4569 8.71936 10.472 8.64075 10.5034C8.56214 10.5349 8.49073 10.5819 8.43086 10.6418C8.37099 10.7017 8.32391 10.7731 8.29248 10.8517C8.26104 10.9303 8.24591 11.0145 8.24799 11.0991C8.25008 11.1838 8.26934 11.2671 8.3046 11.3441C8.33987 11.4211 8.3904 11.4901 8.45315 11.5469C9.21489 12.3078 10.2475 12.7353 11.3242 12.7353C12.4009 12.7353 13.4336 12.3078 14.1953 11.5469L16.4063 9.33597C16.7849 8.95984 17.0854 8.51252 17.2905 8.01977C17.4956 7.52703 17.6011 6.99859 17.6011 6.46487C17.6011 5.93116 17.4956 5.40272 17.2905 4.90997C17.0854 4.41723 16.7849 3.96991 16.4063 3.59378Z" fill="currentColor"/>
<path d="M9.99992 13.9766L8.45304 15.5234C7.92195 16.0322 7.21268 16.3128 6.47724 16.3049C5.7418 16.297 5.0387 16.0013 4.51864 15.4813C3.99857 14.9612 3.70292 14.2581 3.69504 13.5227C3.68716 12.7872 3.96768 12.078 4.47648 11.5469L6.68742 9.33593C7.21584 8.81067 7.93063 8.51585 8.6757 8.51585C9.42077 8.51585 10.1356 8.81067 10.664 9.33593C10.7829 9.44366 10.9386 9.50154 11.099 9.49759C11.2594 9.49364 11.4121 9.42817 11.5256 9.31472C11.639 9.20128 11.7045 9.04855 11.7084 8.88816C11.7124 8.72778 11.6545 8.57201 11.5468 8.45312C10.7851 7.69219 9.75239 7.26477 8.6757 7.26477C7.59901 7.26477 6.56635 7.69219 5.80461 8.45312L3.59367 10.6641C3.19619 11.0364 2.87765 11.4849 2.65698 11.9828C2.43631 12.4808 2.31801 13.018 2.30913 13.5626C2.30025 14.1072 2.40097 14.648 2.60528 15.1528C2.8096 15.6577 3.11335 16.1163 3.49847 16.5014C3.8836 16.8866 4.34223 17.1903 4.8471 17.3946C5.35196 17.5989 5.89276 17.6997 6.43734 17.6908C6.98191 17.6819 7.51914 17.5636 8.01708 17.3429C8.51501 17.1223 8.9635 16.8037 9.33586 16.4062L10.8827 14.8594C10.9905 14.7405 11.0483 14.5847 11.0444 14.4243C11.0404 14.2639 10.975 14.1112 10.8615 13.9978C10.7481 13.8843 10.5953 13.8189 10.435 13.8149C10.2746 13.811 10.1188 13.8688 9.99992 13.9766Z" fill="currentColor"/>
</svg>
