<svg width="20" height="20" viewBox="0 0 20 20" fill="none" xmlns="http://www.w3.org/2000/svg">
<path d="M11.3281 13.9766L9.11719 16.1875C8.76888 16.5358 8.35538 16.8121 7.90029 17.0006C7.4452 17.1891 6.95743 17.2861 6.46485 17.2861C5.47003 17.2861 4.51595 16.8909 3.8125 16.1875C3.10906 15.4841 2.71387 14.53 2.71387 13.5352C2.71387 12.5403 3.10906 11.5863 3.8125 10.8828L6.02344 8.67188" stroke="currentColor" stroke-linecap="round" stroke-linejoin="round"/>
<path d="M13.9766 11.3281L16.1875 9.11719C16.8909 8.41375 17.2861 7.45967 17.2861 6.46485C17.2861 5.47003 16.8909 4.51595 16.1875 3.8125C15.4841 3.10906 14.53 2.71387 13.5352 2.71387C12.5403 2.71387 11.5863 3.10906 10.8828 3.8125L8.67188 6.02344" stroke="currentColor" stroke-linecap="round" stroke-linejoin="round"/>
</svg>
