<svg width="20" height="20" viewBox="0 0 20 20" fill="none" xmlns="http://www.w3.org/2000/svg">
<path d="M16.5625 2.1875H3.4375C3.10598 2.1875 2.78804 2.3192 2.55362 2.55362C2.3192 2.78804 2.1875 3.10598 2.1875 3.4375V16.5625C2.1875 16.894 2.3192 17.212 2.55362 17.4464C2.78804 17.6808 3.10598 17.8125 3.4375 17.8125H16.5625C16.894 17.8125 17.212 17.6808 17.4464 17.4464C17.6808 17.212 17.8125 16.894 17.8125 16.5625V3.4375C17.8125 3.10598 17.6808 2.78804 17.4464 2.55362C17.212 2.3192 16.894 2.1875 16.5625 2.1875ZM7.5 13.75C7.5 13.9158 7.43415 14.0747 7.31694 14.1919C7.19973 14.3092 7.04076 14.375 6.875 14.375C6.70924 14.375 6.55027 14.3092 6.43306 14.1919C6.31585 14.0747 6.25 13.9158 6.25 13.75V8.75C6.25 8.58424 6.31585 8.42527 6.43306 8.30806C6.55027 8.19085 6.70924 8.125 6.875 8.125C7.04076 8.125 7.19973 8.19085 7.31694 8.30806C7.43415 8.42527 7.5 8.58424 7.5 8.75V13.75ZM6.875 7.1875C6.68958 7.1875 6.50832 7.13252 6.35415 7.0295C6.19998 6.92649 6.07982 6.78007 6.00886 6.60877C5.93791 6.43746 5.91934 6.24896 5.95551 6.0671C5.99169 5.88525 6.08098 5.7182 6.21209 5.58709C6.3432 5.45598 6.51025 5.36669 6.6921 5.33051C6.87396 5.29434 7.06246 5.31291 7.23377 5.38386C7.40507 5.45482 7.55149 5.57498 7.6545 5.72915C7.75752 5.88332 7.8125 6.06458 7.8125 6.25C7.8125 6.49864 7.71373 6.7371 7.53791 6.91291C7.3621 7.08873 7.12364 7.1875 6.875 7.1875ZM14.375 13.75C14.375 13.9158 14.3092 14.0747 14.1919 14.1919C14.0747 14.3092 13.9158 14.375 13.75 14.375C13.5842 14.375 13.4253 14.3092 13.3081 14.1919C13.1908 14.0747 13.125 13.9158 13.125 13.75V10.9375C13.125 10.5231 12.9604 10.1257 12.6674 9.83265C12.3743 9.53962 11.9769 9.375 11.5625 9.375C11.1481 9.375 10.7507 9.53962 10.4576 9.83265C10.1646 10.1257 10 10.5231 10 10.9375V13.75C10 13.9158 9.93415 14.0747 9.81694 14.1919C9.69973 14.3092 9.54076 14.375 9.375 14.375C9.20924 14.375 9.05027 14.3092 8.93306 14.1919C8.81585 14.0747 8.75 13.9158 8.75 13.75V8.75C8.74957 8.59619 8.80587 8.44762 8.90813 8.33272C9.01039 8.21782 9.15143 8.14467 9.30425 8.12726C9.45708 8.10985 9.61096 8.1494 9.73644 8.23835C9.86192 8.32731 9.9502 8.45941 9.98438 8.60938C10.4073 8.3227 10.9003 8.15663 11.4105 8.12901C11.9206 8.10139 12.4287 8.21326 12.8801 8.4526C13.3314 8.69195 13.7091 9.04973 13.9725 9.48752C14.2359 9.92532 14.375 10.4266 14.375 10.9375V13.75Z" fill="currentColor"/>
</svg>
