<svg width="20" height="20" viewBox="0 0 20 20" fill="none" xmlns="http://www.w3.org/2000/svg">
<path d="M12.5938 17.0078C12.6268 17.0547 12.6462 17.1099 12.6499 17.1672C12.6537 17.2244 12.6416 17.2816 12.6149 17.3325C12.5883 17.3833 12.5482 17.4258 12.499 17.4554C12.4497 17.4849 12.3933 17.5004 12.3359 17.5H7.66407C7.60668 17.5004 7.55028 17.4849 7.50107 17.4554C7.45186 17.4258 7.41174 17.3833 7.38511 17.3325C7.35847 17.2816 7.34636 17.2244 7.35009 17.1672C7.35382 17.1099 7.37326 17.0547 7.40626 17.0078C7.69212 16.5824 8.07822 16.2338 8.53054 15.9928C8.98285 15.7518 9.4875 15.6258 10 15.6258C10.5125 15.6258 11.0172 15.7518 11.4695 15.9928C11.9218 16.2338 12.3079 16.5824 12.5938 17.0078ZM17.9531 17.3047C17.8924 17.3674 17.8196 17.4172 17.7389 17.4507C17.6583 17.4843 17.5717 17.5011 17.4844 17.5H14.4219C14.3568 17.4991 14.2936 17.4785 14.2406 17.4408C14.1875 17.4031 14.1472 17.3502 14.125 17.289C13.8235 16.4359 13.2649 15.6972 12.5262 15.1748C11.7874 14.6523 10.9048 14.3718 10 14.3718C9.09518 14.3718 8.2126 14.6523 7.47385 15.1748C6.73509 15.6972 6.1765 16.4359 5.87501 17.289C5.8528 17.3502 5.8125 17.4031 5.75947 17.4408C5.70644 17.4785 5.64319 17.4991 5.57814 17.5H2.51564C2.42819 17.502 2.34128 17.4857 2.26053 17.4521C2.17978 17.4184 2.107 17.3682 2.04689 17.3047C1.9534 17.2073 1.89437 17.0821 1.87885 16.948C1.86333 16.814 1.89217 16.6786 1.96095 16.5625C1.98439 16.5234 4.37501 12.2656 4.37501 7.49996C4.37603 6.75827 4.52351 6.02409 4.809 5.33954C5.09449 4.65499 5.51236 4.03357 6.03862 3.51093C6.56489 2.9883 7.18919 2.57474 7.8757 2.29399C8.5622 2.01325 9.29739 1.87085 10.0391 1.87496C13.1328 1.8984 15.6172 4.44528 15.625 7.53903C15.6406 12.289 18.0156 16.5234 18.0391 16.5625C18.1079 16.6786 18.1367 16.814 18.1212 16.948C18.1056 17.0821 18.0466 17.2073 17.9531 17.3047ZM6.87501 8.43746C6.87501 8.62288 6.92999 8.80414 7.03301 8.95831C7.13602 9.11248 7.28244 9.23264 7.45375 9.3036C7.62505 9.37456 7.81355 9.39312 7.99541 9.35695C8.17727 9.32078 8.34431 9.23149 8.47542 9.10038C8.60654 8.96927 8.69582 8.80222 8.732 8.62036C8.76817 8.4385 8.74961 8.25 8.67865 8.0787C8.60769 7.90739 8.48753 7.76098 8.33336 7.65796C8.17919 7.55495 7.99793 7.49996 7.81251 7.49996C7.56387 7.49996 7.32541 7.59874 7.1496 7.77455C6.97378 7.95037 6.87501 8.18882 6.87501 8.43746ZM13.0625 10.9687C12.9856 10.8217 12.8548 10.7103 12.6974 10.6578C12.54 10.6054 12.3685 10.616 12.2188 10.6875L10 11.8047L7.78126 10.6875C7.70739 10.6505 7.62697 10.6285 7.54459 10.6227C7.46221 10.6168 7.37949 10.6272 7.30114 10.6533C7.22279 10.6795 7.15035 10.7208 7.08796 10.7749C7.02557 10.829 6.97445 10.8948 6.93751 10.9687C6.90058 11.0426 6.87855 11.123 6.8727 11.2054C6.86684 11.2878 6.87727 11.3705 6.90339 11.4488C6.92951 11.5272 6.9708 11.5996 7.02491 11.662C7.07902 11.7244 7.14489 11.7755 7.21876 11.8125L9.71876 13.0625C9.80681 13.1036 9.90282 13.125 10 13.125C10.0972 13.125 10.1932 13.1036 10.2813 13.0625L12.7813 11.8125C12.9283 11.7356 13.0397 11.6047 13.0922 11.4473C13.1446 11.29 13.134 11.1184 13.0625 10.9687ZM13.125 8.43746C13.125 8.25204 13.07 8.07079 12.967 7.91662C12.864 7.76245 12.7176 7.64228 12.5463 7.57133C12.375 7.50037 12.1865 7.4818 12.0046 7.51798C11.8228 7.55415 11.6557 7.64344 11.5246 7.77455C11.3935 7.90566 11.3042 8.07271 11.268 8.25457C11.2319 8.43642 11.2504 8.62492 11.3214 8.79623C11.3923 8.96754 11.5125 9.11395 11.6667 9.21697C11.8208 9.31998 12.0021 9.37496 12.1875 9.37496C12.4362 9.37496 12.6746 9.27619 12.8504 9.10038C13.0262 8.92456 13.125 8.6861 13.125 8.43746Z" fill="currentColor"/>
</svg>
