<svg
  xmlns="http://www.w3.org/2000/svg"
  width="20"
  height="20"
  viewBox="0 0 20 20"
  fill="none"
>
  <path
    opacity="0.2"
    d="M16.6638 5.08301V15.083H7.91382V5.08301H16.6638Z"
    fill="currentColor"
  />
  <path
    d="M17.8126 9.99999C17.8126 10.2486 17.7138 10.4871 17.538 10.6629C17.3622 10.8387 17.1237 10.9375 16.8751 10.9375H9.0626C8.81396 10.9375 8.5755 10.8387 8.39969 10.6629C8.22387 10.4871 8.1251 10.2486 8.1251 9.99999C8.1251 9.75135 8.22387 9.51289 8.39969 9.33708C8.5755 9.16126 8.81396 9.06249 9.0626 9.06249H16.8751C17.1237 9.06249 17.3622 9.16126 17.538 9.33708C17.7138 9.51289 17.8126 9.75135 17.8126 9.99999ZM9.0626 5.93749H16.8751C17.1237 5.93749 17.3622 5.83872 17.538 5.6629C17.7138 5.48709 17.8126 5.24863 17.8126 4.99999C17.8126 4.75135 17.7138 4.51289 17.538 4.33708C17.3622 4.16126 17.1237 4.06249 16.8751 4.06249H9.0626C8.81396 4.06249 8.5755 4.16126 8.39969 4.33708C8.22387 4.51289 8.1251 4.75135 8.1251 4.99999C8.1251 5.24863 8.22387 5.48709 8.39969 5.6629C8.5755 5.83872 8.81396 5.93749 9.0626 5.93749ZM16.8751 14.0625H9.0626C8.81396 14.0625 8.5755 14.1613 8.39969 14.3371C8.22387 14.5129 8.1251 14.7513 8.1251 15C8.1251 15.2486 8.22387 15.4871 8.39969 15.6629C8.5755 15.8387 8.81396 15.9375 9.0626 15.9375H16.8751C17.1237 15.9375 17.3622 15.8387 17.538 15.6629C17.7138 15.4871 17.8126 15.2486 17.8126 15C17.8126 14.7513 17.7138 14.5129 17.538 14.3371C17.3622 14.1613 17.1237 14.0625 16.8751 14.0625ZM3.4376 4.63358V8.12499C3.4376 8.37363 3.53637 8.61209 3.71219 8.7879C3.888 8.96372 4.12646 9.06249 4.3751 9.06249C4.62374 9.06249 4.8622 8.96372 5.03801 8.7879C5.21383 8.61209 5.3126 8.37363 5.3126 8.12499V3.12499C5.31252 2.96528 5.27163 2.80823 5.19382 2.66876C5.11601 2.52928 5.00386 2.41199 4.868 2.32802C4.73215 2.24405 4.57709 2.19618 4.41754 2.18895C4.258 2.18172 4.09925 2.21537 3.95635 2.28671L2.70635 2.91171C2.49943 3.02199 2.34135 3.2058 2.26328 3.42689C2.18521 3.64799 2.19283 3.89031 2.28462 4.10607C2.37642 4.32182 2.54573 4.49535 2.75916 4.59242C2.97259 4.68949 3.21465 4.70306 3.4376 4.63046V4.63358ZM6.54151 12.2008C6.50134 11.9117 6.40311 11.6337 6.25274 11.3836C6.10237 11.1335 5.90296 10.9164 5.66651 10.7453C5.19511 10.4032 4.6097 10.2565 4.03268 10.336C3.45567 10.4155 2.93172 10.715 2.57041 11.1719C2.43177 11.35 2.32185 11.5488 2.24463 11.7609C2.16323 11.9937 2.17681 12.2491 2.28241 12.4719C2.38802 12.6947 2.57715 12.867 2.80885 12.9513C3.04054 13.0357 3.29614 13.0254 3.52028 12.9226C3.74442 12.8199 3.91905 12.6329 4.00635 12.4023C4.01759 12.3742 4.03286 12.3479 4.05166 12.3242C4.11223 12.2509 4.1985 12.2034 4.29287 12.1915C4.38724 12.1796 4.48259 12.2041 4.55948 12.2601C4.5933 12.2835 4.62194 12.3136 4.64358 12.3486C4.66522 12.3835 4.67941 12.4226 4.68526 12.4633C4.6905 12.5015 4.68786 12.5405 4.67752 12.5777C4.66717 12.6149 4.64934 12.6496 4.6251 12.6797L4.61494 12.693L2.37432 15.6891C2.27027 15.8284 2.20702 15.9939 2.19166 16.1672C2.17629 16.3404 2.20941 16.5145 2.28731 16.67C2.36522 16.8254 2.48483 16.9562 2.63278 17.0476C2.78074 17.139 2.95119 17.1874 3.1251 17.1875H5.6251C5.87374 17.1875 6.1122 17.0887 6.28801 16.9129C6.46383 16.7371 6.5626 16.4986 6.5626 16.25C6.5626 16.0013 6.46383 15.7629 6.28801 15.5871C6.1122 15.4113 5.87374 15.3125 5.6251 15.3125H5.0001L6.11573 13.8195C6.29148 13.592 6.41973 13.3314 6.49287 13.0533C6.56601 12.7753 6.58255 12.4854 6.54151 12.2008Z"
    fill="currentColor"
  />
</svg>
