<svg width="20" height="20" viewBox="0 0 20 20" fill="none" xmlns="http://www.w3.org/2000/svg">
<path d="M17.5 10C17.5 10.1658 17.4341 10.3248 17.3169 10.442C17.1997 10.5592 17.0407 10.625 16.875 10.625H8.12499C7.95923 10.625 7.80026 10.5592 7.68305 10.442C7.56584 10.3248 7.49999 10.1658 7.49999 10C7.49999 9.83428 7.56584 9.67531 7.68305 9.5581C7.80026 9.44089 7.95923 9.37504 8.12499 9.37504H16.875C17.0407 9.37504 17.1997 9.44089 17.3169 9.5581C17.4341 9.67531 17.5 9.83428 17.5 10ZM8.12499 5.62504H16.875C17.0407 5.62504 17.1997 5.55919 17.3169 5.44198C17.4341 5.32477 17.5 5.1658 17.5 5.00004C17.5 4.83428 17.4341 4.67531 17.3169 4.5581C17.1997 4.44089 17.0407 4.37504 16.875 4.37504H8.12499C7.95923 4.37504 7.80026 4.44089 7.68305 4.5581C7.56584 4.67531 7.49999 4.83428 7.49999 5.00004C7.49999 5.1658 7.56584 5.32477 7.68305 5.44198C7.80026 5.55919 7.95923 5.62504 8.12499 5.62504ZM16.875 14.375H8.12499C7.95923 14.375 7.80026 14.4409 7.68305 14.5581C7.56584 14.6753 7.49999 14.8343 7.49999 15C7.49999 15.1658 7.56584 15.3248 7.68305 15.442C7.80026 15.5592 7.95923 15.625 8.12499 15.625H16.875C17.0407 15.625 17.1997 15.5592 17.3169 15.442C17.4341 15.3248 17.5 15.1658 17.5 15C17.5 14.8343 17.4341 14.6753 17.3169 14.5581C17.1997 14.4409 17.0407 14.375 16.875 14.375ZM3.40624 5.25004L3.74999 5.07035V8.43754C3.74999 8.6033 3.81584 8.76227 3.93305 8.87948C4.05026 8.99669 4.20923 9.06254 4.37499 9.06254C4.54075 9.06254 4.69972 8.99669 4.81693 8.87948C4.93414 8.76227 4.99999 8.6033 4.99999 8.43754V4.06254C5.00062 3.95588 4.97361 3.85088 4.92158 3.75778C4.86955 3.66467 4.79428 3.58664 4.70311 3.53129C4.61268 3.47444 4.50918 3.44172 4.4025 3.43625C4.29582 3.43077 4.18952 3.45274 4.09374 3.50004L2.84374 4.12504C2.76987 4.16197 2.704 4.21309 2.64989 4.27549C2.59578 4.33788 2.55448 4.41031 2.52837 4.48866C2.47562 4.6469 2.4879 4.8196 2.56249 4.96879C2.63708 5.11797 2.76788 5.23141 2.92611 5.28416C3.08435 5.3369 3.25705 5.32463 3.40624 5.25004ZM5.64061 13.3047C5.8354 13.0223 5.939 12.6869 5.93749 12.3438C5.93967 11.9458 5.80366 11.5593 5.55266 11.2505C5.30166 10.9416 4.95123 10.7294 4.5612 10.6501C4.17116 10.5708 3.76569 10.6293 3.414 10.8156C3.06231 11.002 2.7862 11.3046 2.6328 11.6719C2.56753 11.8252 2.56585 11.9982 2.62812 12.1528C2.69038 12.3074 2.8115 12.4309 2.96483 12.4961C3.11816 12.5614 3.29114 12.5631 3.44571 12.5008C3.60028 12.4385 3.72378 12.3174 3.78905 12.1641C3.82256 12.0778 3.88171 12.0038 3.95853 11.9521C4.03535 11.9005 4.12616 11.8735 4.21874 11.875C4.34306 11.875 4.46229 11.9244 4.55019 12.0123C4.6381 12.1002 4.68749 12.2195 4.68749 12.3438C4.68941 12.4323 4.66493 12.5193 4.61718 12.5938L2.62499 15.25C2.55535 15.3429 2.51294 15.4533 2.50251 15.5689C2.49209 15.6845 2.51406 15.8007 2.56597 15.9045C2.61788 16.0084 2.69767 16.0957 2.79641 16.1567C2.89514 16.2177 3.00892 16.25 3.12499 16.25H5.31249C5.47825 16.25 5.63722 16.1842 5.75443 16.067C5.87164 15.9498 5.93749 15.7908 5.93749 15.625C5.93749 15.4593 5.87164 15.3003 5.75443 15.1831C5.63722 15.0659 5.47825 15 5.31249 15H4.37499L5.62499 13.3282L5.64061 13.3047Z" fill="currentColor"/>
</svg>
