<svg width="20" height="20" viewBox="0 0 20 20" fill="none" xmlns="http://www.w3.org/2000/svg">
<path d="M2.5 5C2.5 4.83424 2.56585 4.67527 2.68306 4.55806C2.80027 4.44085 2.95924 4.375 3.125 4.375H16.875C17.0408 4.375 17.1997 4.44085 17.3169 4.55806C17.4342 4.67527 17.5 4.83424 17.5 5C17.5 5.16576 17.4342 5.32473 17.3169 5.44194C17.1997 5.55915 17.0408 5.625 16.875 5.625H3.125C2.95924 5.625 2.80027 5.55915 2.68306 5.44194C2.56585 5.32473 2.5 5.16576 2.5 5ZM3.125 10.625H16.875C17.0408 10.625 17.1997 10.5592 17.3169 10.4419C17.4342 10.3247 17.5 10.1658 17.5 10C17.5 9.83424 17.4342 9.67527 17.3169 9.55806C17.1997 9.44085 17.0408 9.375 16.875 9.375H3.125C2.95924 9.375 2.80027 9.44085 2.68306 9.55806C2.56585 9.67527 2.5 9.83424 2.5 10C2.5 10.1658 2.56585 10.3247 2.68306 10.4419C2.80027 10.5592 2.95924 10.625 3.125 10.625ZM11.25 14.375H3.125C2.95924 14.375 2.80027 14.4408 2.68306 14.5581C2.56585 14.6753 2.5 14.8342 2.5 15C2.5 15.1658 2.56585 15.3247 2.68306 15.4419C2.80027 15.5592 2.95924 15.625 3.125 15.625H11.25C11.4158 15.625 11.5747 15.5592 11.6919 15.4419C11.8092 15.3247 11.875 15.1658 11.875 15C11.875 14.8342 11.8092 14.6753 11.6919 14.5581C11.5747 14.4408 11.4158 14.375 11.25 14.375ZM18.125 14.375H16.875V13.125C16.875 12.9592 16.8092 12.8003 16.6919 12.6831C16.5747 12.5658 16.4158 12.5 16.25 12.5C16.0842 12.5 15.9253 12.5658 15.8081 12.6831C15.6908 12.8003 15.625 12.9592 15.625 13.125V14.375H14.375C14.2092 14.375 14.0503 14.4408 13.9331 14.5581C13.8158 14.6753 13.75 14.8342 13.75 15C13.75 15.1658 13.8158 15.3247 13.9331 15.4419C14.0503 15.5592 14.2092 15.625 14.375 15.625H15.625V16.875C15.625 17.0408 15.6908 17.1997 15.8081 17.3169C15.9253 17.4342 16.0842 17.5 16.25 17.5C16.4158 17.5 16.5747 17.4342 16.6919 17.3169C16.8092 17.1997 16.875 17.0408 16.875 16.875V15.625H18.125C18.2908 15.625 18.4497 15.5592 18.5669 15.4419C18.6842 15.3247 18.75 15.1658 18.75 15C18.75 14.8342 18.6842 14.6753 18.5669 14.5581C18.4497 14.4408 18.2908 14.375 18.125 14.375Z" fill="currentColor"/>
</svg>
