<svg width="20" height="20" viewBox="0 0 20 20" fill="none" xmlns="http://www.w3.org/2000/svg">
<path d="M17.5 9.99998C17.5 10.1657 17.4341 10.3247 17.3169 10.4419C17.1997 10.5591 17.0407 10.625 16.875 10.625H9.99997C9.83421 10.625 9.67524 10.5591 9.55803 10.4419C9.44082 10.3247 9.37497 10.1657 9.37497 9.99998C9.37497 9.83422 9.44082 9.67525 9.55803 9.55804C9.67524 9.44083 9.83421 9.37498 9.99997 9.37498H16.875C17.0407 9.37498 17.1997 9.44083 17.3169 9.55804C17.4341 9.67525 17.5 9.83422 17.5 9.99998ZM9.99997 5.62498H16.875C17.0407 5.62498 17.1997 5.55913 17.3169 5.44192C17.4341 5.32471 17.5 5.16574 17.5 4.99998C17.5 4.83422 17.4341 4.67525 17.3169 4.55804C17.1997 4.44083 17.0407 4.37498 16.875 4.37498H9.99997C9.83421 4.37498 9.67524 4.44083 9.55803 4.55804C9.44082 4.67525 9.37497 4.83422 9.37497 4.99998C9.37497 5.16574 9.44082 5.32471 9.55803 5.44192C9.67524 5.55913 9.83421 5.62498 9.99997 5.62498ZM16.875 14.375H9.99997C9.83421 14.375 9.67524 14.4408 9.55803 14.558C9.44082 14.6752 9.37497 14.8342 9.37497 15C9.37497 15.1657 9.44082 15.3247 9.55803 15.4419C9.67524 15.5591 9.83421 15.625 9.99997 15.625H16.875C17.0407 15.625 17.1997 15.5591 17.3169 15.4419C17.4341 15.3247 17.5 15.1657 17.5 15C17.5 14.8342 17.4341 14.6752 17.3169 14.558C17.1997 14.4408 17.0407 14.375 16.875 14.375ZM6.7656 3.28904L4.47653 5.39842L3.54685 4.53904C3.42394 4.43135 3.26374 4.37607 3.10057 4.38506C2.9374 4.39405 2.78424 4.46659 2.67391 4.58714C2.56358 4.70769 2.50485 4.86666 2.5103 5.02998C2.51576 5.19331 2.58497 5.348 2.7031 5.46092L4.05466 6.71092C4.16985 6.8164 4.32035 6.87493 4.47653 6.87498C4.63513 6.87537 4.78824 6.81691 4.90622 6.71092L7.60935 4.21092C7.67193 4.15608 7.72294 4.08929 7.75937 4.01447C7.7958 3.93966 7.81693 3.85832 7.82151 3.77523C7.82609 3.69214 7.81403 3.60897 7.78603 3.53061C7.75804 3.45224 7.71468 3.38026 7.6585 3.31887C7.60232 3.25749 7.53444 3.20794 7.45885 3.17313C7.38327 3.13833 7.30149 3.11897 7.21832 3.11619C7.13515 3.11341 7.05227 3.12727 6.97452 3.15695C6.89678 3.18664 6.82575 3.23154 6.7656 3.28904ZM6.7656 8.28904L4.47653 10.3984L3.54685 9.53904C3.48669 9.48154 3.41566 9.43664 3.33792 9.40696C3.26018 9.37727 3.17729 9.36342 3.09412 9.36619C3.01095 9.36897 2.92918 9.38833 2.85359 9.42313C2.778 9.45794 2.71013 9.50749 2.65394 9.56887C2.59776 9.63026 2.5544 9.70224 2.52641 9.78061C2.49842 9.85897 2.48636 9.94214 2.49094 10.0252C2.49552 10.1083 2.51664 10.1897 2.55307 10.2645C2.5895 10.3393 2.64051 10.4061 2.7031 10.4609L4.05466 11.7109C4.16985 11.8164 4.32035 11.8749 4.47653 11.875C4.63513 11.8754 4.78824 11.8169 4.90622 11.7109L7.60935 9.21092C7.67193 9.15608 7.72294 9.08929 7.75937 9.01447C7.7958 8.93966 7.81693 8.85832 7.82151 8.77523C7.82609 8.69214 7.81403 8.60897 7.78603 8.53061C7.75804 8.45224 7.71468 8.38026 7.6585 8.31887C7.60232 8.25749 7.53444 8.20794 7.45885 8.17313C7.38327 8.13833 7.30149 8.11897 7.21832 8.11619C7.13515 8.11342 7.05227 8.12727 6.97452 8.15696C6.89678 8.18664 6.82575 8.23154 6.7656 8.28904ZM6.7656 13.289L4.47653 15.3984L3.54685 14.539C3.48669 14.4815 3.41566 14.4366 3.33792 14.407C3.26018 14.3773 3.17729 14.3634 3.09412 14.3662C3.01095 14.369 2.92918 14.3883 2.85359 14.4231C2.778 14.4579 2.71013 14.5075 2.65394 14.5689C2.59776 14.6303 2.5544 14.7022 2.52641 14.7806C2.49842 14.859 2.48636 14.9421 2.49094 15.0252C2.49552 15.1083 2.51664 15.1897 2.55307 15.2645C2.5895 15.3393 2.64051 15.4061 2.7031 15.4609L4.05466 16.7109C4.16985 16.8164 4.32035 16.8749 4.47653 16.875C4.63513 16.8754 4.78824 16.8169 4.90622 16.7109L7.60935 14.2109C7.72748 14.098 7.79669 13.9433 7.80214 13.78C7.8076 13.6167 7.74887 13.4577 7.63854 13.3371C7.5282 13.2166 7.37505 13.1441 7.21188 13.1351C7.04871 13.1261 6.88851 13.1813 6.7656 13.289Z" fill="currentColor"/>
</svg>
