<svg width="20" height="20" viewBox="0 0 20 20" fill="none" xmlns="http://www.w3.org/2000/svg">
  <path
    d="M5.9375 5C5.9375 4.75136 6.03627 4.5129 6.21209 4.33709C6.3879 4.16127 6.62636 4.0625 6.875 4.0625H16.875C17.1236 4.0625 17.3621 4.16127 17.5379 4.33709C17.7137 4.5129 17.8125 4.75136 17.8125 5C17.8125 5.24864 17.7137 5.4871 17.5379 5.66291C17.3621 5.83873 17.1236 5.9375 16.875 5.9375H6.875C6.62636 5.9375 6.3879 5.83873 6.21209 5.66291C6.03627 5.4871 5.9375 5.24864 5.9375 5ZM16.875 9.0625H6.875C6.62636 9.0625 6.3879 9.16127 6.21209 9.33709C6.03627 9.5129 5.9375 9.75136 5.9375 10C5.9375 10.2486 6.03627 10.4871 6.21209 10.6629C6.3879 10.8387 6.62636 10.9375 6.875 10.9375H16.875C17.1236 10.9375 17.3621 10.8387 17.5379 10.6629C17.7137 10.4871 17.8125 10.2486 17.8125 10C17.8125 9.75136 17.7137 9.5129 17.5379 9.33709C17.3621 9.16127 17.1236 9.0625 16.875 9.0625ZM16.875 14.0625H6.875C6.62636 14.0625 6.3879 14.1613 6.21209 14.3371C6.03627 14.5129 5.9375 14.7514 5.9375 15C5.9375 15.2486 6.03627 15.4871 6.21209 15.6629C6.3879 15.8387 6.62636 15.9375 6.875 15.9375H16.875C17.1236 15.9375 17.3621 15.8387 17.5379 15.6629C17.7137 15.4871 17.8125 15.2486 17.8125 15C17.8125 14.7514 17.7137 14.5129 17.5379 14.3371C17.3621 14.1613 17.1236 14.0625 16.875 14.0625ZM3.4375 8.75C3.19027 8.75 2.9486 8.82331 2.74304 8.96066C2.53748 9.09801 2.37726 9.29324 2.28265 9.52165C2.18804 9.75005 2.16329 10.0014 2.21152 10.2439C2.25975 10.4863 2.3788 10.7091 2.55362 10.8839C2.72843 11.0587 2.95116 11.1778 3.19364 11.226C3.43611 11.2742 3.68745 11.2495 3.91585 11.1548C4.14426 11.0602 4.33949 10.9 4.47684 10.6945C4.61419 10.4889 4.6875 10.2472 4.6875 10C4.6875 9.66848 4.5558 9.35054 4.32138 9.11612C4.08696 8.8817 3.76902 8.75 3.4375 8.75ZM3.4375 3.75C3.19027 3.75 2.9486 3.82331 2.74304 3.96066C2.53748 4.09801 2.37726 4.29324 2.28265 4.52165C2.18804 4.75005 2.16329 5.00139 2.21152 5.24386C2.25975 5.48634 2.3788 5.70907 2.55362 5.88388C2.72843 6.0587 2.95116 6.17775 3.19364 6.22598C3.43611 6.27421 3.68745 6.24946 3.91585 6.15485C4.14426 6.06024 4.33949 5.90002 4.47684 5.69446C4.61419 5.4889 4.6875 5.24723 4.6875 5C4.6875 4.66848 4.5558 4.35054 4.32138 4.11612C4.08696 3.8817 3.76902 3.75 3.4375 3.75ZM3.4375 13.75C3.19027 13.75 2.9486 13.8233 2.74304 13.9607C2.53748 14.098 2.37726 14.2932 2.28265 14.5216C2.18804 14.7501 2.16329 15.0014 2.21152 15.2439C2.25975 15.4863 2.3788 15.7091 2.55362 15.8839C2.72843 16.0587 2.95116 16.1778 3.19364 16.226C3.43611 16.2742 3.68745 16.2495 3.91585 16.1549C4.14426 16.0602 4.33949 15.9 4.47684 15.6945C4.61419 15.4889 4.6875 15.2472 4.6875 15C4.6875 14.6685 4.5558 14.3505 4.32138 14.1161C4.08696 13.8817 3.76902 13.75 3.4375 13.75Z"
    fill="currentColor" />
  <path opacity="0.2" d="M16.875 5V15H3.4375V5H16.875Z" fill="currentColor" />
</svg>
