<svg width="20" height="20" viewBox="0 0 20 20" fill="none" xmlns="http://www.w3.org/2000/svg">
<path d="M6.25 5C6.25 4.83424 6.31585 4.67527 6.43306 4.55806C6.55027 4.44085 6.70924 4.375 6.875 4.375H16.875C17.0408 4.375 17.1997 4.44085 17.3169 4.55806C17.4342 4.67527 17.5 4.83424 17.5 5C17.5 5.16576 17.4342 5.32473 17.3169 5.44194C17.1997 5.55915 17.0408 5.625 16.875 5.625H6.875C6.70924 5.625 6.55027 5.55915 6.43306 5.44194C6.31585 5.32473 6.25 5.16576 6.25 5ZM16.875 9.375H6.875C6.70924 9.375 6.55027 9.44085 6.43306 9.55806C6.31585 9.67527 6.25 9.83424 6.25 10C6.25 10.1658 6.31585 10.3247 6.43306 10.4419C6.55027 10.5592 6.70924 10.625 6.875 10.625H16.875C17.0408 10.625 17.1997 10.5592 17.3169 10.4419C17.4342 10.3247 17.5 10.1658 17.5 10C17.5 9.83424 17.4342 9.67527 17.3169 9.55806C17.1997 9.44085 17.0408 9.375 16.875 9.375ZM16.875 14.375H6.875C6.70924 14.375 6.55027 14.4408 6.43306 14.5581C6.31585 14.6753 6.25 14.8342 6.25 15C6.25 15.1658 6.31585 15.3247 6.43306 15.4419C6.55027 15.5592 6.70924 15.625 6.875 15.625H16.875C17.0408 15.625 17.1997 15.5592 17.3169 15.4419C17.4342 15.3247 17.5 15.1658 17.5 15C17.5 14.8342 17.4342 14.6753 17.3169 14.5581C17.1997 14.4408 17.0408 14.375 16.875 14.375ZM3.4375 9.0625C3.25208 9.0625 3.07082 9.11748 2.91665 9.2205C2.76248 9.32351 2.64232 9.46993 2.57136 9.64123C2.50041 9.81254 2.48184 10.001 2.51801 10.1829C2.55419 10.3648 2.64348 10.5318 2.77459 10.6629C2.9057 10.794 3.07275 10.8833 3.2546 10.9195C3.43646 10.9557 3.62496 10.9371 3.79627 10.8661C3.96757 10.7952 4.11399 10.675 4.217 10.5208C4.32002 10.3667 4.375 10.1854 4.375 10C4.375 9.75136 4.27623 9.5129 4.10041 9.33709C3.9246 9.16127 3.68614 9.0625 3.4375 9.0625ZM3.4375 4.0625C3.25208 4.0625 3.07082 4.11748 2.91665 4.2205C2.76248 4.32351 2.64232 4.46993 2.57136 4.64123C2.50041 4.81254 2.48184 5.00104 2.51801 5.1829C2.55419 5.36475 2.64348 5.5318 2.77459 5.66291C2.9057 5.79402 3.07275 5.88331 3.2546 5.91949C3.43646 5.95566 3.62496 5.93709 3.79627 5.86614C3.96757 5.79518 4.11399 5.67502 4.217 5.52085C4.32002 5.36668 4.375 5.18542 4.375 5C4.375 4.75136 4.27623 4.5129 4.10041 4.33709C3.9246 4.16127 3.68614 4.0625 3.4375 4.0625ZM3.4375 14.0625C3.25208 14.0625 3.07082 14.1175 2.91665 14.2205C2.76248 14.3235 2.64232 14.4699 2.57136 14.6412C2.50041 14.8125 2.48184 15.001 2.51801 15.1829C2.55419 15.3648 2.64348 15.5318 2.77459 15.6629C2.9057 15.794 3.07275 15.8833 3.2546 15.9195C3.43646 15.9557 3.62496 15.9371 3.79627 15.8661C3.96757 15.7952 4.11399 15.675 4.217 15.5208C4.32002 15.3667 4.375 15.1854 4.375 15C4.375 14.7514 4.27623 14.5129 4.10041 14.3371C3.9246 14.1613 3.68614 14.0625 3.4375 14.0625Z" fill="currentColor"/>
</svg>
