<svg width="20" height="20" viewBox="0 0 20 20" fill="none" xmlns="http://www.w3.org/2000/svg">
<path d="M16.25 6.25H13.4375V4.0625C13.4375 3.15082 13.0753 2.27648 12.4307 1.63182C11.786 0.987164 10.9117 0.625 10 0.625C9.08832 0.625 8.21398 0.987164 7.56932 1.63182C6.92466 2.27648 6.5625 3.15082 6.5625 4.0625V6.25H3.75C3.41848 6.25 3.10054 6.3817 2.86612 6.61612C2.6317 6.85054 2.5 7.16848 2.5 7.5V16.25C2.5 16.5815 2.6317 16.8995 2.86612 17.1339C3.10054 17.3683 3.41848 17.5 3.75 17.5H16.25C16.5815 17.5 16.8995 17.3683 17.1339 17.1339C17.3683 16.8995 17.5 16.5815 17.5 16.25V7.5C17.5 7.16848 17.3683 6.85054 17.1339 6.61612C16.8995 6.3817 16.5815 6.25 16.25 6.25ZM7.8125 4.0625C7.8125 3.48234 8.04297 2.92594 8.4532 2.5157C8.86344 2.10547 9.41984 1.875 10 1.875C10.5802 1.875 11.1366 2.10547 11.5468 2.5157C11.957 2.92594 12.1875 3.48234 12.1875 4.0625V6.25H7.8125V4.0625Z" fill="currentColor"/>
</svg>
