<svg width="20" height="20" viewBox="0 0 20 20" fill="none" xmlns="http://www.w3.org/2000/svg">
<g clip-path="url(#clip0_2247_14426)">
<path fill-rule="evenodd" clip-rule="evenodd" d="M6.97632 13.6285L5.04943 1L4.45654 1.11857L6.38341 13.6877L6.97632 13.6285ZM3.77465 1.91895L5.6126 13.836L5.01971 13.9249L3.18176 2.03753L3.77465 1.91895ZM4.81225 13.9546L3.12252 2.86761L2.5 2.95654L4.21937 14.0435L4.81225 13.9546ZM16.9368 12.8874L17.174 14.251L11.0376 15.1996L10.8597 13.836L16.9368 12.8874ZM6.05747 16.7707L6.26497 18.164L4.90134 18.3715L4.66418 16.9782L6.05747 16.7707ZM8.87352 15.5553L10.2668 15.3182L10.0593 13.9545L8.66602 14.162L8.87352 15.5553ZM8.22144 16.4446L8.4586 17.8083L7.03566 18.0454L6.85779 16.6521L8.22144 16.4446ZM4.33789 14.8143L4.5454 16.2076L5.93869 16L5.73119 14.6068L4.33789 14.8143ZM11.3934 17.3933L11.1562 15.9704L17.2926 15.0514L17.5001 16.4447L11.3934 17.3933ZM9.2291 17.6897L10.5927 17.5118L10.3852 16.0889L8.99194 16.326L9.2291 17.6897ZM6.73896 15.8814L6.50183 14.4882L7.89508 14.2806L8.10261 15.674L6.73896 15.8814ZM5.99794 2.00781L7.7766 13.5098L7.21335 13.5691L5.43469 2.09674L5.99794 2.00781ZM9.14035 13.2727L7.56922 3.07507L6.97632 3.164L8.54747 13.3913L9.14035 13.2727ZM8.3104 2.57123L9.94084 13.1542L9.37762 13.2432L7.71753 2.66016L8.3104 2.57123Z" fill="currentColor"/>
</g>
<defs>
<clipPath id="clip0_2247_14426">
<rect width="15" height="17.5" fill="white" transform="translate(2.5 1)"/>
</clipPath>
</defs>
</svg>
