<svg width="20" height="20" viewBox="0 0 20 20" fill="none" xmlns="http://www.w3.org/2000/svg">
<path d="M15.625 3.125H12.5C12.1685 3.125 11.8505 3.2567 11.6161 3.49112C11.3817 3.72554 11.25 4.04348 11.25 4.375V11.25C11.25 11.5815 11.1183 11.8995 10.8839 12.1339C10.6495 12.3683 10.3315 12.5 10 12.5C9.66848 12.5 9.35054 12.3683 9.11612 12.1339C8.8817 11.8995 8.75 11.5815 8.75 11.25V4.375C8.75 4.04348 8.61831 3.72554 8.38389 3.49112C8.14947 3.2567 7.83153 3.125 7.5 3.125H4.375C4.04348 3.125 3.72554 3.2567 3.49112 3.49112C3.2567 3.72554 3.125 4.04348 3.125 4.375V11.25C3.12398 12.1531 3.3011 13.0476 3.64624 13.8822C3.99138 14.7167 4.49774 15.475 5.13635 16.1137C5.77496 16.7523 6.53326 17.2586 7.36784 17.6038C8.20242 17.9489 9.09688 18.126 10 18.125H10.0547C13.8125 18.0938 16.875 14.9766 16.875 11.1719V4.375C16.875 4.04348 16.7433 3.72554 16.5089 3.49112C16.2745 3.2567 15.9565 3.125 15.625 3.125ZM15.625 4.375V7.5H12.5V4.375H15.625ZM7.5 4.375V7.5H4.375V4.375H7.5Z" fill="currentColor"/>
</svg>
