<svg width="20" height="20" viewBox="0 0 20 20" fill="none" xmlns="http://www.w3.org/2000/svg">
<path d="M16.1719 3.92193C15.5354 3.27485 14.7767 2.76068 13.9398 2.4093C13.1029 2.05792 12.2046 1.87632 11.2969 1.87505H11.2735C10.3691 1.87154 9.47303 2.04793 8.63744 2.39397C7.80185 2.74001 7.04343 3.24878 6.40631 3.89068L3.7735 6.55474L1.24225 9.11724C1.01141 9.35359 0.882828 9.67128 0.88429 10.0017C0.885752 10.332 1.01714 10.6486 1.25006 10.8829L3.48443 13.1172C3.59923 13.2348 3.73662 13.3279 3.88833 13.391C4.04004 13.4541 4.20294 13.4859 4.36725 13.4844H4.37506C4.5411 13.485 4.70556 13.4521 4.85859 13.3877C5.01163 13.3233 5.15008 13.2286 5.26568 13.1094L7.76568 10.5469L10.3907 7.86724C10.6233 7.63794 10.9359 7.5081 11.2625 7.50518C11.5891 7.50226 11.904 7.6265 12.1407 7.85161C12.2569 7.96577 12.3493 8.10193 12.4123 8.25217C12.4754 8.4024 12.5078 8.56369 12.5079 8.72661C12.5091 9.07741 12.3715 9.41443 12.1251 9.66411L9.461 12.2422L6.8985 14.7344C6.77841 14.8491 6.68254 14.9868 6.61657 15.1392C6.55059 15.2916 6.51585 15.4557 6.5144 15.6218C6.51294 15.7878 6.5448 15.9525 6.60809 16.106C6.67138 16.2596 6.76481 16.3989 6.88287 16.5157L9.11725 18.7579C9.35347 18.9871 9.6693 19.116 9.99849 19.1175C10.3277 19.1189 10.6446 18.9928 10.8829 18.7657L13.4532 16.2344L16.0782 13.6641C18.7657 10.9766 18.8126 6.60943 16.1719 3.92193ZM4.36725 12.2344L2.13287 10.0001L4.21881 7.88286L6.44537 10.1094L4.36725 12.2344ZM10.0079 17.8672L7.76568 15.6329L9.8985 13.5626L12.1251 15.7891L10.0079 17.8672Z" fill="currentColor"/>
</svg>
