<svg width="20" height="20" viewBox="0 0 20 20" fill="none" xmlns="http://www.w3.org/2000/svg">
<path d="M17.9375 17.0547L14.5625 13.6797C15.7564 12.2583 16.3555 10.4308 16.2348 8.57844C16.114 6.72607 15.2828 4.99182 13.9146 3.73738C12.5463 2.48294 10.7465 1.80518 8.89063 1.84545C7.03477 1.88571 5.2661 2.6409 3.9535 3.9535C2.6409 5.2661 1.88571 7.03477 1.84545 8.89063C1.80518 10.7465 2.48294 12.5463 3.73738 13.9146C4.99182 15.2828 6.72607 16.114 8.57844 16.2348C10.4308 16.3555 12.2583 15.7564 13.6797 14.5625L17.0547 17.9453C17.1747 18.06 17.334 18.1243 17.5 18.125C17.6239 18.1248 17.745 18.0877 17.8478 18.0186C17.9507 17.9494 18.0306 17.8512 18.0775 17.7365C18.1244 17.6218 18.1361 17.4957 18.1112 17.3743C18.0863 17.2529 18.0258 17.1416 17.9375 17.0547ZM11.5625 9.6875H6.5625C6.39674 9.6875 6.23777 9.62165 6.12056 9.50444C6.00335 9.38723 5.9375 9.22826 5.9375 9.0625C5.9375 8.89674 6.00335 8.73777 6.12056 8.62056C6.23777 8.50335 6.39674 8.4375 6.5625 8.4375H11.5625C11.7283 8.4375 11.8872 8.50335 12.0044 8.62056C12.1217 8.73777 12.1875 8.89674 12.1875 9.0625C12.1875 9.22826 12.1217 9.38723 12.0044 9.50444C11.8872 9.62165 11.7283 9.6875 11.5625 9.6875Z" fill="currentColor"/>
</svg>
