<svg width="20" height="20" viewBox="0 0 20 20" fill="none" xmlns="http://www.w3.org/2000/svg">
<path d="M10 1.25C8.17727 1.25207 6.42979 1.97706 5.14092 3.26592C3.85206 4.55479 3.12707 6.30227 3.125 8.125C3.125 14.0078 9.375 18.4531 9.64062 18.6406C9.74708 18.7115 9.87211 18.7493 10 18.7493C10.1279 18.7493 10.2529 18.7115 10.3594 18.6406C10.625 18.4531 16.875 14.0078 16.875 8.125C16.8729 6.30227 16.1479 4.55479 14.8591 3.26592C13.5702 1.97706 11.8227 1.25207 10 1.25ZM10 5.625C10.4945 5.625 10.9778 5.77162 11.3889 6.04633C11.8 6.32103 12.1205 6.71148 12.3097 7.16829C12.4989 7.62511 12.5484 8.12777 12.452 8.61273C12.3555 9.09768 12.1174 9.54314 11.7678 9.89277C11.4181 10.2424 10.9727 10.4805 10.4877 10.577C10.0028 10.6734 9.50011 10.6239 9.04329 10.4347C8.58648 10.2455 8.19603 9.92505 7.92133 9.51393C7.64662 9.1028 7.5 8.61945 7.5 8.125C7.5 7.46196 7.76339 6.82607 8.23223 6.35723C8.70107 5.88839 9.33696 5.625 10 5.625Z" fill="currentColor"/>
</svg>
