<svg width="20" height="20" viewBox="0 0 20 20" fill="none" xmlns="http://www.w3.org/2000/svg">
<path d="M15.625 2.5H14.375V1.875C14.375 1.70924 14.3092 1.55027 14.1919 1.43306C14.0747 1.31585 13.9158 1.25 13.75 1.25C13.5842 1.25 13.4253 1.31585 13.3081 1.43306C13.1908 1.55027 13.125 1.70924 13.125 1.875V2.5H10.625V1.875C10.625 1.70924 10.5592 1.55027 10.4419 1.43306C10.3247 1.31585 10.1658 1.25 10 1.25C9.83424 1.25 9.67527 1.31585 9.55806 1.43306C9.44085 1.55027 9.375 1.70924 9.375 1.875V2.5H6.875V1.875C6.875 1.70924 6.80915 1.55027 6.69194 1.43306C6.57473 1.31585 6.41576 1.25 6.25 1.25C6.08424 1.25 5.92527 1.31585 5.80806 1.43306C5.69085 1.55027 5.625 1.70924 5.625 1.875V2.5H4.375C4.04348 2.5 3.72554 2.6317 3.49112 2.86612C3.2567 3.10054 3.125 3.41848 3.125 3.75V15.625C3.125 16.288 3.38839 16.9239 3.85723 17.3928C4.32607 17.8616 4.96196 18.125 5.625 18.125H14.375C15.038 18.125 15.6739 17.8616 16.1428 17.3928C16.6116 16.9239 16.875 16.288 16.875 15.625V3.75C16.875 3.41848 16.7433 3.10054 16.5089 2.86612C16.2745 2.6317 15.9565 2.5 15.625 2.5ZM12.5 13.125H7.5C7.33424 13.125 7.17527 13.0592 7.05806 12.9419C6.94085 12.8247 6.875 12.6658 6.875 12.5C6.875 12.3342 6.94085 12.1753 7.05806 12.0581C7.17527 11.9408 7.33424 11.875 7.5 11.875H12.5C12.6658 11.875 12.8247 11.9408 12.9419 12.0581C13.0592 12.1753 13.125 12.3342 13.125 12.5C13.125 12.6658 13.0592 12.8247 12.9419 12.9419C12.8247 13.0592 12.6658 13.125 12.5 13.125ZM12.5 10.625H7.5C7.33424 10.625 7.17527 10.5592 7.05806 10.4419C6.94085 10.3247 6.875 10.1658 6.875 10C6.875 9.83424 6.94085 9.67527 7.05806 9.55806C7.17527 9.44085 7.33424 9.375 7.5 9.375H12.5C12.6658 9.375 12.8247 9.44085 12.9419 9.55806C13.0592 9.67527 13.125 9.83424 13.125 10C13.125 10.1658 13.0592 10.3247 12.9419 10.4419C12.8247 10.5592 12.6658 10.625 12.5 10.625Z" fill="currentColor"/>
</svg>
