<svg width="20" height="20" viewBox="0 0 20 20" fill="none" xmlns="http://www.w3.org/2000/svg">
<path d="M16.25 2.5H3.75C3.41848 2.5 3.10054 2.6317 2.86612 2.86612C2.6317 3.10054 2.5 3.41848 2.5 3.75V16.25C2.5 16.5815 2.6317 16.8995 2.86612 17.1339C3.10054 17.3683 3.41848 17.5 3.75 17.5H12.2422C12.4063 17.5001 12.5688 17.4678 12.7203 17.4047C12.8719 17.3417 13.0094 17.2493 13.125 17.1328L17.1328 13.125C17.2493 13.0094 17.3417 12.8719 17.4047 12.7203C17.4678 12.5688 17.5001 12.4063 17.5 12.2422V3.75C17.5 3.41848 17.3683 3.10054 17.1339 2.86612C16.8995 2.6317 16.5815 2.5 16.25 2.5ZM12.5 15.9922V12.5H15.9922L12.5 15.9922Z" fill="currentColor"/>
</svg>
