<svg width="20" height="20" viewBox="0 0 20 20" fill="none" xmlns="http://www.w3.org/2000/svg">
<path d="M16.25 2.5H3.75C3.41848 2.5 3.10054 2.6317 2.86612 2.86612C2.6317 3.10054 2.5 3.41848 2.5 3.75V16.25C2.5 16.5815 2.6317 16.8995 2.86612 17.1339C3.10054 17.3683 3.41848 17.5 3.75 17.5H12.2422C12.4063 17.5001 12.5688 17.4678 12.7203 17.4047C12.8719 17.3417 13.0094 17.2493 13.125 17.1328L17.1328 13.125C17.2493 13.0094 17.3417 12.8719 17.4047 12.7203C17.4678 12.5688 17.5001 12.4063 17.5 12.2422V3.75C17.5 3.41848 17.3683 3.10054 17.1339 2.86612C16.8995 2.6317 16.5815 2.5 16.25 2.5ZM7.5 6.875H12.5C12.6658 6.875 12.8247 6.94085 12.9419 7.05806C13.0592 7.17527 13.125 7.33424 13.125 7.5C13.125 7.66576 13.0592 7.82473 12.9419 7.94194C12.8247 8.05915 12.6658 8.125 12.5 8.125H7.5C7.33424 8.125 7.17527 8.05915 7.05806 7.94194C6.94085 7.82473 6.875 7.66576 6.875 7.5C6.875 7.33424 6.94085 7.17527 7.05806 7.05806C7.17527 6.94085 7.33424 6.875 7.5 6.875ZM10 13.125H7.5C7.33424 13.125 7.17527 13.0592 7.05806 12.9419C6.94085 12.8247 6.875 12.6658 6.875 12.5C6.875 12.3342 6.94085 12.1753 7.05806 12.0581C7.17527 11.9408 7.33424 11.875 7.5 11.875H10C10.1658 11.875 10.3247 11.9408 10.4419 12.0581C10.5592 12.1753 10.625 12.3342 10.625 12.5C10.625 12.6658 10.5592 12.8247 10.4419 12.9419C10.3247 13.0592 10.1658 13.125 10 13.125ZM7.5 10.625C7.33424 10.625 7.17527 10.5592 7.05806 10.4419C6.94085 10.3247 6.875 10.1658 6.875 10C6.875 9.83424 6.94085 9.67527 7.05806 9.55806C7.17527 9.44085 7.33424 9.375 7.5 9.375H12.5C12.6658 9.375 12.8247 9.44085 12.9419 9.55806C13.0592 9.67527 13.125 9.83424 13.125 10C13.125 10.1658 13.0592 10.3247 12.9419 10.4419C12.8247 10.5592 12.6658 10.625 12.5 10.625H7.5ZM12.5 15.9922V12.5H15.9922L12.5 15.9922Z" fill="currentColor"/>
</svg>
