<svg width="20" height="20" viewBox="0 0 20 20" fill="none" xmlns="http://www.w3.org/2000/svg">
<path d="M17.5 9.37498V16.25C17.5 16.5815 17.3683 16.8994 17.1339 17.1339C16.8995 17.3683 16.5815 17.5 16.25 17.5H3.75C3.41848 17.5 3.10054 17.3683 2.86612 17.1339C2.6317 16.8994 2.5 16.5815 2.5 16.25V3.74998C2.5 3.41846 2.6317 3.10051 2.86612 2.86609C3.10054 2.63167 3.41848 2.49998 3.75 2.49998H10.625C10.7908 2.49998 10.9497 2.56582 11.0669 2.68303C11.1842 2.80024 11.25 2.95922 11.25 3.12498C11.25 3.29074 11.1842 3.44971 11.0669 3.56692C10.9497 3.68413 10.7908 3.74998 10.625 3.74998H3.75V16.25H16.25V9.37498C16.25 9.20922 16.3158 9.05024 16.4331 8.93303C16.5503 8.81582 16.7092 8.74998 16.875 8.74998C17.0408 8.74998 17.1997 8.81582 17.3169 8.93303C17.4342 9.05024 17.5 9.20922 17.5 9.37498ZM17.9453 5.44529L10.4453 12.9453C10.3262 13.0614 10.1663 13.1259 10 13.125H7.5C7.33424 13.125 7.17527 13.0591 7.05806 12.9419C6.94085 12.8247 6.875 12.6657 6.875 12.5V9.99998C6.87406 9.83369 6.93861 9.67373 7.05469 9.55466L14.5547 2.05466C14.6732 1.9373 14.8332 1.87146 15 1.87146C15.1668 1.87146 15.3268 1.9373 15.4453 2.05466L17.9453 4.55466C18.0627 4.67316 18.1285 4.8332 18.1285 4.99998C18.1285 5.16676 18.0627 5.32679 17.9453 5.44529ZM16.6172 4.99998L15 3.38279L14.0078 4.37498L15.625 5.99216L16.6172 4.99998Z" fill="currentColor"/>
</svg>
