<svg width="20" height="20" viewBox="0 0 20 20" fill="none" xmlns="http://www.w3.org/2000/svg">
  <circle cx="10" cy="10" r="10" fill="#06AC38" />
  <path d="M7.7589 12.8018H6V15.9997H7.7589V12.8018Z" fill="white" />
  <path
    d="M12.6244 4.5863C11.6802 4.08376 11.0254 4 9.47972 4H6V11.2792H7.75889H7.98732H9.46449C10.8427 11.2792 11.8706 11.1955 12.7767 10.594C13.7665 9.93913 14.2767 8.85029 14.2767 7.59393C14.2767 6.23098 13.6447 5.14214 12.6244 4.5863ZM9.86804 9.75638H7.75889V5.56092L9.74622 5.5457C11.5584 5.52285 12.4645 6.16245 12.4645 7.60916C12.4645 9.16247 11.3452 9.75638 9.86804 9.75638Z"
    fill="white" />
</svg>
