<svg width="20" height="20" viewBox="0 0 20 20" fill="none" xmlns="http://www.w3.org/2000/svg">
<path d="M16.3828 9.55464C16.4991 9.67416 16.5636 9.83477 16.5621 10.0016C16.5606 10.1683 16.4934 10.3278 16.375 10.4453L9.96873 16.8437C9.14822 17.6642 8.03536 18.1252 6.87498 18.1252C5.7146 18.1252 4.60174 17.6642 3.78123 16.8437C2.96072 16.0232 2.49976 14.9103 2.49976 13.7499C2.49976 12.5896 2.96072 11.4767 3.78123 10.6562L11.539 2.79682C11.8261 2.49418 12.1708 2.25206 12.5529 2.08473C12.9349 1.91741 13.3467 1.82826 13.7637 1.82256C14.1808 1.81685 14.5948 1.8947 14.9813 2.05151C15.3678 2.20832 15.719 2.44092 16.0142 2.7356C16.3094 3.03028 16.5426 3.38108 16.7001 3.76732C16.8576 4.15355 16.9362 4.5674 16.9312 4.98449C16.9263 5.40157 16.8379 5.81343 16.6712 6.19581C16.5046 6.57818 16.2631 6.92332 15.9609 7.21089L8.2031 15.0703C8.0297 15.2463 7.82293 15.3861 7.59489 15.4813C7.36685 15.5766 7.12211 15.6254 6.87498 15.6249C6.50347 15.6259 6.14006 15.5164 5.83087 15.3104C5.52168 15.1045 5.28065 14.8113 5.13835 14.4681C4.99606 14.1249 4.95892 13.7472 5.03165 13.3829C5.10438 13.0186 5.2837 12.6841 5.54685 12.4218L12.0547 5.81245C12.111 5.74928 12.1795 5.69821 12.2562 5.66233C12.3328 5.62645 12.4159 5.6065 12.5005 5.60371C12.5851 5.60091 12.6694 5.61532 12.7482 5.64605C12.8271 5.67679 12.8988 5.72322 12.9592 5.78253C13.0196 5.84184 13.0673 5.91278 13.0994 5.99107C13.1315 6.06936 13.1474 6.15335 13.1461 6.23797C13.1448 6.32258 13.1263 6.40605 13.0918 6.48331C13.0573 6.56058 13.0075 6.63003 12.9453 6.68745L6.43748 13.3046C6.37824 13.3627 6.33115 13.432 6.29896 13.5084C6.26676 13.5849 6.25012 13.667 6.24998 13.7499C6.25227 13.8729 6.29034 13.9925 6.35954 14.0942C6.42873 14.1959 6.52605 14.2752 6.6396 14.3224C6.75314 14.3697 6.87799 14.3828 6.99888 14.3602C7.11977 14.3376 7.23146 14.2803 7.32029 14.1953L15.0703 6.32807C15.2464 6.15467 15.3861 5.9479 15.4814 5.71986C15.5766 5.49182 15.6254 5.24708 15.625 4.99995C15.6259 4.62844 15.5164 4.26503 15.3105 3.95584C15.1045 3.64665 14.8113 3.40562 14.4681 3.26332C14.125 3.12103 13.7472 3.08389 13.3829 3.15662C13.0186 3.22935 12.6841 3.40867 12.4219 3.67182L4.67185 11.539C4.36921 11.826 4.12709 12.1708 3.95976 12.5528C3.79244 12.9349 3.70329 13.3466 3.69759 13.7637C3.69188 14.1808 3.76973 14.5948 3.92654 14.9813C4.08335 15.3678 4.31595 15.719 4.61063 16.0142C4.90532 16.3094 5.25611 16.5426 5.64235 16.7001C6.02858 16.8576 6.44244 16.9362 6.85952 16.9312C7.2766 16.9262 7.68846 16.8378 8.07084 16.6712C8.45321 16.5045 8.79835 16.263 9.08592 15.9609L15.4922 9.55464C15.6107 9.43727 15.7707 9.37143 15.9375 9.37143C16.1043 9.37143 16.2643 9.43727 16.3828 9.55464Z" fill="currentColor"/>
</svg>
