<svg width="20" height="20" viewBox="0 0 20 20" fill="none" xmlns="http://www.w3.org/2000/svg">
<path d="M17.7892 3.7734L13.6954 18.2968C13.6271 18.5428 13.4848 18.7617 13.2877 18.9238C13.0906 19.086 12.8483 19.1835 12.5938 19.2031H12.4845C12.249 19.2026 12.0185 19.1355 11.8195 19.0098C11.6205 18.884 11.461 18.7046 11.3595 18.4921L8.5704 12.6015C8.54302 12.5424 8.53433 12.4763 8.5455 12.4121C8.55666 12.3479 8.58716 12.2886 8.6329 12.2421L12.6407 8.23433C12.7035 8.17748 12.754 8.10848 12.7893 8.03151C12.8245 7.95454 12.8438 7.8712 12.8459 7.78656C12.8479 7.70192 12.8328 7.61774 12.8014 7.53913C12.7699 7.46051 12.7229 7.3891 12.663 7.32924C12.6031 7.26937 12.5317 7.22229 12.4531 7.19085C12.3745 7.15942 12.2903 7.14428 12.2057 7.14637C12.121 7.14845 12.0377 7.16771 11.9607 7.20298C11.8838 7.23824 11.8147 7.28878 11.7579 7.35152L7.75009 11.3671C7.70366 11.4129 7.64438 11.4434 7.58017 11.4545C7.51595 11.4657 7.44986 11.457 7.39071 11.4296L1.53134 8.65621C1.30201 8.54789 1.10947 8.37471 0.977554 8.15809C0.845638 7.94147 0.780135 7.69092 0.78915 7.43746C0.802978 7.17649 0.898762 6.92652 1.06287 6.72314C1.22698 6.51976 1.45106 6.37331 1.70321 6.30465L16.2579 2.20308C16.5125 2.13038 16.7835 2.14039 17.0321 2.23165C17.2806 2.32291 17.4937 2.49072 17.6407 2.7109C17.7394 2.86736 17.8036 3.043 17.8292 3.22618C17.8548 3.40936 17.8411 3.59589 17.7892 3.7734Z" fill="currentColor"/>
</svg>
