<svg width="20" height="20" viewBox="0 0 20 20" fill="none" xmlns="http://www.w3.org/2000/svg">
<path d="M17.5 5.99215L14.0391 2.5234C13.806 2.28444 13.4898 2.14453 13.1562 2.13278C12.987 2.12888 12.8187 2.15942 12.6615 2.22254C12.5044 2.28565 12.3617 2.38004 12.2422 2.49997L10.1797 4.55465L2.86719 11.875C2.7507 11.9906 2.65828 12.1281 2.59525 12.2796C2.53223 12.4312 2.49985 12.5937 2.5 12.7578V16.25C2.5 16.5815 2.6317 16.8994 2.86612 17.1338C3.10054 17.3683 3.41848 17.5 3.75 17.5H7.24219C7.57332 17.4985 7.89054 17.3666 8.125 17.1328L17.5 7.75778C17.7319 7.52245 17.8619 7.20534 17.8619 6.87497C17.8619 6.54459 17.7319 6.22748 17.5 5.99215ZM15 8.49215L11.5078 4.99997L13.125 3.38278L16.6172 6.87497L15 8.49215Z" fill="currentColor"/>
</svg>
