<svg width="20" height="20" viewBox="0 0 20 20" fill="none" xmlns="http://www.w3.org/2000/svg">
<path d="M17.3438 12.3749L13.6797 10.8124C13.4906 10.7277 13.2831 10.6926 13.0767 10.7103C12.8703 10.7281 12.6718 10.7982 12.5 10.914L10.5391 12.2187C9.34394 11.6382 8.37631 10.6761 7.78906 9.48432L9.08594 7.49994C9.20097 7.32797 9.27123 7.12999 9.29033 6.92398C9.30943 6.71797 9.27677 6.51045 9.19531 6.32026L7.625 2.6562C7.51542 2.40878 7.32989 2.20271 7.09529 2.06785C6.8607 1.933 6.58925 1.87638 6.32031 1.9062C5.26531 2.0444 4.29638 2.56102 3.59369 3.35999C2.891 4.15896 2.50235 5.18593 2.5 6.24995C2.5 12.4531 7.54688 17.4999 13.75 17.4999C14.814 17.4976 15.841 17.1089 16.64 16.4063C17.4389 15.7036 17.9555 14.7346 18.0938 13.6796C18.1236 13.4107 18.0669 13.1392 17.9321 12.9046C17.7972 12.6701 17.5912 12.4845 17.3438 12.3749Z" fill="currentColor"/>
</svg>
