<svg width="20" height="20" viewBox="0 0 20 20" fill="none" xmlns="http://www.w3.org/2000/svg">
<path d="M18.5704 2.32029L16.5079 4.37498L16.9298 4.79685C17.1622 5.0284 17.3467 5.30356 17.4725 5.60655C17.5983 5.90954 17.6631 6.23439 17.6631 6.56248C17.6631 6.89056 17.5983 7.21542 17.4725 7.51841C17.3467 7.8214 17.1622 8.09656 16.9298 8.3281L14.9454 10.3125L15.1329 10.4922C15.2503 10.6107 15.3161 10.7707 15.3161 10.9375C15.3161 11.1043 15.2503 11.2643 15.1329 11.3828C15.0134 11.4983 14.8538 11.5629 14.6876 11.5629C14.5214 11.5629 14.3617 11.4983 14.2423 11.3828L13.6173 10.7578L9.24229 6.38279L8.61729 5.75779C8.51762 5.63635 8.46669 5.48219 8.47439 5.32528C8.4821 5.16837 8.5479 5.01994 8.65898 4.90886C8.77006 4.79777 8.9185 4.73198 9.0754 4.72427C9.23231 4.71657 9.38647 4.7675 9.50791 4.86716L9.6876 5.05466L11.672 3.07029C11.9035 2.83785 12.1787 2.65342 12.4817 2.52758C12.7847 2.40174 13.1095 2.33696 13.4376 2.33696C13.7657 2.33696 14.0905 2.40174 14.3935 2.52758C14.6965 2.65342 14.9717 2.83785 15.2032 3.07029L15.6251 3.49216L17.6798 1.42966C17.8012 1.33 17.9554 1.27907 18.1123 1.28677C18.2692 1.29448 18.4176 1.36027 18.5287 1.47136C18.6398 1.58244 18.7056 1.73087 18.7133 1.88778C18.721 2.04469 18.6701 2.19885 18.5704 2.32029ZM10.8048 10.8047L9.3751 12.2422L7.75791 10.625L9.19541 9.19529C9.29507 9.07385 9.34601 8.91969 9.3383 8.76278C9.3306 8.60587 9.2648 8.45744 9.15372 8.34636C9.04263 8.23527 8.8942 8.16948 8.73729 8.16177C8.58038 8.15407 8.42622 8.205 8.30479 8.30466L6.8751 9.74216L6.38291 9.24216L5.75791 8.61716C5.63648 8.5175 5.48231 8.46657 5.3254 8.47427C5.1685 8.48198 5.02006 8.54777 4.90898 8.65886C4.79789 8.76994 4.7321 8.91837 4.72439 9.07528C4.71669 9.23219 4.76762 9.38635 4.86729 9.50779L5.05479 9.68748L3.07041 11.6719C2.83797 11.9034 2.65354 12.1786 2.5277 12.4815C2.40186 12.7845 2.33708 13.1094 2.33708 13.4375C2.33708 13.7656 2.40186 14.0904 2.5277 14.3934C2.65354 14.6964 2.83797 14.9716 3.07041 15.2031L3.49229 15.625L1.42979 17.6797C1.31242 17.7982 1.24658 17.9582 1.24658 18.125C1.24658 18.2918 1.31242 18.4518 1.42979 18.5703C1.54925 18.6858 1.70892 18.7504 1.8751 18.7504C2.04127 18.7504 2.20095 18.6858 2.32041 18.5703L4.3751 16.5078L4.79697 16.9297C5.02852 17.1621 5.30368 17.3465 5.60667 17.4724C5.90966 17.5982 6.23451 17.663 6.5626 17.663C6.89068 17.663 7.21554 17.5982 7.51853 17.4724C7.82152 17.3465 8.09668 17.1621 8.32822 16.9297L10.3126 14.9453L10.4923 15.1328C10.6117 15.2483 10.7714 15.3129 10.9376 15.3129C11.1038 15.3129 11.2634 15.2483 11.3829 15.1328C11.5003 15.0143 11.5661 14.8543 11.5661 14.6875C11.5661 14.5207 11.5003 14.3607 11.3829 14.2422L10.7579 13.6172L10.2579 13.125L11.6954 11.6953C11.7951 11.5739 11.846 11.4197 11.8383 11.2628C11.8306 11.1059 11.7648 10.9574 11.6537 10.8464C11.5426 10.7353 11.3942 10.6695 11.2373 10.6618C11.0804 10.6541 10.9262 10.705 10.8048 10.8047Z" fill="currentColor"/>
</svg>
