<svg width="20" height="20" viewBox="0 0 20 20" fill="none" xmlns="http://www.w3.org/2000/svg">
<path d="M18.5704 1.42966C18.4519 1.3123 18.2919 1.24646 18.1251 1.24646C17.9583 1.24646 17.7983 1.3123 17.6798 1.42966L13.7501 5.36716L13.3282 4.94529C13.0967 4.71285 12.8215 4.52842 12.5185 4.40258C12.2155 4.27673 11.8907 4.21195 11.5626 4.21195C11.2345 4.21195 10.9097 4.27673 10.6067 4.40258C10.3037 4.52842 10.0285 4.71285 9.79697 4.94529L7.8126 6.92966L7.63291 6.74216C7.51148 6.6425 7.35731 6.59157 7.2004 6.59927C7.0435 6.60698 6.89506 6.67277 6.78398 6.78386C6.6729 6.89494 6.6071 7.04337 6.59939 7.20028C6.59169 7.35719 6.64262 7.51135 6.74229 7.63279L6.92978 7.81248L4.94541 9.79685C4.71297 10.0284 4.52854 10.3036 4.4027 10.6065C4.27686 10.9095 4.21208 11.2344 4.21208 11.5625C4.21208 11.8906 4.27686 12.2154 4.4027 12.5184C4.52854 12.8214 4.71297 13.0966 4.94541 13.3281L5.36729 13.75L1.42979 17.6797C1.31242 17.7982 1.24658 17.9582 1.24658 18.125C1.24658 18.2918 1.31242 18.4518 1.42979 18.5703C1.54925 18.6858 1.70892 18.7504 1.8751 18.7504C2.04127 18.7504 2.20095 18.6858 2.32041 18.5703L6.2501 14.6328L6.67197 15.0547C7.14164 15.5203 7.77623 15.7816 8.4376 15.7816C9.09896 15.7816 9.73355 15.5203 10.2032 15.0547L12.1876 13.0703L12.3673 13.2578C12.4867 13.3733 12.6464 13.4379 12.8126 13.4379C12.9788 13.4379 13.1384 13.3733 13.2579 13.2578C13.3753 13.1393 13.4411 12.9793 13.4411 12.8125C13.4411 12.6457 13.3753 12.4857 13.2579 12.3672L13.0704 12.1875L15.0548 10.2031C15.2872 9.97156 15.4717 9.6964 15.5975 9.39341C15.7233 9.09042 15.7881 8.76556 15.7881 8.43748C15.7881 8.10939 15.7233 7.78454 15.5975 7.48155C15.4717 7.17856 15.2872 6.9034 15.0548 6.67185L14.6329 6.24998L18.5704 2.32029C18.6878 2.20179 18.7536 2.04176 18.7536 1.87498C18.7536 1.7082 18.6878 1.54816 18.5704 1.42966ZM14.172 9.32029L12.1876 11.3047L8.69541 7.81248L10.6798 5.8281C10.7953 5.71141 10.9328 5.61878 11.0843 5.55556C11.2358 5.49235 11.3984 5.4598 11.5626 5.4598C11.7268 5.4598 11.8893 5.49235 12.0409 5.55556C12.1924 5.61878 12.3299 5.71141 12.4454 5.8281L14.172 7.55466C14.2887 7.67017 14.3813 7.80767 14.4445 7.9592C14.5077 8.11073 14.5403 8.27329 14.5403 8.43748C14.5403 8.60166 14.5077 8.76422 14.4445 8.91576C14.3813 9.06729 14.2887 9.20478 14.172 9.32029ZM18.0938 12.6953C18.0538 12.821 17.9745 12.9305 17.8677 13.0078C17.7608 13.0851 17.632 13.1262 17.5001 13.125C17.4337 13.126 17.3676 13.1154 17.3048 13.0937L15.4298 12.4687C15.3518 12.4431 15.2797 12.4023 15.2174 12.3488C15.1552 12.2953 15.1041 12.23 15.0671 12.1567C15.0301 12.0834 15.0079 12.0036 15.0018 11.9217C14.9957 11.8399 15.0057 11.7576 15.0313 11.6797C15.057 11.6017 15.0978 11.5295 15.1513 11.4673C15.2048 11.4051 15.2701 11.354 15.3434 11.317C15.4166 11.28 15.4965 11.2578 15.5783 11.2517C15.6602 11.2455 15.7424 11.2556 15.8204 11.2812L17.6954 11.9062C17.7734 11.9319 17.8455 11.9726 17.9078 12.0262C17.97 12.0797 18.0211 12.145 18.0581 12.2182C18.0951 12.2915 18.1173 12.3713 18.1234 12.4532C18.1295 12.5351 18.1195 12.6173 18.0938 12.6953ZM1.90635 7.30466C1.93199 7.22669 1.97274 7.15453 2.02628 7.0923C2.07981 7.03008 2.14508 6.97901 2.21835 6.94201C2.29162 6.90501 2.37147 6.8828 2.45332 6.87666C2.53518 6.87053 2.61744 6.88057 2.69541 6.90623L4.57041 7.53123C4.71162 7.57764 4.83167 7.67286 4.90901 7.79981C4.98634 7.92675 5.0159 8.0771 4.99238 8.22387C4.96886 8.37065 4.8938 8.50423 4.78067 8.60065C4.66753 8.69707 4.52374 8.75001 4.3751 8.74998C4.30867 8.75101 4.24257 8.74044 4.17979 8.71873L2.30479 8.09373C2.22681 8.06808 2.15465 8.02733 2.09242 7.9738C2.0302 7.92026 1.97913 7.855 1.94213 7.78172C1.90513 7.70845 1.88293 7.62861 1.87679 7.54675C1.87065 7.4649 1.88069 7.38264 1.90635 7.30466ZM6.90635 2.69529C6.8807 2.61732 6.87066 2.53506 6.8768 2.4532C6.88294 2.37135 6.90515 2.29151 6.94215 2.21824C6.97915 2.14497 7.03021 2.0797 7.09243 2.02617C7.15466 1.97263 7.22681 1.93187 7.30478 1.90623C7.46226 1.85443 7.63386 1.8673 7.78184 1.94202C7.92981 2.01675 8.04205 2.14719 8.09385 2.30466L8.71885 4.17966C8.7445 4.25764 8.75455 4.3399 8.74841 4.42175C8.74227 4.50361 8.72007 4.58345 8.68307 4.65672C8.64607 4.73 8.595 4.79526 8.53277 4.8488C8.47055 4.90233 8.39839 4.94308 8.32041 4.96873C8.25762 4.99044 8.19152 5.00101 8.1251 4.99998C7.9932 5.0012 7.86439 4.96014 7.75754 4.88281C7.65068 4.80548 7.57141 4.69595 7.53135 4.57029L6.90635 2.69529ZM13.0938 17.3047C13.1195 17.3826 13.1295 17.4649 13.1234 17.5468C13.1173 17.6286 13.0951 17.7084 13.0581 17.7817C13.0211 17.855 12.97 17.9203 12.9078 17.9738C12.8455 18.0273 12.7734 18.0681 12.6954 18.0937C12.6326 18.1154 12.5665 18.126 12.5001 18.125C12.3682 18.1262 12.2394 18.0851 12.1325 18.0078C12.0257 17.9305 11.9464 17.821 11.9063 17.6953L11.2813 15.8203C11.2557 15.7423 11.2457 15.6601 11.2518 15.5782C11.2579 15.4964 11.2801 15.4165 11.3171 15.3432C11.3541 15.27 11.4052 15.2047 11.4674 15.1512C11.5297 15.0976 11.6018 15.0569 11.6798 15.0312C11.7578 15.0056 11.84 14.9955 11.9219 15.0017C12.0037 15.0078 12.0836 15.03 12.1568 15.067C12.2301 15.104 12.2954 15.1551 12.3489 15.2173C12.4024 15.2795 12.4432 15.3517 12.4688 15.4297L13.0938 17.3047Z" fill="currentColor"/>
</svg>
