<svg width="20" height="20" viewBox="0 0 20 20" fill="none" xmlns="http://www.w3.org/2000/svg">
<path d="M16.875 3.125H10.625V1.875C10.625 1.70924 10.5592 1.55027 10.4419 1.43306C10.3247 1.31585 10.1658 1.25 10 1.25C9.83424 1.25 9.67527 1.31585 9.55806 1.43306C9.44085 1.55027 9.375 1.70924 9.375 1.875V3.125H3.125C2.79348 3.125 2.47554 3.2567 2.24112 3.49112C2.0067 3.72554 1.875 4.04348 1.875 4.375V13.75C1.875 14.0815 2.0067 14.3995 2.24112 14.6339C2.47554 14.8683 2.79348 15 3.125 15H6.20312L4.51562 17.1094C4.44222 17.2011 4.39613 17.3116 4.38264 17.4283C4.36916 17.5449 4.38882 17.663 4.43938 17.7691C4.48994 17.8751 4.56935 17.9647 4.66851 18.0276C4.76766 18.0906 4.88255 18.1243 5 18.125C5.09329 18.1256 5.18548 18.1048 5.26946 18.0642C5.35344 18.0235 5.42697 17.9642 5.48437 17.8906L7.79688 15H12.2031L14.5156 17.8906C14.573 17.9642 14.6466 18.0235 14.7305 18.0642C14.8145 18.1048 14.9067 18.1256 15 18.125C15.1175 18.1243 15.2323 18.0906 15.3315 18.0276C15.4307 17.9647 15.5101 17.8751 15.5606 17.7691C15.6112 17.663 15.6308 17.5449 15.6174 17.4283C15.6039 17.3116 15.5578 17.2011 15.4844 17.1094L13.7969 15H16.875C17.2065 15 17.5245 14.8683 17.7589 14.6339C17.9933 14.3995 18.125 14.0815 18.125 13.75V4.375C18.125 4.04348 17.9933 3.72554 17.7589 3.49112C17.5245 3.2567 17.2065 3.125 16.875 3.125Z" fill="currentColor"/>
</svg>
