<svg width="20" height="20" viewBox="0 0 20 20" fill="none" xmlns="http://www.w3.org/2000/svg">
<path d="M16.4609 5.625H15.625V3.125C15.625 2.95924 15.5592 2.80027 15.4419 2.68306C15.3247 2.56585 15.1658 2.5 15 2.5H5C4.83424 2.5 4.67527 2.56585 4.55806 2.68306C4.44085 2.80027 4.375 2.95924 4.375 3.125V5.625H3.53906C2.45312 5.625 1.5625 6.46875 1.5625 7.5V13.75C1.5625 13.9158 1.62835 14.0747 1.74556 14.1919C1.86277 14.3092 2.02174 14.375 2.1875 14.375H4.375V17.1875C4.375 17.3533 4.44085 17.5122 4.55806 17.6294C4.67527 17.7467 4.83424 17.8125 5 17.8125H15C15.1658 17.8125 15.3247 17.7467 15.4419 17.6294C15.5592 17.5122 15.625 17.3533 15.625 17.1875V14.375H17.8125C17.9783 14.375 18.1372 14.3092 18.2544 14.1919C18.3717 14.0747 18.4375 13.9158 18.4375 13.75V7.5C18.4375 6.46875 17.5469 5.625 16.4609 5.625ZM5.625 3.75H14.375V5.625H5.625V3.75ZM14.375 16.5625H5.625V12.5H14.375V16.5625ZM14.6875 10C14.5021 10 14.3208 9.94502 14.1667 9.842C14.0125 9.73899 13.8923 9.59257 13.8214 9.42127C13.7504 9.24996 13.7318 9.06146 13.768 8.8796C13.8042 8.69775 13.8935 8.5307 14.0246 8.39959C14.1557 8.26848 14.3227 8.17919 14.5046 8.14301C14.6865 8.10684 14.875 8.12541 15.0463 8.19636C15.2176 8.26732 15.364 8.38748 15.467 8.54165C15.57 8.69582 15.625 8.87708 15.625 9.0625C15.625 9.31114 15.5262 9.5496 15.3504 9.72541C15.1746 9.90123 14.9361 10 14.6875 10Z" fill="currentColor"/>
</svg>
