<svg width="20" height="20" viewBox="0 0 20 20" fill="none" xmlns="http://www.w3.org/2000/svg">
<path d="M10.5001 19.478C8.846 19.478 7.50493 18.373 7.50493 17.0104H13.4953C13.4953 18.3728 12.1542 19.478 10.5001 19.478ZM15.4472 16.1932H5.55249V14.399H15.4473L15.4472 16.1932ZM15.4117 13.4756H5.58073C5.54803 13.4379 5.51459 13.4007 5.48301 13.3624C4.47019 12.1326 4.23166 11.4906 4.00001 10.8363C3.99611 10.8148 5.22813 11.088 6.10181 11.2846C6.10181 11.2846 6.55137 11.3886 7.20863 11.5084C6.57757 10.7687 6.20287 9.82834 6.20287 8.86717C6.20287 6.75701 7.8213 4.91306 7.23742 3.42263C7.80569 3.46888 8.41353 4.62196 8.45459 6.42485C9.05871 5.59 9.31154 4.06539 9.31154 3.1306C9.31154 2.16273 9.94929 1.03845 10.5872 1C10.0186 1.93721 10.7345 2.74066 11.371 4.73379C11.6097 5.48244 11.5792 6.74233 11.7635 7.54133C11.8246 5.88185 12.11 3.46052 13.1627 2.62456C12.6983 3.67732 13.2315 4.99461 13.5961 5.6279C14.1845 6.64963 14.5412 7.42374 14.5412 8.88779C14.5412 9.8694 14.1787 10.7936 13.5673 11.5161C14.2625 11.3857 14.7425 11.2681 14.7425 11.2681L17 10.8276C17 10.8276 16.6721 12.1765 15.4117 13.4756Z" fill="currentColor"/>
</svg>
