<svg width="26" height="26" viewBox="0 0 26 26" fill="none" xmlns="http://www.w3.org/2000/svg">
<path d="M13.4003 3C7.65661 3 3 7.65605 3 13.3999C3 19.1436 7.65661 23.8 13.4003 23.8C19.1439 23.8 23.8004 19.1436 23.8004 13.3999C23.8004 7.65605 19.1438 3 13.4003 3ZM13.4003 22.4646C11.7661 22.4646 10.4412 21.373 10.4412 20.0267H16.3594C16.3594 21.3728 15.0345 22.4646 13.4003 22.4646ZM18.2878 19.2194H8.51224V17.4468H18.288L18.2878 19.2194ZM18.2527 16.5345H8.54013C8.50783 16.4972 8.4748 16.4605 8.4436 16.4227C7.44297 15.2077 7.20732 14.5734 6.97845 13.927C6.9746 13.9057 8.19179 14.1757 9.05494 14.3699C9.05494 14.3699 9.49909 14.4727 10.1484 14.591C9.52497 13.8602 9.15479 12.9312 9.15479 11.9816C9.15479 9.89681 10.7537 8.07506 10.1769 6.60257C10.7383 6.64827 11.3388 7.78746 11.3794 9.56865C11.9762 8.74385 12.226 7.2376 12.226 6.31406C12.226 5.35785 12.8561 4.24711 13.4864 4.20912C12.9246 5.13504 13.6319 5.92882 14.2607 7.89795C14.4965 8.63759 14.4664 9.88231 14.6485 10.6717C14.7089 9.03218 14.9908 6.64001 16.0309 5.81411C15.572 6.8542 16.0988 8.15563 16.459 8.78129C17.0403 9.79073 17.3927 10.5555 17.3927 12.0019C17.3927 12.9717 17.0346 13.8848 16.4306 14.5986C17.1174 14.4697 17.5916 14.3535 17.5916 14.3535L19.8219 13.9184C19.8221 13.9182 19.498 15.251 18.2527 16.5345Z" fill="#FF5A47"/>
</svg>
