<svg width="272" height="272" viewBox="0 0 272 272" fill="none" xmlns="http://www.w3.org/2000/svg">
<circle opacity="0.8" cx="136" cy="136" r="136" fill="black"/>
<path d="M136.001 224C120.223 224 107.432 213.416 107.432 200.363H164.57C164.57 213.414 151.778 224 136.001 224ZM183.188 192.535H88.8085V175.349H183.19L183.188 192.535ZM182.85 166.503H89.0776C88.7658 166.142 88.447 165.786 88.1458 165.42C78.4849 153.64 76.2097 147.49 74.0001 141.222C73.9629 141.015 85.7145 143.633 94.0479 145.516C94.0479 145.516 98.3359 146.512 104.605 147.66C98.586 140.574 95.0119 131.567 95.0119 122.359C95.0119 102.146 110.449 84.4831 104.88 70.2063C110.3 70.6494 116.098 81.6947 116.49 98.9645C122.252 90.9677 124.664 76.3633 124.664 67.409C124.664 58.1378 130.747 47.3684 136.832 47C131.408 55.9775 138.237 63.6738 144.308 82.7659C146.585 89.9372 146.294 102.006 148.052 109.659C148.635 93.7634 151.357 70.5693 161.398 62.5616C156.968 72.646 162.054 85.2643 165.532 91.3307C171.144 101.118 174.546 108.533 174.546 122.557C174.546 131.96 171.089 140.813 165.258 147.733C171.888 146.484 176.467 145.357 176.467 145.357L198 141.138C198 141.138 194.872 154.059 182.85 166.503Z" fill="url(#paint0_linear_721_90620)"/>
<defs>
<linearGradient id="paint0_linear_721_90620" x1="83.4403" y1="148.373" x2="198.002" y2="148.454" gradientUnits="userSpaceOnUse">
<stop stop-color="#9A0F71" stop-opacity="0.71"/>
<stop offset="0.448783" stop-color="#E0196E"/>
<stop offset="1" stop-color="#E5801A" stop-opacity="0.72"/>
</linearGradient>
</defs>
</svg>
