<svg width="51" height="51" viewBox="0 0 51 51" fill="none" xmlns="http://www.w3.org/2000/svg">
<circle cx="25.5409" cy="25.5407" r="25.4054" fill="#C4C4C4"/>
<path d="M25.5413 43.3788C22.3775 43.3788 19.8125 41.3101 19.8125 38.759H31.2701C31.2701 41.3098 28.705 43.3788 25.5413 43.3788ZM35.0033 37.229H16.0781V33.8699H35.0037L35.0033 37.229ZM34.9355 32.141H16.132C16.0695 32.0705 16.0056 32.0009 15.9452 31.9293C14.008 29.6268 13.5517 28.4248 13.1087 27.1999C13.1012 27.1595 15.4577 27.6711 17.1287 28.0391C17.1287 28.0391 17.9886 28.2339 19.2457 28.4582C18.0387 27.0732 17.322 25.3127 17.322 23.5131C17.322 19.5625 20.4175 16.1102 19.3008 13.3198C20.3877 13.4064 21.5503 15.5652 21.6288 18.9406C22.7843 17.3777 23.268 14.5232 23.268 12.7731C23.268 10.9611 24.4877 8.85617 25.7079 8.78418C24.6203 10.5388 25.9897 12.0431 27.207 15.7746C27.6636 17.1762 27.6053 19.535 27.9577 21.0309C28.0747 17.9241 28.6205 13.3908 30.634 11.8257C29.7457 13.7967 30.7655 16.2629 31.463 17.4486C32.5883 19.3615 33.2705 20.8107 33.2705 23.5518C33.2705 25.3896 32.5772 27.1198 31.4079 28.4724C32.7375 28.2283 33.6556 28.0081 33.6556 28.0081L37.9735 27.1835C37.9735 27.1835 37.3463 29.7089 34.9355 32.141Z" fill="white"/>
</svg>
