<svg width="20" height="20" viewBox="0 0 20 20" fill="none" xmlns="http://www.w3.org/2000/svg">
<path fill-rule="evenodd" clip-rule="evenodd" d="M3.0769 3.42862C3.0769 2.51827 3.8149 1.78027 4.72526 1.78027H15.2747C16.1851 1.78027 16.9231 2.51827 16.9231 3.42862V9.36269C16.9231 10.2731 16.1851 11.011 15.2747 11.011H10.5768L10.5768 13.3187C10.5768 13.3429 10.5753 13.3668 10.5724 13.3902C11.4623 13.6173 12.1454 14.3617 12.2825 15.2842C12.3496 15.2569 12.4229 15.2419 12.4998 15.2419H15.1923C15.5109 15.2419 15.7692 15.5002 15.7692 15.8188C15.7692 16.1374 15.5109 16.3957 15.1923 16.3957H12.4998C12.3915 16.3957 12.2901 16.3659 12.2035 16.3139C11.9109 17.2526 11.035 17.934 9.99998 17.934C8.9041 17.934 7.98663 17.1702 7.75099 16.1458C7.6751 16.1825 7.58995 16.2031 7.49998 16.2031H4.80767C4.48905 16.2031 4.23075 15.9448 4.23075 15.6262C4.23075 15.3076 4.48905 15.0493 4.80767 15.0493H7.49998C7.58997 15.0493 7.67514 15.0699 7.75105 15.1066C7.94425 14.2672 8.59538 13.6027 9.42732 13.3903C9.42441 13.3668 9.42292 13.3429 9.42292 13.3187V11.011H4.72526C3.8149 11.011 3.0769 10.2731 3.0769 9.36269V3.42862ZM5.3846 4.66489C5.3846 4.34626 5.64289 4.08797 5.96152 4.08797H14.0384C14.3571 4.08797 14.6154 4.34626 14.6154 4.66489C14.6154 4.98351 14.3571 5.24181 14.0384 5.24181H5.96152C5.64289 5.24181 5.3846 4.98351 5.3846 4.66489ZM5.96152 7.54936C5.64289 7.54936 5.3846 7.80766 5.3846 8.12629C5.3846 8.44491 5.64289 8.70321 5.96152 8.70321H14.0384C14.3571 8.70321 14.6154 8.44491 14.6154 8.12629C14.6154 7.80766 14.3571 7.54936 14.0384 7.54936H5.96152Z" fill="currentColor"/>
</svg>
