<svg width="20" height="20" viewBox="0 0 20 20" fill="none" xmlns="http://www.w3.org/2000/svg">
<path d="M16.7109 16.4532C16.7673 16.5132 16.8111 16.5839 16.8397 16.6612C16.8683 16.7384 16.8811 16.8205 16.8775 16.9028C16.8738 16.9851 16.8538 17.0658 16.8185 17.1402C16.7832 17.2146 16.7333 17.2811 16.6719 17.336C16.5559 17.4402 16.4059 17.4985 16.25 17.5C16.1633 17.5 16.0775 17.4819 15.9982 17.447C15.9188 17.412 15.8476 17.3609 15.7891 17.2969L13.7266 15.0235C13.5312 16.1329 12.9531 17.0704 12.5234 17.6407C12.4149 17.7837 12.2774 17.9023 12.1199 17.9884C11.9623 18.0746 11.7884 18.1265 11.6094 18.1407H11.5234C11.1923 18.1392 10.8751 18.0073 10.6406 17.7735L6.875 14.0079L4.19531 16.6954C4.07585 16.8109 3.91617 16.8754 3.75 16.8754C3.58382 16.8754 3.42415 16.8109 3.30468 16.6954C3.18732 16.5769 3.12148 16.4168 3.12148 16.25C3.12148 16.0833 3.18732 15.9232 3.30468 15.8047L5.99218 13.125L2.21093 9.34379C2.0855 9.2202 1.98778 9.07136 1.92424 8.90712C1.86071 8.74289 1.83282 8.56703 1.84243 8.3912C1.85203 8.21537 1.89891 8.04359 1.97995 7.88726C2.06099 7.73093 2.17435 7.59361 2.3125 7.48442C3.57812 6.46879 4.80468 6.2266 5.74218 6.25004L3.28906 3.54692C3.18136 3.42401 3.12609 3.26381 3.13508 3.10064C3.14407 2.93747 3.21661 2.78431 3.33716 2.67398C3.45771 2.56365 3.61667 2.50492 3.78 2.51037C3.94332 2.51583 4.09802 2.58504 4.21093 2.70317L16.7109 16.4532ZM18.125 6.61723L13.3828 1.87504C13.1475 1.64316 12.8304 1.51318 12.5 1.51318C12.1696 1.51318 11.8525 1.64316 11.6172 1.87504L8.64843 4.84379C8.53532 4.95684 8.46985 5.10895 8.46549 5.26881C8.46113 5.42867 8.51822 5.58412 8.625 5.70317L13.9844 11.5938C14.0407 11.6569 14.1092 11.7082 14.1857 11.7444C14.2621 11.7806 14.3451 11.8011 14.4297 11.8047H14.4453C14.5283 11.8046 14.6104 11.7879 14.6868 11.7558C14.7633 11.7236 14.8326 11.6765 14.8906 11.6172L18.125 8.38285C18.2417 8.26735 18.3343 8.12985 18.3975 7.97832C18.4608 7.82679 18.4933 7.66423 18.4933 7.50004C18.4933 7.33585 18.4608 7.17329 18.3975 7.02176C18.3343 6.87023 18.2417 6.73274 18.125 6.61723Z" fill="currentColor"/>
</svg>
