<svg width="20" height="20" viewBox="0 0 20 20" fill="none" xmlns="http://www.w3.org/2000/svg">
<path d="M18.125 8.38285L13.5547 12.9532C13.9062 13.9454 14.0547 15.6016 12.5234 17.6407C12.4149 17.7837 12.2774 17.9023 12.1199 17.9884C11.9623 18.0746 11.7884 18.1265 11.6094 18.1407H11.5234C11.1923 18.1392 10.8751 18.0073 10.6406 17.7735L6.875 14.0079L4.19531 16.6954C4.07585 16.8109 3.91617 16.8754 3.75 16.8754C3.58382 16.8754 3.42415 16.8109 3.30468 16.6954C3.18732 16.5769 3.12148 16.4168 3.12148 16.25C3.12148 16.0833 3.18732 15.9232 3.30468 15.8047L5.99218 13.125L2.21093 9.34379C2.0855 9.2202 1.98778 9.07136 1.92424 8.90712C1.86071 8.74289 1.83282 8.56703 1.84243 8.3912C1.85203 8.21537 1.89891 8.04359 1.97995 7.88726C2.06099 7.73093 2.17435 7.59361 2.3125 7.48442C4.29687 5.88285 6.19531 6.20317 7.03125 6.46098L11.6172 1.87504C11.8525 1.64316 12.1696 1.51318 12.5 1.51318C12.8304 1.51318 13.1475 1.64316 13.3828 1.87504L18.125 6.61723C18.2417 6.73274 18.3343 6.87023 18.3975 7.02176C18.4608 7.17329 18.4933 7.33585 18.4933 7.50004C18.4933 7.66423 18.4608 7.82679 18.3975 7.97832C18.3343 8.12985 18.2417 8.26735 18.125 8.38285Z" fill="currentColor"/>
</svg>
