<svg
    xmlns="http://www.w3.org/2000/svg"
    width="20"
    height="20"
    viewBox="0 0 20 20"
    fill="none"
>
  <path
    d="M11.25 14.0625C11.25 14.3097 11.1767 14.5514 11.0393 14.757C10.902 14.9625 10.7068 15.1227 10.4784 15.2174C10.25 15.312 9.99862 15.3367 9.75614 15.2885C9.51366 15.2403 9.29094 15.1212 9.11612 14.9464C8.9413 14.7716 8.82225 14.5488 8.77402 14.3064C8.72579 14.0639 8.75054 13.8126 8.84515 13.5841C8.93976 13.3557 9.09998 13.1605 9.30554 13.0232C9.5111 12.8858 9.75278 12.8125 10 12.8125C10.3315 12.8125 10.6495 12.9442 10.8839 13.1786C11.1183 13.413 11.25 13.731 11.25 14.0625ZM18.4375 10C18.4375 11.6688 17.9427 13.3001 17.0155 14.6876C16.0884 16.0752 14.7706 17.1566 13.2289 17.7952C11.6871 18.4338 9.99064 18.6009 8.35393 18.2754C6.71721 17.9498 5.2138 17.1462 4.03379 15.9662C2.85379 14.7862 2.05019 13.2828 1.72463 11.6461C1.39907 10.0094 1.56616 8.31286 2.20477 6.77111C2.84338 5.22936 3.92484 3.9116 5.31238 2.98448C6.69992 2.05735 8.33122 1.5625 10 1.5625C12.237 1.56498 14.3817 2.45473 15.9635 4.03653C17.5453 5.61833 18.435 7.763 18.4375 10ZM16.5625 10C16.5625 8.70206 16.1776 7.43327 15.4565 6.35407C14.7354 5.27487 13.7105 4.43374 12.5114 3.93704C11.3122 3.44034 9.99272 3.31038 8.71972 3.5636C7.44672 3.81681 6.2774 4.44183 5.35962 5.35961C4.44183 6.27739 3.81682 7.44672 3.5636 8.71972C3.31038 9.99272 3.44034 11.3122 3.93704 12.5114C4.43374 13.7105 5.27488 14.7354 6.35407 15.4565C7.43327 16.1776 8.70206 16.5625 10 16.5625C11.7399 16.5606 13.408 15.8686 14.6383 14.6383C15.8686 13.408 16.5606 11.7399 16.5625 10ZM10 5C8.10469 5 6.5625 6.40156 6.5625 8.125V8.4375C6.5625 8.68614 6.66128 8.9246 6.83709 9.10041C7.01291 9.27623 7.25136 9.375 7.5 9.375C7.74864 9.375 7.9871 9.27623 8.16292 9.10041C8.33873 8.9246 8.4375 8.68614 8.4375 8.4375V8.125C8.4375 7.43594 9.14063 6.875 10 6.875C10.8594 6.875 11.5625 7.43594 11.5625 8.125C11.5625 8.81406 10.8594 9.375 10 9.375C9.75136 9.375 9.51291 9.47377 9.33709 9.64959C9.16128 9.8254 9.0625 10.0639 9.0625 10.3125V10.9375C9.06194 11.1691 9.14715 11.3927 9.30169 11.5653C9.45623 11.7378 9.66916 11.847 9.89945 11.8719C10.1297 11.8967 10.3611 11.8354 10.5488 11.6998C10.7366 11.5642 10.8676 11.3639 10.9164 11.1375C12.368 10.7719 13.4375 9.56016 13.4375 8.125C13.4375 6.40156 11.8953 5 10 5Z"
    fill="currentColor"
  />
  <path
    opacity="0.2"
    d="M17.7595 9.98877C17.7595 11.4721 17.3197 12.9222 16.4955 14.1555C15.6714 15.3889 14.5001 16.3502 13.1297 16.9179C11.7592 17.4855 10.2512 17.634 8.79635 17.3447C7.34149 17.0553 6.00512 16.341 4.95622 15.2921C3.90733 14.2432 3.19302 12.9068 2.90364 11.4519C2.61425 9.99709 2.76277 8.48909 3.33043 7.11864C3.89809 5.7482 4.85938 4.57686 6.09275 3.75275C7.32612 2.92864 8.77617 2.48877 10.2595 2.48877C12.2486 2.48877 14.1563 3.27895 15.5628 4.68547C16.9693 6.09199 17.7595 7.99965 17.7595 9.98877Z"
    fill="currentColor"
  />
</svg>
