<svg width="20" height="20" viewBox="0 0 20 20" fill="none" xmlns="http://www.w3.org/2000/svg">
<path d="M15.625 3.75H10.625V1.25C10.625 1.08424 10.5592 0.925268 10.4419 0.808058C10.3247 0.690848 10.1658 0.625 10 0.625C9.83424 0.625 9.67527 0.690848 9.55806 0.808058C9.44085 0.925268 9.375 1.08424 9.375 1.25V3.75H4.375C3.71259 3.75206 3.0779 4.01611 2.60951 4.48451C2.14111 4.9529 1.87706 5.58759 1.875 6.25V15C1.87706 15.6624 2.14111 16.2971 2.60951 16.7655C3.0779 17.2339 3.71259 17.4979 4.375 17.5H15.625C16.2874 17.4979 16.9221 17.2339 17.3905 16.7655C17.8589 16.2971 18.1229 15.6624 18.125 15V6.25C18.1229 5.58759 17.8589 4.9529 17.3905 4.48451C16.9221 4.01611 16.2874 3.75206 15.625 3.75ZM5.625 8.4375C5.625 8.25208 5.67998 8.07082 5.783 7.91665C5.88601 7.76248 6.03243 7.64232 6.20373 7.57136C6.37504 7.50041 6.56354 7.48184 6.7454 7.51801C6.92725 7.55419 7.0943 7.64348 7.22541 7.77459C7.35652 7.9057 7.44581 8.07275 7.48199 8.2546C7.51816 8.43646 7.49959 8.62496 7.42864 8.79627C7.35768 8.96757 7.23752 9.11399 7.08335 9.217C6.92918 9.32002 6.74792 9.375 6.5625 9.375C6.31386 9.375 6.0754 9.27623 5.89959 9.10041C5.72377 8.9246 5.625 8.68614 5.625 8.4375ZM7.8125 14.375H7.1875C6.85598 14.375 6.53804 14.2433 6.30362 14.0089C6.0692 13.7745 5.9375 13.4565 5.9375 13.125C5.9375 12.7935 6.0692 12.4755 6.30362 12.2411C6.53804 12.0067 6.85598 11.875 7.1875 11.875H7.8125V14.375ZM10.9375 14.375H9.0625V11.875H10.9375V14.375ZM12.8125 14.375H12.1875V11.875H12.8125C13.144 11.875 13.462 12.0067 13.6964 12.2411C13.9308 12.4755 14.0625 12.7935 14.0625 13.125C14.0625 13.4565 13.9308 13.7745 13.6964 14.0089C13.462 14.2433 13.144 14.375 12.8125 14.375ZM13.4375 9.375C13.2521 9.375 13.0708 9.32002 12.9167 9.217C12.7625 9.11399 12.6423 8.96757 12.5714 8.79627C12.5004 8.62496 12.4818 8.43646 12.518 8.2546C12.5542 8.07275 12.6435 7.9057 12.7746 7.77459C12.9057 7.64348 13.0727 7.55419 13.2546 7.51801C13.4365 7.48184 13.625 7.50041 13.7963 7.57136C13.9676 7.64232 14.114 7.76248 14.217 7.91665C14.32 8.07082 14.375 8.25208 14.375 8.4375C14.375 8.68614 14.2762 8.9246 14.1004 9.10041C13.9246 9.27623 13.6861 9.375 13.4375 9.375Z" fill="currentColor"/>
</svg>
