<svg
  width="20"
  height="20"
  viewBox="0 0 20 20"
  fill="none"
  xmlns="http://www.w3.org/2000/svg"
>
  <path
    d="M5.42042 14.5303L4.80105 14.0138C4.25798 13.8136 3.65417 14.0959 2.98983 14.8605L2.64043 15.7457C2.46601 16.5773 2.46604 17.0919 2.64043 17.289C2.84474 17.4706 3.36278 17.474 4.19449 17.2998L5.09041 16.961C5.85488 16.2966 6.13359 15.6892 5.92639 15.1392L5.42041 14.5303M16.6418 3.28762C15.663 2.99466 14.5091 2.89814 13.18 2.99827C10.5221 3.19826 8.31433 4.27716 6.55649 6.23496C6.04631 6.04488 5.49477 5.91055 4.90169 5.83186C3.71703 5.6876 2.90757 5.91836 2.47311 6.52431L1.32838 8.14056C0.651108 9.30372 0.503891 10.094 0.886877 10.5112C1.05841 10.6828 1.34058 10.8506 1.73365 11.0149C2.52097 11.3566 3.46773 11.5316 4.5737 11.5402L4.81175 12.3954C5.05612 13.0513 5.41259 13.6023 5.88135 14.048C6.32717 14.5168 6.87812 14.8733 7.53396 15.1177L8.38923 15.3557C8.39341 15.8941 8.43623 16.3941 8.51784 16.856C8.56867 17.1346 8.63303 17.399 8.71079 17.6492C8.77084 17.8389 8.83866 18.0211 8.9145 18.1958C9.07873 18.5887 9.24667 18.871 9.41821 19.0425C9.83542 19.4255 10.6257 19.2783 11.7889 18.601L13.4051 17.4563C14.0111 17.0219 14.2417 16.2123 14.0975 15.0276C14.0189 14.4347 13.8846 13.8831 13.6945 13.3729C15.6522 11.6152 16.7313 9.40716 16.9312 6.7494C17.0313 5.42036 16.9348 4.26641 16.6418 3.28758L16.6418 3.28762Z"
    fill="currentColor"
  />
</svg>
