<svg
    xmlns="http://www.w3.org/2000/svg"
    width="20"
    height="20"
    viewBox="0 0 20 20"
    fill="none"
>
  <path
    opacity="0.2"
    d="M6.00691 12.7639L7.88191 14.6389C7.88191 14.6389 7.25691 17.1389 3.50691 17.1389C3.50691 13.3889 6.00691 12.7639 6.00691 12.7639ZM11.0069 5.88892H6.19051C6.02497 5.88899 5.86622 5.95474 5.7491 6.07173L3.06551 8.75532C2.98357 8.83744 2.92611 8.94073 2.89954 9.05365C2.87298 9.16657 2.87836 9.28465 2.9151 9.39468C2.95183 9.50471 3.01845 9.60235 3.10752 9.67667C3.19659 9.75099 3.30458 9.79905 3.41941 9.81548L6.63191 10.2639L11.0069 5.88892ZM10.3819 14.0139L10.8304 17.2264C10.8468 17.3412 10.8948 17.4492 10.9692 17.5383C11.0435 17.6274 11.1411 17.694 11.2511 17.7307C11.3612 17.7675 11.4793 17.7729 11.5922 17.7463C11.7051 17.7197 11.8084 17.6623 11.8905 17.5803L14.5741 14.8967C14.6911 14.7796 14.7568 14.6209 14.7569 14.4553V9.63892L10.3819 14.0139Z"
    fill="currentColor"
  />
  <path
    d="M17.8008 3.66331C17.7775 3.28264 17.6157 2.92365 17.3461 2.65397C17.0764 2.3843 16.7174 2.22256 16.3367 2.19925C15.3109 2.13909 12.6922 2.23206 10.518 4.4055L10.2344 4.68753H5.80938C5.6041 4.68684 5.40073 4.72696 5.21109 4.80556C5.02145 4.88415 4.84931 4.99965 4.7047 5.14534L2.0211 7.82737C1.81566 8.03272 1.67153 8.29127 1.60488 8.57399C1.53824 8.85671 1.55172 9.15241 1.64382 9.4279C1.73592 9.70338 1.90299 9.94774 2.12626 10.1335C2.34954 10.3193 2.62019 10.4392 2.90782 10.4797L5.80938 10.8844L9.11563 14.1907L9.5211 17.0953C9.56059 17.3834 9.68017 17.6546 9.86621 17.8781C10.0523 18.1016 10.2973 18.2683 10.5734 18.3594C10.7341 18.412 10.9021 18.4384 11.0711 18.4375C11.2759 18.4374 11.4786 18.3968 11.6676 18.3181C11.8567 18.2394 12.0283 18.1242 12.1727 17.9789L14.8555 15.2953C15.001 15.1506 15.1163 14.9784 15.1947 14.7888C15.2732 14.5992 15.3132 14.3959 15.3125 14.1907V9.76565L15.5938 9.48519C17.768 7.30784 17.8609 4.68753 17.8008 3.66331ZM5.93751 6.56253H8.35938L5.91798 9.00628L3.79063 8.7094L5.93751 6.56253ZM11.8438 5.73206C12.3787 5.19269 13.017 4.76681 13.7204 4.47994C14.4238 4.19307 15.1779 4.0511 15.9375 4.06253C15.9494 4.82236 15.8076 5.57675 15.5205 6.28038C15.2335 6.98401 14.8072 7.62235 14.2672 8.15706L10 12.4219L7.57813 10L11.8438 5.73206ZM13.4375 14.0625L11.2899 16.2102L10.993 14.0828L13.4375 11.6407V14.0625ZM7.83829 15.7516C7.16173 16.6914 5.79376 17.8125 3.12501 17.8125C2.87637 17.8125 2.63791 17.7138 2.4621 17.5379C2.28628 17.3621 2.18751 17.1237 2.18751 16.875C2.18751 14.2071 3.3086 12.8391 4.24923 12.1617C4.45132 12.0283 4.6972 11.9783 4.93536 12.0221C5.17352 12.066 5.38548 12.2002 5.52685 12.3968C5.66822 12.5935 5.72803 12.8371 5.69376 13.0769C5.65948 13.3166 5.53378 13.5337 5.34298 13.6828C4.87423 14.0196 4.33595 14.6594 4.13829 15.8602C5.33907 15.6625 5.97891 15.1227 6.31563 14.6555C6.38519 14.5501 6.47533 14.4599 6.58062 14.3902C6.68591 14.3205 6.8042 14.2728 6.92838 14.2499C7.05256 14.2271 7.18008 14.2296 7.30329 14.2572C7.42649 14.2849 7.54284 14.3371 7.64536 14.4108C7.74787 14.4845 7.83444 14.5782 7.89987 14.6862C7.96529 14.7942 8.00823 14.9143 8.0261 15.0393C8.04398 15.1643 8.03641 15.2916 8.00387 15.4136C7.97133 15.5356 7.91448 15.6498 7.83673 15.7492L7.83829 15.7516Z"
    fill="currentColor"
  />
</svg>
