<svg
  width="18"
  height="14"
  viewBox="0 0 18 14"
  fill="none"
  xmlns="http://www.w3.org/2000/svg"
>
  <path
    d="M11.3203 5.83594C11.2273 5.69911 11.1924 5.53099 11.2231 5.36844C11.2539 5.20588 11.3478 5.06215 11.4844 4.96875L16.7734 1.35156C16.9103 1.25857 17.0784 1.22362 17.2409 1.25437C17.4035 1.28512 17.5472 1.37907 17.6406 1.51563C17.6877 1.58303 17.7208 1.65916 17.7381 1.73955C17.7553 1.81993 17.7563 1.90296 17.741 1.98374C17.7258 2.06452 17.6945 2.14144 17.6491 2.20997C17.6036 2.2785 17.545 2.33726 17.4766 2.38281L12.1953 6C12.09 6.07339 11.9642 6.11167 11.8359 6.10938C11.7342 6.10919 11.6341 6.08419 11.5442 6.03654C11.4544 5.98889 11.3775 5.92003 11.3203 5.83594ZM17.6406 12.4844C17.5839 12.569 17.5071 12.6382 17.4172 12.6859C17.3272 12.7336 17.2268 12.7583 17.125 12.7578C16.9996 12.7565 16.8774 12.7185 16.7734 12.6484L9.62499 7.75781L6.30467 10.0313C6.4332 10.3599 6.49943 10.7096 6.49999 11.0625C6.50203 11.7106 6.28079 12.3396 5.8735 12.8438C5.46622 13.3479 4.89773 13.6964 4.26367 13.8306C3.62962 13.9648 2.96869 13.8765 2.39208 13.5806C1.81546 13.2847 1.35835 12.7993 1.09764 12.2059C0.836924 11.6126 0.78852 10.9475 0.960568 10.3227C1.13262 9.69783 1.51462 9.15131 2.04231 8.77504C2.57 8.39877 3.21118 8.21573 3.85798 8.2567C4.50478 8.29767 5.11774 8.56016 5.59374 9L8.51561 7L5.59374 5C5.07731 5.4841 4.39533 5.75242 3.68749 5.75C3.08621 5.74988 2.5008 5.55706 2.01713 5.19984C1.53347 4.84261 1.17703 4.33979 1.00009 3.76513C0.823151 3.19048 0.835037 2.57424 1.034 2.00684C1.23297 1.43943 1.60854 0.950724 2.10561 0.612416C2.60269 0.274108 3.1951 0.104007 3.79594 0.127071C4.39677 0.150134 4.9744 0.365146 5.44408 0.740564C5.91376 1.11598 6.25076 1.63204 6.40565 2.21303C6.56053 2.79402 6.52514 3.40935 6.30467 3.96875L17.4766 11.6172C17.545 11.6627 17.6036 11.7215 17.6491 11.79C17.6945 11.8586 17.7258 11.9355 17.741 12.0163C17.7563 12.097 17.7553 12.1801 17.7381 12.2605C17.7208 12.3408 17.6877 12.417 17.6406 12.4844ZM5.24999 11.0625C5.25042 10.8574 5.20986 10.6544 5.13071 10.4652C5.05155 10.276 4.93539 10.1046 4.78905 9.96094C4.64513 9.81496 4.47364 9.69904 4.28453 9.61992C4.09543 9.5408 3.89248 9.50006 3.68749 9.50006C3.4825 9.50006 3.27955 9.5408 3.09044 9.61992C2.90134 9.69904 2.72984 9.81496 2.58593 9.96094C2.43995 10.1049 2.32403 10.2763 2.24491 10.4655C2.16579 10.6546 2.12504 10.8575 2.12504 11.0625C2.12504 11.2675 2.16579 11.4704 2.24491 11.6595C2.32403 11.8487 2.43995 12.0201 2.58593 12.1641C2.73037 12.3091 2.90204 12.4242 3.09107 12.5027C3.28011 12.5812 3.48279 12.6217 3.68749 12.6217C3.89218 12.6217 4.09487 12.5812 4.2839 12.5027C4.47294 12.4242 4.6446 12.3091 4.78905 12.1641C4.93539 12.0204 5.05155 11.849 5.13071 11.6598C5.20986 11.4706 5.25042 11.2676 5.24999 11.0625ZM4.78905 4.03906C4.93503 3.89515 5.05095 3.72365 5.13007 3.53455C5.20919 3.34544 5.24993 3.14249 5.24993 2.9375C5.24993 2.73251 5.20919 2.52956 5.13007 2.34046C5.05095 2.15135 4.93503 1.97985 4.78905 1.83594C4.64513 1.68996 4.47364 1.57404 4.28453 1.49492C4.09543 1.4158 3.89248 1.37506 3.68749 1.37506C3.4825 1.37506 3.27955 1.4158 3.09044 1.49492C2.90134 1.57404 2.72984 1.68996 2.58593 1.83594C2.43995 1.97985 2.32403 2.15135 2.24491 2.34046C2.16579 2.52956 2.12504 2.73251 2.12504 2.9375C2.12504 3.14249 2.16579 3.34544 2.24491 3.53455C2.32403 3.72365 2.43995 3.89515 2.58593 4.03906C2.73037 4.1841 2.90204 4.29918 3.09107 4.37771C3.28011 4.45623 3.48279 4.49666 3.68749 4.49666C3.89218 4.49666 4.09487 4.45623 4.2839 4.37771C4.47294 4.29918 4.6446 4.1841 4.78905 4.03906Z"
    fill="currentColor"
  />
</svg>
