<svg
  width="20"
  height="20"
  viewBox="0 0 20 20"
  fill="none"
  xmlns="http://www.w3.org/2000/svg"
>
  <g clip-path="url(#clip0_1094_65690)">
    <path
      opacity="0.2"
      fill-rule="evenodd"
      clip-rule="evenodd"
      d="M4.76922 4.93694C4.49307 4.45865 4.65695 3.84706 5.13524 3.57092L6.86729 2.57092C7.34558 2.29477 7.95717 2.45865 8.23332 2.93694L8.68473 3.71881C8.75398 3.74468 8.82292 3.77373 8.89139 3.80605C9.59388 4.13766 10.4079 4.13766 11.1104 3.80605C11.179 3.77366 11.2481 3.74455 11.3175 3.71863L11.7681 2.93811C12.0443 2.45982 12.6559 2.29594 13.1342 2.57209L14.8662 3.57209C15.3445 3.84823 15.5084 4.45982 15.2322 4.93811L14.782 5.71789C14.7944 5.79132 14.8038 5.86607 14.8101 5.94207C14.8741 6.71625 15.2811 7.42119 15.9196 7.86376C15.982 7.90703 16.0418 7.95236 16.099 7.99956L17.0015 7.99956C17.5538 7.99956 18.0015 8.44728 18.0015 8.99956L18.0015 10.9996C18.0015 11.5518 17.5538 11.9996 17.0015 11.9996L16.0995 11.9996C16.0422 12.0469 15.9822 12.0924 15.9196 12.1358C15.2811 12.5784 14.8741 13.2833 14.8101 14.0575C14.8038 14.133 14.7945 14.2072 14.7823 14.2801L15.2333 15.0613C15.5095 15.5396 15.3456 16.1512 14.8673 16.4273L13.1352 17.4273C12.6569 17.7035 12.0454 17.5396 11.7692 17.0613L11.319 16.2815C11.2491 16.2554 11.1795 16.2261 11.1104 16.1935C10.4079 15.8619 9.59388 15.8619 8.89139 16.1935C8.82242 16.2261 8.75298 16.2553 8.68322 16.2813L8.23223 17.0625C7.95608 17.5408 7.34449 17.7046 6.8662 17.4285L5.13415 16.4285C4.65586 16.1523 4.49198 15.5408 4.76813 15.0625L5.21955 14.2806C5.20728 14.2075 5.19795 14.1331 5.19169 14.0575C5.12763 13.2833 4.72063 12.5784 4.0822 12.1358C4.01958 12.0924 3.9596 12.0469 3.90224 11.9996L3.00147 11.9996C2.44919 11.9996 2.00147 11.5518 2.00147 10.9996L2.00147 8.99956C2.00147 8.44728 2.44919 7.99956 3.00147 7.99956L3.90277 7.99956C3.95997 7.95236 4.01978 7.90703 4.0822 7.86376C4.72063 7.42119 5.12763 6.71625 5.19169 5.94207C5.19799 5.8659 5.20742 5.79098 5.21981 5.7174L4.76922 4.93694ZM11.5009 12.5979C12.9358 11.7694 13.4274 9.93466 12.599 8.49978C11.7705 7.06491 9.93575 6.57328 8.50088 7.40171C7.066 8.23014 6.57437 10.0649 7.4028 11.4998C8.23123 12.9347 10.066 13.4263 11.5009 12.5979Z"
      fill="currentColor"
    />
    <path
      fill-rule="evenodd"
      clip-rule="evenodd"
      d="M3.90249 5.43705C3.35021 4.48046 3.67796 3.25728 4.63454 2.705L6.36659 1.705C7.32318 1.15271 8.54636 1.48046 9.09864 2.43705L9.38407 2.93141C9.7784 3.09609 10.2225 3.09602 10.6168 2.93121L10.9014 2.43822C11.4537 1.48163 12.6769 1.15388 13.6335 1.70617L15.3655 2.70617C16.3221 3.25845 16.6498 4.48163 16.0976 5.43822L15.8134 5.9304C15.8676 6.35498 16.0899 6.74027 16.4303 6.99967L17.0008 6.99967C18.1053 6.99967 19.0008 7.8951 19.0008 8.99967L19.0008 10.9997C19.0008 12.1042 18.1053 12.9997 17.0008 12.9997L16.4309 12.9997C16.0906 13.2587 15.8682 13.6435 15.8136 14.0677L16.0986 14.5614C16.6509 15.518 16.3232 16.7412 15.3666 17.2935L13.6345 18.2935C12.678 18.8457 11.4548 18.518 10.9025 17.5614L10.6183 17.0692C10.2231 16.9035 9.77775 16.9035 9.38251 17.069L9.09756 17.5626C8.54527 18.5192 7.32209 18.8469 6.3655 18.2946L4.63345 17.2946C3.67687 16.7423 3.34912 15.5192 3.9014 14.5626L4.18682 14.0682C4.13234 13.6439 3.90991 13.2588 3.56947 12.9997L3.00078 12.9997C1.89621 12.9997 1.00078 12.1042 1.00078 10.9997L1.00077 8.99967C1.00078 7.8951 1.89621 6.99967 3.00077 6.99967L3.57005 6.99967C3.91061 6.74016 4.13296 6.35466 4.18703 5.92988L3.90249 5.43705ZM7.36659 3.43705L5.63454 4.43705L6.26497 5.52899L6.20522 5.88365C6.1975 5.92944 6.19157 5.97644 6.18758 6.02464C6.09888 7.09669 5.53528 8.07286 4.65122 8.68571C4.61171 8.7131 4.5742 8.74155 4.5386 8.77092L4.26144 8.99967L3.00077 8.99967L3.00077 10.9997L4.26105 10.9997L4.53827 11.2286C4.57396 11.2581 4.61159 11.2866 4.65122 11.3141C5.53528 11.9269 6.09888 12.9031 6.18759 13.9751C6.19154 14.023 6.19742 14.0697 6.20505 14.1151L6.26454 14.4695L5.63345 15.5626L7.3655 16.5626L7.99628 15.47L8.33318 15.3444C8.37659 15.3283 8.42017 15.3099 8.46382 15.2893C9.43659 14.8301 10.5638 14.8301 11.5365 15.2893C11.5803 15.31 11.624 15.3283 11.6675 15.3445L12.0045 15.4701L12.6345 16.5614L14.3666 15.5614L13.736 14.4691L13.7954 14.1148C13.803 14.0695 13.8088 14.0229 13.8128 13.9751C13.9015 12.9031 14.4651 11.9269 15.3491 11.3141C15.3888 11.2866 15.4264 11.2581 15.4621 11.2286L15.7393 10.9997L17.0008 10.9997L17.0008 8.99967L15.7389 8.99967L15.4618 8.77092C15.4262 8.74155 15.3886 8.7131 15.3491 8.68571C14.4651 8.07286 13.9015 7.09669 13.8128 6.02464C13.8088 5.97656 13.8029 5.92966 13.7952 5.88395L13.7355 5.52938L14.3655 4.43822L12.6335 3.43822L12.0032 4.52992L11.6665 4.65559C11.6233 4.67172 11.58 4.68997 11.5365 4.71047C10.5638 5.16967 9.43659 5.16966 8.46381 4.71047C8.42048 4.69001 8.37722 4.6718 8.33412 4.6557L7.99761 4.53001L7.36659 3.43705ZM6.53608 11.9999C5.43151 10.0867 6.08701 7.64036 8.00018 6.53579C9.91335 5.43122 12.3597 6.08672 13.4643 7.99989C14.5688 9.91306 13.9133 12.3594 12.0002 13.464C10.087 14.5686 7.64065 13.9131 6.53608 11.9999ZM9.00018 8.26784C8.04359 8.82013 7.71584 10.0433 8.26813 10.9999C8.82041 11.9565 10.0436 12.2842 11.0002 11.7319C11.9568 11.1797 12.2845 9.95648 11.7322 8.99989C11.1799 8.04331 9.95676 7.71556 9.00018 8.26784Z"
      fill="currentColor"
    />
  </g>
  <defs>
    <clipPath id="clip0_1094_65690">
      <rect width="20" height="20" fill="white" />
    </clipPath>
  </defs>
</svg>
