<svg width="20" height="20" viewBox="0 0 20 20" fill="none" xmlns="http://www.w3.org/2000/svg">
<path d="M13.7501 12.5C13.3332 12.4993 12.9205 12.5827 12.5366 12.7451C12.1527 12.9075 11.8055 13.1456 11.5157 13.4453L7.91413 11.1328C8.19527 10.4037 8.19527 9.59619 7.91413 8.86715L11.5157 6.55465C12.0224 7.07281 12.6934 7.39877 13.4139 7.47674C14.1344 7.55471 14.8596 7.37983 15.4654 6.98205C16.0711 6.58426 16.5198 5.9883 16.7346 5.29615C16.9494 4.60401 16.917 3.85873 16.6429 3.18786C16.3688 2.51699 15.87 1.96226 15.232 1.61859C14.5939 1.27493 13.8563 1.1637 13.1453 1.30396C12.4343 1.44422 11.7941 1.82723 11.3344 2.38745C10.8746 2.94766 10.6239 3.65025 10.6251 4.37496C10.6263 4.76221 10.6978 5.14602 10.836 5.50777L7.23444 7.82027C6.80084 7.3748 6.24422 7.06878 5.63576 6.94133C5.02731 6.81389 4.39467 6.87081 3.81874 7.10483C3.24281 7.33885 2.74976 7.73932 2.40265 8.25505C2.05553 8.77077 1.87012 9.3783 1.87012 9.99996C1.87012 10.6216 2.05553 11.2292 2.40265 11.7449C2.74976 12.2606 3.24281 12.6611 3.81874 12.8951C4.39467 13.1291 5.02731 13.186 5.63576 13.0586C6.24422 12.9311 6.80084 12.6251 7.23444 12.1796L10.836 14.4921C10.6978 14.8539 10.6263 15.2377 10.6251 15.625C10.6251 16.243 10.8083 16.8472 11.1517 17.3611C11.4951 17.875 11.9832 18.2756 12.5542 18.5121C13.1252 18.7486 13.7535 18.8105 14.3597 18.6899C14.9659 18.5693 15.5227 18.2717 15.9598 17.8347C16.3968 17.3976 16.6944 16.8408 16.815 16.2346C16.9356 15.6284 16.8737 15.0001 16.6372 14.4291C16.4007 13.8581 16.0001 13.37 15.4862 13.0266C14.9723 12.6832 14.3681 12.5 13.7501 12.5Z" fill="currentColor"/>
</svg>
