<svg width="20" height="20" viewBox="0 0 20 20" fill="none" xmlns="http://www.w3.org/2000/svg">
<path d="M16.25 3.125H3.75C3.41848 3.125 3.10054 3.2567 2.86612 3.49112C2.6317 3.72554 2.5 4.04348 2.5 4.375V8.96094C2.5 15.9453 8.42188 18.2656 9.60938 18.6562C9.8631 18.7397 10.1369 18.7397 10.3906 18.6562C11.5781 18.2656 17.5 15.9453 17.5 8.96094V4.375C17.5 4.04348 17.3683 3.72554 17.1339 3.49112C16.8995 3.2567 16.5815 3.125 16.25 3.125ZM13.8672 8.57812L9.28906 12.9531C9.17071 13.0645 9.01405 13.126 8.85156 13.125C8.69146 13.1256 8.53739 13.064 8.42188 12.9531L6.13281 10.7656C6.06932 10.7102 6.01769 10.6426 5.98101 10.5667C5.94434 10.4909 5.92338 10.4084 5.9194 10.3242C5.91541 10.24 5.92849 10.1559 5.95784 10.077C5.98719 9.99798 6.03221 9.92575 6.09018 9.86461C6.14816 9.80347 6.2179 9.75469 6.29521 9.72119C6.37253 9.68769 6.45581 9.67017 6.54007 9.66968C6.62432 9.66919 6.70781 9.68574 6.78551 9.71834C6.8632 9.75094 6.9335 9.79891 6.99219 9.85938L8.85156 11.6328L13.0078 7.67188C13.1293 7.56585 13.2871 7.51091 13.4482 7.51853C13.6093 7.52615 13.7612 7.59575 13.8722 7.71277C13.9832 7.8298 14.0446 7.98519 14.0437 8.14646C14.0428 8.30773 13.9795 8.4624 13.8672 8.57812Z" fill="currentColor"/>
</svg>
