<svg width="21" height="21" viewBox="0 0 21 21" fill="none" xmlns="http://www.w3.org/2000/svg">
<path d="M16.875 4.125H3.125C2.79348 4.125 2.47554 4.2567 2.24112 4.49112C2.0067 4.72554 1.875 5.04348 1.875 5.375V16.625C1.875 16.9565 2.0067 17.2745 2.24112 17.5089C2.47554 17.7433 2.79348 17.875 3.125 17.875H16.875C17.2065 17.875 17.5245 17.7433 17.7589 17.5089C17.9933 17.2745 18.125 16.9565 18.125 16.625V5.375C18.125 5.04348 17.9933 4.72554 17.7589 4.49112C17.5245 4.2567 17.2065 4.125 16.875 4.125ZM16.875 16.625H6.875V5.375H16.875V16.625Z" fill="currentColor"/>
<circle cx="16" cy="5" r="4.33333" fill="#F41900" stroke="white" stroke-width="0.666667"/>
</svg>
