<svg width="20" height="20" viewBox="0 0 20 20" fill="none" xmlns="http://www.w3.org/2000/svg">
<path d="M17.9453 13.5703L14.8203 16.6953C14.7008 16.8108 14.5412 16.8754 14.375 16.8754C14.2088 16.8754 14.0492 16.8108 13.9297 16.6953L10.8047 13.5703C10.7199 13.4799 10.6624 13.3674 10.6389 13.2458C10.6154 13.1241 10.6268 12.9983 10.6719 12.8828C10.7197 12.7691 10.8001 12.672 10.903 12.6039C11.0059 12.5358 11.1266 12.4996 11.25 12.5H13.75V8.75C13.75 8.58424 13.8158 8.42527 13.9331 8.30806C14.0503 8.19085 14.2092 8.125 14.375 8.125C14.5408 8.125 14.6997 8.19085 14.8169 8.30806C14.9342 8.42527 15 8.58424 15 8.75V12.5H17.5C17.6234 12.4996 17.7441 12.5358 17.847 12.6039C17.9499 12.672 18.0303 12.7691 18.0781 12.8828C18.1232 12.9983 18.1346 13.1241 18.1111 13.2458C18.0876 13.3674 18.0301 13.4799 17.9453 13.5703ZM9.375 9.375H3.75C3.58424 9.375 3.42527 9.44085 3.30806 9.55806C3.19085 9.67527 3.125 9.83424 3.125 10C3.125 10.1658 3.19085 10.3247 3.30806 10.4419C3.42527 10.5592 3.58424 10.625 3.75 10.625H9.375C9.54076 10.625 9.69973 10.5592 9.81694 10.4419C9.93415 10.3247 10 10.1658 10 10C10 9.83424 9.93415 9.67527 9.81694 9.55806C9.69973 9.44085 9.54076 9.375 9.375 9.375ZM3.75 5.625H14.375C14.5408 5.625 14.6997 5.55915 14.8169 5.44194C14.9342 5.32473 15 5.16576 15 5C15 4.83424 14.9342 4.67527 14.8169 4.55806C14.6997 4.44085 14.5408 4.375 14.375 4.375H3.75C3.58424 4.375 3.42527 4.44085 3.30806 4.55806C3.19085 4.67527 3.125 4.83424 3.125 5C3.125 5.16576 3.19085 5.32473 3.30806 5.44194C3.42527 5.55915 3.58424 5.625 3.75 5.625ZM8.125 14.375H3.75C3.58424 14.375 3.42527 14.4408 3.30806 14.5581C3.19085 14.6753 3.125 14.8342 3.125 15C3.125 15.1658 3.19085 15.3247 3.30806 15.4419C3.42527 15.5592 3.58424 15.625 3.75 15.625H8.125C8.29076 15.625 8.44973 15.5592 8.56694 15.4419C8.68415 15.3247 8.75 15.1658 8.75 15C8.75 14.8342 8.68415 14.6753 8.56694 14.5581C8.44973 14.4408 8.29076 14.375 8.125 14.375Z" fill="currentColor"/>
</svg>
