<svg width="20" height="20" viewBox="0 0 20 20" fill="none" xmlns="http://www.w3.org/2000/svg">
<path d="M18.0781 7.10935C18.0315 7.22456 17.9516 7.32327 17.8486 7.39285C17.7457 7.46243 17.6243 7.49972 17.5 7.49998H15V11.25C15 11.4157 14.9342 11.5747 14.8169 11.6919C14.6997 11.8091 14.5408 11.875 14.375 11.875C14.2092 11.875 14.0503 11.8091 13.9331 11.6919C13.8158 11.5747 13.75 11.4157 13.75 11.25V7.49998H11.25C11.1268 7.49935 11.0065 7.4628 10.9038 7.3948C10.8011 7.3268 10.7205 7.23031 10.6719 7.11716C10.6268 7.00172 10.6154 6.87589 10.6389 6.75422C10.6624 6.63255 10.7199 6.52003 10.8047 6.42966L13.9297 3.30466C14.0482 3.1873 14.2082 3.12146 14.375 3.12146C14.5418 3.12146 14.7018 3.1873 14.8203 3.30466L17.9453 6.42966C18.0303 6.51832 18.0879 6.62951 18.1115 6.75001C18.135 6.87051 18.1234 6.99524 18.0781 7.10935ZM3.75 10.625H9.375C9.54076 10.625 9.69973 10.5591 9.81694 10.4419C9.93415 10.3247 10 10.1657 10 9.99998C10 9.83422 9.93415 9.67524 9.81694 9.55803C9.69973 9.44082 9.54076 9.37498 9.375 9.37498H3.75C3.58424 9.37498 3.42527 9.44082 3.30806 9.55803C3.19085 9.67524 3.125 9.83422 3.125 9.99998C3.125 10.1657 3.19085 10.3247 3.30806 10.4419C3.42527 10.5591 3.58424 10.625 3.75 10.625ZM3.75 5.62498H8.125C8.29076 5.62498 8.44973 5.55913 8.56694 5.44192C8.68415 5.32471 8.75 5.16574 8.75 4.99998C8.75 4.83422 8.68415 4.67524 8.56694 4.55803C8.44973 4.44082 8.29076 4.37498 8.125 4.37498H3.75C3.58424 4.37498 3.42527 4.44082 3.30806 4.55803C3.19085 4.67524 3.125 4.83422 3.125 4.99998C3.125 5.16574 3.19085 5.32471 3.30806 5.44192C3.42527 5.55913 3.58424 5.62498 3.75 5.62498ZM14.375 14.375H3.75C3.58424 14.375 3.42527 14.4408 3.30806 14.558C3.19085 14.6752 3.125 14.8342 3.125 15C3.125 15.1657 3.19085 15.3247 3.30806 15.4419C3.42527 15.5591 3.58424 15.625 3.75 15.625H14.375C14.5408 15.625 14.6997 15.5591 14.8169 15.4419C14.9342 15.3247 15 15.1657 15 15C15 14.8342 14.9342 14.6752 14.8169 14.558C14.6997 14.4408 14.5408 14.375 14.375 14.375Z" fill="currentColor"/>
</svg>
