<svg width="20" height="20" viewBox="0 0 20 20" fill="none" xmlns="http://www.w3.org/2000/svg">
  <path opacity="0.2" d="M15.4449 11.7225L11.4089 13.2069C11.3249 13.2377 11.2486 13.2864 11.1853 13.3497C11.122 13.413 11.0733 13.4893 11.0425 13.5733L9.55816 17.6092C9.51436 17.7279 9.43523 17.8303 9.33145 17.9026C9.22766 17.975 9.1042 18.0137 8.97769 18.0137C8.85119 18.0137 8.72773 17.975 8.62395 17.9026C8.52016 17.8303 8.44103 17.7279 8.39723 17.6092L6.91285 13.5733C6.88208 13.4893 6.83336 13.413 6.77008 13.3497C6.7068 13.2864 6.63048 13.2377 6.54644 13.2069L2.51051 11.7225C2.39183 11.6787 2.28944 11.5996 2.21711 11.4958C2.14479 11.392 2.10602 11.2686 2.10602 11.1421C2.10602 11.0156 2.14479 10.8921 2.21711 10.7883C2.28944 10.6845 2.39183 10.6054 2.51051 10.5616L6.54644 9.07722C6.63048 9.04645 6.7068 8.99772 6.77008 8.93444C6.83336 8.87116 6.88208 8.79485 6.91285 8.71081L8.39723 4.67488C8.44103 4.5562 8.52016 4.4538 8.62395 4.38148C8.72773 4.30916 8.85119 4.27039 8.97769 4.27039C9.1042 4.27039 9.22766 4.30916 9.33145 4.38148C9.43523 4.4538 9.51436 4.5562 9.55816 4.67488L11.0425 8.71081C11.0733 8.79485 11.122 8.87116 11.1853 8.93444C11.2486 8.99772 11.3249 9.04645 11.4089 9.07722L15.4449 10.5616C15.5636 10.6054 15.666 10.6845 15.7383 10.7883C15.8106 10.8921 15.8494 11.0156 15.8494 11.1421C15.8494 11.2686 15.8106 11.392 15.7383 11.4958C15.666 11.5996 15.5636 11.6787 15.4449 11.7225Z" fill="url(#paint0_linear_1_23665)"/>
  <path d="M15.5469 9.78984L11.6492 8.35391L10.2102 4.45312C10.1001 4.15451 9.90106 3.89684 9.63997 3.71484C9.37889 3.53284 9.06827 3.43526 8.75001 3.43526C8.43175 3.43526 8.12114 3.53284 7.86005 3.71484C7.59897 3.89684 7.39996 4.15451 7.28986 4.45312L5.85392 8.35391L1.95314 9.78984C1.65453 9.89995 1.39685 10.099 1.21485 10.36C1.03285 10.6211 0.935272 10.9317 0.935272 11.25C0.935272 11.5683 1.03285 11.8789 1.21485 12.14C1.39685 12.401 1.65453 12.6001 1.95314 12.7102L5.85079 14.1461L7.28986 18.0469C7.39996 18.3455 7.59897 18.6032 7.86005 18.7852C8.12114 18.9672 8.43175 19.0647 8.75001 19.0647C9.06827 19.0647 9.37889 18.9672 9.63997 18.7852C9.90106 18.6032 10.1001 18.3455 10.2102 18.0469L11.6461 14.1492L15.5469 12.7102C15.8455 12.6001 16.1032 12.401 16.2852 12.14C16.4672 11.8789 16.5648 11.5683 16.5648 11.25C16.5648 10.9317 16.4672 10.6211 16.2852 10.36C16.1032 10.099 15.8455 9.89995 15.5469 9.78984ZM10.8594 12.4383C10.6481 12.516 10.4563 12.6387 10.2971 12.7979C10.1379 12.957 10.0152 13.1489 9.93751 13.3602L8.75001 16.5844L7.56173 13.3594C7.484 13.1483 7.36139 12.9567 7.20236 12.7977C7.04333 12.6386 6.85168 12.516 6.64064 12.4383L3.41564 11.25L6.64064 10.0617C6.85168 9.98399 7.04333 9.86138 7.20236 9.70235C7.36139 9.54332 7.484 9.35167 7.56173 9.14062L8.75001 5.91563L9.93829 9.14062C10.016 9.35189 10.1387 9.54375 10.2979 9.70292C10.457 9.86209 10.6489 9.98478 10.8602 10.0625L14.0844 11.25L10.8594 12.4383ZM10.9375 3.125C10.9375 2.87636 11.0363 2.6379 11.2121 2.46209C11.3879 2.28627 11.6264 2.1875 11.875 2.1875H12.8125V1.25C12.8125 1.00136 12.9113 0.762903 13.0871 0.587087C13.2629 0.411272 13.5014 0.3125 13.75 0.3125C13.9987 0.3125 14.2371 0.411272 14.4129 0.587087C14.5887 0.762903 14.6875 1.00136 14.6875 1.25V2.1875H15.625C15.8737 2.1875 16.1121 2.28627 16.2879 2.46209C16.4637 2.6379 16.5625 2.87636 16.5625 3.125C16.5625 3.37364 16.4637 3.6121 16.2879 3.78791C16.1121 3.96373 15.8737 4.0625 15.625 4.0625H14.6875V5C14.6875 5.24864 14.5887 5.4871 14.4129 5.66291C14.2371 5.83873 13.9987 5.9375 13.75 5.9375C13.5014 5.9375 13.2629 5.83873 13.0871 5.66291C12.9113 5.4871 12.8125 5.24864 12.8125 5V4.0625H11.875C11.6264 4.0625 11.3879 3.96373 11.2121 3.78791C11.0363 3.6121 10.9375 3.37364 10.9375 3.125ZM19.6875 6.875C19.6875 7.12364 19.5887 7.3621 19.4129 7.53791C19.2371 7.71373 18.9987 7.8125 18.75 7.8125H18.4375V8.125C18.4375 8.37364 18.3387 8.6121 18.1629 8.78791C17.9871 8.96373 17.7487 9.0625 17.5 9.0625C17.2514 9.0625 17.0129 8.96373 16.8371 8.78791C16.6613 8.6121 16.5625 8.37364 16.5625 8.125V7.8125H16.25C16.0014 7.8125 15.7629 7.71373 15.5871 7.53791C15.4113 7.3621 15.3125 7.12364 15.3125 6.875C15.3125 6.62636 15.4113 6.3879 15.5871 6.21209C15.7629 6.03627 16.0014 5.9375 16.25 5.9375H16.5625V5.625C16.5625 5.37636 16.6613 5.1379 16.8371 4.96209C17.0129 4.78627 17.2514 4.6875 17.5 4.6875C17.7487 4.6875 17.9871 4.78627 18.1629 4.96209C18.3387 5.1379 18.4375 5.37636 18.4375 5.625V5.9375H18.75C18.9987 5.9375 19.2371 6.03627 19.4129 6.21209C19.5887 6.3879 19.6875 6.62636 19.6875 6.875Z" fill="url(#paint1_linear_1_23665)"/>
  <defs>
    <linearGradient id="paint0_linear_1_23665" x1="2.10602" y1="18.0137" x2="15.8494" y2="4.27038" gradientUnits="userSpaceOnUse">
      <stop stop-color="#4661EB"/>
      <stop offset="0.712151" stop-color="#BB58ED"/>
      <stop offset="1" stop-color="#E352BE"/>
    </linearGradient>
    <linearGradient id="paint1_linear_1_23665" x1="0.935272" y1="19.0647" x2="19.6875" y2="0.3125" gradientUnits="userSpaceOnUse">
      <stop stop-color="#4661EB"/>
      <stop offset="0.712151" stop-color="#BB58ED"/>
      <stop offset="1" stop-color="#E352BE"/>
    </linearGradient>
  </defs>
</svg>
