<svg width="20" height="20" viewBox="0 0 20 20" fill="none" xmlns="http://www.w3.org/2000/svg">
<path opacity="0.2" d="M15.2203 11.8305L11.1844 13.3148C11.1004 13.3456 11.024 13.3943 10.9608 13.4576C10.8975 13.5209 10.8488 13.5972 10.818 13.6813L9.33362 17.7172C9.28981 17.8359 9.21068 17.9383 9.1069 18.0106C9.00311 18.0829 8.87965 18.1217 8.75315 18.1217C8.62665 18.1217 8.50318 18.0829 8.3994 18.0106C8.29561 17.9383 8.21648 17.8359 8.17268 17.7172L6.6883 13.6813C6.65753 13.5972 6.60881 13.5209 6.54553 13.4576C6.48225 13.3943 6.40593 13.3456 6.3219 13.3148L2.28596 11.8305C2.16728 11.7867 2.06489 11.7075 1.99257 11.6038C1.92024 11.5 1.88147 11.3765 1.88147 11.25C1.88147 11.1235 1.92024 11 1.99257 10.8963C2.06489 10.7925 2.16728 10.7133 2.28596 10.6695L6.3219 9.18516C6.40593 9.15439 6.48225 9.10566 6.54553 9.04238C6.60881 8.9791 6.65753 8.90279 6.6883 8.81875L8.17268 4.78282C8.21648 4.66414 8.29561 4.56174 8.3994 4.48942C8.50318 4.4171 8.62665 4.37833 8.75315 4.37833C8.87965 4.37833 9.00311 4.4171 9.1069 4.48942C9.21068 4.56174 9.28981 4.66414 9.33362 4.78282L10.818 8.81875C10.8488 8.90279 10.8975 8.9791 10.9608 9.04238C11.024 9.10566 11.1004 9.15439 11.1844 9.18516L15.2203 10.6695C15.339 10.7133 15.4414 10.7925 15.5137 10.8963C15.5861 11 15.6248 11.1235 15.6248 11.25C15.6248 11.3765 15.5861 11.5 15.5137 11.6038C15.4414 11.7075 15.339 11.7867 15.2203 11.8305Z" fill="currentColor"/>
<path d="M15.436 10.0828L11.404 8.59844L9.91958 4.56328C9.83168 4.32448 9.67264 4.11838 9.46393 3.9728C9.25521 3.82722 9.00687 3.74917 8.75239 3.74917C8.49792 3.74917 8.24958 3.82722 8.04086 3.9728C7.83215 4.11838 7.67311 4.32448 7.58521 4.56328L6.09927 8.59375L2.06411 10.0781C1.82531 10.166 1.61921 10.3251 1.47363 10.5338C1.32806 10.7425 1.25 10.9908 1.25 11.2453C1.25 11.4998 1.32806 11.7481 1.47363 11.9568C1.61921 12.1656 1.82531 12.3246 2.06411 12.4125L6.0938 13.9062L7.57818 17.9391C7.66608 18.1779 7.82512 18.384 8.03383 18.5295C8.24255 18.6751 8.49089 18.7532 8.74536 18.7532C8.99983 18.7532 9.24818 18.6751 9.45689 18.5295C9.66561 18.384 9.82465 18.1779 9.91255 17.9391L11.3969 13.907L15.4321 12.4227C15.6709 12.3348 15.877 12.1757 16.0226 11.967C16.1681 11.7583 16.2462 11.5099 16.2462 11.2555C16.2462 11.001 16.1681 10.7527 16.0226 10.5439C15.877 10.3352 15.6709 10.1762 15.4321 10.0883L15.436 10.0828ZM10.968 12.7344C10.7991 12.7964 10.6457 12.8944 10.5185 13.0216C10.3913 13.1488 10.2933 13.3022 10.2313 13.4711L8.74693 17.4914L7.26568 13.468C7.20364 13.3 7.10594 13.1474 6.9793 13.0208C6.85266 12.8941 6.70009 12.7964 6.53208 12.7344L2.51177 11.25L6.53208 9.76562C6.70009 9.70359 6.85266 9.60589 6.9793 9.47925C7.10594 9.35261 7.20364 9.20004 7.26568 9.03203L8.75005 5.01172L10.2344 9.03203C10.2964 9.20093 10.3944 9.35431 10.5216 9.48153C10.6489 9.60875 10.8022 9.70676 10.9711 9.76875L14.9915 11.2531L10.968 12.7344ZM11.2501 3.125C11.2501 2.95924 11.3159 2.80027 11.4331 2.68306C11.5503 2.56585 11.7093 2.5 11.8751 2.5H13.1251V1.25C13.1251 1.08424 13.1909 0.925268 13.3081 0.808058C13.4253 0.690848 13.5843 0.625 13.7501 0.625C13.9158 0.625 14.0748 0.690848 14.192 0.808058C14.3092 0.925268 14.3751 1.08424 14.3751 1.25V2.5H15.6251C15.7908 2.5 15.9498 2.56585 16.067 2.68306C16.1842 2.80027 16.2501 2.95924 16.2501 3.125C16.2501 3.29076 16.1842 3.44973 16.067 3.56694C15.9498 3.68415 15.7908 3.75 15.6251 3.75H14.3751V5C14.3751 5.16576 14.3092 5.32473 14.192 5.44194C14.0748 5.55915 13.9158 5.625 13.7501 5.625C13.5843 5.625 13.4253 5.55915 13.3081 5.44194C13.1909 5.32473 13.1251 5.16576 13.1251 5V3.75H11.8751C11.7093 3.75 11.5503 3.68415 11.4331 3.56694C11.3159 3.44973 11.2501 3.29076 11.2501 3.125ZM19.3751 6.875C19.3751 7.04076 19.3092 7.19973 19.192 7.31694C19.0748 7.43415 18.9158 7.5 18.7501 7.5H18.1251V8.125C18.1251 8.29076 18.0592 8.44973 17.942 8.56694C17.8248 8.68415 17.6658 8.75 17.5001 8.75C17.3343 8.75 17.1753 8.68415 17.0581 8.56694C16.9409 8.44973 16.8751 8.29076 16.8751 8.125V7.5H16.2501C16.0843 7.5 15.9253 7.43415 15.8081 7.31694C15.6909 7.19973 15.6251 7.04076 15.6251 6.875C15.6251 6.70924 15.6909 6.55027 15.8081 6.43306C15.9253 6.31585 16.0843 6.25 16.2501 6.25H16.8751V5.625C16.8751 5.45924 16.9409 5.30027 17.0581 5.18306C17.1753 5.06585 17.3343 5 17.5001 5C17.6658 5 17.8248 5.06585 17.942 5.18306C18.0592 5.30027 18.1251 5.45924 18.1251 5.625V6.25H18.7501C18.9158 6.25 19.0748 6.31585 19.192 6.43306C19.3092 6.55027 19.3751 6.70924 19.3751 6.875Z" fill="currentColor"/>
</svg>
