<svg width="20" height="20" viewBox="0 0 20 20" fill="none" xmlns="http://www.w3.org/2000/svg">
  <path
    d="M10.9375 2.5V5C10.9375 5.24864 10.8387 5.4871 10.6629 5.66291C10.4871 5.83873 10.2486 5.9375 10 5.9375C9.75136 5.9375 9.5129 5.83873 9.33709 5.66291C9.16127 5.4871 9.0625 5.24864 9.0625 5V2.5C9.0625 2.25136 9.16127 2.0129 9.33709 1.83709C9.5129 1.66127 9.75136 1.5625 10 1.5625C10.2486 1.5625 10.4871 1.66127 10.6629 1.83709C10.8387 2.0129 10.9375 2.25136 10.9375 2.5ZM13.5352 7.40234C13.6584 7.40234 13.7804 7.37805 13.8942 7.33086C14.008 7.28367 14.1114 7.21452 14.1984 7.12734L15.9664 5.35938C16.1425 5.18325 16.2415 4.94438 16.2415 4.69531C16.2415 4.44624 16.1425 4.20737 15.9664 4.03125C15.7903 3.85513 15.5514 3.75619 15.3023 3.75619C15.0533 3.75619 14.8144 3.85513 14.6383 4.03125L12.8727 5.80156C12.7414 5.93263 12.6521 6.09967 12.6158 6.28155C12.5795 6.46343 12.598 6.65198 12.669 6.82335C12.7399 6.99471 12.86 7.14119 13.0142 7.24426C13.1684 7.34732 13.3497 7.40234 13.5352 7.40234ZM17.5 9.0625H15C14.7514 9.0625 14.5129 9.16127 14.3371 9.33709C14.1613 9.5129 14.0625 9.75136 14.0625 10C14.0625 10.2486 14.1613 10.4871 14.3371 10.6629C14.5129 10.8387 14.7514 10.9375 15 10.9375H17.5C17.7486 10.9375 17.9871 10.8387 18.1629 10.6629C18.3387 10.4871 18.4375 10.2486 18.4375 10C18.4375 9.75136 18.3387 9.5129 18.1629 9.33709C17.9871 9.16127 17.7486 9.0625 17.5 9.0625ZM14.1984 12.8727C14.1112 12.7855 14.0077 12.7163 13.8938 12.6691C13.7798 12.6219 13.6577 12.5976 13.5344 12.5976C13.411 12.5976 13.2889 12.6219 13.175 12.6691C13.061 12.7163 12.9575 12.7855 12.8703 12.8727C12.7831 12.9599 12.7139 13.0634 12.6667 13.1773C12.6195 13.2913 12.5952 13.4134 12.5952 13.5367C12.5952 13.66 12.6195 13.7822 12.6667 13.8961C12.7139 14.01 12.7831 14.1136 12.8703 14.2008L14.6383 15.9688C14.8144 16.1449 15.0533 16.2438 15.3023 16.2438C15.5514 16.2438 15.7903 16.1449 15.9664 15.9688C16.1425 15.7926 16.2415 15.5538 16.2415 15.3047C16.2415 15.0556 16.1425 14.8167 15.9664 14.6406L14.1984 12.8727ZM10 14.0625C9.75136 14.0625 9.5129 14.1613 9.33709 14.3371C9.16127 14.5129 9.0625 14.7514 9.0625 15V17.5C9.0625 17.7486 9.16127 17.9871 9.33709 18.1629C9.5129 18.3387 9.75136 18.4375 10 18.4375C10.2486 18.4375 10.4871 18.3387 10.6629 18.1629C10.8387 17.9871 10.9375 17.7486 10.9375 17.5V15C10.9375 14.7514 10.8387 14.5129 10.6629 14.3371C10.4871 14.1613 10.2486 14.0625 10 14.0625ZM5.80156 12.8727L4.03359 14.6406C3.85747 14.8167 3.75853 15.0556 3.75853 15.3047C3.75853 15.5538 3.85747 15.7926 4.03359 15.9688C4.20971 16.1449 4.44858 16.2438 4.69766 16.2438C4.94673 16.2438 5.1856 16.1449 5.36172 15.9688L7.12969 14.2008C7.30581 14.0247 7.40475 13.7858 7.40475 13.5367C7.40475 13.2876 7.30581 13.0488 7.12969 12.8727C6.95357 12.6965 6.7147 12.5976 6.46563 12.5976C6.21655 12.5976 5.97768 12.6965 5.80156 12.8727ZM5.9375 10C5.9375 9.75136 5.83873 9.5129 5.66291 9.33709C5.4871 9.16127 5.24864 9.0625 5 9.0625H2.5C2.25136 9.0625 2.0129 9.16127 1.83709 9.33709C1.66127 9.5129 1.5625 9.75136 1.5625 10C1.5625 10.2486 1.66127 10.4871 1.83709 10.6629C2.0129 10.8387 2.25136 10.9375 2.5 10.9375H5C5.24864 10.9375 5.4871 10.8387 5.66291 10.6629C5.83873 10.4871 5.9375 10.2486 5.9375 10ZM5.35938 4.03359C5.18325 3.85747 4.94438 3.75853 4.69531 3.75853C4.44624 3.75853 4.20737 3.85747 4.03125 4.03359C3.85513 4.20971 3.75619 4.44858 3.75619 4.69766C3.75619 4.94673 3.85513 5.1856 4.03125 5.36172L5.80156 7.12734C5.97768 7.30346 6.21655 7.40241 6.46563 7.40241C6.7147 7.40241 6.95357 7.30346 7.12969 7.12734C7.30581 6.95122 7.40475 6.71235 7.40475 6.46328C7.40475 6.21421 7.30581 5.97534 7.12969 5.79922L5.35938 4.03359Z"
    fill="currentColor" />
  <path opacity="0.2"
    d="M17.5 10C17.5 11.4834 17.0601 12.9334 16.236 14.1668C15.4119 15.4001 14.2406 16.3614 12.8701 16.9291C11.4997 17.4968 9.99168 17.6453 8.53683 17.3559C7.08197 17.0665 5.7456 16.3522 4.6967 15.3033C3.64781 14.2544 2.9335 12.918 2.64411 11.4632C2.35472 10.0083 2.50325 8.50032 3.07091 7.12987C3.63856 5.75943 4.59986 4.58809 5.83323 3.76398C7.0666 2.93987 8.51664 2.5 10 2.5C11.9891 2.5 13.8968 3.29018 15.3033 4.6967C16.7098 6.10322 17.5 8.01088 17.5 10Z"
    fill="currentColor" />
</svg>
