<svg width="20" height="20" viewBox="0 0 20 20" fill="none" xmlns="http://www.w3.org/2000/svg">
<path d="M8.75 3.125H3.75C3.40482 3.125 3.125 3.40482 3.125 3.75V8.75C3.125 9.09518 3.40482 9.375 3.75 9.375H8.75C9.09518 9.375 9.375 9.09518 9.375 8.75V3.75C9.375 3.40482 9.09518 3.125 8.75 3.125Z" fill="currentColor"/>
<path d="M16.25 3.125H11.25C10.9048 3.125 10.625 3.40482 10.625 3.75V8.75C10.625 9.09518 10.9048 9.375 11.25 9.375H16.25C16.5952 9.375 16.875 9.09518 16.875 8.75V3.75C16.875 3.40482 16.5952 3.125 16.25 3.125Z" fill="currentColor"/>
<path d="M8.75 10.625H3.75C3.40482 10.625 3.125 10.9048 3.125 11.25V16.25C3.125 16.5952 3.40482 16.875 3.75 16.875H8.75C9.09518 16.875 9.375 16.5952 9.375 16.25V11.25C9.375 10.9048 9.09518 10.625 8.75 10.625Z" fill="currentColor"/>
<path d="M16.25 10.625H11.25C10.9048 10.625 10.625 10.9048 10.625 11.25V16.25C10.625 16.5952 10.9048 16.875 11.25 16.875H16.25C16.5952 16.875 16.875 16.5952 16.875 16.25V11.25C16.875 10.9048 16.5952 10.625 16.25 10.625Z" fill="currentColor"/>
</svg>
