<svg width="20" height="20" viewBox="0 0 20 20" fill="none" xmlns="http://www.w3.org/2000/svg">
<path d="M17.1875 13.2109L10 17.3984L2.81253 13.2109C2.67069 13.1429 2.5084 13.1309 2.35807 13.1772C2.20774 13.2236 2.08042 13.3249 2.00153 13.461C1.92263 13.5971 1.89796 13.758 1.93243 13.9114C1.96691 14.0649 2.058 14.1998 2.18753 14.2891L9.68753 18.6641C9.782 18.7205 9.88999 18.7503 10 18.7503C10.1101 18.7503 10.2181 18.7205 10.3125 18.6641L17.8125 14.2891C17.8902 14.2518 17.9594 14.1988 18.0157 14.1336C18.0719 14.0683 18.1141 13.9921 18.1395 13.9097C18.1649 13.8273 18.173 13.7406 18.1632 13.655C18.1535 13.5693 18.1262 13.4866 18.083 13.4121C18.0397 13.3375 17.9815 13.2727 17.9121 13.2217C17.8426 13.1707 17.7633 13.1346 17.6792 13.1157C17.5951 13.0968 17.508 13.0955 17.4234 13.1119C17.3388 13.1283 17.2585 13.162 17.1875 13.2109Z" fill="currentColor"/>
<path d="M17.1875 9.46093L10 13.6484L2.81253 9.46093C2.67069 9.3929 2.5084 9.38086 2.35807 9.42721C2.20774 9.47357 2.08042 9.57491 2.00153 9.71101C1.92263 9.84711 1.89796 10.008 1.93243 10.1614C1.96691 10.3149 2.058 10.4498 2.18753 10.5391L9.68753 14.9141C9.782 14.9705 9.88999 15.0003 10 15.0003C10.1101 15.0003 10.2181 14.9705 10.3125 14.9141L17.8125 10.5391C17.8902 10.5018 17.9594 10.4488 18.0157 10.3836C18.0719 10.3183 18.1141 10.2421 18.1395 10.1597C18.1649 10.0773 18.173 9.9906 18.1632 9.90497C18.1535 9.81933 18.1262 9.73663 18.083 9.66207C18.0397 9.5875 17.9815 9.52269 17.9121 9.47169C17.8426 9.42069 17.7633 9.38461 17.6792 9.36572C17.5951 9.34683 17.508 9.34554 17.4234 9.36192C17.3388 9.37831 17.2585 9.41202 17.1875 9.46093Z" fill="currentColor"/>
<path d="M2.18762 6.78908L9.68762 11.1641C9.78209 11.2205 9.89008 11.2503 10.0001 11.2503C10.1102 11.2503 10.2182 11.2205 10.3126 11.1641L17.8126 6.78908C17.9066 6.73393 17.9845 6.65517 18.0387 6.56062C18.0928 6.46606 18.1213 6.35898 18.1213 6.25001C18.1213 6.14105 18.0928 6.03397 18.0387 5.93941C17.9845 5.84485 17.9066 5.76609 17.8126 5.71095L10.3126 1.33595C10.2184 1.27869 10.1103 1.24841 10.0001 1.24841C9.8899 1.24841 9.7818 1.27869 9.68762 1.33595L2.18762 5.71095C2.09364 5.76609 2.0157 5.84485 1.96155 5.93941C1.9074 6.03397 1.87891 6.14105 1.87891 6.25001C1.87891 6.35898 1.9074 6.46606 1.96155 6.56062C2.0157 6.65517 2.09364 6.73393 2.18762 6.78908Z" fill="currentColor"/>
</svg>
