<svg width="20" height="20" viewBox="0 0 20 20" fill="none" xmlns="http://www.w3.org/2000/svg">
<path fill-rule="evenodd" clip-rule="evenodd" d="M11.6875 3.125C11.6875 2.84886 11.9114 2.625 12.1875 2.625H16.5625C16.8386 2.625 17.0625 2.84886 17.0625 3.125V16.25C17.0625 16.5261 16.8386 16.75 16.5625 16.75H14.4464C14.4458 16.75 14.4451 16.75 14.4444 16.75H7.88346C7.86028 16.7533 7.83659 16.755 7.8125 16.755C7.78841 16.755 7.76472 16.7533 7.74154 16.75H3.4375C3.16136 16.75 2.9375 16.5261 2.9375 16.25V12.4372V11.4997V6.81216C2.9375 6.53602 3.16136 6.31216 3.4375 6.31216H7.3125V5.875C7.3125 5.59886 7.53636 5.375 7.8125 5.375H11.6875V3.125ZM7.3125 7.31216H3.9375V10.9997H7.3125V7.31216ZM7.3125 11.9997H3.9375V12.4372V15.75H7.3125V11.9997ZM8.3125 15.75V11.4997V6.81216V6.375H11.6875V15.75H8.3125ZM12.6875 15.75V5.875V3.625H16.0625V15.75H12.6875Z" fill="currentColor"/>
</svg>
