<svg width="20" height="20" viewBox="0 0 20 20" fill="none" xmlns="http://www.w3.org/2000/svg">
<path d="M18.6875 7.60938C18.6092 7.36327 18.4585 7.14654 18.2549 6.98761C18.0514 6.82868 17.8046 6.73496 17.5468 6.71875L12.9062 6.39844L11.1875 2.0625C11.0936 1.82375 10.9303 1.61867 10.7185 1.47382C10.5068 1.32896 10.2565 1.25099 9.99997 1.25C9.74344 1.25099 9.49311 1.32896 9.28139 1.47382C9.06968 1.61867 8.90632 1.82375 8.81247 2.0625L7.06247 6.42188L2.45309 6.71875C2.19567 6.73601 1.94936 6.83012 1.74601 6.9889C1.54266 7.14768 1.39163 7.36383 1.31247 7.60938C1.23117 7.85869 1.22642 8.12664 1.29883 8.37868C1.37124 8.63072 1.51749 8.85529 1.71872 9.02344L5.26559 12.0234L4.2109 16.1719C4.13793 16.4525 4.15107 16.7486 4.24859 17.0217C4.34612 17.2948 4.52354 17.5322 4.75778 17.7031C4.98515 17.8663 5.25604 17.9579 5.53578 17.9663C5.81552 17.9746 6.09139 17.8993 6.32809 17.75L9.99216 15.4297H10.0078L13.9531 17.9219C14.1555 18.0534 14.3914 18.1239 14.6328 18.125C14.8299 18.1235 15.0239 18.0767 15.2001 17.9884C15.3763 17.9002 15.5299 17.7727 15.6491 17.6157C15.7683 17.4588 15.85 17.2766 15.8878 17.0832C15.9256 16.8898 15.9185 16.6903 15.8672 16.5L14.75 11.9609L18.2812 9.02344C18.4824 8.85529 18.6287 8.63072 18.7011 8.37868C18.7735 8.12664 18.7688 7.85869 18.6875 7.60938Z" fill="currentColor"/>
</svg>
