<svg
  width="21"
  height="21"
  viewBox="0 0 21 21"
  fill="none"
  xmlns="http://www.w3.org/2000/svg"
>
  <path
    d="M9.60059 3.2627V2.6377C9.60059 2.47194 9.66643 2.31296 9.78364 2.19575C9.90085 2.07854 10.0598 2.0127 10.2256 2.0127C10.3913 2.0127 10.5503 2.07854 10.6675 2.19575C10.7847 2.31296 10.8506 2.47194 10.8506 2.6377V3.2627C10.8506 3.42846 10.7847 3.58743 10.6675 3.70464C10.5503 3.82185 10.3913 3.8877 10.2256 3.8877C10.0598 3.8877 9.90085 3.82185 9.78364 3.70464C9.66643 3.58743 9.60059 3.42846 9.60059 3.2627ZM10.2256 5.1377C9.23668 5.1377 8.26998 5.43094 7.44773 5.98035C6.62549 6.52975 5.98463 7.31065 5.60619 8.22428C5.22775 9.13791 5.12873 10.1432 5.32166 11.1131C5.51459 12.0831 5.99079 12.974 6.69005 13.6732C7.38931 14.3725 8.28023 14.8487 9.25013 15.0416C10.22 15.2345 11.2254 15.1355 12.139 14.7571C13.0526 14.3787 13.8335 13.7378 14.3829 12.9155C14.9323 12.0933 15.2256 11.1266 15.2256 10.1377C15.2241 8.81206 14.6969 7.54113 13.7595 6.60376C12.8222 5.66639 11.5512 5.13914 10.2256 5.1377ZM4.7834 5.57988C4.90067 5.69716 5.05973 5.76304 5.22559 5.76304C5.39144 5.76304 5.5505 5.69716 5.66777 5.57988C5.78505 5.46261 5.85093 5.30355 5.85093 5.1377C5.85093 4.97184 5.78505 4.81278 5.66777 4.69551L5.04277 4.07051C4.9255 3.95323 4.76644 3.88735 4.60059 3.88735C4.43473 3.88735 4.27567 3.95323 4.1584 4.07051C4.04112 4.18778 3.97524 4.34684 3.97524 4.5127C3.97524 4.67855 4.04112 4.83761 4.1584 4.95488L4.7834 5.57988ZM4.7834 14.6955L4.1584 15.3205C4.04112 15.4378 3.97524 15.5968 3.97524 15.7627C3.97524 15.9285 4.04112 16.0876 4.1584 16.2049C4.27567 16.3222 4.43473 16.388 4.60059 16.388C4.76644 16.388 4.9255 16.3222 5.04277 16.2049L5.66777 15.5799C5.72584 15.5218 5.77191 15.4529 5.80333 15.377C5.83476 15.3011 5.85093 15.2198 5.85093 15.1377C5.85093 15.0556 5.83476 14.9743 5.80333 14.8984C5.77191 14.8225 5.72584 14.7536 5.66777 14.6955C5.6097 14.6374 5.54077 14.5914 5.4649 14.5599C5.38903 14.5285 5.30771 14.5123 5.22559 14.5123C5.14346 14.5123 5.06215 14.5285 4.98628 14.5599C4.91041 14.5914 4.84147 14.6374 4.7834 14.6955ZM15.2256 5.7627C15.3077 5.76276 15.389 5.74665 15.4649 5.71528C15.5407 5.68391 15.6097 5.6379 15.6678 5.57988L16.2928 4.95488C16.41 4.83761 16.4759 4.67855 16.4759 4.5127C16.4759 4.34684 16.41 4.18778 16.2928 4.07051C16.1755 3.95323 16.0164 3.88735 15.8506 3.88735C15.6847 3.88735 15.5257 3.95323 15.4084 4.07051L14.7834 4.69551C14.6959 4.78292 14.6363 4.89433 14.6121 5.01563C14.588 5.13693 14.6004 5.26267 14.6477 5.37694C14.695 5.4912 14.7752 5.58885 14.8781 5.65752C14.981 5.72619 15.1019 5.76279 15.2256 5.7627ZM15.6678 14.6955C15.5505 14.5782 15.3914 14.5123 15.2256 14.5123C15.0597 14.5123 14.9007 14.5782 14.7834 14.6955C14.6661 14.8128 14.6002 14.9718 14.6002 15.1377C14.6002 15.3035 14.6661 15.4626 14.7834 15.5799L15.4084 16.2049C15.4665 16.263 15.5354 16.309 15.6113 16.3404C15.6871 16.3719 15.7685 16.388 15.8506 16.388C15.9327 16.388 16.014 16.3719 16.0899 16.3404C16.1658 16.309 16.2347 16.263 16.2928 16.2049C16.3508 16.1468 16.3969 16.0779 16.4283 16.002C16.4598 15.9261 16.4759 15.8448 16.4759 15.7627C16.4759 15.6806 16.4598 15.5993 16.4283 15.5234C16.3969 15.4475 16.3508 15.3786 16.2928 15.3205L15.6678 14.6955ZM3.35059 9.5127H2.72559C2.55983 9.5127 2.40085 9.57854 2.28364 9.69575C2.16643 9.81296 2.10059 9.97194 2.10059 10.1377C2.10059 10.3035 2.16643 10.4624 2.28364 10.5796C2.40085 10.6968 2.55983 10.7627 2.72559 10.7627H3.35059C3.51635 10.7627 3.67532 10.6968 3.79253 10.5796C3.90974 10.4624 3.97559 10.3035 3.97559 10.1377C3.97559 9.97194 3.90974 9.81296 3.79253 9.69575C3.67532 9.57854 3.51635 9.5127 3.35059 9.5127ZM10.2256 16.3877C10.0598 16.3877 9.90085 16.4535 9.78364 16.5708C9.66643 16.688 9.60059 16.8469 9.60059 17.0127V17.6377C9.60059 17.8035 9.66643 17.9624 9.78364 18.0796C9.90085 18.1968 10.0598 18.2627 10.2256 18.2627C10.3913 18.2627 10.5503 18.1968 10.6675 18.0796C10.7847 17.9624 10.8506 17.8035 10.8506 17.6377V17.0127C10.8506 16.8469 10.7847 16.688 10.6675 16.5708C10.5503 16.4535 10.3913 16.3877 10.2256 16.3877ZM17.7256 9.5127H17.1006C16.9348 9.5127 16.7759 9.57854 16.6586 9.69575C16.5414 9.81296 16.4756 9.97194 16.4756 10.1377C16.4756 10.3035 16.5414 10.4624 16.6586 10.5796C16.7759 10.6968 16.9348 10.7627 17.1006 10.7627H17.7256C17.8913 10.7627 18.0503 10.6968 18.1675 10.5796C18.2847 10.4624 18.3506 10.3035 18.3506 10.1377C18.3506 9.97194 18.2847 9.81296 18.1675 9.69575C18.0503 9.57854 17.8913 9.5127 17.7256 9.5127Z"
    fill="currentColor"
  />
</svg>
