<svg width="20" height="20" viewBox="0 0 20 20" fill="none" xmlns="http://www.w3.org/2000/svg">
  <path
    d="M19.2305 10.4047L11.4711 2.64532C11.3264 2.4997 11.1543 2.38424 10.9647 2.30565C10.775 2.22707 10.5717 2.18691 10.3664 2.18751H3.12501C2.87637 2.18751 2.63791 2.28628 2.46209 2.46209C2.28628 2.63791 2.18751 2.87637 2.18751 3.12501V10.3664C2.18691 10.5717 2.22707 10.775 2.30565 10.9647C2.38424 11.1543 2.4997 11.3264 2.64532 11.4711L10.4047 19.2305C10.6977 19.5234 11.0951 19.688 11.5094 19.688C11.9237 19.688 12.3211 19.5234 12.6141 19.2305L19.2305 12.6141C19.5234 12.3211 19.688 11.9237 19.688 11.5094C19.688 11.0951 19.5234 10.6977 19.2305 10.4047ZM11.5094 17.6836L4.06251 10.2344V4.06251H10.2344L17.6813 11.5094L11.5094 17.6836ZM7.81251 6.56251C7.81251 6.80974 7.7392 7.05141 7.60184 7.25697C7.46449 7.46254 7.26927 7.62275 7.04086 7.71736C6.81245 7.81197 6.56112 7.83673 6.31864 7.78849C6.07617 7.74026 5.85344 7.62121 5.67862 7.44639C5.50381 7.27158 5.38476 7.04885 5.33652 6.80637C5.28829 6.5639 5.31305 6.31256 5.40766 6.08416C5.50227 5.85575 5.66248 5.66052 5.86804 5.52317C6.07361 5.38582 6.31528 5.31251 6.56251 5.31251C6.89403 5.31251 7.21197 5.44421 7.44639 5.67863C7.68081 5.91305 7.81251 6.23099 7.81251 6.56251Z"
    fill="currentColor" />
  <path opacity="0.2"
    d="M18.4503 12.2075L11.8362 18.8216C11.719 18.9387 11.5601 19.0045 11.3944 19.0045C11.2288 19.0045 11.0698 18.9387 10.9526 18.8216L3.19093 11.0622C3.07394 10.9451 3.00819 10.7863 3.00812 10.6208V3.37939H10.2495C10.4151 3.37947 10.5738 3.44522 10.6909 3.56221L18.4503 11.3216C18.5087 11.3797 18.5549 11.4487 18.5865 11.5247C18.6181 11.6007 18.6344 11.6822 18.6344 11.7646C18.6344 11.8469 18.6181 11.9284 18.5865 12.0044C18.5549 12.0804 18.5087 12.1495 18.4503 12.2075Z"
    fill="currentColor" />
</svg>
