<svg width="20" height="20" viewBox="0 0 20 20" fill="none" xmlns="http://www.w3.org/2000/svg">
<path d="M16.25 7.5C16.5815 7.5 16.8995 7.3683 17.1339 7.13388C17.3683 6.89946 17.5 6.58152 17.5 6.25V3.75C17.5 3.41848 17.3683 3.10054 17.1339 2.86612C16.8995 2.6317 16.5815 2.5 16.25 2.5H13.75C13.4185 2.5 13.1005 2.6317 12.8661 2.86612C12.6317 3.10054 12.5 3.41848 12.5 3.75V4.375H7.5V3.75C7.5 3.41848 7.3683 3.10054 7.13388 2.86612C6.89946 2.6317 6.58152 2.5 6.25 2.5H3.75C3.41848 2.5 3.10054 2.6317 2.86612 2.86612C2.6317 3.10054 2.5 3.41848 2.5 3.75V6.25C2.5 6.58152 2.6317 6.89946 2.86612 7.13388C3.10054 7.3683 3.41848 7.5 3.75 7.5H4.375V12.5H3.75C3.41848 12.5 3.10054 12.6317 2.86612 12.8661C2.6317 13.1005 2.5 13.4185 2.5 13.75V16.25C2.5 16.5815 2.6317 16.8995 2.86612 17.1339C3.10054 17.3683 3.41848 17.5 3.75 17.5H6.25C6.58152 17.5 6.89946 17.3683 7.13388 17.1339C7.3683 16.8995 7.5 16.5815 7.5 16.25V15.625H12.5V16.25C12.5 16.5815 12.6317 16.8995 12.8661 17.1339C13.1005 17.3683 13.4185 17.5 13.75 17.5H16.25C16.5815 17.5 16.8995 17.3683 17.1339 17.1339C17.3683 16.8995 17.5 16.5815 17.5 16.25V13.75C17.5 13.4185 17.3683 13.1005 17.1339 12.8661C16.8995 12.6317 16.5815 12.5 16.25 12.5H15.625V7.5H16.25ZM14.375 12.5H13.75C13.4185 12.5 13.1005 12.6317 12.8661 12.8661C12.6317 13.1005 12.5 13.4185 12.5 13.75V14.375H7.5V13.75C7.5 13.4185 7.3683 13.1005 7.13388 12.8661C6.89946 12.6317 6.58152 12.5 6.25 12.5H5.625V7.5H6.25C6.58152 7.5 6.89946 7.3683 7.13388 7.13388C7.3683 6.89946 7.5 6.58152 7.5 6.25V5.625H12.5V6.25C12.5 6.58152 12.6317 6.89946 12.8661 7.13388C13.1005 7.3683 13.4185 7.5 13.75 7.5H14.375V12.5Z" fill="currentColor"/>
</svg>
