<svg
  xmlns="http://www.w3.org/2000/svg"
  width="20"
  height="20"
  viewBox="0 0 20 20"
  fill="none"
>
  <rect opacity="0.2" x="4" y="3" width="12" height="14" fill="currentColor" />
  <path
    fill-rule="evenodd"
    clip-rule="evenodd"
    d="M3 4C3 2.89543 3.89543 2 5 2H5.83333C6.38562 2 6.83333 2.44772 6.83333 3C6.83333 3.55228 6.38562 4 5.83333 4L5 4V5C5 5.55228 4.55228 6 4 6C3.44772 6 3 5.55228 3 5V4ZM8.16667 3C8.16667 2.44772 8.61438 2 9.16667 2H10.8333C11.3856 2 11.8333 2.44772 11.8333 3C11.8333 3.55228 11.3856 4 10.8333 4H9.16667C8.61438 4 8.16667 3.55228 8.16667 3ZM13.1667 3C13.1667 2.44772 13.6144 2 14.1667 2H15C16.1046 2 17 2.89543 17 4V5C17 5.55228 16.5523 6 16 6C15.4477 6 15 5.55228 15 5V4H14.1667C13.6144 4 13.1667 3.55228 13.1667 3ZM16 8C16.5523 8 17 8.44771 17 9V11C17 11.5523 16.5523 12 16 12C15.4477 12 15 11.5523 15 11V9C15 8.44771 15.4477 8 16 8ZM4 8C4.55228 8 5 8.44772 5 9V11C5 11.5523 4.55228 12 4 12C3.44772 12 3 11.5523 3 11V9C3 8.44772 3.44772 8 4 8ZM4 14C4.55228 14 5 14.4477 5 15V16H5.83333C6.38562 16 6.83333 16.4477 6.83333 17C6.83333 17.5523 6.38562 18 5.83333 18H5C3.89543 18 3 17.1046 3 16V15C3 14.4477 3.44772 14 4 14ZM16 14C16.5523 14 17 14.4477 17 15V16C17 17.1046 16.1046 18 15 18H14.1667C13.6144 18 13.1667 17.5523 13.1667 17C13.1667 16.4477 13.6144 16 14.1667 16H15V15C15 14.4477 15.4477 14 16 14ZM8.16667 17C8.16667 16.4477 8.61438 16 9.16667 16H10.8333C11.3856 16 11.8333 16.4477 11.8333 17C11.8333 17.5523 11.3856 18 10.8333 18H9.16667C8.61438 18 8.16667 17.5523 8.16667 17Z"
    fill="currentColor"
  />
</svg>
