<svg width="20" height="20" viewBox="0 0 20 20" fill="none" xmlns="http://www.w3.org/2000/svg">
<path d="M16.8359 3.08594H3.16406C2.81182 3.08594 2.47401 3.22586 2.22494 3.47494C1.97586 3.72401 1.83594 4.06182 1.83594 4.41406V15.5859C1.83594 15.9382 1.97586 16.276 2.22494 16.5251C2.47401 16.7741 2.81182 16.9141 3.16406 16.9141H16.8359C17.1882 16.9141 17.526 16.7741 17.7751 16.5251C18.0241 16.276 18.1641 15.9382 18.1641 15.5859V4.41406C18.1641 4.06182 18.0241 3.72401 17.7751 3.47494C17.526 3.22586 17.1882 3.08594 16.8359 3.08594ZM9.45312 10.4844L6.32812 12.9844C6.21806 13.075 6.08004 13.1246 5.9375 13.125C5.84421 13.1256 5.75202 13.1048 5.66804 13.0642C5.58406 13.0235 5.51053 12.9642 5.45313 12.8906C5.40118 12.8273 5.36237 12.7543 5.33894 12.6758C5.31551 12.5973 5.30794 12.5149 5.31666 12.4335C5.32539 12.352 5.35024 12.2732 5.38976 12.2014C5.42929 12.1297 5.4827 12.0665 5.54688 12.0156L8.0625 10L5.54688 7.98438C5.47434 7.93633 5.41263 7.87367 5.3657 7.80041C5.31877 7.72714 5.28766 7.64489 5.27435 7.55891C5.26104 7.47293 5.26583 7.38511 5.28841 7.30109C5.31099 7.21706 5.35087 7.13868 5.40548 7.07095C5.4601 7.00323 5.52826 6.94765 5.60559 6.90778C5.68292 6.86791 5.76773 6.84463 5.85458 6.83942C5.94143 6.83421 6.02841 6.84719 6.10995 6.87754C6.19149 6.90788 6.2658 6.95491 6.32812 7.01563L9.45312 9.51562C9.52628 9.5734 9.58541 9.64699 9.62605 9.73088C9.6667 9.81477 9.68782 9.90678 9.68782 10C9.68782 10.0932 9.6667 10.1852 9.62605 10.2691C9.58541 10.353 9.52628 10.4266 9.45312 10.4844ZM14.0625 13.125H10.9375C10.7717 13.125 10.6128 13.0592 10.4956 12.9419C10.3783 12.8247 10.3125 12.6658 10.3125 12.5C10.3125 12.3342 10.3783 12.1753 10.4956 12.0581C10.6128 11.9408 10.7717 11.875 10.9375 11.875H14.0625C14.2283 11.875 14.3872 11.9408 14.5044 12.0581C14.6217 12.1753 14.6875 12.3342 14.6875 12.5C14.6875 12.6658 14.6217 12.8247 14.5044 12.9419C14.3872 13.0592 14.2283 13.125 14.0625 13.125Z" fill="currentColor"/>
</svg>
