<svg width="20" height="20" viewBox="0 0 20 20" fill="none" xmlns="http://www.w3.org/2000/svg">
<path d="M9.37518 9.99995C9.37526 9.91133 9.35649 9.8237 9.32013 9.74289C9.28376 9.66207 9.23062 9.58991 9.16424 9.5312L3.53924 4.5312C3.47768 4.47683 3.40602 4.43511 3.32834 4.40843C3.25066 4.38175 3.16848 4.37063 3.08651 4.37571C3.00453 4.38079 2.92436 4.40196 2.85056 4.43802C2.77677 4.47409 2.7108 4.52433 2.65643 4.58589C2.60205 4.64745 2.56033 4.71911 2.53365 4.79679C2.50697 4.87447 2.49586 4.95664 2.50093 5.03862C2.50601 5.1206 2.52719 5.20077 2.56325 5.27456C2.59931 5.34836 2.64956 5.41433 2.71111 5.4687L7.81268 9.99995L2.71111 14.5312C2.61586 14.6152 2.54846 14.7262 2.51789 14.8495C2.48732 14.9728 2.49503 15.1025 2.54 15.2212C2.58496 15.34 2.66505 15.4423 2.76959 15.5144C2.87413 15.5865 2.99817 15.6251 3.12518 15.625C3.2775 15.6244 3.42452 15.5689 3.53924 15.4687L9.16424 10.4687C9.23062 10.41 9.28376 10.3378 9.32013 10.257C9.35649 10.1762 9.37526 10.0886 9.37518 9.99995Z" fill="currentColor"/>
<path d="M16.875 14.375H9.375C9.20924 14.375 9.05027 14.4408 8.93306 14.5581C8.81585 14.6753 8.75 14.8342 8.75 15C8.75 15.1658 8.81585 15.3247 8.93306 15.4419C9.05027 15.5592 9.20924 15.625 9.375 15.625H16.875C17.0408 15.625 17.1997 15.5592 17.3169 15.4419C17.4342 15.3247 17.5 15.1658 17.5 15C17.5 14.8342 17.4342 14.6753 17.3169 14.5581C17.1997 14.4408 17.0408 14.375 16.875 14.375Z" fill="currentColor"/>
</svg>
