<svg
  xmlns="http://www.w3.org/2000/svg"
  width="20"
  height="20"
  viewBox="0 0 20 20"
  fill="none"
>
  <path
    opacity="0.2"
    d="M17.3215 5.05188V16.3019H3.57153C3.40577 16.3019 3.2468 16.236 3.12959 16.1188C3.01238 16.0016 2.94653 15.8426 2.94653 15.6769V4.42688H16.6965C16.8623 4.42688 17.0213 4.49273 17.1385 4.60994C17.2557 4.72715 17.3215 4.88612 17.3215 5.05188Z"
    fill="currentColor"
  />
  <path
    d="M18.4375 8.75V16.25C18.4375 16.4986 18.3387 16.7371 18.1629 16.9129C17.9871 17.0887 17.7486 17.1875 17.5 17.1875C17.2514 17.1875 17.0129 17.0887 16.8371 16.9129C16.6613 16.7371 16.5625 16.4986 16.5625 16.25V10.5016L16.1453 10.7812C16.0427 10.8496 15.9277 10.897 15.8067 10.9209C15.6858 10.9448 15.5613 10.9446 15.4405 10.9203C15.3196 10.8961 15.2047 10.8483 15.1023 10.7797C14.9999 10.711 14.9121 10.6229 14.8438 10.5203C14.7754 10.4177 14.728 10.3027 14.7041 10.1817C14.6802 10.0608 14.6804 9.93635 14.7047 9.81549C14.7289 9.69463 14.7767 9.57972 14.8453 9.47733C14.914 9.37495 15.0021 9.28708 15.1047 9.21875L16.9797 7.96875C17.121 7.87449 17.2852 7.82038 17.4548 7.8122C17.6245 7.80401 17.7931 7.84207 17.9428 7.92229C18.0925 8.00251 18.2176 8.12189 18.3047 8.26767C18.3919 8.41345 18.4378 8.58017 18.4375 8.75ZM11.25 3.4375C11.0014 3.4375 10.7629 3.53627 10.5871 3.71209C10.4113 3.8879 10.3125 4.12636 10.3125 4.375V8.125H4.0625V4.375C4.0625 4.12636 3.96373 3.8879 3.78791 3.71209C3.6121 3.53627 3.37364 3.4375 3.125 3.4375C2.87636 3.4375 2.6379 3.53627 2.46209 3.71209C2.28627 3.8879 2.1875 4.12636 2.1875 4.375V13.75C2.1875 13.9986 2.28627 14.2371 2.46209 14.4129C2.6379 14.5887 2.87636 14.6875 3.125 14.6875C3.37364 14.6875 3.6121 14.5887 3.78791 14.4129C3.96373 14.2371 4.0625 13.9986 4.0625 13.75V10H10.3125V13.75C10.3125 13.9986 10.4113 14.2371 10.5871 14.4129C10.7629 14.5887 11.0014 14.6875 11.25 14.6875C11.4986 14.6875 11.7371 14.5887 11.9129 14.4129C12.0887 14.2371 12.1875 13.9986 12.1875 13.75V4.375C12.1875 4.12636 12.0887 3.8879 11.9129 3.71209C11.7371 3.53627 11.4986 3.4375 11.25 3.4375Z"
    fill="currentColor"
  />
</svg>
