<svg width="20" height="20" viewBox="0 0 20 20" fill="none" xmlns="http://www.w3.org/2000/svg">
<path d="M15.625 4.375C15.625 4.54076 15.5592 4.69973 15.4419 4.81694C15.3247 4.93415 15.1658 5 15 5H12.3281L8.99219 15H11.25C11.4158 15 11.5747 15.0658 11.6919 15.1831C11.8092 15.3003 11.875 15.4592 11.875 15.625C11.875 15.7908 11.8092 15.9497 11.6919 16.0669C11.5747 16.1842 11.4158 16.25 11.25 16.25H5C4.83424 16.25 4.67527 16.1842 4.55806 16.0669C4.44085 15.9497 4.375 15.7908 4.375 15.625C4.375 15.4592 4.44085 15.3003 4.55806 15.1831C4.67527 15.0658 4.83424 15 5 15H7.67187L11.0078 5H8.75C8.58424 5 8.42527 4.93415 8.30806 4.81694C8.19085 4.69973 8.125 4.54076 8.125 4.375C8.125 4.20924 8.19085 4.05027 8.30806 3.93306C8.42527 3.81585 8.58424 3.75 8.75 3.75H15C15.1658 3.75 15.3247 3.81585 15.4419 3.93306C15.5592 4.05027 15.625 4.20924 15.625 4.375Z" fill="currentColor"/>
</svg>
