<svg width="20" height="20" viewBox="0 0 20 20" fill="none" xmlns="http://www.w3.org/2000/svg">
<path d="M11.875 4.375V13.75C11.875 13.9158 11.8092 14.0747 11.6919 14.1919C11.5747 14.3092 11.4158 14.375 11.25 14.375C11.0842 14.375 10.9253 14.3092 10.8081 14.1919C10.6908 14.0747 10.625 13.9158 10.625 13.75V9.6875H3.75V13.75C3.75 13.9158 3.68415 14.0747 3.56694 14.1919C3.44973 14.3092 3.29076 14.375 3.125 14.375C2.95924 14.375 2.80027 14.3092 2.68306 14.1919C2.56585 14.0747 2.5 13.9158 2.5 13.75V4.375C2.5 4.20924 2.56585 4.05027 2.68306 3.93306C2.80027 3.81585 2.95924 3.75 3.125 3.75C3.29076 3.75 3.44973 3.81585 3.56694 3.93306C3.68415 4.05027 3.75 4.20924 3.75 4.375V8.4375H10.625V4.375C10.625 4.20924 10.6908 4.05027 10.8081 3.93306C10.9253 3.81585 11.0842 3.75 11.25 3.75C11.4158 3.75 11.5747 3.81585 11.6919 3.93306C11.8092 4.05027 11.875 4.20924 11.875 4.375ZM17.4844 7.88281C17.384 7.83203 17.2722 7.80821 17.1599 7.81368C17.0476 7.81916 16.9387 7.85375 16.8438 7.91406L14.9688 9.16406C14.8299 9.25523 14.733 9.39781 14.6993 9.56044C14.6656 9.72307 14.6979 9.89243 14.7891 10.0312C14.8802 10.1701 15.0228 10.267 15.1854 10.3007C15.3481 10.3344 15.5174 10.3021 15.6562 10.2109L16.5625 9.60156V15.625C16.5625 15.7908 16.6283 15.9497 16.7456 16.0669C16.8628 16.1842 17.0217 16.25 17.1875 16.25C17.3533 16.25 17.5122 16.1842 17.6294 16.0669C17.7467 15.9497 17.8125 15.7908 17.8125 15.625V8.4375C17.8134 8.32396 17.7833 8.21233 17.7254 8.1146C17.6676 8.01688 17.5843 7.93674 17.4844 7.88281Z" fill="currentColor"/>
</svg>
