<svg width="20" height="20" viewBox="0 0 20 20" fill="none" xmlns="http://www.w3.org/2000/svg">
<path d="M3.125 5.9375H16.875C17.0408 5.9375 17.1997 5.87165 17.3169 5.75444C17.4342 5.63723 17.5 5.47826 17.5 5.3125C17.5 5.14674 17.4342 4.98777 17.3169 4.87056C17.1997 4.75335 17.0408 4.6875 16.875 4.6875H3.125C2.95924 4.6875 2.80027 4.75335 2.68306 4.87056C2.56585 4.98777 2.5 5.14674 2.5 5.3125C2.5 5.47826 2.56585 5.63723 2.68306 5.75444C2.80027 5.87165 2.95924 5.9375 3.125 5.9375Z" fill="currentColor"/>
<path d="M16.875 7.8125H6.875C6.70924 7.8125 6.55027 7.87835 6.43306 7.99556C6.31585 8.11277 6.25 8.27174 6.25 8.4375C6.25 8.60326 6.31585 8.76223 6.43306 8.87944C6.55027 8.99665 6.70924 9.0625 6.875 9.0625H16.875C17.0408 9.0625 17.1997 8.99665 17.3169 8.87944C17.4342 8.76223 17.5 8.60326 17.5 8.4375C17.5 8.27174 17.4342 8.11277 17.3169 7.99556C17.1997 7.87835 17.0408 7.8125 16.875 7.8125Z" fill="currentColor"/>
<path d="M16.875 10.9375H3.125C2.95924 10.9375 2.80027 11.0033 2.68306 11.1206C2.56585 11.2378 2.5 11.3967 2.5 11.5625C2.5 11.7283 2.56585 11.8872 2.68306 12.0044C2.80027 12.1217 2.95924 12.1875 3.125 12.1875H16.875C17.0408 12.1875 17.1997 12.1217 17.3169 12.0044C17.4342 11.8872 17.5 11.7283 17.5 11.5625C17.5 11.3967 17.4342 11.2378 17.3169 11.1206C17.1997 11.0033 17.0408 10.9375 16.875 10.9375Z" fill="currentColor"/>
<path d="M16.875 14.0625H6.875C6.70924 14.0625 6.55027 14.1283 6.43306 14.2456C6.31585 14.3628 6.25 14.5217 6.25 14.6875C6.25 14.8533 6.31585 15.0122 6.43306 15.1294C6.55027 15.2467 6.70924 15.3125 6.875 15.3125H16.875C17.0408 15.3125 17.1997 15.2467 17.3169 15.1294C17.4342 15.0122 17.5 14.8533 17.5 14.6875C17.5 14.5217 17.4342 14.3628 17.3169 14.2456C17.1997 14.1283 17.0408 14.0625 16.875 14.0625Z" fill="currentColor"/>
</svg>
