<svg width="20" height="20" viewBox="0 0 20 20" fill="none" xmlns="http://www.w3.org/2000/svg">
<path d="M16.25 3.75H3.75C3.58424 3.75 3.42527 3.81585 3.30806 3.93306C3.19085 4.05027 3.125 4.20924 3.125 4.375V6.875C3.125 7.04076 3.19085 7.19973 3.30806 7.31694C3.42527 7.43415 3.58424 7.5 3.75 7.5C3.91576 7.5 4.07473 7.43415 4.19194 7.31694C4.30915 7.19973 4.375 7.04076 4.375 6.875V5H9.375V15H7.5C7.33424 15 7.17527 15.0658 7.05806 15.1831C6.94085 15.3003 6.875 15.4592 6.875 15.625C6.875 15.7908 6.94085 15.9497 7.05806 16.0669C7.17527 16.1842 7.33424 16.25 7.5 16.25H12.5C12.6658 16.25 12.8247 16.1842 12.9419 16.0669C13.0592 15.9497 13.125 15.7908 13.125 15.625C13.125 15.4592 13.0592 15.3003 12.9419 15.1831C12.8247 15.0658 12.6658 15 12.5 15H10.625V5H15.625V6.875C15.625 7.04076 15.6908 7.19973 15.8081 7.31694C15.9253 7.43415 16.0842 7.5 16.25 7.5C16.4158 7.5 16.5747 7.43415 16.6919 7.31694C16.8092 7.19973 16.875 7.04076 16.875 6.875V4.375C16.875 4.20924 16.8092 4.05027 16.6919 3.93306C16.5747 3.81585 16.4158 3.75 16.25 3.75Z" fill="currentColor"/>
</svg>
