<svg width="20" height="20" viewBox="0 0 20 20" fill="none" xmlns="http://www.w3.org/2000/svg">
<path d="M11.875 4.375V13.75C11.875 13.9158 11.8092 14.0747 11.6919 14.1919C11.5747 14.3092 11.4158 14.375 11.25 14.375C11.0842 14.375 10.9253 14.3092 10.8081 14.1919C10.6908 14.0747 10.625 13.9158 10.625 13.75V9.6875H3.75V13.75C3.75 13.9158 3.68415 14.0747 3.56694 14.1919C3.44973 14.3092 3.29076 14.375 3.125 14.375C2.95924 14.375 2.80027 14.3092 2.68306 14.1919C2.56585 14.0747 2.5 13.9158 2.5 13.75V4.375C2.5 4.20924 2.56585 4.05027 2.68306 3.93306C2.80027 3.81585 2.95924 3.75 3.125 3.75C3.29076 3.75 3.44973 3.81585 3.56694 3.93306C3.68415 4.05027 3.75 4.20924 3.75 4.375V8.4375H10.625V4.375C10.625 4.20924 10.6908 4.05027 10.8081 3.93306C10.9253 3.81585 11.0842 3.75 11.25 3.75C11.4158 3.75 11.5747 3.81585 11.6919 3.93306C11.8092 4.05027 11.875 4.20924 11.875 4.375ZM16.5547 10.9375C16.3069 10.9374 16.0601 10.9689 15.8203 11.0312L16.1406 9.0625H18.75C18.9158 9.0625 19.0747 8.99665 19.1919 8.87944C19.3092 8.76223 19.375 8.60326 19.375 8.4375C19.375 8.27174 19.3092 8.11277 19.1919 7.99556C19.0747 7.87835 18.9158 7.8125 18.75 7.8125H15.6094C15.4611 7.81238 15.3177 7.86496 15.2046 7.96084C15.0916 8.05672 15.0163 8.18967 14.9922 8.33594L14.3828 12.1016C14.3615 12.2316 14.3819 12.365 14.441 12.4828C14.5001 12.6006 14.5949 12.6967 14.7119 12.7573C14.8289 12.818 14.9621 12.8401 15.0924 12.8206C15.2227 12.801 15.3435 12.7408 15.4375 12.6484C15.584 12.5016 15.7582 12.3853 15.95 12.3062C16.1417 12.2271 16.3473 12.1867 16.5547 12.1875C16.7609 12.1869 16.9652 12.2274 17.1557 12.3065C17.3462 12.3856 17.519 12.5019 17.6641 12.6484C17.81 12.7924 17.926 12.9638 18.0051 13.153C18.0842 13.3421 18.1249 13.545 18.1249 13.75C18.1249 13.955 18.0842 14.1579 18.0051 14.347C17.926 14.5362 17.81 14.7076 17.6641 14.8516C17.519 14.9981 17.3462 15.1144 17.1557 15.1935C16.9652 15.2726 16.7609 15.3131 16.5547 15.3125C16.3473 15.3133 16.1417 15.2729 15.95 15.1938C15.7582 15.1147 15.584 14.9984 15.4375 14.8516C15.3801 14.7894 15.3106 14.7396 15.2334 14.705C15.1561 14.6705 15.0726 14.652 14.988 14.6507C14.9034 14.6494 14.8194 14.6653 14.7411 14.6975C14.6628 14.7296 14.5919 14.7773 14.5326 14.8377C14.4733 14.898 14.4268 14.9698 14.3961 15.0486C14.3654 15.1275 14.351 15.2118 14.3538 15.2963C14.3566 15.3809 14.3765 15.464 14.4124 15.5407C14.4483 15.6173 14.4993 15.6859 14.5625 15.7422C14.8896 16.0725 15.2933 16.3169 15.7377 16.4535C16.182 16.5902 16.6533 16.6148 17.1095 16.5254C17.5657 16.4359 17.9927 16.235 18.3525 15.9406C18.7123 15.6462 18.9938 15.2675 19.1718 14.838C19.3499 14.4086 19.419 13.9418 19.3731 13.4791C19.3272 13.0165 19.1676 12.5724 18.9086 12.1864C18.6495 11.8003 18.2991 11.4843 17.8884 11.2664C17.4777 11.0485 17.0196 10.9355 16.5547 10.9375Z" fill="currentColor"/>
</svg>
