<svg width="20" height="20" viewBox="0 0 20 20" fill="none" xmlns="http://www.w3.org/2000/svg">
<path d="M17.5 16.875C17.5 17.0408 17.4342 17.1997 17.3169 17.3169C17.1997 17.4342 17.0408 17.5 16.875 17.5H3.125C2.95924 17.5 2.80027 17.4342 2.68306 17.3169C2.56585 17.1997 2.5 17.0408 2.5 16.875C2.5 16.7092 2.56585 16.5503 2.68306 16.4331C2.80027 16.3158 2.95924 16.25 3.125 16.25H16.875C17.0408 16.25 17.1997 16.3158 17.3169 16.4331C17.4342 16.5503 17.5 16.7092 17.5 16.875ZM10 15C11.4912 14.9979 12.9207 14.4046 13.9752 13.3502C15.0296 12.2957 15.6229 10.8662 15.625 9.375V4.375C15.625 4.20924 15.5592 4.05027 15.4419 3.93306C15.3247 3.81585 15.1658 3.75 15 3.75C14.8342 3.75 14.6753 3.81585 14.5581 3.93306C14.4408 4.05027 14.375 4.20924 14.375 4.375V9.375C14.375 10.5353 13.9141 11.6481 13.0936 12.4686C12.2731 13.2891 11.1603 13.75 10 13.75C8.83968 13.75 7.72688 13.2891 6.90641 12.4686C6.08594 11.6481 5.625 10.5353 5.625 9.375V4.375C5.625 4.20924 5.55915 4.05027 5.44194 3.93306C5.32473 3.81585 5.16576 3.75 5 3.75C4.83424 3.75 4.67527 3.81585 4.55806 3.93306C4.44085 4.05027 4.375 4.20924 4.375 4.375V9.375C4.37707 10.8662 4.97036 12.2957 6.02481 13.3502C7.07925 14.4046 8.50879 14.9979 10 15Z" fill="currentColor"/>
</svg>
