<svg width="20" height="20" viewBox="0 0 20 20" fill="none" xmlns="http://www.w3.org/2000/svg">
<path d="M11.875 4.375V13.75C11.875 13.9158 11.8092 14.0747 11.6919 14.1919C11.5747 14.3092 11.4158 14.375 11.25 14.375C11.0842 14.375 10.9253 14.3092 10.8081 14.1919C10.6908 14.0747 10.625 13.9158 10.625 13.75V9.6875H3.75V13.75C3.75 13.9158 3.68415 14.0747 3.56694 14.1919C3.44973 14.3092 3.29076 14.375 3.125 14.375C2.95924 14.375 2.80027 14.3092 2.68306 14.1919C2.56585 14.0747 2.5 13.9158 2.5 13.75V4.375C2.5 4.20924 2.56585 4.05027 2.68306 3.93306C2.80027 3.81585 2.95924 3.75 3.125 3.75C3.29076 3.75 3.44973 3.81585 3.56694 3.93306C3.68415 4.05027 3.75 4.20924 3.75 4.375V8.4375H10.625V4.375C10.625 4.20924 10.6908 4.05027 10.8081 3.93306C10.9253 3.81585 11.0842 3.75 11.25 3.75C11.4158 3.75 11.5747 3.81585 11.6919 3.93306C11.8092 4.05027 11.875 4.20924 11.875 4.375ZM18.4375 10C18.2717 10 18.1128 10.0658 17.9956 10.1831C17.8783 10.3003 17.8125 10.4592 17.8125 10.625V12.5H15.5703L17.1484 8.02344C17.1888 7.87214 17.1709 7.71121 17.0983 7.57248C17.0256 7.43375 16.9036 7.32734 16.7563 7.2743C16.6089 7.22126 16.447 7.22546 16.3027 7.28606C16.1583 7.34666 16.0419 7.45926 15.9766 7.60156L14.1016 12.9141C14.0673 13.0083 14.0565 13.1095 14.0701 13.2089C14.0837 13.3083 14.1213 13.4028 14.1797 13.4844C14.237 13.5659 14.313 13.6326 14.4014 13.6788C14.4897 13.725 14.5878 13.7494 14.6875 13.75H17.8125V15.625C17.8125 15.7908 17.8783 15.9497 17.9956 16.0669C18.1128 16.1842 18.2717 16.25 18.4375 16.25C18.6033 16.25 18.7622 16.1842 18.8794 16.0669C18.9967 15.9497 19.0625 15.7908 19.0625 15.625V10.625C19.0625 10.4592 18.9967 10.3003 18.8794 10.1831C18.7622 10.0658 18.6033 10 18.4375 10Z" fill="currentColor"/>
</svg>
