<svg width="20" height="20" viewBox="0 0 20 20" fill="none" xmlns="http://www.w3.org/2000/svg">
<path d="M17.5001 10.0001C17.5001 10.1658 17.4342 10.3248 17.317 10.442C17.1998 10.5592 17.0409 10.6251 16.8751 10.6251H9.3751C9.20934 10.6251 9.05037 10.5592 8.93316 10.442C8.81595 10.3248 8.7501 10.1658 8.7501 10.0001C8.7501 9.8343 8.81595 9.67533 8.93316 9.55812C9.05037 9.44091 9.20934 9.37506 9.3751 9.37506H16.8751C17.0409 9.37506 17.1998 9.44091 17.317 9.55812C17.4342 9.67533 17.5001 9.8343 17.5001 10.0001ZM9.3751 5.62506H16.8751C17.0409 5.62506 17.1998 5.55921 17.317 5.442C17.4342 5.32479 17.5001 5.16582 17.5001 5.00006C17.5001 4.8343 17.4342 4.67533 17.317 4.55812C17.1998 4.44091 17.0409 4.37506 16.8751 4.37506H9.3751C9.20934 4.37506 9.05037 4.44091 8.93316 4.55812C8.81595 4.67533 8.7501 4.8343 8.7501 5.00006C8.7501 5.16582 8.81595 5.32479 8.93316 5.442C9.05037 5.55921 9.20934 5.62506 9.3751 5.62506ZM16.8751 14.3751H3.1251C2.95934 14.3751 2.80037 14.4409 2.68316 14.5581C2.56595 14.6753 2.5001 14.8343 2.5001 15.0001C2.5001 15.1658 2.56595 15.3248 2.68316 15.442C2.80037 15.5592 2.95934 15.6251 3.1251 15.6251H16.8751C17.0409 15.6251 17.1998 15.5592 17.317 15.442C17.4342 15.3248 17.5001 15.1658 17.5001 15.0001C17.5001 14.8343 17.4342 14.6753 17.317 14.5581C17.1998 14.4409 17.0409 14.3751 16.8751 14.3751ZM5.6251 11.2501C5.70805 11.2497 5.79019 11.2338 5.86729 11.2032C5.98104 11.1554 6.07809 11.075 6.14621 10.9721C6.21434 10.8692 6.25048 10.7485 6.2501 10.6251V4.37506C6.25048 4.25167 6.21434 4.13093 6.14621 4.02805C6.07809 3.92516 5.98104 3.84475 5.86729 3.79694C5.75184 3.75191 5.62601 3.74048 5.50434 3.76399C5.38268 3.78749 5.27015 3.84496 5.17979 3.92975L2.05479 7.05475C1.93742 7.17325 1.87158 7.33328 1.87158 7.50006C1.87158 7.66684 1.93742 7.82688 2.05479 7.94537L5.17979 11.0704C5.29976 11.1851 5.45913 11.2494 5.6251 11.2501Z" fill="currentColor"/>
</svg>
