<svg width="20" height="20" viewBox="0 0 20 20" fill="none" xmlns="http://www.w3.org/2000/svg">
<path d="M16.25 4.375V15.625C16.25 15.7908 16.1842 15.9497 16.0669 16.0669C15.9497 16.1842 15.7908 16.25 15.625 16.25C15.4592 16.25 15.3003 16.1842 15.1831 16.0669C15.0658 15.9497 15 15.7908 15 15.625V10.625H5V15.625C5 15.7908 4.93415 15.9497 4.81694 16.0669C4.69973 16.1842 4.54076 16.25 4.375 16.25C4.20924 16.25 4.05027 16.1842 3.93306 16.0669C3.81585 15.9497 3.75 15.7908 3.75 15.625V4.375C3.75 4.20924 3.81585 4.05027 3.93306 3.93306C4.05027 3.81585 4.20924 3.75 4.375 3.75C4.54076 3.75 4.69973 3.81585 4.81694 3.93306C4.93415 4.05027 5 4.20924 5 4.375V9.375H15V4.375C15 4.20924 15.0658 4.05027 15.1831 3.93306C15.3003 3.81585 15.4592 3.75 15.625 3.75C15.7908 3.75 15.9497 3.81585 16.0669 3.93306C16.1842 4.05027 16.25 4.20924 16.25 4.375Z" fill="currentColor"/>
</svg>
