<svg width="20" height="20" viewBox="0 0 20 20" fill="none" xmlns="http://www.w3.org/2000/svg">
  <path opacity="0.2"
    d="M16.875 5V13.75C16.875 13.9158 16.8092 14.0747 16.6919 14.1919C16.5747 14.3092 16.4158 14.375 16.25 14.375H3.125V5H16.875Z"
    fill="currentColor" />
  <path
    d="M2.1875 5C2.1875 4.75136 2.28627 4.5129 2.46209 4.33709C2.6379 4.16127 2.87636 4.0625 3.125 4.0625H16.875C17.1236 4.0625 17.3621 4.16127 17.5379 4.33709C17.7137 4.5129 17.8125 4.75136 17.8125 5C17.8125 5.24864 17.7137 5.4871 17.5379 5.66291C17.3621 5.83873 17.1236 5.9375 16.875 5.9375H3.125C2.87636 5.9375 2.6379 5.83873 2.46209 5.66291C2.28627 5.4871 2.1875 5.24864 2.1875 5ZM3.125 9.0625H13.125C13.3736 9.0625 13.6121 8.96373 13.7879 8.78791C13.9637 8.6121 14.0625 8.37364 14.0625 8.125C14.0625 7.87636 13.9637 7.6379 13.7879 7.46209C13.6121 7.28627 13.3736 7.1875 13.125 7.1875H3.125C2.87636 7.1875 2.6379 7.28627 2.46209 7.46209C2.28627 7.6379 2.1875 7.87636 2.1875 8.125C2.1875 8.37364 2.28627 8.6121 2.46209 8.78791C2.6379 8.96373 2.87636 9.0625 3.125 9.0625ZM16.875 10.3125H3.125C2.87636 10.3125 2.6379 10.4113 2.46209 10.5871C2.28627 10.7629 2.1875 11.0014 2.1875 11.25C2.1875 11.4986 2.28627 11.7371 2.46209 11.9129C2.6379 12.0887 2.87636 12.1875 3.125 12.1875H16.875C17.1236 12.1875 17.3621 12.0887 17.5379 11.9129C17.7137 11.7371 17.8125 11.4986 17.8125 11.25C17.8125 11.0014 17.7137 10.7629 17.5379 10.5871C17.3621 10.4113 17.1236 10.3125 16.875 10.3125ZM13.125 13.4375H3.125C2.87636 13.4375 2.6379 13.5363 2.46209 13.7121C2.28627 13.8879 2.1875 14.1264 2.1875 14.375C2.1875 14.6236 2.28627 14.8621 2.46209 15.0379C2.6379 15.2137 2.87636 15.3125 3.125 15.3125H13.125C13.3736 15.3125 13.6121 15.2137 13.7879 15.0379C13.9637 14.8621 14.0625 14.6236 14.0625 14.375C14.0625 14.1264 13.9637 13.8879 13.7879 13.7121C13.6121 13.5363 13.3736 13.4375 13.125 13.4375Z"
    fill="currentColor" />
</svg>
