<svg width="20" height="20" viewBox="0 0 20 20" fill="none" xmlns="http://www.w3.org/2000/svg">
<path d="M17.5 10.0001C17.5 10.1658 17.4342 10.3248 17.3169 10.442C17.1997 10.5592 17.0408 10.6251 16.875 10.6251H9.375C9.20924 10.6251 9.05027 10.5592 8.93306 10.442C8.81585 10.3248 8.75 10.1658 8.75 10.0001C8.75 9.8343 8.81585 9.67533 8.93306 9.55812C9.05027 9.44091 9.20924 9.37506 9.375 9.37506H16.875C17.0408 9.37506 17.1997 9.44091 17.3169 9.55812C17.4342 9.67533 17.5 9.8343 17.5 10.0001ZM9.375 5.62506H16.875C17.0408 5.62506 17.1997 5.55921 17.3169 5.442C17.4342 5.32479 17.5 5.16582 17.5 5.00006C17.5 4.8343 17.4342 4.67533 17.3169 4.55812C17.1997 4.44091 17.0408 4.37506 16.875 4.37506H9.375C9.20924 4.37506 9.05027 4.44091 8.93306 4.55812C8.81585 4.67533 8.75 4.8343 8.75 5.00006C8.75 5.16582 8.81585 5.32479 8.93306 5.442C9.05027 5.55921 9.20924 5.62506 9.375 5.62506ZM16.875 14.3751H3.125C2.95924 14.3751 2.80027 14.4409 2.68306 14.5581C2.56585 14.6753 2.5 14.8343 2.5 15.0001C2.5 15.1658 2.56585 15.3248 2.68306 15.442C2.80027 15.5592 2.95924 15.6251 3.125 15.6251H16.875C17.0408 15.6251 17.1997 15.5592 17.3169 15.442C17.4342 15.3248 17.5 15.1658 17.5 15.0001C17.5 14.8343 17.4342 14.6753 17.3169 14.5581C17.1997 14.4409 17.0408 14.3751 16.875 14.3751ZM2.88282 11.2032C2.95991 11.2338 3.04205 11.2497 3.125 11.2501C3.29097 11.2494 3.45034 11.1851 3.57032 11.0704L6.69532 7.94537C6.81268 7.82688 6.87852 7.66684 6.87852 7.50006C6.87852 7.33328 6.81268 7.17325 6.69532 7.05475L3.57032 3.92975C3.47995 3.84496 3.36742 3.78749 3.24576 3.76399C3.12409 3.74048 2.99826 3.75191 2.88282 3.79694C2.76906 3.84475 2.67201 3.92516 2.60389 4.02805C2.53576 4.13093 2.49962 4.25167 2.5 4.37506V10.6251C2.49962 10.7485 2.53576 10.8692 2.60389 10.9721C2.67201 11.075 2.76906 11.1554 2.88282 11.2032Z" fill="currentColor"/>
</svg>
