<svg
  xmlns="http://www.w3.org/2000/svg"
  width="20"
  height="20"
  viewBox="0 0 20 20"
  fill="none"
>
  <path
    opacity="0.2"
    d="M18.8938 5V16.25H3.8938C3.72804 16.25 3.56907 16.1842 3.45186 16.0669C3.33465 15.9497 3.2688 15.7908 3.2688 15.625V4.375H18.2688C18.4346 4.375 18.5935 4.44085 18.7107 4.55806C18.828 4.67527 18.8938 4.83424 18.8938 5Z"
    fill="currentColor"
  />
  <path
    d="M12.1875 4.375V13.75C12.1875 13.9986 12.0887 14.2371 11.9129 14.4129C11.7371 14.5887 11.4986 14.6875 11.25 14.6875C11.0014 14.6875 10.7629 14.5887 10.5871 14.4129C10.4113 14.2371 10.3125 13.9986 10.3125 13.75V10H4.0625V13.75C4.0625 13.9986 3.96373 14.2371 3.78791 14.4129C3.6121 14.5887 3.37364 14.6875 3.125 14.6875C2.87636 14.6875 2.6379 14.5887 2.46209 14.4129C2.28627 14.2371 2.1875 13.9986 2.1875 13.75V4.375C2.1875 4.12636 2.28627 3.8879 2.46209 3.71209C2.6379 3.53627 2.87636 3.4375 3.125 3.4375C3.37364 3.4375 3.6121 3.53627 3.78791 3.71209C3.96373 3.8879 4.0625 4.12636 4.0625 4.375V8.125H10.3125V4.375C10.3125 4.12636 10.4113 3.8879 10.5871 3.71209C10.7629 3.53627 11.0014 3.4375 11.25 3.4375C11.4986 3.4375 11.7371 3.53627 11.9129 3.71209C12.0887 3.8879 12.1875 4.12636 12.1875 4.375ZM18.75 15.3125H16.875L19.1203 12.318C19.3644 11.9941 19.5355 11.6212 19.622 11.225C19.7085 10.8287 19.7083 10.4185 19.6213 10.0223C19.5344 9.62621 19.3628 9.25356 19.1183 8.92995C18.8738 8.60635 18.5623 8.33945 18.205 8.14755C17.8477 7.95565 17.4531 7.8433 17.0483 7.81819C16.6435 7.79308 16.2381 7.85582 15.8598 8.00209C15.4815 8.14837 15.1394 8.37473 14.8568 8.66564C14.5742 8.95655 14.3579 9.30514 14.2227 9.6875C14.1398 9.92195 14.1534 10.1797 14.2606 10.4041C14.3678 10.6285 14.5597 10.8011 14.7941 10.884C15.0286 10.9669 15.2864 10.9532 15.5107 10.846C15.7351 10.7389 15.9077 10.5469 15.9906 10.3125C16.0222 10.2221 16.0678 10.1372 16.1258 10.0609C16.199 9.96022 16.2916 9.87511 16.3981 9.81057C16.5046 9.74603 16.6229 9.70336 16.7461 9.68504C16.8693 9.66672 16.9948 9.67313 17.1155 9.70388C17.2362 9.73464 17.3495 9.78913 17.4489 9.86417C17.5483 9.93922 17.6317 10.0333 17.6943 10.1409C17.757 10.2486 17.7975 10.3676 17.8136 10.4911C17.8297 10.6146 17.821 10.7401 17.7881 10.8602C17.7552 10.9803 17.6987 11.0926 17.6219 11.1906L14.25 15.6875C14.1455 15.8268 14.0819 15.9924 14.0663 16.1658C14.0507 16.3392 14.0836 16.5135 14.1615 16.6693C14.2393 16.825 14.359 16.956 14.5071 17.0475C14.6552 17.139 14.8259 17.1875 15 17.1875H18.75C18.9986 17.1875 19.2371 17.0887 19.4129 16.9129C19.5887 16.7371 19.6875 16.4986 19.6875 16.25C19.6875 16.0014 19.5887 15.7629 19.4129 15.5871C19.2371 15.4113 18.9986 15.3125 18.75 15.3125Z"
    fill="currentColor"
  />
</svg>
