<svg
  xmlns="http://www.w3.org/2000/svg"
  width="20"
  height="20"
  viewBox="0 0 20 20"
  fill="none"
>
  <path
    opacity="0.2"
    d="M18.9429 4.8335V15.4585C18.9429 15.6243 18.877 15.7832 18.7598 15.9004C18.6426 16.0176 18.4836 16.0835 18.3179 16.0835H3.94287C3.77711 16.0835 3.61814 16.0176 3.50093 15.9004C3.38372 15.7832 3.31787 15.6243 3.31787 15.4585V4.2085H18.3179C18.4836 4.2085 18.6426 4.27434 18.7598 4.39155C18.877 4.50876 18.9429 4.66774 18.9429 4.8335Z"
    fill="currentColor"
  />
  <path
    d="M19.6875 14.0625C19.6876 14.6833 19.5027 15.29 19.1566 15.8054C18.8104 16.3207 18.3186 16.7212 17.7439 16.9559C17.1691 17.1906 16.5375 17.2488 15.9296 17.1231C15.3217 16.9974 14.765 16.6934 14.3305 16.25C14.241 16.1628 14.1698 16.0586 14.1211 15.9435C14.0725 15.8284 14.0473 15.7047 14.0471 15.5798C14.047 15.4548 14.0718 15.3311 14.1201 15.2158C14.1684 15.1006 14.2393 14.9962 14.3286 14.9087C14.4179 14.8213 14.5237 14.7526 14.6399 14.7066C14.7561 14.6607 14.8803 14.6384 15.0053 14.6412C15.1302 14.6439 15.2533 14.6716 15.3674 14.7227C15.4815 14.7737 15.5842 14.847 15.6695 14.9383C15.8139 15.0853 15.9923 15.1943 16.1889 15.2557C16.3856 15.3171 16.5943 15.3289 16.7967 15.2902C16.999 15.2514 17.1886 15.1632 17.3486 15.0335C17.5086 14.9038 17.6341 14.7365 17.7139 14.5466C17.7937 14.3567 17.8253 14.15 17.8059 13.9449C17.7865 13.7398 17.7167 13.5427 17.6028 13.3711C17.4889 13.1995 17.3343 13.0587 17.1528 12.9612C16.9713 12.8638 16.7685 12.8127 16.5625 12.8125C16.391 12.8125 16.2229 12.7654 16.0763 12.6765C15.9297 12.5875 15.8103 12.46 15.7311 12.3079C15.6519 12.1559 15.616 11.985 15.6271 11.8139C15.6383 11.6428 15.6962 11.478 15.7945 11.3375L16.9531 9.6875H15C14.7514 9.6875 14.5129 9.58873 14.3371 9.41291C14.1613 9.2371 14.0625 8.99864 14.0625 8.75C14.0625 8.50136 14.1613 8.2629 14.3371 8.08709C14.5129 7.91127 14.7514 7.8125 15 7.8125H18.75C18.9215 7.81253 19.0896 7.85958 19.2362 7.94854C19.3828 8.0375 19.5022 8.16496 19.5814 8.31705C19.6606 8.46914 19.6965 8.64004 19.6854 8.81114C19.6742 8.98225 19.6163 9.14701 19.518 9.2875L18.0852 11.3344C18.5709 11.6054 18.9754 12.0011 19.2571 12.4807C19.5388 12.9603 19.6874 13.5063 19.6875 14.0625ZM11.25 3.4375C11.0014 3.4375 10.7629 3.53627 10.5871 3.71209C10.4113 3.8879 10.3125 4.12636 10.3125 4.375V8.125H4.0625V4.375C4.0625 4.12636 3.96373 3.8879 3.78791 3.71209C3.6121 3.53627 3.37364 3.4375 3.125 3.4375C2.87636 3.4375 2.6379 3.53627 2.46209 3.71209C2.28627 3.8879 2.1875 4.12636 2.1875 4.375V13.75C2.1875 13.9986 2.28627 14.2371 2.46209 14.4129C2.6379 14.5887 2.87636 14.6875 3.125 14.6875C3.37364 14.6875 3.6121 14.5887 3.78791 14.4129C3.96373 14.2371 4.0625 13.9986 4.0625 13.75V10H10.3125V13.75C10.3125 13.9986 10.4113 14.2371 10.5871 14.4129C10.7629 14.5887 11.0014 14.6875 11.25 14.6875C11.4986 14.6875 11.7371 14.5887 11.9129 14.4129C12.0887 14.2371 12.1875 13.9986 12.1875 13.75V4.375C12.1875 4.12636 12.0887 3.8879 11.9129 3.71209C11.7371 3.53627 11.4986 3.4375 11.25 3.4375Z"
    fill="currentColor"
  />
</svg>
