<svg width="20" height="20" viewBox="0 0 20 20" fill="none" xmlns="http://www.w3.org/2000/svg">
<path d="M11.875 4.375V13.75C11.875 13.9158 11.8092 14.0747 11.6919 14.1919C11.5747 14.3092 11.4158 14.375 11.25 14.375C11.0842 14.375 10.9253 14.3092 10.8081 14.1919C10.6908 14.0747 10.625 13.9158 10.625 13.75V9.6875H3.75V13.75C3.75 13.9158 3.68415 14.0747 3.56694 14.1919C3.44973 14.3092 3.29076 14.375 3.125 14.375C2.95924 14.375 2.80027 14.3092 2.68306 14.1919C2.56585 14.0747 2.5 13.9158 2.5 13.75V4.375C2.5 4.20924 2.56585 4.05027 2.68306 3.93306C2.80027 3.81585 2.95924 3.75 3.125 3.75C3.29076 3.75 3.44973 3.81585 3.56694 3.93306C3.68415 4.05027 3.75 4.20924 3.75 4.375V8.4375H10.625V4.375C10.625 4.20924 10.6908 4.05027 10.8081 3.93306C10.9253 3.81585 11.0842 3.75 11.25 3.75C11.4158 3.75 11.5747 3.81585 11.6919 3.93306C11.8092 4.05027 11.875 4.20924 11.875 4.375ZM19.6875 13.125C19.6888 13.5553 19.5913 13.9801 19.4027 14.3668C19.214 14.7535 18.9391 15.0917 18.5991 15.3555C18.2592 15.6192 17.8633 15.8015 17.4418 15.8882C17.0204 15.9749 16.5847 15.9638 16.1682 15.8556C15.7517 15.7475 15.3656 15.5453 15.0396 15.2645C14.7136 14.9837 14.4563 14.6319 14.2877 14.236C14.119 13.8402 14.0434 13.411 14.0666 12.9813C14.0899 12.5517 14.2114 12.1331 14.4219 11.7578L14.4453 11.7109L16.9609 7.49219C17.0459 7.34922 17.1842 7.24585 17.3453 7.20483C17.5065 7.16381 17.6773 7.18849 17.8203 7.27344C17.9633 7.35839 18.0666 7.49666 18.1077 7.65782C18.1487 7.81898 18.124 7.98984 18.0391 8.13281L16.7344 10.3125H16.875C17.6209 10.3125 18.3363 10.6088 18.8637 11.1363C19.3912 11.6637 19.6875 12.3791 19.6875 13.125ZM18.4375 13.125C18.4375 12.816 18.3459 12.5139 18.1742 12.2569C18.0025 12 17.7585 11.7997 17.4729 11.6814C17.1874 11.5632 16.8733 11.5322 16.5702 11.5925C16.2671 11.6528 15.9887 11.8016 15.7701 12.0201C15.5516 12.2387 15.4028 12.5171 15.3425 12.8202C15.2822 13.1233 15.3132 13.4374 15.4314 13.7229C15.5497 14.0085 15.75 14.2525 16.0069 14.4242C16.2639 14.5959 16.566 14.6875 16.875 14.6875C17.2888 14.6854 17.685 14.5202 17.9776 14.2276C18.2702 13.935 18.4354 13.5388 18.4375 13.125Z" fill="currentColor"/>
</svg>
