<svg width="20" height="20" viewBox="0 0 20 20" fill="none" xmlns="http://www.w3.org/2000/svg">
<path d="M13.3204 9.03911C13.8141 8.56381 14.1546 7.95177 14.2979 7.28157C14.4413 6.61137 14.381 5.91361 14.1249 5.27791C13.8688 4.64221 13.4284 4.09758 12.8605 3.71397C12.2926 3.33035 11.6229 3.12527 10.9376 3.12505H5.00005C4.91768 3.124 4.83594 3.13945 4.75964 3.17049C4.68333 3.20153 4.61402 3.24752 4.55577 3.30577C4.49752 3.36402 4.45153 3.43333 4.42049 3.50964C4.38945 3.58594 4.374 3.66768 4.37505 3.75005V15.625C4.37505 15.7908 4.4409 15.9498 4.55811 16.067C4.67532 16.1842 4.83429 16.25 5.00005 16.25H11.8751C12.742 16.2504 13.5822 15.9504 14.2529 15.4011C14.9235 14.8517 15.3831 14.087 15.5535 13.237C15.7239 12.387 15.5945 11.5042 15.1873 10.7389C14.7802 9.97353 14.1204 9.37287 13.3204 9.03911ZM5.62505 4.37505H10.9376C11.5177 4.37505 12.0741 4.60552 12.4843 5.01575C12.8946 5.42599 13.1251 5.98239 13.125 6.56255C13.1251 7.14271 12.8946 7.69911 12.4843 8.10935C12.0741 8.51958 11.5177 8.75005 10.9376 8.75005H5.62505V4.37505ZM11.8751 15H5.62505V10.0001H11.8751C12.5381 10.0001 13.174 10.2634 13.6428 10.7323C14.1117 11.2011 14.375 11.837 14.375 12.5C14.375 13.1631 14.1117 13.799 13.6428 14.2678C13.174 14.7367 12.5381 15 11.8751 15Z" fill="currentColor"/>
</svg>
