<svg width="20" height="20" viewBox="0 0 20 20" fill="none" xmlns="http://www.w3.org/2000/svg">
<path d="M3.125 5.9375H16.875C17.0408 5.9375 17.1997 5.87165 17.3169 5.75444C17.4342 5.63723 17.5 5.47826 17.5 5.3125C17.5 5.14674 17.4342 4.98777 17.3169 4.87056C17.1997 4.75335 17.0408 4.6875 16.875 4.6875H3.125C2.95924 4.6875 2.80027 4.75335 2.68306 4.87056C2.56585 4.98777 2.5 5.14674 2.5 5.3125C2.5 5.47826 2.56585 5.63723 2.68306 5.75444C2.80027 5.87165 2.95924 5.9375 3.125 5.9375Z" fill="currentColor"/>
<path d="M3.125 9.0625H13.125C13.2908 9.0625 13.4497 8.99665 13.5669 8.87944C13.6842 8.76223 13.75 8.60326 13.75 8.4375C13.75 8.27174 13.6842 8.11277 13.5669 7.99556C13.4497 7.87835 13.2908 7.8125 13.125 7.8125H3.125C2.95924 7.8125 2.80027 7.87835 2.68306 7.99556C2.56585 8.11277 2.5 8.27174 2.5 8.4375C2.5 8.60326 2.56585 8.76223 2.68306 8.87944C2.80027 8.99665 2.95924 9.0625 3.125 9.0625Z" fill="currentColor"/>
<path d="M16.875 10.9375H3.125C2.95924 10.9375 2.80027 11.0033 2.68306 11.1206C2.56585 11.2378 2.5 11.3967 2.5 11.5625C2.5 11.7283 2.56585 11.8872 2.68306 12.0044C2.80027 12.1217 2.95924 12.1875 3.125 12.1875H16.875C17.0408 12.1875 17.1997 12.1217 17.3169 12.0044C17.4342 11.8872 17.5 11.7283 17.5 11.5625C17.5 11.3967 17.4342 11.2378 17.3169 11.1206C17.1997 11.0033 17.0408 10.9375 16.875 10.9375Z" fill="currentColor"/>
<path d="M13.125 14.0625H3.125C2.95924 14.0625 2.80027 14.1283 2.68306 14.2456C2.56585 14.3628 2.5 14.5217 2.5 14.6875C2.5 14.8533 2.56585 15.0122 2.68306 15.1294C2.80027 15.2467 2.95924 15.3125 3.125 15.3125H13.125C13.2908 15.3125 13.4497 15.2467 13.5669 15.1294C13.6842 15.0122 13.75 14.8533 13.75 14.6875C13.75 14.5217 13.6842 14.3628 13.5669 14.2456C13.4497 14.1283 13.2908 14.0625 13.125 14.0625Z" fill="currentColor"/>
</svg>
