<svg width="20" height="20" viewBox="0 0 20 20" fill="none" xmlns="http://www.w3.org/2000/svg">
<path d="M11.875 4.375V13.75C11.875 13.9158 11.8092 14.0747 11.6919 14.1919C11.5747 14.3092 11.4158 14.375 11.25 14.375C11.0842 14.375 10.9253 14.3092 10.8081 14.1919C10.6908 14.0747 10.625 13.9158 10.625 13.75V9.6875H3.75V13.75C3.75 13.9158 3.68415 14.0747 3.56694 14.1919C3.44973 14.3092 3.29076 14.375 3.125 14.375C2.95924 14.375 2.80027 14.3092 2.68306 14.1919C2.56585 14.0747 2.5 13.9158 2.5 13.75V4.375C2.5 4.20924 2.56585 4.05027 2.68306 3.93306C2.80027 3.81585 2.95924 3.75 3.125 3.75C3.29076 3.75 3.44973 3.81585 3.56694 3.93306C3.68415 4.05027 3.75 4.20924 3.75 4.375V8.4375H10.625V4.375C10.625 4.20924 10.6908 4.05027 10.8081 3.93306C10.9253 3.81585 11.0842 3.75 11.25 3.75C11.4158 3.75 11.5747 3.81585 11.6919 3.93306C11.8092 4.05027 11.875 4.20924 11.875 4.375ZM18.5547 11.7578C18.2844 11.4942 17.9662 11.2847 17.6172 11.1406L19.2656 8.79688C19.3309 8.70275 19.3691 8.59249 19.376 8.47813C19.3829 8.36377 19.3582 8.24972 19.3047 8.14844C19.2511 8.04761 19.1713 7.96316 19.0736 7.90402C18.976 7.84488 18.8642 7.81325 18.75 7.8125H15C14.8342 7.8125 14.6753 7.87835 14.5581 7.99556C14.4408 8.11277 14.375 8.27174 14.375 8.4375C14.375 8.60326 14.4408 8.76223 14.5581 8.87944C14.6753 8.99665 14.8342 9.0625 15 9.0625H17.5469L16.0469 11.2031C15.9816 11.2972 15.9434 11.4075 15.9365 11.5219C15.9296 11.6362 15.9543 11.7503 16.0078 11.8516C16.0614 11.9524 16.1412 12.0368 16.2389 12.096C16.3365 12.1551 16.4483 12.1867 16.5625 12.1875C16.8199 12.1864 17.0736 12.249 17.3011 12.3696C17.5285 12.4902 17.7226 12.6651 17.8661 12.8788C18.0097 13.0925 18.0982 13.3383 18.1238 13.5945C18.1494 13.8506 18.1114 14.1091 18.013 14.347C17.9146 14.5849 17.759 14.7948 17.56 14.9581C17.3609 15.1213 17.1246 15.2329 16.8721 15.2828C16.6196 15.3327 16.3586 15.3195 16.1124 15.2443C15.8662 15.169 15.6424 15.0341 15.4609 14.8516C15.3395 14.7519 15.1853 14.701 15.0284 14.7087C14.8715 14.7164 14.7231 14.7822 14.612 14.8933C14.5009 15.0043 14.4351 15.1528 14.4274 15.3097C14.4197 15.4666 14.4706 15.6208 14.5703 15.7422C15.1063 16.2314 15.8103 16.4952 16.5359 16.4786C17.2614 16.4621 17.9527 16.1665 18.4658 15.6533C18.979 15.1402 19.2746 14.4489 19.2911 13.7234C19.3077 12.9978 19.0439 12.2938 18.5547 11.7578Z" fill="currentColor"/>
</svg>
