<svg width="20" height="20" viewBox="0 0 20 20" fill="none" xmlns="http://www.w3.org/2000/svg">
<path d="M3.125 5.9375H16.875C17.0408 5.9375 17.1997 5.87165 17.3169 5.75444C17.4342 5.63723 17.5 5.47826 17.5 5.3125C17.5 5.14674 17.4342 4.98777 17.3169 4.87056C17.1997 4.75335 17.0408 4.6875 16.875 4.6875H3.125C2.95924 4.6875 2.80027 4.75335 2.68306 4.87056C2.56585 4.98777 2.5 5.14674 2.5 5.3125C2.5 5.47826 2.56585 5.63723 2.68306 5.75444C2.80027 5.87165 2.95924 5.9375 3.125 5.9375Z" fill="currentColor"/>
<path d="M5 7.8125C4.83424 7.8125 4.67527 7.87835 4.55806 7.99556C4.44085 8.11277 4.375 8.27174 4.375 8.4375C4.375 8.60326 4.44085 8.76223 4.55806 8.87944C4.67527 8.99665 4.83424 9.0625 5 9.0625H15C15.1658 9.0625 15.3247 8.99665 15.4419 8.87944C15.5592 8.76223 15.625 8.60326 15.625 8.4375C15.625 8.27174 15.5592 8.11277 15.4419 7.99556C15.3247 7.87835 15.1658 7.8125 15 7.8125H5Z" fill="currentColor"/>
<path d="M16.875 10.9375H3.125C2.95924 10.9375 2.80027 11.0033 2.68306 11.1206C2.56585 11.2378 2.5 11.3967 2.5 11.5625C2.5 11.7283 2.56585 11.8872 2.68306 12.0044C2.80027 12.1217 2.95924 12.1875 3.125 12.1875H16.875C17.0408 12.1875 17.1997 12.1217 17.3169 12.0044C17.4342 11.8872 17.5 11.7283 17.5 11.5625C17.5 11.3967 17.4342 11.2378 17.3169 11.1206C17.1997 11.0033 17.0408 10.9375 16.875 10.9375Z" fill="currentColor"/>
<path d="M15 14.0625H5C4.83424 14.0625 4.67527 14.1283 4.55806 14.2456C4.44085 14.3628 4.375 14.5217 4.375 14.6875C4.375 14.8533 4.44085 15.0122 4.55806 15.1294C4.67527 15.2467 4.83424 15.3125 5 15.3125H15C15.1658 15.3125 15.3247 15.2467 15.4419 15.1294C15.5592 15.0122 15.625 14.8533 15.625 14.6875C15.625 14.5217 15.5592 14.3628 15.4419 14.2456C15.3247 14.1283 15.1658 14.0625 15 14.0625Z" fill="currentColor"/>
</svg>
