<svg width="20" height="20" viewBox="0 0 20 20" fill="none" xmlns="http://www.w3.org/2000/svg">
<path d="M17.5 10C17.5 10.1658 17.4342 10.3247 17.3169 10.4419C17.1997 10.5592 17.0408 10.625 16.875 10.625H13.7422C14.4609 11.1797 15 11.9688 15 13.125C15 14.2812 14.4531 15.1328 13.4531 15.8438C12.4531 16.5547 11.2969 16.875 10 16.875C8.70312 16.875 7.47656 16.5078 6.54688 15.8438C5.61719 15.1797 5 14.1641 5 13.125C5 12.9592 5.06585 12.8003 5.18306 12.6831C5.30027 12.5658 5.45924 12.5 5.625 12.5C5.79076 12.5 5.94973 12.5658 6.06694 12.6831C6.18415 12.8003 6.25 12.9592 6.25 13.125C6.25 14.4766 7.96875 15.625 10 15.625C12.0312 15.625 13.75 14.4766 13.75 13.125C13.75 11.9609 12.9297 11.2812 10.7188 10.625H3.125C2.95924 10.625 2.80027 10.5592 2.68306 10.4419C2.56585 10.3247 2.5 10.1658 2.5 10C2.5 9.83424 2.56585 9.67527 2.68306 9.55806C2.80027 9.44085 2.95924 9.375 3.125 9.375H16.875C17.0408 9.375 17.1997 9.44085 17.3169 9.55806C17.4342 9.67527 17.5 9.83424 17.5 10ZM5.96094 8.125C6.02741 8.12672 6.09363 8.11612 6.15625 8.09375C6.23423 8.06811 6.30639 8.02735 6.36861 7.97382C6.43084 7.92029 6.48191 7.85502 6.51891 7.78175C6.55591 7.70847 6.57811 7.62863 6.58425 7.54678C6.59039 7.46492 6.58034 7.38266 6.55469 7.30469C6.51312 7.16525 6.49207 7.0205 6.49219 6.875C6.49219 5.45312 8 4.375 10 4.375C11.5234 4.375 12.8203 5.02344 13.3047 6.01562C13.3787 6.16344 13.5076 6.27644 13.6638 6.33045C13.82 6.38447 13.9911 6.37523 14.1406 6.30469C14.2153 6.26964 14.2821 6.22 14.3372 6.15869C14.3924 6.09738 14.4346 6.02565 14.4616 5.94773C14.4885 5.86981 14.4996 5.78728 14.4941 5.70501C14.4886 5.62274 14.4667 5.54241 14.4297 5.46875C13.7266 4.02344 12.0312 3.125 10 3.125C7.28906 3.125 5.24219 4.73438 5.24219 6.875C5.24307 7.15311 5.28519 7.42956 5.36719 7.69531C5.40831 7.82033 5.48785 7.92917 5.59447 8.00632C5.70108 8.08348 5.82933 8.12501 5.96094 8.125Z" fill="currentColor"/>
</svg>
