<svg width="20" height="20" viewBox="0 0 20 20" fill="none" xmlns="http://www.w3.org/2000/svg">
<path d="M10.7734 11.5781L6.80463 4.0859C6.75189 3.98432 6.67227 3.89918 6.57446 3.83975C6.47665 3.78033 6.36439 3.7489 6.24994 3.7489C6.13549 3.7489 6.02324 3.78033 5.92543 3.83975C5.82761 3.89918 5.74799 3.98432 5.69526 4.0859L1.72651 11.5781L0.0702551 14.7109C-0.00444904 14.8584 -0.0184817 15.0292 0.0311586 15.1869C0.0807989 15.3446 0.190171 15.4766 0.33588 15.5546C0.483348 15.6294 0.654194 15.6434 0.811875 15.5937C0.969556 15.5441 1.10155 15.4347 1.17963 15.289L2.65619 12.5H9.84369L11.3203 15.289C11.3724 15.391 11.452 15.4764 11.5499 15.5357C11.6479 15.595 11.7604 15.6259 11.8749 15.625C11.9824 15.6251 12.0881 15.5974 12.1818 15.5447C12.2755 15.4921 12.354 15.4161 12.4098 15.3242C12.4656 15.2323 12.4967 15.1276 12.5002 15.0201C12.5036 14.9127 12.4793 14.8062 12.4296 14.7109L10.7734 11.5781ZM3.32026 11.25L6.24994 5.7109L9.17963 11.25H3.32026ZM16.2499 7.41402C15.3879 7.40562 14.5573 7.73677 13.9374 8.3359C13.8743 8.39221 13.8232 8.46077 13.7873 8.53741C13.7514 8.61405 13.7315 8.69718 13.7287 8.78175C13.7259 8.86633 13.7403 8.9506 13.771 9.02944C13.8018 9.10828 13.8482 9.18006 13.9075 9.24043C13.9668 9.30079 14.0378 9.34849 14.1161 9.38062C14.1944 9.41274 14.2783 9.42864 14.363 9.42734C14.4476 9.42604 14.531 9.40757 14.6083 9.37305C14.6856 9.33853 14.755 9.28868 14.8124 9.22652C15.1989 8.85716 15.7154 8.65505 16.2499 8.66402C17.2812 8.66402 18.1249 9.36715 18.1249 10.2265V10.789C17.5696 10.4195 16.9169 10.2237 16.2499 10.2265C14.5234 10.2265 13.1249 11.4843 13.1249 13.039C13.1249 14.5937 14.5234 15.8515 16.2499 15.8515C16.9398 15.8544 17.6136 15.6443 18.1796 15.25C18.2273 15.3616 18.3068 15.4568 18.4082 15.5235C18.5097 15.5902 18.6285 15.6255 18.7499 15.625C18.9157 15.625 19.0747 15.5591 19.1919 15.4419C19.3091 15.3247 19.3749 15.1657 19.3749 15V10.2265C19.3749 8.67183 17.9765 7.41402 16.2499 7.41402ZM16.2499 14.6015C15.2187 14.6015 14.3749 13.8984 14.3749 13.039C14.3749 12.1796 15.2187 11.4765 16.2499 11.4765C17.2812 11.4765 18.1249 12.1796 18.1249 13.039C18.1249 13.8984 17.2812 14.6015 16.2499 14.6015Z" fill="currentColor"/>
</svg>
