<svg width="20" height="20" viewBox="0 0 20 20" fill="none" xmlns="http://www.w3.org/2000/svg">
<path d="M11.875 4.375V13.75C11.875 13.9158 11.8092 14.0747 11.6919 14.1919C11.5747 14.3092 11.4158 14.375 11.25 14.375C11.0842 14.375 10.9253 14.3092 10.8081 14.1919C10.6908 14.0747 10.625 13.9158 10.625 13.75V9.6875H3.75V13.75C3.75 13.9158 3.68415 14.0747 3.56694 14.1919C3.44973 14.3092 3.29076 14.375 3.125 14.375C2.95924 14.375 2.80027 14.3092 2.68306 14.1919C2.56585 14.0747 2.5 13.9158 2.5 13.75V4.375C2.5 4.20924 2.56585 4.05027 2.68306 3.93306C2.80027 3.81585 2.95924 3.75 3.125 3.75C3.29076 3.75 3.44973 3.81585 3.56694 3.93306C3.68415 4.05027 3.75 4.20924 3.75 4.375V8.4375H10.625V4.375C10.625 4.20924 10.6908 4.05027 10.8081 3.93306C10.9253 3.81585 11.0842 3.75 11.25 3.75C11.4158 3.75 11.5747 3.81585 11.6919 3.93306C11.8092 4.05027 11.875 4.20924 11.875 4.375ZM18.75 15H16.25L18.9297 11.4219L18.9453 11.3984C19.2257 10.986 19.3754 10.4987 19.375 10C19.3768 9.42205 19.1783 8.86133 18.8133 8.41323C18.4483 7.96513 17.9393 7.65733 17.373 7.54222C16.8066 7.4271 16.2178 7.51178 15.7069 7.78183C15.1959 8.05188 14.7943 8.49064 14.5703 9.02344C14.505 9.17677 14.5034 9.34974 14.5656 9.50431C14.6279 9.65888 14.749 9.78239 14.9023 9.84766C15.0557 9.91292 15.2286 9.91461 15.3832 9.85234C15.5378 9.79007 15.6613 9.66895 15.7266 9.51562C15.8208 9.28874 15.9802 9.0949 16.1847 8.95862C16.3891 8.82234 16.6293 8.74974 16.875 8.75C17.1009 8.74947 17.3227 8.81017 17.5169 8.92564C17.711 9.04111 17.8703 9.20704 17.9777 9.40579C18.085 9.60453 18.1366 9.82866 18.1267 10.0543C18.1169 10.28 18.0461 10.4988 17.9219 10.6875L14.5078 15.2422C14.4194 15.3499 14.3723 15.4857 14.375 15.625C14.375 15.7566 14.4165 15.8849 14.4937 15.9915C14.5708 16.0981 14.6797 16.1776 14.8047 16.2188C14.8675 16.2405 14.9336 16.251 15 16.25H18.75C18.9158 16.25 19.0747 16.1842 19.1919 16.0669C19.3092 15.9497 19.375 15.7908 19.375 15.625C19.375 15.4592 19.3092 15.3003 19.1919 15.1831C19.0747 15.0658 18.9158 15 18.75 15Z" fill="currentColor"/>
</svg>
