<svg width="20" height="20" viewBox="0 0 20 20" fill="none" xmlns="http://www.w3.org/2000/svg">
<path d="M8.125 1.25H11.875C12.0408 1.25 12.1997 1.18415 12.3169 1.06694C12.4342 0.949732 12.5 0.79076 12.5 0.625C12.5 0.45924 12.4342 0.300269 12.3169 0.183058C12.1997 0.065848 12.0408 0 11.875 0L8.125 0C7.95924 0 7.80027 0.065848 7.68306 0.183058C7.56585 0.300269 7.5 0.45924 7.5 0.625C7.5 0.79076 7.56585 0.949732 7.68306 1.06694C7.80027 1.18415 7.95924 1.25 8.125 1.25Z" fill="currentColor"/>
<path d="M10 2.5C8.51664 2.5 7.0666 2.93987 5.83323 3.76398C4.59986 4.58809 3.63856 5.75943 3.07091 7.12987C2.50325 8.50032 2.35472 10.0083 2.64411 11.4632C2.9335 12.918 3.64781 14.2544 4.6967 15.3033C5.7456 16.3522 7.08197 17.0665 8.53683 17.3559C9.99168 17.6453 11.4997 17.4968 12.8701 16.9291C14.2406 16.3614 15.4119 15.4001 16.236 14.1668C17.0601 12.9334 17.5 11.4834 17.5 10C17.4959 8.01215 16.7044 6.10689 15.2987 4.70126C13.8931 3.29563 11.9879 2.50413 10 2.5ZM13.5391 7.35156L10.4453 10.4453C10.3259 10.5608 10.1662 10.6254 10 10.6254C9.83383 10.6254 9.67415 10.5608 9.55469 10.4453C9.43733 10.3268 9.37149 10.1668 9.37149 10C9.37149 9.83322 9.43733 9.67318 9.55469 9.55469L12.6484 6.46094C12.7045 6.39266 12.7742 6.33687 12.8531 6.29715C12.932 6.25744 13.0183 6.23468 13.1066 6.23035C13.1948 6.22602 13.2829 6.2402 13.3654 6.27199C13.4478 6.30379 13.5226 6.35248 13.5851 6.41494C13.6475 6.4774 13.6962 6.55224 13.728 6.63465C13.7598 6.71706 13.774 6.80522 13.7697 6.89344C13.7653 6.98167 13.7426 7.06801 13.7029 7.14691C13.6631 7.22581 13.6073 7.29552 13.5391 7.35156Z" fill="currentColor"/>
</svg>
