<svg width="20" height="20" viewBox="0 0 20 20" fill="none" xmlns="http://www.w3.org/2000/svg">
<path d="M4 4.51136L4 14.7386C4 15.0211 4.1599 15.25 4.35714 15.25L6.14286 15.25C6.3401 15.25 6.5 15.0211 6.5 14.7386L6.5 4.51136C6.5 4.22895 6.3401 4 6.14286 4L4.35714 4C4.1599 4 4 4.22895 4 4.51136Z" fill="currentColor"/>
<path d="M13 9.28409L13 14.9659C13 15.1228 13.1599 15.25 13.3571 15.25L15.1429 15.25C15.3401 15.25 15.5 15.1228 15.5 14.9659L15.5 9.28409C15.5 9.12719 15.3401 9 15.1429 9L13.3571 9C13.1599 9 13 9.12719 13 9.28409Z" fill="currentColor"/>
<path d="M8.5 6.89773L8.5 14.8523C8.5 15.0719 8.6599 15.25 8.85714 15.25L10.6429 15.25C10.8401 15.25 11 15.0719 11 14.8523L11 6.89773C11 6.67807 10.8401 6.5 10.6429 6.5L8.85714 6.5C8.6599 6.5 8.5 6.67807 8.5 6.89773Z" fill="currentColor"/>
</svg>
