<svg width="20" height="20" viewBox="0 0 20 20" fill="none" xmlns="http://www.w3.org/2000/svg">
<path d="M16.25 2.5H3.75C3.41848 2.5 3.10054 2.6317 2.86612 2.86612C2.6317 3.10054 2.5 3.41848 2.5 3.75V12.4922V16.25C2.5 16.5815 2.6317 16.8995 2.86612 17.1339C3.10054 17.3683 3.41848 17.5 3.75 17.5H16.25C16.5815 17.5 16.8995 17.3683 17.1339 17.1339C17.3683 16.8995 17.5 16.5815 17.5 16.25V3.75C17.5 3.41848 17.3683 3.10054 17.1339 2.86612C16.8995 2.6317 16.5815 2.5 16.25 2.5ZM16.25 16.25H3.75V13.125H5.99219L7.5 14.6328C7.6156 14.7493 7.75314 14.8417 7.90466 14.9047C8.05619 14.9678 8.2187 15.0001 8.38281 15H11.6172C11.7813 15.0001 11.9438 14.9678 12.0953 14.9047C12.2469 14.8417 12.3844 14.7493 12.5 14.6328L14.0078 13.125H16.25V16.25Z" fill="currentColor"/>
</svg>
