<svg width="20" height="20" viewBox="0 0 20 20" fill="none" xmlns="http://www.w3.org/2000/svg">
<path d="M12.1875 7.1875V6.25H11.25C10.9185 6.25 10.6005 6.3817 10.3661 6.61612C10.1317 6.85054 10 7.16848 10 7.5V12.5C10 12.8315 10.1317 13.1495 10.3661 13.3839C10.6005 13.6183 10.9185 13.75 11.25 13.75H12.1875V12.8125C12.1875 12.481 12.3192 12.163 12.5536 11.9286C12.788 11.6942 13.106 11.5625 13.4375 11.5625H16.5625C16.894 11.5625 17.212 11.6942 17.4464 11.9286C17.6808 12.163 17.8125 12.481 17.8125 12.8125V15.9375C17.8125 16.269 17.6808 16.587 17.4464 16.8214C17.212 17.0558 16.894 17.1875 16.5625 17.1875H13.4375C13.106 17.1875 12.788 17.0558 12.5536 16.8214C12.3192 16.587 12.1875 16.269 12.1875 15.9375V15H11.25C10.5876 14.9979 9.9529 14.7339 9.48451 14.2655C9.01611 13.7971 8.75206 13.1624 8.75 12.5V10.625H6.5625V11.25C6.5625 11.5815 6.4308 11.8995 6.19638 12.1339C5.96196 12.3683 5.64402 12.5 5.3125 12.5H2.8125C2.48098 12.5 2.16304 12.3683 1.92862 12.1339C1.6942 11.8995 1.5625 11.5815 1.5625 11.25V8.75C1.5625 8.41848 1.6942 8.10054 1.92862 7.86612C2.16304 7.6317 2.48098 7.5 2.8125 7.5H5.3125C5.64402 7.5 5.96196 7.6317 6.19638 7.86612C6.4308 8.10054 6.5625 8.41848 6.5625 8.75V9.375H8.75V7.5C8.75206 6.83759 9.01611 6.2029 9.48451 5.73451C9.9529 5.26611 10.5876 5.00206 11.25 5H12.1875V4.0625C12.1875 3.73098 12.3192 3.41304 12.5536 3.17862C12.788 2.9442 13.106 2.8125 13.4375 2.8125H16.5625C16.894 2.8125 17.212 2.9442 17.4464 3.17862C17.6808 3.41304 17.8125 3.73098 17.8125 4.0625V7.1875C17.8125 7.51902 17.6808 7.83696 17.4464 8.07138C17.212 8.3058 16.894 8.4375 16.5625 8.4375H13.4375C13.106 8.4375 12.788 8.3058 12.5536 8.07138C12.3192 7.83696 12.1875 7.51902 12.1875 7.1875Z" fill="currentColor"/>
</svg>
