<svg width="20" height="20" viewBox="0 0 20 20" fill="none" xmlns="http://www.w3.org/2000/svg">
<path d="M5.80469 6.07029C5.68732 5.95179 5.62148 5.79176 5.62148 5.62498C5.62148 5.4582 5.68732 5.29816 5.80469 5.17966L9.55469 1.42966C9.67318 1.3123 9.83322 1.24646 10 1.24646C10.1668 1.24646 10.3268 1.3123 10.4453 1.42966L14.1953 5.17966C14.3127 5.29816 14.3785 5.4582 14.3785 5.62498C14.3785 5.79176 14.3127 5.95179 14.1953 6.07029C14.0758 6.1858 13.9162 6.25037 13.75 6.25037C13.5838 6.25037 13.4242 6.1858 13.3047 6.07029L10.625 3.38279V9.99998C10.625 10.1657 10.5592 10.3247 10.4419 10.4419C10.3247 10.5591 10.1658 10.625 10 10.625C9.83424 10.625 9.67527 10.5591 9.55806 10.4419C9.44085 10.3247 9.375 10.1657 9.375 9.99998V3.38279L6.69531 6.07029C6.57682 6.18765 6.41678 6.25349 6.25 6.25349C6.08322 6.25349 5.92318 6.18765 5.80469 6.07029ZM18.75 10.625V15.625C18.75 15.9565 18.6183 16.2744 18.3839 16.5089C18.1495 16.7433 17.8315 16.875 17.5 16.875H2.5C2.16848 16.875 1.85054 16.7433 1.61612 16.5089C1.3817 16.2744 1.25 15.9565 1.25 15.625V10.625C1.25 10.2935 1.3817 9.97551 1.61612 9.74109C1.85054 9.50667 2.16848 9.37498 2.5 9.37498H7.8125C7.89538 9.37498 7.97487 9.4079 8.03347 9.4665C8.09208 9.52511 8.125 9.6046 8.125 9.68748V9.96091C8.125 11.0078 8.98438 11.8984 10.0391 11.875C10.5295 11.8648 10.9965 11.6627 11.3397 11.3122C11.6829 10.9616 11.8751 10.4906 11.875 9.99998V9.68748C11.875 9.6046 11.9079 9.52511 11.9665 9.4665C12.0251 9.4079 12.1046 9.37498 12.1875 9.37498H17.5C17.8315 9.37498 18.1495 9.50667 18.3839 9.74109C18.6183 9.97551 18.75 10.2935 18.75 10.625ZM15.625 13.125C15.625 12.9396 15.57 12.7583 15.467 12.6041C15.364 12.45 15.2176 12.3298 15.0463 12.2588C14.875 12.1879 14.6865 12.1693 14.5046 12.2055C14.3227 12.2417 14.1557 12.331 14.0246 12.4621C13.8935 12.5932 13.8042 12.7602 13.768 12.9421C13.7318 13.1239 13.7504 13.3124 13.8214 13.4837C13.8923 13.655 14.0125 13.8015 14.1667 13.9045C14.3208 14.0075 14.5021 14.0625 14.6875 14.0625C14.9361 14.0625 15.1746 13.9637 15.3504 13.7879C15.5262 13.6121 15.625 13.3736 15.625 13.125Z" fill="currentColor"/>
</svg>
