<svg width="20" height="20" viewBox="0 0 20 20" fill="none" xmlns="http://www.w3.org/2000/svg">
<path d="M9.99987 5.93755C10.6797 5.93755 11.3443 6.13915 11.9096 6.51687C12.4749 6.89459 12.9155 7.43145 13.1757 8.05957C13.4359 8.68769 13.504 9.37886 13.3713 10.0457C13.2387 10.7125 12.9113 11.325 12.4305 11.8057C11.9498 12.2865 11.3373 12.6139 10.6705 12.7465C10.0037 12.8791 9.31251 12.8111 8.68439 12.5509C8.05627 12.2907 7.51941 11.8501 7.14169 11.2848C6.76397 10.7195 6.56237 10.0549 6.56237 9.37505C6.56237 8.46336 6.92453 7.58902 7.56919 6.94437C8.21384 6.29971 9.08819 5.93755 9.99987 5.93755ZM13.7499 5.00005H14.9999V6.25005C14.9999 6.41581 15.0657 6.57478 15.1829 6.69199C15.3001 6.8092 15.4591 6.87505 15.6249 6.87505C15.7906 6.87505 15.9496 6.8092 16.0668 6.69199C16.184 6.57478 16.2499 6.41581 16.2499 6.25005V5.00005H17.4999C17.6656 5.00005 17.8246 4.9342 17.9418 4.81699C18.059 4.69978 18.1249 4.54081 18.1249 4.37505C18.1249 4.20929 18.059 4.05031 17.9418 3.9331C17.8246 3.81589 17.6656 3.75005 17.4999 3.75005H16.2499V2.50005C16.2499 2.33429 16.184 2.17531 16.0668 2.0581C15.9496 1.94089 15.7906 1.87505 15.6249 1.87505C15.4591 1.87505 15.3001 1.94089 15.1829 2.0581C15.0657 2.17531 14.9999 2.33429 14.9999 2.50005V3.75005H13.7499C13.5841 3.75005 13.4251 3.81589 13.3079 3.9331C13.1907 4.05031 13.1249 4.20929 13.1249 4.37505C13.1249 4.54081 13.1907 4.69978 13.3079 4.81699C13.4251 4.9342 13.5841 5.00005 13.7499 5.00005ZM17.3124 8.20317C17.2309 8.21458 17.1526 8.24216 17.0819 8.28428C17.0113 8.32641 16.9498 8.38223 16.901 8.44846C16.8522 8.51469 16.8172 8.59 16.798 8.66997C16.7787 8.74993 16.7756 8.83294 16.7889 8.91411C16.845 9.27339 16.8737 9.63641 16.8749 10C16.8772 11.6824 16.2597 13.3066 15.1405 14.5625C14.6346 13.8368 13.9826 13.2248 13.2264 12.7657C12.3582 13.5975 11.2023 14.0618 9.99987 14.0618C8.79748 14.0618 7.64155 13.5975 6.77331 12.7657C6.01711 13.2248 5.36516 13.8368 4.85924 14.5625C3.98019 13.5717 3.4061 12.3479 3.20601 11.0385C3.00592 9.72914 3.18836 8.38982 3.73138 7.18164C4.2744 5.97346 5.15488 4.94787 6.26694 4.22822C7.37899 3.50856 8.67527 3.12548 9.99987 3.12505C10.3635 3.12618 10.7265 3.15491 11.0858 3.21098C11.2478 3.23318 11.4121 3.19101 11.5433 3.09351C11.6746 2.99602 11.7624 2.85096 11.788 2.68945C11.8135 2.52794 11.7748 2.36285 11.68 2.22959C11.5853 2.09633 11.4421 2.00551 11.2811 1.97661C10.8576 1.90755 10.429 1.87358 9.99987 1.87505C8.3627 1.87561 6.76389 2.37075 5.41296 3.29557C4.06202 4.22039 3.02198 5.53175 2.42913 7.0578C1.83627 8.58385 1.71826 10.2534 2.09055 11.8477C2.46285 13.442 3.30808 14.8866 4.51549 15.9922L4.61706 16.086C6.10241 17.3997 8.01691 18.1249 9.99987 18.1249C11.9828 18.1249 13.8973 17.3997 15.3827 16.086L15.4842 15.9922C16.3172 15.2322 16.9822 14.3066 17.4369 13.2748C17.8916 12.243 18.1259 11.1276 18.1249 10C18.1263 9.57089 18.0924 9.14236 18.0233 8.7188C18.011 8.63804 17.9827 8.56054 17.9402 8.49078C17.8976 8.42103 17.8417 8.36041 17.7756 8.31245C17.7094 8.26448 17.6344 8.23013 17.5549 8.21137C17.4754 8.19261 17.393 8.18982 17.3124 8.20317Z" fill="currentColor"/>
</svg>
