<svg width="20" height="20" viewBox="0 0 20 20" fill="none" xmlns="http://www.w3.org/2000/svg">
<path d="M5.00002 10.9374C5.00107 11.0198 4.98562 11.1015 4.95459 11.1778C4.92355 11.2541 4.87755 11.3234 4.8193 11.3817C4.76106 11.4399 4.69174 11.4859 4.61544 11.517C4.53914 11.548 4.45739 11.5634 4.37502 11.5624H0.937525C0.821415 11.5615 0.707744 11.529 0.608666 11.4684C0.509589 11.4079 0.42883 11.3215 0.375025 11.2186C0.324992 11.1139 0.304377 10.9975 0.315386 10.8819C0.326395 10.7663 0.368612 10.6559 0.437525 10.5624C0.99064 9.81992 1.72871 9.2354 2.57815 8.86709C2.21314 8.53297 1.9327 8.11694 1.75991 7.65325C1.58711 7.18956 1.5269 6.69147 1.58423 6.19996C1.64156 5.70845 1.81479 5.23759 2.08967 4.82612C2.36455 4.41464 2.73321 4.07433 3.16531 3.83319C3.59742 3.59204 4.08061 3.45696 4.57513 3.43906C5.06964 3.42116 5.56134 3.52094 6.00975 3.73021C6.45816 3.93948 6.85047 4.25224 7.15438 4.64276C7.45829 5.03328 7.66512 5.49039 7.75784 5.97646C7.78095 6.10306 7.76492 6.23369 7.71188 6.35094C7.65883 6.4682 7.57131 6.56649 7.46096 6.63271C6.45052 7.23189 5.68202 8.16626 5.28909 9.27334C5.09539 9.80665 4.99753 10.37 5.00002 10.9374ZM19.5625 10.5624C19.0094 9.81992 18.2713 9.2354 17.4219 8.86709C17.7869 8.53297 18.0673 8.11694 18.2401 7.65325C18.4129 7.18956 18.4732 6.69147 18.4158 6.19996C18.3585 5.70845 18.1853 5.23759 17.9104 4.82612C17.6355 4.41464 17.2668 4.07433 16.8347 3.83319C16.4026 3.59204 15.9194 3.45696 15.4249 3.43906C14.9304 3.42116 14.4387 3.52094 13.9903 3.73021C13.5419 3.93948 13.1496 4.25224 12.8457 4.64276C12.5418 5.03328 12.3349 5.49039 12.2422 5.97646C12.2191 6.10306 12.2351 6.23369 12.2882 6.35094C12.3412 6.4682 12.4287 6.56649 12.5391 6.63271C13.5509 7.23036 14.3198 8.16526 14.711 9.27334C14.9047 9.80665 15.0025 10.37 15 10.9374C14.999 11.0198 15.0144 11.1015 15.0455 11.1778C15.0765 11.2541 15.1225 11.3234 15.1807 11.3817C15.239 11.4399 15.3083 11.4859 15.3846 11.517C15.4609 11.548 15.5427 11.5634 15.625 11.5624H19.0625C19.1786 11.5624 19.2924 11.5301 19.3911 11.4691C19.4898 11.408 19.5696 11.3207 19.6215 11.2169C19.6735 11.1131 19.6954 10.9969 19.685 10.8813C19.6746 10.7657 19.6322 10.6553 19.5625 10.5624ZM12.2813 13.914C12.9033 13.4372 13.3603 12.7775 13.5881 12.0277C13.8159 11.2778 13.8031 10.4754 13.5513 9.73322C13.2996 8.99103 12.8217 8.34635 12.1847 7.88977C11.5478 7.4332 10.7837 7.18766 10 7.18766C9.21631 7.18766 8.4523 7.4332 7.81532 7.88977C7.17835 8.34635 6.70043 8.99103 6.44871 9.73322C6.197 10.4754 6.18414 11.2778 6.41194 12.0277C6.63974 12.7775 7.09676 13.4372 7.71878 13.914C6.50356 14.4535 5.51837 15.4055 4.93752 16.6015C4.89131 16.6965 4.87061 16.8019 4.87746 16.9074C4.88431 17.0129 4.91847 17.1147 4.97659 17.203C5.03068 17.2936 5.10735 17.3685 5.1991 17.4206C5.29086 17.4726 5.39454 17.4999 5.50003 17.4999H14.5C14.6055 17.4999 14.7092 17.4726 14.8009 17.4206C14.8927 17.3685 14.9694 17.2936 15.0235 17.203C15.0816 17.1147 15.1157 17.0129 15.1226 16.9074C15.1294 16.8019 15.1087 16.6965 15.0625 16.6015C14.4817 15.4055 13.4965 14.4535 12.2813 13.914Z" fill="currentColor"/>
</svg>
