<svg
  xmlns="http://www.w3.org/2000/svg"
  width="20"
  height="20"
  viewBox="0 0 20 20"
  fill="none"
>
  <path
    opacity="0.2"
    d="M17.3718 6.36432L9.8718 10.7393L2.3718 6.36432L9.8718 1.98932L17.3718 6.36432Z"
    fill="currentColor"
  />
  <path
    d="M18.3094 13.2813C18.4334 13.4961 18.4671 13.7514 18.4033 13.9911C18.3394 14.2308 18.1832 14.4354 17.9688 14.5602L10.4688 18.9352C10.3253 19.0189 10.1622 19.063 9.9961 19.063C9.83 19.063 9.66689 19.0189 9.52345 18.9352L2.02345 14.5602C1.80858 14.4349 1.65227 14.2294 1.5889 13.9889C1.52554 13.7484 1.5603 13.4926 1.68556 13.2777C1.81081 13.0629 2.01629 12.9066 2.25679 12.8432C2.49729 12.7798 2.75311 12.8146 2.96798 12.9398L9.99923 17.0398L17.0313 12.9398C17.2461 12.8162 17.5013 12.7827 17.7408 12.8467C17.9803 12.9106 18.1848 13.0669 18.3094 13.2813ZM17.0313 9.18985L10 13.2898L2.97267 9.18985C2.75841 9.07481 2.50783 9.04753 2.27384 9.11377C2.03984 9.18001 1.84075 9.33458 1.71858 9.54485C1.59641 9.75513 1.56073 10.0046 1.61907 10.2407C1.67741 10.4768 1.82521 10.681 2.03126 10.8102L9.53126 15.1852C9.6747 15.2689 9.83782 15.313 10.0039 15.313C10.17 15.313 10.3331 15.2689 10.4766 15.1852L17.9766 10.8102C18.1914 10.6848 18.3477 10.4792 18.411 10.2387C18.4743 9.99808 18.4394 9.74221 18.3141 9.52735C18.1887 9.31248 17.9831 9.15621 17.7426 9.09292C17.502 9.02962 17.2461 9.06449 17.0313 9.18985ZM1.56251 6.25C1.56281 6.08573 1.60628 5.92443 1.68855 5.78224C1.77081 5.64006 1.889 5.52198 2.03126 5.43985L9.53126 1.06485C9.67486 0.981571 9.83791 0.937714 10.0039 0.937714C10.1699 0.937714 10.333 0.981571 10.4766 1.06485L17.9766 5.43985C18.1183 5.52236 18.2359 5.6406 18.3176 5.78276C18.3993 5.92492 18.4423 6.08603 18.4423 6.25C18.4423 6.41398 18.3993 6.57509 18.3176 6.71725C18.2359 6.85941 18.1183 6.97765 17.9766 7.06016L10.4766 11.4352C10.3331 11.5189 10.17 11.563 10.0039 11.563C9.83782 11.563 9.6747 11.5189 9.53126 11.4352L2.03126 7.06016C1.889 6.97802 1.77081 6.85995 1.68855 6.71777C1.60628 6.57558 1.56281 6.41427 1.56251 6.25ZM4.36095 6.25L10 9.53985L15.6391 6.25L10 2.96016L4.36095 6.25Z"
    fill="currentColor"
  />
</svg>
