<svg width="20" height="20" viewBox="0 0 20 20" fill="none" xmlns="http://www.w3.org/2000/svg">
<path d="M9.01304 2.26141C9.62078 1.91286 10.3593 1.91286 10.9671 2.26141L17.463 5.98133C18.1523 6.37656 18.1523 7.39938 17.463 7.79461L10.9671 11.5145C10.3593 11.8631 9.62078 11.8631 9.01304 11.5145L2.51708 7.79461C1.82784 7.39938 1.82784 6.37656 2.51708 5.98133L9.01304 2.26141ZM17.463 14.0187L10.9671 17.7386C10.3593 18.0871 9.62078 18.0871 9.01304 17.7386L2.51708 14.0187C1.89325 13.6608 1.83388 12.7894 2.33899 12.334C2.39232 12.3817 2.45168 12.4253 2.51708 12.4627L9.01304 16.1826C9.62078 16.5311 10.3593 16.5311 10.9671 16.1826L17.463 12.4627C17.5284 12.4253 17.5878 12.3817 17.6411 12.334C18.1462 12.7894 18.0868 13.6608 17.463 14.0187ZM17.4872 10.9046L11.0787 14.6214C10.472 14.973 9.73347 14.9772 9.12372 14.6317L2.54224 10.9098C1.91337 10.5539 1.85199 9.67842 2.35911 9.22199C2.41345 9.27075 2.47482 9.31535 2.54224 9.35373L9.12372 13.0757C9.73347 13.4212 10.472 13.417 11.0787 13.0654L17.4872 9.34855C17.5506 9.3112 17.6089 9.26867 17.6602 9.22199C18.1653 9.67635 18.107 10.5446 17.4872 10.9046Z" fill="currentColor"/>
</svg>
