<svg width="20" height="20" viewBox="0 0 20 20" fill="none" xmlns="http://www.w3.org/2000/svg">
<path d="M18.4921 14.6875L11.6249 2.81251C11.4605 2.52691 11.2237 2.28968 10.9384 2.12473C10.6532 1.95978 10.3294 1.87292 9.99991 1.87292C9.67037 1.87292 9.34665 1.95978 9.06136 2.12473C8.77608 2.28968 8.53931 2.52691 8.37491 2.81251L1.50772 14.6875C1.3409 14.9717 1.25224 15.2949 1.25075 15.6244C1.24926 15.9539 1.335 16.2779 1.49924 16.5636C1.66349 16.8492 1.9004 17.0863 2.18593 17.2508C2.47145 17.4153 2.79541 17.5012 3.12491 17.5H16.8749C17.2044 17.5012 17.5284 17.4153 17.8139 17.2508C18.0994 17.0863 18.3363 16.8492 18.5006 16.5636C18.6648 16.2779 18.7505 15.9539 18.7491 15.6244C18.7476 15.2949 18.6589 14.9717 18.4921 14.6875ZM9.37491 8.12501C9.37491 7.95925 9.44075 7.80028 9.55796 7.68307C9.67517 7.56586 9.83415 7.50001 9.99991 7.50001C10.1657 7.50001 10.3246 7.56586 10.4418 7.68307C10.5591 7.80028 10.6249 7.95925 10.6249 8.12501V11.25C10.6249 11.4158 10.5591 11.5747 10.4418 11.692C10.3246 11.8092 10.1657 11.875 9.99991 11.875C9.83415 11.875 9.67517 11.8092 9.55796 11.692C9.44075 11.5747 9.37491 11.4158 9.37491 11.25V8.12501ZM9.99991 15C9.81449 15 9.63323 14.945 9.47906 14.842C9.32489 14.739 9.20473 14.5926 9.13377 14.4213C9.06281 14.25 9.04425 14.0615 9.08042 13.8796C9.11659 13.6978 9.20588 13.5307 9.33699 13.3996C9.4681 13.2685 9.63515 13.1792 9.81701 13.143C9.99887 13.1069 10.1874 13.1254 10.3587 13.1964C10.53 13.2673 10.6764 13.3875 10.7794 13.5417C10.8824 13.6958 10.9374 13.8771 10.9374 14.0625C10.9374 14.3112 10.8386 14.5496 10.6628 14.7254C10.487 14.9012 10.2485 15 9.99991 15Z" fill="currentColor"/>
</svg>
