<svg width="20" height="20" viewBox="0 0 20 20" fill="none" xmlns="http://www.w3.org/2000/svg">
  <rect opacity="0.2" x="19" y="19" width="18" height="18" rx="9" transform="rotate(-180 19 19)" fill="currentColor" />
  <path d="M9 12H11L11 5H9L9 12Z" fill="currentColor" />
  <path d="M9 13V15H11V13H9Z" fill="currentColor" />
  <path fill-rule="evenodd" clip-rule="evenodd"
    d="M19 10C19 14.9706 14.9706 19 10 19C5.02944 19 1 14.9706 1 10C1 5.02944 5.02944 1 10 1C14.9706 1 19 5.02944 19 10ZM10 3C13.866 3 17 6.13401 17 10C17 13.866 13.866 17 10 17C6.13401 17 3 13.866 3 10C3 6.13401 6.13401 3 10 3Z"
    fill="currentColor" />
</svg>
