<svg width="20" height="20" viewBox="0 0 20 20" fill="none" xmlns="http://www.w3.org/2000/svg">
<path d="M9.06251 10.3128V6.25031C9.06251 6.00167 9.16128 5.76321 9.33709 5.5874C9.51291 5.41158 9.75137 5.31281 10 5.31281C10.2486 5.31281 10.4871 5.41158 10.6629 5.5874C10.8387 5.76321 10.9375 6.00167 10.9375 6.25031V10.3128C10.9375 10.5615 10.8387 10.7999 10.6629 10.9757C10.4871 11.1515 10.2486 11.2503 10 11.2503C9.75137 11.2503 9.51291 11.1515 9.33709 10.9757C9.16128 10.7999 9.06251 10.5615 9.06251 10.3128ZM18.4375 7.15266V12.848C18.4381 13.0532 18.3979 13.2566 18.3193 13.4462C18.2407 13.6358 18.1253 13.808 17.9797 13.9527L13.9523 17.98C13.8077 18.1256 13.6355 18.2411 13.4459 18.3197C13.2563 18.3983 13.0529 18.4384 12.8477 18.4378H7.15235C6.94708 18.4384 6.74373 18.3983 6.5541 18.3197C6.36447 18.2411 6.19233 18.1256 6.04766 17.98L2.02032 13.9527C1.87473 13.808 1.7593 13.6358 1.68071 13.4462C1.60213 13.2566 1.56195 13.0532 1.56251 12.848V7.15266C1.56195 6.94739 1.60213 6.74406 1.68071 6.55444C1.7593 6.36481 1.87473 6.19266 2.02032 6.04797L6.04766 2.02062C6.19233 1.875 6.36447 1.75955 6.5541 1.68096C6.74373 1.60237 6.94708 1.56221 7.15235 1.56281H12.8477C13.0529 1.56221 13.2563 1.60237 13.4459 1.68096C13.6355 1.75955 13.8077 1.875 13.9523 2.02062L17.9797 6.04797C18.1253 6.19266 18.2407 6.36481 18.3193 6.55444C18.3979 6.74406 18.4381 6.94739 18.4375 7.15266ZM16.5625 7.28234L12.718 3.43781H7.28204L3.43751 7.28234V12.7183L7.28204 16.5628H12.718L16.5625 12.7183V7.28234ZM10 12.1878C9.75278 12.1878 9.5111 12.2611 9.30554 12.3985C9.09998 12.5358 8.93977 12.731 8.84516 12.9595C8.75055 13.1879 8.72579 13.4392 8.77402 13.6817C8.82226 13.9242 8.94131 14.1469 9.11612 14.3217C9.29094 14.4965 9.51367 14.6156 9.75614 14.6638C9.99862 14.712 10.25 14.6873 10.4784 14.5927C10.7068 14.4981 10.902 14.3378 11.0393 14.1323C11.1767 13.9267 11.25 13.685 11.25 13.4378C11.25 13.1063 11.1183 12.7883 10.8839 12.5539C10.6495 12.3195 10.3315 12.1878 10 12.1878Z" fill="currentColor"/>
</svg>
