<svg width="20" height="20" viewBox="0 0 40 40" fill="none" xmlns="http://www.w3.org/2000/svg">
  <path d="M7.83575 26.25L13.917 15.714L13.567 15.1078C13.0438 14.23 12.7055 13.2546 12.5729 12.2414C12.4402 11.2282 12.516 10.1986 12.7956 9.21574C13.0752 8.23289 13.5527 7.31753 14.1988 6.52585C14.8448 5.73417 15.6459 5.08287 16.5527 4.6119C17.4596 4.14094 18.4531 3.86026 19.4723 3.78708C20.4915 3.7139 21.515 3.84977 22.4798 4.18635C23.4446 4.52293 24.3305 5.05312 25.083 5.74438C25.8356 6.43564 26.4389 7.27339 26.8561 8.20622C26.987 8.49103 27.0085 8.81406 26.9166 9.11374C26.8247 9.41342 26.6257 9.6688 26.3576 9.83122C26.2052 9.91972 26.0358 9.97498 25.8606 9.9934C25.6853 10.0118 25.5081 9.99296 25.3406 9.93807C25.1732 9.88318 25.0192 9.7935 24.8888 9.67491C24.7585 9.55632 24.6546 9.41151 24.5842 9.24997C24.3083 8.62646 23.9078 8.06596 23.4074 7.60292C22.9069 7.13989 22.317 6.7841 21.674 6.55744C21.0309 6.33078 20.3483 6.23803 19.6681 6.28489C18.9879 6.33175 18.3245 6.51724 17.7186 6.82994C17.1127 7.14265 16.5772 7.57597 16.1449 8.10326C15.7127 8.63055 15.3929 9.24068 15.2051 9.89614C15.0173 10.5516 14.9656 11.2385 15.0531 11.9147C15.1406 12.5909 15.3655 13.242 15.7139 13.8281C15.7189 13.8343 15.7231 13.8411 15.7264 13.8484L17.8873 17.589C17.997 17.7791 18.0548 17.9946 18.0548 18.214C18.0548 18.4335 17.997 18.649 17.8873 18.839L12.1654 28.75C11.8296 29.3154 11.2844 29.7258 10.648 29.892C10.0117 30.0583 9.33549 29.9671 8.76592 29.6383C8.19635 29.3094 7.77933 28.7693 7.60521 28.1351C7.4311 27.5009 7.51393 26.8236 7.83575 26.25ZM29.867 20H27.9389L22.1654 9.99997C21.8296 9.4345 21.2844 9.02417 20.6481 8.8579C20.0117 8.69162 19.3355 8.7828 18.7659 9.11168C18.1964 9.44055 17.7793 9.98063 17.6052 10.6149C17.4311 11.2491 17.5139 11.9264 17.8358 12.5L23.2482 21.875C23.3579 22.0648 23.5154 22.2225 23.7052 22.3322C23.895 22.4419 24.1103 22.4997 24.3295 22.5H29.8967C32.692 22.5 35.0451 24.7875 34.9998 27.5828C34.9783 28.8861 34.4486 30.1295 33.5237 31.048C32.5988 31.9665 31.3517 32.4875 30.0482 32.5C29.7289 32.4961 29.4195 32.6113 29.1804 32.823C28.9412 33.0347 28.7894 33.3278 28.7545 33.6453C28.74 33.818 28.7615 33.9919 28.8178 34.1558C28.8741 34.3198 28.9639 34.4703 29.0814 34.5977C29.199 34.7251 29.3418 34.8266 29.5007 34.8959C29.6596 34.9651 29.8312 35.0006 30.0045 35C31.0015 34.9991 31.9883 34.7997 32.9073 34.4133C33.8264 34.027 34.6593 33.4615 35.3575 32.7498C36.0556 32.0381 36.605 31.1945 36.9737 30.2682C37.3423 29.3419 37.5228 28.3515 37.5045 27.3547C37.4201 23.2484 33.9811 20 29.8732 20H29.867ZM32.4998 27.3797C32.4373 26.0343 31.2779 25 29.9326 25H17.9389C17.7194 24.9999 17.5038 25.0577 17.3137 25.1674C17.1236 25.2771 16.9658 25.4349 16.8561 25.625L14.3311 30C13.9903 30.5877 13.5333 31.0997 12.988 31.5049C12.4427 31.9101 11.8205 32.2 11.1595 32.3567C10.4985 32.5135 9.81242 32.5339 9.14324 32.4167C8.47407 32.2995 7.83579 32.0472 7.26738 31.6751C6.69896 31.303 6.21233 30.819 5.83719 30.2526C5.46205 29.6862 5.20626 29.0493 5.08545 28.3808C4.96464 27.7123 4.98133 27.0261 5.13451 26.3643C5.28769 25.7024 5.57414 25.0787 5.97638 24.5312C6.17066 24.2782 6.26359 23.9619 6.23701 23.644C6.21042 23.3262 6.06623 23.0297 5.83263 22.8125C5.70348 22.6974 5.55185 22.6104 5.38733 22.5569C5.22282 22.5035 5.049 22.4847 4.87687 22.5019C4.70475 22.5191 4.53806 22.5718 4.38736 22.6567C4.23666 22.7417 4.10523 22.8569 4.00138 22.9953C3.03717 24.273 2.5106 25.8275 2.49981 27.4281C2.48497 29.0843 3.0188 30.6989 4.018 32.0198C5.0172 33.3408 6.42556 34.2938 8.02333 34.7303C9.6211 35.1667 11.3184 35.0619 12.8504 34.4323C14.3823 33.8028 15.6628 32.6838 16.492 31.25L17.2139 30H29.9998C30.3385 30.0004 30.6737 29.9319 30.9852 29.7988C31.2966 29.6658 31.5777 29.4708 31.8115 29.2257C32.0453 28.9807 32.2269 28.6907 32.3452 28.3734C32.4635 28.056 32.5161 27.7179 32.4998 27.3797Z" fill="currentColor"/>
</svg>
