<svg width="20" height="20" viewBox="0 0 20 20" fill="none" xmlns="http://www.w3.org/2000/svg">
<path d="M18.3047 5.45313C18.2329 5.1651 18.0923 4.89878 17.895 4.67699C17.6977 4.4552 17.4496 4.28456 17.1719 4.17969C14.5 3.14844 10.2344 3.15625 10 3.15625C9.76562 3.15625 5.5 3.14844 2.82812 4.17969C2.55042 4.28456 2.30229 4.4552 2.10499 4.67699C1.9077 4.89878 1.76712 5.1651 1.69531 5.45313C1.49219 6.22656 1.25 7.64844 1.25 10C1.25 12.3516 1.49219 13.7734 1.69531 14.5469C1.76712 14.8349 1.9077 15.1012 2.10499 15.323C2.30229 15.5448 2.55042 15.7154 2.82812 15.8203C5.39062 16.8125 9.40625 16.8438 9.94531 16.8438H10.0547C10.5938 16.8438 14.6094 16.8125 17.1719 15.8203C17.4496 15.7154 17.6977 15.5448 17.895 15.323C18.0923 15.1012 18.2329 14.8349 18.3047 14.5469C18.5078 13.7734 18.75 12.3516 18.75 10C18.75 7.64844 18.5078 6.22656 18.3047 5.45313ZM12.6719 10.2578L8.92188 12.7578C8.87214 12.7944 8.81174 12.8136 8.75 12.8125C8.69825 12.8106 8.64756 12.7972 8.60156 12.7734C8.55163 12.7475 8.50986 12.7082 8.4809 12.6599C8.45194 12.6116 8.43692 12.5563 8.4375 12.5V7.5C8.43692 7.44372 8.45194 7.38837 8.4809 7.34011C8.50986 7.29184 8.55163 7.25254 8.60156 7.22656C8.65138 7.19999 8.70748 7.1874 8.76388 7.19016C8.82028 7.19291 8.87488 7.21089 8.92188 7.24219L12.6719 9.74219C12.7154 9.76963 12.7514 9.80768 12.7762 9.85276C12.8011 9.89785 12.8142 9.9485 12.8142 10C12.8142 10.0515 12.8011 10.1022 12.7762 10.1472C12.7514 10.1923 12.7154 10.2304 12.6719 10.2578Z" fill="currentColor"/>
</svg>
