<svg width="1609" height="300" viewBox="0 0 1609 300" fill="none" xmlns="http://www.w3.org/2000/svg">
<path d="M150 300C215.729 300 252.269 300 276.134 276.134C300 252.269 300 215.729 300 150C300 84.2708 300 47.7311 276.134 23.8655C252.269 -4.61455e-06 215.729 0 150 0C84.2708 0 47.7311 -4.61455e-06 23.8655 23.8655C-4.61455e-06 47.7311 0 84.2708 0 150C0 215.729 -4.61455e-06 252.269 23.8655 276.134C47.7311 300 84.2708 300 150 300Z" fill="black"/>
<path d="M71.7031 127.555V149.932L158.337 150.11L163.448 127.733L71.7031 127.555Z" fill="white"/>
<path d="M71.7031 82.7133V105.09L168.56 105.268L169.426 101.361C171.592 91.9481 164.661 82.8909 155.218 82.8909L71.7031 82.7133Z" fill="white"/>
<path d="M153.113 172.488L158.224 150.111L213.063 150.2L205.006 172.576L153.113 172.488Z" fill="white"/>
<path d="M163.375 127.729L168.573 105.352L246.716 105.085L237.533 127.373L163.375 127.729Z" fill="white"/>
<path d="M71.7031 172.29V194.667L148.027 194.844L153.139 172.468L71.7031 172.29Z" fill="white"/>
<path d="M180.567 217.311H164.713C153.277 217.311 144.96 206.122 147.906 194.845H189.317L180.567 217.311Z" fill="white"/>
<path d="M544.804 237.095H583.75L587.526 213.949H594.607C600.272 230.954 615.614 239.456 631.429 239.456C664.237 239.456 684.3 218.2 684.3 172.853C684.3 132.938 667.778 106.25 632.373 106.25C615.378 106.25 600.272 116.406 594.607 131.521H587.526L589.887 96.0939V59.958H544.804V237.095ZM589.887 176.868V169.074C589.887 152.541 599.092 142.386 615.142 142.386C629.068 142.386 638.51 148.526 638.51 164.351V181.592C638.51 194.582 632.137 203.321 615.378 203.321C598.62 203.321 589.887 193.165 589.887 176.868Z" fill="black"/>
<path d="M696.095 173.089C696.095 213.004 722.294 239.456 762.184 239.456C795.229 239.456 819.54 221.979 822.845 195.054H779.887C778.706 202.376 771.153 206.627 760.768 206.627C750.146 206.627 741.413 200.014 741.413 190.094V183.481H821.429C822.845 178.521 823.317 171.672 823.317 165.059C823.317 126.798 795.701 106.25 760.768 106.25C724.419 106.25 696.095 130.34 696.095 173.089ZM741.413 156.556V153.958C741.413 145.456 749.438 139.315 760.296 139.315C771.153 139.315 778.234 145.456 778.234 153.958V156.556H741.413Z" fill="black"/>
<path d="M928.409 107.903C914.011 107.903 902.917 116.169 899.377 136.717H892.296L886.867 108.612H827.623V144.747H847.213V237.095H892.296V184.662C892.296 157.737 909.054 150.18 928.173 150.18C930.769 150.18 933.366 150.416 936.198 150.652V108.612C934.31 108.139 931.242 107.903 928.409 107.903Z" fill="black"/>
<path d="M948.183 108.612V276.537H993.265V249.612L990.905 214.185H997.986C1003.65 229.301 1018.76 239.456 1035.75 239.456C1071.16 239.456 1087.68 212.768 1087.68 172.853C1087.68 127.506 1067.62 106.25 1034.81 106.25C1018.99 106.25 1003.65 114.752 997.986 131.757H990.905L987.128 108.612H948.183ZM993.265 168.838C993.265 152.541 1002 142.386 1018.76 142.386C1035.52 142.386 1041.89 151.124 1041.89 164.114V181.356C1041.89 197.18 1032.45 203.321 1018.52 203.321C1002.47 203.321 993.265 193.165 993.265 176.632V168.838Z" fill="black"/>
<path d="M1143.67 202.14V59.958H1098.82V202.848C1098.82 223.396 1107.08 237.095 1133.05 237.095H1172.93V202.14H1143.67Z" fill="black"/>
<path d="M1181.22 200.959C1181.22 224.577 1198.45 239.456 1224.88 239.456C1246.84 239.456 1262.18 229.301 1267.13 214.185H1273.51V237.095H1320.71V204.029H1304.43V152.778C1304.43 124.908 1288.38 106.25 1247.31 106.25C1209.54 106.25 1187.59 122.546 1189.01 154.195H1230.31C1229.6 143.566 1235.98 140.024 1245.18 140.024C1253.92 140.024 1259.58 143.566 1259.58 152.541V161.516L1223.7 163.878C1198.45 165.531 1181.22 177.341 1181.22 200.959ZM1226.54 194.818C1226.54 189.858 1230.08 185.135 1238.1 184.662L1259.58 183.245V198.125C1256.04 203.557 1248.96 207.099 1240.23 207.099C1230.79 207.099 1226.54 203.084 1226.54 197.652V194.818Z" fill="black"/>
<path d="M1334.39 237.095H1379.48V168.366C1379.48 153.25 1387.03 142.622 1402.13 142.622C1414.88 142.622 1421.96 149.943 1421.96 165.768V237.095H1467.28V149.943C1467.28 123.727 1452.88 106.25 1427.15 106.25C1407.33 106.25 1393.17 115.461 1386.56 131.521H1379.48L1374.05 108.612H1334.39V237.095Z" fill="black"/>
<path d="M1481.76 173.089C1481.76 213.004 1507.96 239.456 1547.85 239.456C1580.9 239.456 1605.21 221.979 1608.52 195.054H1565.56C1564.38 202.376 1556.82 206.627 1546.44 206.627C1535.82 206.627 1527.08 200.014 1527.08 190.094V183.481H1607.1C1608.52 178.521 1608.99 171.672 1608.99 165.059C1608.99 126.798 1581.37 106.25 1546.44 106.25C1510.09 106.25 1481.76 130.34 1481.76 173.089ZM1527.08 156.556V153.958C1527.08 145.456 1535.11 139.315 1545.97 139.315C1556.82 139.315 1563.9 145.456 1563.9 153.958V156.556H1527.08Z" fill="black"/>
<path d="M440.677 108.624H529.651V237.095H484.357V144.721H440.677V237.095H395.383V144.721H371.987V108.624H395.383V97.5534C395.383 94.555 395.422 92.3639 395.498 90.98C395.575 89.5192 395.806 87.7125 396.19 85.5598C396.651 83.4071 397.343 81.1006 398.265 78.6404C402.798 66.1855 414.361 59.958 432.955 59.958H469.707V94.901H440.677V108.624ZM484.587 94.901V59.958H529.651V94.901H484.587Z" fill="black"/>
</svg>
